<svg width="905" height="581" viewBox="0 0 905 581" fill="none" xmlns="http://www.w3.org/2000/svg">
<g style="mix-blend-mode:multiply" opacity="0.6">
<path d="M857.857 454.104C857.857 468.9 574.897 558.022 483.162 544.694C399.462 532.534 26.4297 485.683 26.4297 470.887C26.4297 456.091 109.374 450 193.959 450C278.545 450 857.857 439.2 857.857 454.104Z" fill="#D6E0EF"/>
</g>
<path d="M722.965 136.282C698.773 112.392 674.97 112.522 646.652 125.179C618.335 137.837 619.933 169.006 579.692 166.392C519.212 162.483 526.859 273.463 595.482 258.149C724.391 229.399 701.171 314.309 770.658 301.003C878.917 280.159 882.179 197.323 841.938 166.284C801.697 135.245 776.317 188.964 722.965 136.282Z" fill="#62D5FF"/>
<path d="M832.995 145.094C819.517 130.773 757.849 99.7341 754.544 139.737C751.239 179.74 737.264 206.006 781.997 195.508C826.731 185.011 851.593 164.88 832.995 145.094Z" fill="#9CEAFF"/>
<path d="M857.576 370.08C871.853 359.431 900.646 325.929 876.821 298.389C855.437 273.679 814.722 283.55 809.862 324.914C804.548 371.182 837.855 384.746 857.576 370.08Z" fill="#62D5FF"/>
<path d="M200.116 124.531C182.296 95.1552 158.579 89.7984 127.756 95.5872C96.9325 101.376 91.0357 132.307 52.1557 120.254C-6.16431 102.132 -25.0643 212.962 45.9997 214.15C179.466 216.31 94.6645 293.443 165.88 286.942C237.095 280.44 325.72 188.014 293.471 147.946C261.222 107.878 243.337 195.811 200.116 124.531Z" fill="#62D5FF"/>
<path d="M16.5796 215.51C5.41241 227.606 -18.542 288.95 57.3388 294.998C133.22 301.046 154.928 164.685 112.829 170.258C70.7308 175.831 26.6236 204.624 16.5796 215.51Z" fill="#00ABFF"/>
<path d="M550.77 508.32L850.102 454.687C850.102 454.687 812.778 427.99 843.731 372.607L550.748 425.095C507.159 476.222 550.77 508.32 550.77 508.32Z" fill="#EBE8DD"/>
<path d="M550.771 425.074L91.8789 371.441L387.864 324.655L850.104 371.441L550.771 425.074Z" fill="#FFA31B"/>
<path d="M552.845 431.985L850.104 377.985V371.505L550.771 425.073L537.401 430.797L525.693 464.601L535.5 505.101L545.069 504.216L550.706 508.233L850.104 454.536V448.056L551.16 499.269C545.026 489.051 541.927 477.297 542.226 465.383C542.524 453.468 546.207 441.884 552.845 431.985Z" fill="#FF841B"/>
<path d="M550.77 508.32L91.8785 454.622C60.2561 450.065 64.6625 367.51 91.8785 371.441L550.77 425.073C529.343 444.362 528.76 490.37 550.77 508.32Z" fill="#FFC507"/>
<g style="mix-blend-mode:multiply">
<path d="M555.393 449.093C628.163 440.453 796.47 404.856 796.47 404.856C796.47 404.856 626.284 433.173 555.393 449.093Z" fill="#EBE8DD"/>
</g>
<g style="mix-blend-mode:multiply">
<path d="M558.156 484.279C589.476 489.398 817.076 438.271 817.076 438.271C817.076 438.271 604.942 474.84 558.156 484.279Z" fill="#EBE8DD"/>
</g>
<g style="mix-blend-mode:multiply">
<path d="M555.221 465.854C621.166 464.256 769.471 430.02 769.471 430.02C769.471 430.02 600.624 453.456 555.221 465.854Z" fill="#EBE8DD"/>
</g>
<g style="mix-blend-mode:multiply" opacity="0.6">
<path d="M70.8396 412.178C68.4204 425.138 73.6908 446.285 87.342 453.37C113.737 457.193 550.77 508.32 550.77 508.32L850.103 454.687L830.49 430.085L535.24 477.259L70.8396 412.178Z" fill="#D6E0EF"/>
</g>
<path d="M564.982 449.46C564.982 449.46 569.713 459.655 569.713 496.98L578.677 480.953L587.317 488.858C587.317 488.858 586.647 450.756 581.161 446.371L564.982 449.46Z" fill="#FF841B"/>
<path d="M533.49 410.429L775.842 370.663C775.842 370.663 745.602 332.323 770.679 291.283L533.468 330.163C498.217 368.115 533.49 410.429 533.49 410.429Z" fill="#EBE8DD"/>
<path d="M533.491 330.206L161.949 290.441L401.601 255.751L775.843 290.441L533.491 330.206Z" fill="#E36B7B"/>
<path d="M535.241 335.325L775.908 295.322V290.441L533.556 330.206L522.756 334.526L513.273 359.582L521.222 408.161L528.955 407.513L533.534 410.493L775.886 370.663V365.76L537.228 403.689C527.681 399.585 519.494 357.703 535.241 335.325Z" fill="#E35566"/>
<path d="M533.489 410.429L161.969 370.663C136.373 367.293 139.937 287.525 161.969 290.441L533.489 330.206C516.145 344.505 515.799 397.166 533.489 410.429Z" fill="#E3546C"/>
<g style="mix-blend-mode:multiply">
<path d="M553.254 389.736C648.078 375.847 747.913 354.571 747.913 354.571C747.913 354.571 623.605 371.268 553.254 389.736Z" fill="#EBE8DD"/>
</g>
<g style="mix-blend-mode:multiply">
<path d="M536.73 386.021C631.554 372.132 731.39 350.856 731.39 350.856C731.39 350.856 607.103 367.531 536.73 386.021Z" fill="#EBE8DD"/>
</g>
<g style="mix-blend-mode:multiply">
<path d="M576.994 353.059C653.933 341.784 734.955 324.525 734.955 324.525C734.955 324.525 634.083 338.047 576.994 353.059Z" fill="#EBE8DD"/>
</g>
<g style="mix-blend-mode:multiply">
<path d="M549.496 349.279C644.32 335.39 744.155 314.114 744.155 314.114C744.155 314.114 619.847 330.789 549.496 349.279Z" fill="#EBE8DD"/>
</g>
<g style="mix-blend-mode:multiply">
<path d="M536.73 370.642C631.554 356.753 731.39 335.477 731.39 335.477C731.39 335.477 607.103 352.152 536.73 370.642Z" fill="#EBE8DD"/>
</g>
<path d="M547.594 341.309L570.511 338.242C584.53 349.69 581.311 398.398 580.944 409.284L571.786 400.061L559.56 412.805C559.56 412.805 561.979 344.16 547.594 341.309Z" fill="#FFC507"/>
<g style="mix-blend-mode:multiply" opacity="0.6">
<path d="M144.107 332.885C144.111 343.403 146.621 353.77 151.429 363.125C145.878 365.782 141.472 367.942 140.737 371.268C140.154 373.968 150.263 373.968 150.263 373.968L542.411 415.008L780.551 375.696L764.243 347.616L531.416 391.356L144.107 332.885Z" fill="#D6E0EF"/>
</g>
<path d="M492.882 319.471L675.445 283.226C675.445 283.226 652.247 250.61 670.758 215.208L492.04 250.697C465.839 283.507 492.882 319.471 492.882 319.471Z" fill="#EBE8DD"/>
<path d="M492.084 250.675L211.219 219.874L391.773 188.014L674.647 214.452L492.084 250.675Z" fill="#7E53B3"/>
<path d="M493.4 255.06L674.689 218.621V214.43L492.039 250.697L483.939 254.434L477.049 276.034L483.529 317.614L489.361 316.987L492.838 319.514L675.402 283.226V279.036L495.646 313.704C488.41 310.226 481.801 274.392 493.4 255.06Z" fill="#9C77CF"/>
<path d="M492.883 319.471L212.083 288.669C192.643 285.991 194.609 217.562 211.284 219.873L492.084 250.675C479.081 263.117 479.34 308.261 492.883 319.471Z" fill="#784C9E"/>
<g style="mix-blend-mode:multiply">
<path d="M507.613 298.519C579.044 285.775 654.212 266.659 654.212 266.659C654.212 266.659 560.533 282.038 507.613 298.519Z" fill="#EBE8DD"/>
</g>
<g style="mix-blend-mode:multiply">
<path d="M497.525 279.576C555.5 269.229 616.477 253.656 616.477 253.656C616.477 253.656 540.466 266.205 497.525 279.576Z" fill="#EBE8DD"/>
</g>
<g style="mix-blend-mode:multiply">
<path d="M502.969 269.662C574.4 256.918 649.568 237.802 649.568 237.802C649.568 237.802 555.889 253.181 502.969 269.662Z" fill="#EBE8DD"/>
</g>
<g style="mix-blend-mode:multiply">
<path d="M506.426 287.633C577.857 274.867 653.025 255.773 653.025 255.773C653.025 255.773 559.367 271.152 506.426 287.633Z" fill="#EBE8DD"/>
</g>
<path d="M502.969 284.09C502.969 284.09 509.881 302.299 509.125 306.77L523.532 302.558C523.532 302.558 518.715 281.606 516.145 281.11L502.969 284.09Z" fill="#9C77CF"/>
<g style="mix-blend-mode:multiply" opacity="0.6">
<path d="M201.346 244.519C198.516 244.519 195.536 262.987 203.031 277.459C197.739 280.116 197.307 283.939 196.551 287.309C195.989 290.009 210.677 294.285 210.677 294.285L511.133 326.685L723.526 292.946L675.336 278.971L482.729 291.261L201.346 244.519Z" fill="#D6E0EF"/>
</g>
<g style="mix-blend-mode:multiply" opacity="0.6">
<path d="M448.213 371.527L449.229 367.207C450.784 371.138 452.987 374.637 456.637 374.983C462.361 375.545 467.61 352.886 468.28 349.819L469.317 349.56C469.317 349.56 471.865 331.481 470.721 319.32C469.943 311.22 446.053 306.36 433.741 302.774C435.285 301.351 436.662 299.757 437.845 298.022C440.005 298.519 443.461 296.748 444.757 291.542C445.924 286.812 441.949 286.574 441.949 286.574C448.948 283.809 448.429 259.855 441.474 261.907C427.823 247.759 397.605 256.161 393.479 265.039C388.122 276.573 391.168 283.291 394.321 286.79C393.22 287.179 391.621 288.281 392.421 291.542C393.717 296.834 397.086 298.584 399.333 298.022C400.263 299.392 401.319 300.672 402.486 301.845C390.261 305.604 369.352 312.494 368.596 320.465C367.429 332.647 371.814 349.257 371.814 349.257C372.203 349.387 372.592 349.43 372.981 349.517H372.7C372.7 349.517 378.294 375.631 384.429 375.026C385.39 374.896 386.314 374.566 387.14 374.056C387.966 373.546 388.676 372.868 389.224 372.067C385.833 380.21 369.784 404.877 371.944 410.731C372.203 411.422 372.57 412.221 372.981 413.085C367.71 414.857 364.211 416.109 363.563 416.347C361.014 415.526 354.059 413.388 352.482 414.533C350.538 415.915 335.202 443.261 342.071 439.459C345.851 437.299 359.351 425.419 359.351 425.419C359.351 425.419 367.71 425.03 379.504 424.361C390.594 441.579 402.54 458.232 415.295 474.257C421.019 485.791 412.055 496.267 418.449 496.591C422.207 496.785 429.357 479.505 430.998 475.704C432.359 472.593 426.873 470.217 425.188 469.505C423.334 456.241 420.09 443.21 415.511 430.625V430.365C415.187 429.48 414.841 428.616 414.517 427.752C413.826 425.916 413.07 423.842 412.357 422.287C430.609 420.861 447.911 419.069 453.527 417.038C476.898 413.258 475.926 402.739 448.343 371.527H448.213ZM452.533 352.087V351.655L452.987 349.495C452.857 350.424 452.749 351.482 452.663 352.433L452.533 352.087Z" fill="#D6E0EF"/>
</g>
<path d="M441.02 371.527C437.564 366.84 422.768 372.37 417.864 374.4C411.6 372.391 393.953 366.278 391.944 372.089C389.136 380.21 375.766 404.921 377.602 410.796C381.922 424.663 414.581 477.475 415.877 477.13C417.627 476.676 419.484 477.41 422.184 473.63C421.515 460.951 415.985 431.791 407.972 415.051C411.773 406.908 443.655 417.362 445.34 417.038C464.758 413.28 463.959 402.739 441.02 371.527Z" fill="#3F68B4"/>
<g style="mix-blend-mode:multiply" opacity="0.5">
<path d="M413.826 430.56C413.114 428.4 412.055 424.706 411.105 422.222C407.303 412.308 435.621 397.318 432.834 396.302C431.409 395.741 420.479 397.21 418.406 390.017C411.256 409.068 389.31 412.351 383.133 414.922C383.414 416.93 387.302 421.25 388.49 424.166C394.538 424.08 402.875 425.786 413.826 430.56Z" fill="#3F68B4"/>
</g>
<path d="M427.91 300.096H404.928V324.202H427.91V300.096Z" fill="#FBF4DB"/>
<g style="mix-blend-mode:multiply">
<path d="M427.91 300.096H404.928V324.202H427.91V300.096Z" fill="#FBF4DB"/>
</g>
<path d="M459.641 319.385C458.971 310.917 437.306 305.928 427.565 302.364C424.714 321.329 407.606 320.184 404.755 301.219C395.014 304.783 375.379 312.019 374.71 320.529C373.738 332.712 377.388 349.322 377.388 349.322C379.046 349.855 380.797 350.038 382.529 349.859C384.262 349.681 385.939 349.145 387.454 348.285L392.27 374.205C392.27 374.205 397.735 377.251 416.333 377.251C434.93 377.251 440.395 374.205 440.395 374.205L445.212 348.285C445.212 348.285 453.29 351.59 458.496 349.646C459.663 339.604 460.046 329.486 459.641 319.385Z" fill="#62C9FF"/>
<path d="M435.878 286.553C438.902 261.885 416.438 261.885 416.438 261.885C416.438 261.885 393.974 261.885 396.998 286.553C396.998 286.553 393.693 286.769 394.665 291.521C395.745 296.813 398.553 298.562 400.411 298.001C400.411 298.001 406.351 309.276 416.438 309.276C426.525 309.276 432.465 298.001 432.465 298.001C434.323 298.497 437.131 296.726 438.211 291.521C439.075 286.769 435.878 286.553 435.878 286.553Z" fill="#FBF4DB"/>
<path d="M404.776 283.81C402.571 285.399 400.773 287.486 399.527 289.901C399.527 289.901 388.252 283.81 395.488 265.018C398.922 256.14 424.043 247.738 435.405 261.886C441.215 259.834 441.625 283.81 435.793 286.553C433.18 286.92 432.985 280.915 430.847 276.53C423.395 282.298 413.891 277.006 404.776 283.81Z" fill="#A28A96"/>
<path d="M417.454 333.857C411.277 327.744 403.436 326.578 391.664 328.478L399.159 362.671C399.159 362.671 411.147 357.725 417.454 363.125C424.496 356.969 430.674 359.215 435.685 361.872L443.245 328.846C443.245 328.846 424.323 325.044 417.454 333.857Z" fill="#EBE8DD"/>
<path d="M417.454 336.017C411.277 329.904 403.436 328.738 391.664 330.638L399.159 364.831C399.159 364.831 411.147 359.885 417.454 365.285C424.496 359.129 430.674 361.375 435.685 364.032L443.245 331.006C443.245 331.006 424.323 327.204 417.454 336.017Z" fill="#E3C336"/>
<g style="mix-blend-mode:multiply" opacity="0.4">
<path d="M440.481 374.27C444.477 354.42 445.341 347.011 445.341 347.011C445.341 347.011 439.228 353.945 438.04 354.765C436.852 355.586 428.406 350.165 426.527 352.433C424.216 355.197 429.789 360.662 434.26 360.662C438.148 360.662 437.651 372.564 440.481 374.27Z" fill="#62C9FF"/>
</g>
<g style="mix-blend-mode:multiply" opacity="0.4">
<path d="M390.649 347.011C390.649 347.011 394.321 348.955 394.667 350.877C395.012 352.8 398.425 351.893 403.307 351.893C408.188 351.893 409.787 351.374 411.039 352.303C412.292 353.232 407.994 361.958 400.067 360.662C395.595 359.928 393.349 375.393 392.355 374.27C391.512 370.529 390.934 366.732 390.627 362.909C390.349 357.613 390.356 352.306 390.649 347.011Z" fill="#62C9FF"/>
</g>
<path d="M378.229 349.538C378.229 349.538 382.873 375.653 387.97 375.048C394.04 374.335 395.314 361.073 396.977 356.904C398.641 357.716 400.508 358.016 402.342 357.766C404.176 357.516 405.895 356.727 407.281 355.5C410.866 352.217 409.721 348.761 405.963 349.69C401.189 350.856 396.373 350.856 395.163 345.11C394.753 343.274 393.413 344.311 393.284 347.983C393.284 348.566 391.988 350.856 391.297 352.627C391.124 350.165 390.713 346.99 390.713 346.99C390.713 346.99 383.585 350.251 378.229 349.538Z" fill="#FBF4DB"/>
<g style="mix-blend-mode:multiply">
<path d="M384.773 363.838C385.683 359.506 387.953 355.578 391.253 352.627C391.059 350.467 390.67 346.99 390.67 346.99C390.67 346.99 384.19 360.339 384.773 364.032C384.773 363.967 384.773 363.903 384.773 363.838Z" fill="#FBF4DB"/>
</g>
<path d="M457.761 349.538C457.761 349.538 453.117 375.653 448.019 375.048C441.949 374.335 440.675 361.073 439.012 356.904C437.348 357.716 435.481 358.016 433.647 357.766C431.813 357.516 430.094 356.727 428.709 355.5C425.123 352.217 426.268 348.761 430.026 349.69C434.8 350.856 439.617 350.856 440.826 345.11C441.237 343.274 442.576 344.311 442.727 347.983C442.727 348.566 444.023 350.856 444.714 352.627C444.887 350.165 445.297 346.99 445.297 346.99C445.297 346.99 452.404 350.251 457.761 349.538Z" fill="#FBF4DB"/>
<g style="mix-blend-mode:multiply">
<path d="M451.216 363.838C450.307 359.506 448.036 355.578 444.736 352.627C444.931 350.467 445.32 346.99 445.32 346.99C445.32 346.99 451.799 360.339 451.216 364.032C451.216 363.967 451.216 363.903 451.216 363.838Z" fill="#FBF4DB"/>
</g>
<path d="M413.631 474.343C415.964 474.019 420.262 472.464 421.86 469.591C423.264 470.304 427.822 472.68 426.699 475.79C425.338 479.57 419.376 496.85 416.266 496.677C410.931 496.353 418.383 485.877 413.631 474.343Z" fill="#1A3360"/>
<path d="M371.424 416.757L367.104 425.505C367.104 425.505 355.894 437.472 352.762 439.545C347.038 443.347 359.803 416.001 361.402 414.619C363 413.237 371.424 416.757 371.424 416.757Z" fill="#1A3360"/>
<path d="M370.54 416.498C370.54 416.498 420.371 394.898 438.04 396.129C459.791 397.901 455.32 412.74 445.341 417.06C434.109 421.898 367.127 425.527 367.127 425.527L370.54 416.498Z" fill="#3F68B4"/>
<g style="mix-blend-mode:multiply" opacity="0.6">
<path d="M116.674 527.544C160.825 527.544 196.616 521.925 196.616 514.994C196.616 508.063 160.825 502.445 116.674 502.445C72.5235 502.445 36.7324 508.063 36.7324 514.994C36.7324 521.925 72.5235 527.544 116.674 527.544Z" fill="#D6E0EF"/>
</g>
<path d="M55.2464 232.519L70.6554 227.114C71.9528 226.659 73.3779 226.738 74.6171 227.334C75.8562 227.929 76.8081 228.993 77.2632 230.29L130.136 381.018L104.964 389.848L52.091 239.12C51.6359 237.823 51.7148 236.398 52.3104 235.158C52.9059 233.919 53.9694 232.967 55.2668 232.512L55.2464 232.519Z" fill="#5F46A4"/>
<path d="M58.8157 253.888L81.2363 246.023C83.1229 245.362 85.1951 245.476 86.9971 246.342C88.7991 247.208 90.1832 248.755 90.845 250.642L167.741 469.854L131.114 482.702L54.2108 263.469C53.5568 261.588 53.6741 259.524 54.537 257.729C55.3998 255.934 56.9381 254.553 58.8157 253.888Z" fill="#7168DD"/>
<path d="M164.065 518.299L131.039 482.767L167.673 469.915L164.065 518.299Z" fill="#5F46A4"/>
<path d="M150.264 503.438L164.066 518.299L165.578 498.082L150.264 503.438Z" fill="#E5FBFF"/>
<g style="mix-blend-mode:multiply" opacity="0.3">
<path d="M99.6966 276.12C99.2993 276.022 98.8842 276.022 98.487 276.12L93.2598 277.956V277.805C93.0344 277.162 92.6846 276.57 92.2304 276.063C91.7762 275.556 91.2265 275.143 90.6128 274.848C89.999 274.553 89.3331 274.382 88.6532 274.345C87.9733 274.307 87.2926 274.404 86.6502 274.63L83.0214 275.904C82.3788 276.129 81.7869 276.479 81.2796 276.933C80.7722 277.388 80.3594 277.937 80.0645 278.551C79.7696 279.165 79.5986 279.831 79.5611 280.511C79.5237 281.19 79.6205 281.871 79.8462 282.514V282.665L62.9766 288.583L66.8646 299.642L83.799 293.81L116.782 387.878C117.008 388.521 117.357 389.113 117.812 389.62C118.266 390.128 118.815 390.54 119.429 390.835C120.043 391.13 120.709 391.301 121.389 391.339C122.069 391.376 122.749 391.279 123.392 391.054L127.021 389.779C127.663 389.554 128.255 389.204 128.762 388.75C129.27 388.296 129.683 387.746 129.977 387.132C130.272 386.518 130.443 385.853 130.481 385.173C130.518 384.493 130.421 383.812 130.196 383.17L97.1478 289.123L102.375 287.287C102.765 287.144 103.114 286.906 103.39 286.596L99.6966 276.12Z" fill="#7168DD"/>
</g>
<path d="M97.4843 268.91L60.4088 281.916C59.058 282.39 58.347 283.869 58.8209 285.22L60.9872 291.396C61.4611 292.746 62.9403 293.457 64.2911 292.984L101.367 279.978C102.717 279.504 103.428 278.025 102.955 276.674L100.788 270.498C100.314 269.148 98.8351 268.437 97.4843 268.91Z" fill="#FFAD32"/>
<path d="M85.5047 267.472L81.8764 268.744C79.1746 269.692 77.7522 272.65 78.6995 275.352L115.61 380.633C116.557 383.335 119.515 384.757 122.217 383.81L125.845 382.538C128.547 381.591 129.969 378.633 129.022 375.931L92.1119 270.649C91.1647 267.947 88.2065 266.525 85.5047 267.472Z" fill="#FFAD32"/>
<g style="mix-blend-mode:multiply" opacity="0.6">
<path d="M380.584 199.31C380.584 199.31 417.174 198.684 439.962 198.511C462.75 198.338 563.666 203.933 549.474 214.452C535.283 224.971 471.887 245.405 446.334 240.955C420.782 236.506 387.582 215.035 361.36 224.993C335.138 234.95 253.36 239.076 267.076 219.355C280.792 199.634 380.584 199.31 380.584 199.31Z" fill="#D6E0EF"/>
</g>
<path d="M507.008 49.7952C503.487 29.664 482.19 32.5152 472.448 37.44C462.707 42.3648 421.731 103.774 434.562 163.908C444.865 212.206 475.753 215.402 486.877 201.751C498.001 188.1 491.197 170.971 491.197 170.971C491.197 170.971 461.994 184.493 455.19 158.227C445.232 119.801 473.701 52.992 486.337 63.9864C498.973 74.9808 508.499 58.3272 507.008 49.7952Z" fill="#FF9301"/>
<g style="mix-blend-mode:multiply" opacity="0.3">
<path d="M507.008 49.7952C503.487 29.664 482.19 32.5152 472.448 37.44C462.707 42.3648 421.731 103.774 434.562 163.908C444.865 212.206 475.753 215.402 486.877 201.751C498.001 188.1 491.197 170.971 491.197 170.971C491.197 170.971 461.994 184.493 455.19 158.227C445.232 119.801 473.701 52.992 486.337 63.9864C498.973 74.9808 508.499 58.3272 507.008 49.7952Z" fill="#FF9301"/>
</g>
<path d="M463.421 52.128C459.576 31.9968 436.334 34.848 425.599 39.7728C414.864 44.6976 370.26 106.106 384.278 166.241C395.532 214.538 429.228 217.735 441.367 204.084C453.506 190.433 445.968 173.304 445.968 173.304C445.968 173.304 414.108 186.826 406.677 160.56C395.877 122.134 426.873 55.3248 440.654 66.3192C454.435 77.3136 465.062 60.66 463.421 52.128Z" fill="#FF9301"/>
<g style="mix-blend-mode:multiply" opacity="0.3">
<path d="M406.677 160.56C395.877 122.133 426.873 55.3245 440.654 66.3189L440.848 66.4485L440.697 65.8869L440.222 64.5261C439.423 62.3661 438.645 60.3789 437.76 58.3701C437.479 57.7437 434.671 52.3005 435.168 52.9269C434.043 51.1543 432.802 49.4586 431.452 47.8509C432.446 49.1037 429.292 45.9069 429.055 45.6909L427.802 44.8485C427.033 44.5186 426.247 44.2302 425.448 43.9845C423.331 43.4085 423.144 43.4085 424.886 43.9845C423.621 43.8857 422.35 43.8857 421.084 43.9845H420.393C404.928 59.5797 371.988 113.428 384.3 166.284C395.553 214.581 429.249 217.778 441.388 204.127C453.528 190.476 445.989 173.347 445.989 173.347C445.989 173.347 414.108 186.804 406.677 160.56Z" fill="#FF9301"/>
</g>
<path d="M432.661 50.659C432.661 50.659 414.69 72.3886 413.588 98.935C412.486 125.481 405.92 199.397 420.068 215.575C434.216 231.753 540.553 229.377 544.419 214.625C548.286 199.872 546.082 96.4726 539.516 84.4198C532.95 72.367 528.997 54.979 520.551 50.6374C512.106 46.2958 437.888 39.9454 432.661 50.659Z" fill="#FFC507"/>
<g style="mix-blend-mode:multiply" opacity="0.4">
<path d="M439.962 198.511C439.789 190.606 443.029 182.83 443.504 175.918C444.735 158.206 442.899 140.429 444.195 122.717C445.297 107.791 448.969 91.0729 445.275 76.7953C443.007 67.9825 436.635 61.2217 431.214 52.5601C426.894 58.3057 414.495 76.9465 413.567 98.9785C412.465 125.546 405.899 199.44 420.047 215.618C424.086 220.198 435.469 223.286 449.811 225.036C443.488 217.642 439.997 208.241 439.962 198.511Z" fill="#FFC507"/>
</g>
<g style="mix-blend-mode:multiply" opacity="0.4">
<path d="M533.36 182.16C517.636 207.043 490.916 224.086 460.828 219.766C442.014 217.066 423.87 205.186 412.379 189.18C413.653 201.146 416.029 210.78 420.177 215.554C434.432 231.732 540.661 229.356 544.528 214.603C546.428 207.324 546.86 178.488 546.018 149.674C543.75 161.165 539.464 172.163 533.36 182.16Z" fill="#FFC507"/>
</g>
<path d="M443.591 43.5094C466.118 42.6007 488.679 43.0263 511.155 44.7838C516.404 45.2806 542.54 75.2398 538.782 116.625C537.162 134.359 459.294 131.4 459.531 116.625C460.482 52.5598 423.287 44.8486 443.591 43.5094Z" fill="#FFA31B"/>
<path d="M409.507 160.344C409.507 160.344 442.49 167.969 446.011 165.031C446.011 165.031 441.907 211.557 446.011 215.013C450.115 218.469 414.993 215.229 411.127 206.87C407.26 198.511 407.8 165.593 409.507 160.344Z" fill="#FFA31B"/>
<path d="M534.572 149.911C534.572 149.911 466.64 148.356 460.116 156.067C453.593 163.778 453.161 207.605 456.012 214.56C458.864 221.515 463.594 216.439 463.594 216.439C463.594 216.439 459.404 164.599 469.296 160.387C479.189 156.175 538.416 153.259 541.764 154.512C545.112 155.765 534.572 149.911 534.572 149.911Z" fill="#FFA31B"/>
<path d="M491.111 111.614C492.094 119.111 492.333 126.686 491.824 134.229C491.673 137.21 505.216 143.409 505.216 143.409C505.216 143.409 517.485 137.837 517.614 135.05C518.09 124.574 517.355 121.982 516.513 112.176C516.34 110.102 497.203 110.88 491.111 111.614Z" fill="#FF9301"/>
<g style="mix-blend-mode:multiply" opacity="0.3">
<path d="M503.272 125.87C503.272 125.676 507.786 124.704 507.937 126.173C508.088 127.642 508.844 145.267 507.16 148.205C507.16 148.205 503.121 149.825 503.272 148.205C503.423 146.585 504.136 127.922 503.272 125.87Z" fill="#FF9301"/>
</g>
<path d="M196.594 61.4806C196.594 61.4806 177.932 77.3566 199.164 89.5606C219.857 59.515 261.632 49.579 279.344 40.615C297.056 31.651 281.136 25.7542 281.136 25.7542L196.594 61.4806Z" fill="#F5E6E5"/>
<path d="M196.594 61.4807C211.325 58.0463 238.649 62.5175 245.151 104.94C252.106 150.3 277.551 236.333 316.193 227.542L419.419 159.091C419.419 159.091 367.018 135.202 359.803 68.1767C354.187 16.3367 329.563 -4.16168 313.839 1.47592C303.082 5.36392 212.599 49.0175 196.594 61.4807Z" fill="#FFFFED"/>
<path d="M315.654 193.91C321.378 193.91 337.254 216.007 316.194 227.542C355.744 214.582 408.145 173.002 422.92 159.89C437.694 146.779 422.445 138.874 418.989 141.919C395.099 163.001 334.36 183.758 315.654 193.91Z" fill="#F5E6E5"/>
<path d="M235.992 58.0681C235.992 58.0681 289.15 28.8001 316.603 15.8401" stroke="#F5E6E5" stroke-linecap="round" stroke-linejoin="round"/>
<path d="M244.721 68.1983C244.721 68.1983 297.878 38.9087 325.354 26.0352" stroke="#F5E6E5" stroke-linecap="round" stroke-linejoin="round"/>
<path d="M260.465 101.397C260.465 101.397 313.622 72.1077 341.098 59.2341" stroke="#F5E6E5" stroke-linecap="round" stroke-linejoin="round"/>
<path d="M264.16 120.297C264.16 120.297 317.318 91.0079 344.793 78.1343" stroke="#F5E6E5" stroke-linecap="round" stroke-linejoin="round"/>
<path d="M269.906 133.344C269.906 133.344 323.064 104.054 350.539 91.1807" stroke="#F5E6E5" stroke-linecap="round" stroke-linejoin="round"/>
<path d="M287.402 182.765C287.402 182.765 342.59 149.717 371.124 135.245" stroke="#F5E6E5" stroke-linecap="round" stroke-linejoin="round"/>
<path d="M297.252 197.885C297.252 197.885 352.181 164.405 380.606 149.695" stroke="#F5E6E5" stroke-linecap="round" stroke-linejoin="round"/>
<path d="M274.27 152.438C274.27 152.438 310.277 132.156 328.896 123.235" stroke="#F5E6E5" stroke-linecap="round" stroke-linejoin="round"/>
<path d="M251.416 83.4693C251.416 83.4693 297.856 57.5494 321.875 46.231" stroke="#F5E6E5" stroke-linecap="round" stroke-linejoin="round"/>
<path d="M278.328 167.472C278.328 167.472 324.768 141.552 348.787 130.234" stroke="#F5E6E5" stroke-linecap="round" stroke-linejoin="round"/>
<g style="mix-blend-mode:multiply" opacity="0.6">
<path d="M332.198 222.984C337.017 226.018 341.183 229.982 344.454 234.644C347.725 239.305 350.035 244.571 351.249 250.135C355.245 268.905 324.703 301.046 308.049 299.21C291.396 297.374 286.319 314.676 285.542 324.201C284.764 333.727 289.862 356.861 278.349 377.337C266.836 397.814 264.287 416.217 270.573 430.041C276.859 443.865 281.74 476.827 281.74 476.827L267.074 473.76L246.079 420.732C246.079 420.732 256.879 462.42 246.079 472.572L232.125 470.952L229.555 387.468L235.603 292.925L250.723 213.134L332.198 222.984Z" fill="#D6E0EF"/>
</g>
<path d="M216.661 181.231C214.804 182.7 198.107 216.828 221.586 237.067C234.395 248.105 231.63 255.578 243.186 252.598C254.742 249.617 267.162 215.338 267.162 215.338C267.162 215.338 227.332 172.764 216.661 181.231Z" fill="#F7C858"/>
<g style="mix-blend-mode:multiply" opacity="0.3">
<path d="M225.756 183.477C215.344 196.437 215.344 205.617 218.023 221.45C220.831 238.125 234.612 245.21 246.103 242.229C257.594 239.249 267.098 215.316 267.098 215.316C267.098 215.316 234.288 172.85 225.756 183.477Z" fill="#F7C858"/>
</g>
<path d="M219.08 315.821L227.439 487.865C227.439 487.865 232.645 488.167 234.286 486.828C235.928 485.489 241.436 430.97 238.261 401.097C238.261 401.097 260.509 320.206 260.034 315.972C259.558 311.738 219.08 315.821 219.08 315.821Z" fill="#E773E0"/>
<g style="mix-blend-mode:multiply" opacity="0.3">
<path d="M228.391 315.497C228.671 337.097 233.337 367.337 237.031 388.656C238.737 398.398 260.445 320.184 259.991 315.95C259.689 312.667 228.369 315.022 228.391 315.497Z" fill="#E773E0"/>
</g>
<path d="M268.501 315.648C268.501 315.648 271.612 322.538 270.143 343.318C269.538 351.763 260.445 375.718 253.943 405.958C260.034 418.205 267.076 433.67 270.532 473.868L265.24 477.259C265.24 477.259 239.968 410.407 238.672 404.402C237.376 398.398 232.192 325.519 232.192 318.262C232.062 311.393 268.501 315.648 268.501 315.648Z" fill="#E773E0"/>
<path d="M221.565 189.958C217.245 202.766 224.459 224.388 228.217 226.008C231.976 227.628 237.095 223.956 238.542 224.69C239.104 224.971 239.017 227.153 238.261 230.566C237.16 235.555 236.512 242.251 236.512 242.251C236.512 242.251 255.952 235.901 256.6 231.926C257.248 227.952 256.6 207.346 256.6 207.346C256.6 207.346 261.654 195.768 259.494 191.081C257.334 186.394 245.389 176.609 245.389 176.609C245.389 176.609 227.289 172.678 221.565 189.958Z" fill="#FBF4DB"/>
<g style="mix-blend-mode:multiply">
<path d="M238.521 224.669C241.199 222.962 247.96 221.688 250.66 213.177C250.66 223.567 242.992 230.198 238.262 232.747C238.861 230.095 238.949 227.353 238.521 224.669Z" fill="#FBF4DB"/>
</g>
<path d="M209.079 182.938C205.191 191.88 218.95 202.659 240.075 200.218C248.585 211.579 250.594 220.025 256.858 223.978C276.017 339.365 385.27 260.546 328.138 214.733C304.788 195.984 285.802 216.504 266.945 184.299C253.186 160.56 217.848 162.958 209.079 182.938Z" fill="#F7C858"/>
<g style="mix-blend-mode:multiply" opacity="0.3">
<path d="M280.23 231.538C273.577 230.479 266.017 230.998 257.312 226.073C264.289 264.953 281.742 281.023 299.216 283.486C315.157 283.853 316.95 260.201 309.563 250.135C306.159 245.238 301.81 241.07 296.773 237.876C291.736 234.683 286.112 232.528 280.23 231.538Z" fill="#F7C858"/>
</g>
<path d="M256.925 223.978L258.091 228.298C258.091 228.298 256.255 250.481 242.604 257.09C228.953 263.7 235.779 228.794 235.779 228.794L238.673 225.36L241.783 240.48L256.925 223.978Z" fill="white"/>
<path d="M227.441 487.865C227.441 487.865 208.844 492.012 208.908 494.345C208.908 496.138 229.061 496.138 234.828 496.138C236.88 496.138 234.288 486.806 234.288 486.806L227.441 487.865Z" fill="#FFAFF1"/>
<path d="M265.24 477.259C265.569 482.336 265.627 487.426 265.413 492.509C264.894 494.669 258.047 497.067 259.386 498.255C260.725 499.443 270.877 497.715 271.309 496.224C271.741 494.734 275.111 479.463 274.744 476.784C274.614 475.834 270.424 473.825 270.424 473.825L265.24 477.259Z" fill="#FFAFF1"/>
<path d="M280.663 240.955C271.699 233.438 257.724 228.297 257.724 228.297C249.084 246.139 244.764 250.308 238.651 252.792C234.612 253.699 235.432 228.816 235.432 228.816C235.432 228.816 221.306 234.864 219.038 237.132C217.85 238.32 209.059 273.852 208.627 274.737C205.163 271.41 201.896 267.883 198.842 264.175L191.131 265.968C191.131 265.968 206.251 294.048 210.744 294.329C213.206 294.329 219.88 282.751 222.343 276.422C223.833 278.971 226.879 279.986 226.468 282.686C224.071 298.476 217.98 318.369 218.239 318.283C218.865 318.067 269.344 319.19 268.524 315.669C265.098 299.266 265.282 282.314 269.064 265.989L276.364 284.241C283.579 284.241 289.195 284.565 289.195 284.565C288.136 274.521 284.68 244.281 280.663 240.955Z" fill="#FFAFF1"/>
<g style="mix-blend-mode:multiply" opacity="0.3">
<path d="M201.088 266.983C200.311 266.098 199.555 265.169 198.82 264.154L196.66 265.018C196.66 265.018 206.207 294.113 210.787 294.285C212.212 294.285 215.107 290.484 217.634 285.969C216.403 286.185 200.915 272.88 201.088 266.983Z" fill="#FFAFF1"/>
</g>
<g style="mix-blend-mode:multiply" opacity="0.3">
<path d="M226.358 282.665C225.365 289.145 223.723 296.51 222.168 302.774C223.745 301.845 225.365 300.96 227.028 300.182C232.771 294.827 238.106 289.051 242.99 282.902C238.174 282.341 229.447 281.282 224.242 278.798C225.581 279.9 226.704 280.937 226.358 282.665Z" fill="#FFAFF1"/>
</g>
<g style="mix-blend-mode:multiply" opacity="0.3">
<path d="M275.326 237.067C273.943 238.363 268.5 253.354 268.522 257.933C268.522 260.935 261.156 256.658 258.089 255.514C256.642 254.974 249.449 254.585 247.289 253.116H247.095C247.095 253.418 244.524 257.738 244.546 258.041C246.079 270.526 260.098 281.218 260.098 293.551C260.098 310.313 238.325 315.778 224.307 318.37C237.785 318.37 269.213 318.542 268.565 315.777C265.139 299.374 265.323 282.422 269.105 266.098L276.406 284.35C280.035 284.35 283.275 284.35 285.586 284.501C268.565 267.934 275.866 237.413 275.326 237.067Z" fill="#FFAFF1"/>
</g>
<path d="M177.133 232.769C177.133 232.769 199.575 250.913 202.448 277.545L218.108 288.345C218.108 288.345 223.335 252.079 208.755 242.445C201.022 238.665 177.133 232.769 177.133 232.769Z" fill="#FFFFED"/>
<path d="M199.791 263.981C199.196 262.928 198.898 261.734 198.927 260.525C200.396 256.205 202.448 252.641 201.67 252.965C199.061 253.331 196.409 253.243 193.83 252.706C192.93 251.426 192.149 250.067 191.497 248.645C190.762 250.222 188.624 256.788 192.879 265.601C195.252 265.416 197.583 264.87 199.791 263.981Z" fill="#FBF4DB"/>
<path d="M245.454 235.534L223.033 253.721L221.586 256.853L224.286 256.097L246.016 237.65L245.454 235.534Z" fill="#A83851"/>
<path d="M252.517 251.28C249.515 248.71 247.074 246.744 246.037 246.01C242.343 243.569 240.983 241.063 235.453 240.934C235.086 240.934 234.611 242.64 233.919 242.726C231.63 243.05 229.988 247.673 229.599 248.602C229.211 249.53 232.839 254.369 233.379 255.082C234.675 256.594 236.965 250.178 240.767 252.187C243.039 253.954 245.072 256.009 246.815 258.3C248.572 255.847 250.476 253.503 252.517 251.28Z" fill="#FBF4DB"/>
<path d="M251.889 250.135L244.48 257.933C244.48 257.933 273.165 293.443 278.241 294.35C288.566 296.23 292.454 285.538 287.594 281.218C282.734 276.898 251.889 250.135 251.889 250.135Z" fill="#FFAFF1"/>
<g style="mix-blend-mode:multiply" opacity="0.6">
<path d="M577.641 205.38L668.361 213.869C668.361 213.869 651.642 246.269 655.876 261.885C660.11 277.502 660.002 285.062 671.126 285.645C682.25 286.229 698.536 287.697 694.886 289.965C691.235 292.233 657.625 310.14 645.313 306.835C633.001 303.53 607.859 297.093 607.513 294.653C607.168 292.212 616.262 225.533 616.262 225.533C616.262 225.533 566.344 234.216 577.641 205.38Z" fill="#D6E0EF"/>
</g>
<path d="M692.034 272.88C692.034 272.88 711.582 265.687 712.36 267.977C713.138 270.266 690.76 282.816 690.76 282.816L685.252 276.919L692.034 272.88Z" fill="#1B374B"/>
<path d="M627.926 176.846C627.926 176.846 673.566 195.53 681.926 202.766C690.285 210.002 691.343 273.334 691.343 273.334L685.295 276.962C685.295 276.962 668.015 229.572 668.015 223.286C660.52 229.766 622.806 205.272 616.521 204.667C610.235 204.062 627.926 176.846 627.926 176.846Z" fill="#3B3E58"/>
<g style="mix-blend-mode:multiply" opacity="0.3">
<path d="M682.661 256.313C679.271 248.052 676.815 239.437 675.339 230.631C674.086 221.407 672.66 208.21 681.819 202.659C673.179 195.423 627.819 176.868 627.819 176.868C627.819 176.868 610.107 204.063 616.392 204.646C622.678 205.229 660.521 229.831 667.995 223.2C667.995 229.486 685.275 276.876 685.275 276.876L691.323 273.247C691.323 273.247 691.323 272.556 691.323 271.347C688.731 266.4 684.692 261.648 682.661 256.313Z" fill="#3B3E58"/>
</g>
<path d="M618.961 183.002C618.961 183.002 670.801 201.859 671.233 208.922C671.665 215.986 640.993 281.779 640.993 281.779C640.993 281.779 634.837 284.177 632.223 280.181L643.282 224.021C643.282 224.021 594.812 227.261 590.319 203.112C585.826 178.963 618.961 183.002 618.961 183.002Z" fill="#3B3E58"/>
<g style="mix-blend-mode:multiply" opacity="0.3">
<path d="M618.961 183.002C618.961 183.002 585.848 179.006 590.341 203.155C594.834 227.304 643.239 224.042 643.239 224.042L632.18 280.202C632.785 281.036 633.605 281.689 634.552 282.092C635.5 282.495 636.539 282.634 637.559 282.492C638.012 272.016 641.231 262.274 645.075 252.511C649.115 242.251 666.675 213.437 629.761 217.217C623.432 217.865 621.121 200.995 627.385 202.399C651.599 207.864 664.969 210.542 669.159 206.957C669.325 206.824 669.498 206.702 669.678 206.59C661.232 198.382 618.961 183.002 618.961 183.002Z" fill="#3B3E58"/>
</g>
<path d="M624.772 120.146C634.492 123.646 645.422 164.34 649.612 167.947C653.802 171.554 680.759 183.434 680.759 183.434L676.439 188.662C676.439 188.662 646.718 181.21 640.54 176.371C633.153 170.604 625.42 154.426 624.275 154.771C623.13 155.117 620.927 118.786 624.772 120.146Z" fill="#FF6C59"/>
<g style="mix-blend-mode:multiply" opacity="0.6">
<path d="M648.963 175.809C640.064 168.012 639.459 155.484 639.416 144.403C634.902 133.214 629.675 121.896 624.75 120.146C620.927 118.764 623.108 155.009 624.296 154.706C625.484 154.404 633.195 170.604 640.561 176.306C644.665 179.503 659.159 183.866 668.425 186.437C662.075 183.413 654.277 180.475 648.963 175.809Z" fill="#FF6C59"/>
</g>
<path d="M650.648 85.2191C652.225 90.6407 650.454 109.152 649.331 109.541C648.207 109.929 646.22 108.806 645.183 110.102C644.147 111.398 639.459 119.693 634.751 117.684C632.157 116.628 629.681 115.303 627.363 113.731L627.774 130.32L611.271 122.09C611.271 122.09 614.101 104.184 614.036 100.037C613.907 91.6343 617.989 78.8471 626.564 74.7431C628.8 73.5962 631.262 72.9598 633.773 72.8797C636.284 72.7997 638.782 73.278 641.086 74.2801C643.39 75.2823 645.443 76.7834 647.096 78.675C648.75 80.5667 649.963 82.8018 650.648 85.2191Z" fill="#FBF4DB"/>
<path d="M662.268 83.1455C661.815 88.3295 655.961 99.1727 647.148 91.5263C643.498 88.3511 638.314 81.4607 634.75 82.8863C632.59 83.7071 633.713 89.6471 626.672 92.8871C623.777 94.2047 624.987 96.5375 625.181 97.8551C625.376 99.1727 623.021 97.8551 622.784 95.6951C622.546 93.5351 620.148 88.2647 617.233 93.2111C615.202 96.6455 617.772 99.1511 616.347 104.421C615.612 107.121 613.258 109.109 613.301 108.353C613.928 99.1943 609.91 98.9351 608.981 90.5975C607.923 80.5319 612.632 71.0279 620.969 68.1767C620.969 68.1767 636.435 60.8759 644.038 68.1767C651.641 75.4775 663.003 74.5919 662.268 83.1455Z" fill="#4D4C53"/>
<path d="M625.852 124.337C627.213 124.337 627.667 123.17 627.472 122.004C639.071 131.81 632.591 179.654 630.561 179.654C621.104 181.278 612.026 184.624 603.777 189.525C593.279 196.005 594.705 200.606 589.91 198.943C586.389 197.712 575.265 196.783 593.884 137.837C598.204 124.099 605.008 117.468 613.043 109.973C611.747 118.699 621.64 124.596 625.852 124.337Z" fill="#FF6C59"/>
<path d="M670.391 201.513L695.08 197.301L669.894 196.157L629.459 194.364L670.391 201.513Z" fill="#7B96B9"/>
<path d="M683.221 162.115L716.765 161.51L704.043 196.891L671.6 205.38L628.875 197.971L629.458 194.364L670.39 201.513L683.221 162.115Z" fill="#6F7782"/>
<g style="mix-blend-mode:screen" opacity="0.3">
<path d="M700.283 163.843L672.895 202.14L695.682 196.329L714.712 162.979L700.283 163.843Z" fill="#6F7782"/>
</g>
<path d="M641.079 281.693L632.31 280.094C631.359 281.668 630.735 283.416 630.474 285.235C629.869 288.626 646.047 301.089 650.648 302.515C655.249 303.941 645.529 292.989 641.079 281.693Z" fill="#1B374B"/>
<g style="mix-blend-mode:multiply" opacity="0.6">
<path d="M617.946 182.937C617.946 182.937 600.169 153.929 602.826 143.582C602.826 143.582 588.289 174.449 607.038 187.603C612.524 184.989 617.946 182.937 617.946 182.937Z" fill="#FF6C59"/>
</g>
<g style="mix-blend-mode:multiply" opacity="0.6">
<path d="M628.12 175.01C622.677 162.677 622.699 149.371 627.343 141.941C627.343 141.941 628.12 158.421 630.691 177.969C629.702 177.106 628.837 176.11 628.12 175.01Z" fill="#FF6C59"/>
</g>
<g style="mix-blend-mode:multiply">
<path d="M627.363 113.709C627.363 113.709 621.768 109.908 621.336 105.696C621.03 104.16 620.965 102.586 621.142 101.03C620.385 103.726 620.165 106.544 620.494 109.325C620.71 111.096 627.492 118.375 627.492 118.375L627.363 113.709Z" fill="#FBF4DB"/>
</g>
<path d="M652.225 186.329C652.225 186.329 656.005 185.465 656.956 185.27C657.906 185.076 659.85 186.588 659.85 186.588C661.548 186.782 663.131 187.543 664.343 188.748C666.408 190.956 667.893 193.643 668.663 196.567C668.857 197.777 666.503 198.727 665.855 198.144C664.105 196.956 661.254 193.521 658.813 193.457C657.993 193.457 651.707 191.297 651.707 191.297L652.225 186.329Z" fill="#FBF4DB"/>
<path d="M602.89 143.604C601.81 159.307 610.212 186.415 623.064 189.763C629.825 191.534 651.684 191.254 651.684 191.254L653.24 186.523C653.24 186.523 635.96 183.478 630.581 176.846C625.203 170.215 626.888 142.589 626.888 142.589C626.888 142.589 603.732 131.292 602.89 143.604Z" fill="#FF6C59"/>
<g style="mix-blend-mode:multiply" opacity="0.6">
<path d="M627.213 564.782C671.364 564.782 707.155 559.164 707.155 552.233C707.155 545.302 671.364 539.683 627.213 539.683C583.063 539.683 547.271 545.302 547.271 552.233C547.271 559.164 583.063 564.782 627.213 564.782Z" fill="#D6E0EF"/>
</g>
<g style="mix-blend-mode:multiply" opacity="0.6">
<path d="M792.95 527.566C850.068 527.566 896.371 520.293 896.371 511.322C896.371 502.351 850.068 495.079 792.95 495.079C735.832 495.079 689.529 502.351 689.529 511.322C689.529 520.293 735.832 527.566 792.95 527.566Z" fill="#D6E0EF"/>
</g>
<path d="M727.184 483.093L710.848 466.229L682.131 494.048L698.468 510.912L727.184 483.093Z" fill="#C1AAAF"/>
<path opacity="0.6" d="M841.494 478.073C876.239 444.415 877.119 388.964 843.462 354.22C809.804 319.476 754.353 318.595 719.609 352.253C684.865 385.911 683.984 441.361 717.642 476.105C751.3 510.85 806.75 511.73 841.494 478.073Z" fill="#FFF3FF"/>
<path opacity="0.8" d="M799.471 359.496C815.062 375.588 823.693 397.168 823.499 419.573C823.305 441.977 814.301 463.406 798.434 479.225C813.398 475.046 826.429 465.765 835.271 452.99C844.112 440.215 848.206 424.749 846.845 409.273C845.483 393.796 838.751 379.283 827.816 368.248C816.88 357.212 802.428 350.349 786.965 348.847C791.465 351.988 795.653 355.554 799.471 359.496Z" fill="#FFF3FF"/>
<path d="M852.133 345.737C838.408 331.581 820.794 321.814 801.517 317.669C782.241 313.525 762.169 315.19 743.839 322.454C725.509 329.718 709.745 342.255 698.541 358.479C687.336 374.702 681.195 393.884 680.893 413.599C680.59 433.313 686.141 452.674 696.843 469.234C707.546 485.793 722.918 498.807 741.016 506.63C759.115 514.452 779.127 516.731 798.521 513.18C817.915 509.628 835.821 500.405 849.973 486.677C868.946 468.272 879.832 443.084 880.237 416.654C880.642 390.224 870.533 364.715 852.133 345.737ZM725.773 468.166C715.276 457.332 708.228 443.628 705.52 428.789C702.812 413.949 704.565 398.64 710.557 384.797C716.55 370.953 726.512 359.198 739.186 351.017C751.859 342.836 766.674 338.596 781.757 338.835C796.84 339.074 811.513 343.78 823.921 352.357C836.33 360.935 845.916 373 851.467 387.026C857.019 401.052 858.286 416.409 855.11 431.156C851.933 445.902 844.455 459.375 833.622 469.872C826.428 476.841 817.932 482.326 808.619 486.012C799.306 489.698 789.358 491.514 779.344 491.355C769.329 491.197 759.444 489.067 750.252 485.088C741.06 481.109 732.742 475.359 725.773 468.166Z" fill="#7E53B3"/>
<path d="M844.898 352.8C832.568 340.071 816.741 331.285 799.417 327.551C782.094 323.818 764.052 325.306 747.575 331.826C731.097 338.347 716.923 349.607 706.845 364.184C696.767 378.76 691.238 395.998 690.957 413.717C690.676 431.436 695.655 448.84 705.266 463.729C714.877 478.617 728.687 490.321 744.95 497.361C761.213 504.401 779.198 506.46 796.631 503.278C814.064 500.096 830.162 491.815 842.889 479.484C859.953 462.95 869.751 440.315 870.128 416.558C870.504 392.801 861.429 369.866 844.898 352.8ZM721.432 472.377C710.103 460.685 702.496 445.895 699.572 429.879C696.648 413.863 698.539 397.34 705.006 382.399C711.473 367.457 722.225 354.769 735.903 345.939C749.581 337.109 765.571 332.532 781.849 332.789C798.128 333.046 813.965 338.124 827.358 347.381C840.75 356.639 851.097 369.66 857.09 384.798C863.082 399.935 864.451 416.51 861.024 432.426C857.597 448.342 849.527 462.884 837.834 474.213C830.071 481.736 820.902 487.656 810.85 491.635C800.799 495.614 790.062 497.574 779.253 497.404C768.444 497.233 757.774 494.936 747.853 490.641C737.932 486.347 728.954 480.141 721.432 472.377Z" fill="#9C77CF"/>
<path d="M706.763 501.313L691.974 486.047C688.762 482.731 683.47 482.647 680.154 485.859L633.053 531.487C629.737 534.699 629.653 539.991 632.865 543.307L647.654 558.573C650.866 561.889 656.158 561.973 659.474 558.761L706.575 513.133C709.891 509.921 709.975 504.629 706.763 501.313Z" fill="#784C9E"/>
<g style="mix-blend-mode:multiply" opacity="0.6">
<path d="M569.496 548.928C569.471 548.27 569.316 547.623 569.041 547.024C568.766 546.426 568.375 545.888 567.891 545.44C567.408 544.993 566.841 544.645 566.223 544.417C565.605 544.189 564.948 544.085 564.29 544.111L541.178 544.997C540.565 543.714 539.59 542.638 538.373 541.901C537.157 541.164 535.752 540.799 534.331 540.85L500.505 542.146L500.354 538.452L522.559 537.566C523.004 537.55 523.442 537.445 523.847 537.259C524.252 537.073 524.617 536.809 524.92 536.482C525.222 536.155 525.458 535.772 525.613 535.353C525.767 534.935 525.838 534.491 525.82 534.046L525.669 530.33C525.653 529.885 525.548 529.447 525.362 529.042C525.176 528.637 524.912 528.273 524.585 527.97C524.258 527.667 523.874 527.431 523.456 527.277C523.038 527.122 522.594 527.051 522.148 527.069L494.284 528.192L488.971 528.386L413.608 531.389C412.919 531.416 412.242 531.578 411.615 531.867C410.989 532.156 410.425 532.565 409.957 533.071C409.489 533.578 409.125 534.171 408.886 534.819C408.647 535.466 408.538 536.153 408.565 536.843C408.592 537.532 408.754 538.209 409.043 538.836C409.332 539.462 409.741 540.026 410.247 540.494C410.754 540.962 411.347 541.326 411.995 541.565C412.642 541.804 413.33 541.913 414.019 541.886L489.381 538.884L489.532 542.556L232.363 552.384L199.293 561.845L175.533 568.627L199.725 573.595L233.4 580.507L490.548 570.679L501.52 570.269L535.346 568.973C536.76 568.91 538.125 568.438 539.276 567.613C540.426 566.789 541.312 565.648 541.826 564.329L564.938 563.443C565.602 563.424 566.255 563.273 566.86 562.998C567.465 562.724 568.009 562.333 568.462 561.846C568.914 561.36 569.265 560.788 569.494 560.165C569.724 559.542 569.827 558.879 569.798 558.216L569.496 548.928Z" fill="#D6E0EF"/>
</g>
<path d="M581.099 533.484L581.455 542.786C581.505 544.115 581.026 545.408 580.123 546.383C579.22 547.358 577.967 547.935 576.639 547.986L369.041 555.924L368.298 536.498L575.896 528.56C576.562 528.534 577.228 528.642 577.852 528.877C578.477 529.112 579.048 529.469 579.533 529.927C580.017 530.386 580.406 530.937 580.675 531.548C580.943 532.158 581.088 532.816 581.099 533.484Z" fill="#FFC507"/>
<path d="M553.505 532.408L554.023 545.941C554.097 547.876 553.399 549.761 552.083 551.182C550.767 552.602 548.941 553.442 547.006 553.516L245.043 565.063L243.97 537.004L545.911 525.457C547.846 525.383 549.731 526.081 551.152 527.397C552.572 528.712 553.412 530.539 553.486 532.474L553.505 532.408Z" fill="#2250B1"/>
<path d="M187.135 553.162L243.943 536.918L245.023 565.042L187.135 553.162Z" fill="#FFC507"/>
<path d="M210.895 546.379L187.135 553.162L211.327 558.13L210.895 546.379Z" fill="#FFA31B"/>
<path d="M420.154 521.28C420.128 520.59 420.238 519.903 420.478 519.256C420.718 518.609 421.083 518.016 421.553 517.511C422.022 517.005 422.587 516.597 423.214 516.31C423.841 516.022 424.519 515.862 425.209 515.837L533.727 511.517C534.172 511.499 534.617 511.57 535.035 511.725C535.453 511.879 535.837 512.115 536.164 512.418C536.491 512.72 536.755 513.085 536.941 513.49C537.127 513.895 537.231 514.333 537.248 514.778L537.399 518.493C537.416 518.939 537.346 519.383 537.191 519.801C537.037 520.22 536.801 520.603 536.498 520.93C536.195 521.257 535.831 521.521 535.426 521.707C535.021 521.893 534.583 521.998 534.137 522.014L425.619 526.334C424.928 526.363 424.238 526.255 423.588 526.016C422.939 525.778 422.343 525.413 421.836 524.943C421.328 524.474 420.918 523.908 420.629 523.28C420.341 522.651 420.179 521.971 420.154 521.28Z" fill="#FFC507"/>
<path d="M511.535 512.466L500.57 512.885L502.188 555.19L513.153 554.771L511.535 512.466Z" fill="#FFC507"/>
</svg>
