<svg width="1920" height="1024" viewBox="0 0 1920 1024" fill="none" xmlns="http://www.w3.org/2000/svg">
<g clip-path="url(#clip0)">
<rect width="1920" height="1024" fill="white"/>
<path d="M1954.43 -165.604H-18.5957V1807.54H1954.43V-165.604Z" fill="white"/>
<path d="M1951.8 485.119V-165.604H-18.5957V65.1649C860.967 526.703 987.207 -125.145 1951.8 485.119Z" fill="url(#paint0_linear)"/>
<path opacity="0.01" d="M-248.242 5.23584C875.56 1273.72 1280.5 267.473 2108 461.904C900.658 -416.966 898.411 800.565 -248.242 5.23584Z" fill="url(#paint1_linear)"/>
<path opacity="0.02" d="M-245.247 3.73779C874.06 1271.09 1264.77 254.362 2105.75 464.151C889.793 -418.464 897.285 800.939 -245.247 3.73779Z" fill="url(#paint2_linear)"/>
<path opacity="0.04" d="M-241.879 2.23291C874.057 1268.09 1249.03 241.618 2103.87 466.393C878.926 -419.969 896.533 801.308 -241.879 2.23291Z" fill="url(#paint3_linear)"/>
<path opacity="0.05" d="M-238.883 0.357422C873.681 1265.47 1233.67 230.752 2101.62 466.391C869.561 -421.47 895.783 803.553 -238.883 0.357422Z" fill="url(#paint4_linear)"/>
<path opacity="0.06" d="M-235.874 -1.14062C873.319 1262.47 1217.95 218.764 2099.76 469.388C857.211 -422.968 895.046 803.554 -235.874 -1.14062Z" fill="url(#paint5_linear)"/>
<path opacity="0.07" d="M-232.506 -2.64502C873.315 1259.84 1202.21 207.145 2097.89 471.255C846.344 -424.472 893.918 803.547 -232.506 -2.64502Z" fill="url(#paint6_linear)"/>
<path opacity="0.09" d="M-229.511 -4.51416C872.939 1256.85 1186.48 195.161 2095.64 472.757C835.479 -425.967 893.168 803.551 -229.511 -4.51416Z" fill="url(#paint7_linear)"/>
<path opacity="0.1" d="M-226.515 -6.0127C872.564 1253.1 1169.25 183.547 2093.39 474.631C824.615 -427.465 892.417 803.551 -226.515 -6.0127Z" fill="url(#paint8_linear)"/>
<path opacity="0.11" d="M-223.147 -7.50391C872.185 1253.11 1155.01 171.941 2091.51 476.137C813.747 -428.957 891.664 803.558 -223.147 -7.50391Z" fill="url(#paint9_linear)"/>
<path opacity="0.12" d="M-220.138 -9.37988C871.823 1248.23 1139.66 159.95 2089.28 477.632C803.271 -430.458 890.553 803.555 -220.138 -9.37988Z" fill="url(#paint10_linear)"/>
<path opacity="0.13" d="M-216.771 -10.8774C871.819 1245.61 1123.93 148.338 2087.77 479.881C792.404 -432.705 889.8 803.557 -216.771 -10.8774Z" fill="url(#paint11_linear)"/>
<path opacity="0.15" d="M-213.788 -12.7593C872.554 1242.61 1108.18 137.091 2085.51 481.371C781.526 -432.714 889.036 803.549 -213.788 -12.7593Z" fill="url(#paint12_linear)"/>
<path opacity="0.16" d="M-210.792 -14.2451C869.556 1240 1094.32 124.741 2083.26 483.257C770.662 -434.949 887.912 805.808 -210.792 -14.2451Z" fill="url(#paint13_linear)"/>
<path opacity="0.17" d="M-207.783 -15.7427C869.568 1237 1076.72 112.754 2081.4 485.13C759.81 -436.446 887.174 806.183 -207.783 -15.7427Z" fill="url(#paint14_linear)"/>
<path opacity="0.18" d="M-204.416 -17.6255C870.688 1234.37 1061.36 101.131 2080.65 486.619C748.943 -437.954 886.421 806.549 -204.416 -17.6255Z" fill="url(#paint15_linear)"/>
<path opacity="0.2" d="M-201.419 -20.6279C869.565 1231.37 1045.63 89.137 2077.28 488.487C738.08 -439.458 885.673 807.292 -201.419 -20.6279Z" fill="url(#paint16_linear)"/>
<path opacity="0.21" d="M-198.424 -20.6279C869.563 1228.74 1029.89 77.5237 2075.03 490.36C727.215 -441.331 884.547 807.667 -198.424 -20.6279Z" fill="url(#paint17_linear)"/>
<path opacity="0.22" d="M-195.057 -20.6279C869.558 1225.75 1014.15 65.9104 2073.15 491.859C716.346 -442.456 883.793 808.042 -195.057 -20.6279Z" fill="url(#paint18_linear)"/>
<path opacity="0.23" d="M-192.047 -23.9888C869.572 1223.14 998.434 54.3078 2070.92 493.742C705.496 -444.317 883.057 808.427 -192.047 -23.9888Z" fill="url(#paint19_linear)"/>
<path opacity="0.24" d="M-189.051 -25.8579C869.571 1220.15 981.951 42.3238 2068.29 495.62C695.007 -445.813 882.307 808.807 -189.051 -25.8579Z" fill="url(#paint20_linear)"/>
<path opacity="0.26" d="M-185.684 -27.3618C869.567 1215.64 966.963 30.3304 2068.29 497.113C682.266 -447.316 881.179 809.55 -185.684 -27.3618Z" fill="url(#paint21_linear)"/>
<path opacity="0.27" d="M-182.688 -28.8599C869.565 1215.64 951.603 16.8444 2064.92 498.986C673.274 -448.814 880.428 809.925 -182.688 -28.8599Z" fill="url(#paint22_linear)"/>
<path opacity="0.28" d="M-179.32 -30.7432C869.562 1211.51 935.866 6.71934 2063.04 500.475C662.408 -450.323 879.676 810.29 -179.32 -30.7432Z" fill="url(#paint23_linear)"/>
<path opacity="0.29" d="M-176.324 -32.2275C869.561 1208.9 920.132 -4.87995 2060.79 503.86C651.543 -451.807 878.926 810.678 -176.324 -32.2275Z" fill="url(#paint24_linear)"/>
<path opacity="0.3" d="M-173.329 -33.7261C869.559 1206.28 904.397 -16.8679 2058.54 503.861C640.678 -453.306 877.8 811.053 -173.329 -33.7261Z" fill="url(#paint25_linear)"/>
<path opacity="0.32" d="M-169.947 -35.6011C867.697 1203.28 889.049 -28.4832 2056.68 505.732C629.825 -454.807 877.062 811.426 -169.947 -35.6011Z" fill="url(#paint26_linear)"/>
<path opacity="0.33" d="M-166.965 -37.106C867.308 1199.16 872.927 -40.4775 2054.42 507.598C618.947 -456.311 876.298 812.168 -166.965 -37.106Z" fill="url(#paint27_linear)"/>
<path opacity="0.34" d="M-163.956 -38.604C866.945 1197.66 857.205 -52.0905 2052.18 509.472C607.347 -457.809 875.561 812.543 -163.956 -38.604Z" fill="url(#paint28_linear)"/>
<path opacity="0.35" d="M-160.603 -40.4668C866.927 1195.79 841.829 -64.0681 2049.54 510.98C597.589 -459.297 874.419 812.928 -160.603 -40.4668Z" fill="url(#paint29_linear)"/>
<path opacity="0.37" d="M-157.593 -41.9717C866.191 1192.04 826.109 -75.6879 2048.43 512.848C586.739 -460.802 873.683 813.297 -157.593 -41.9717Z" fill="url(#paint30_linear)"/>
<path opacity="0.38" d="M-154.597 -43.8403C865.816 1189.05 810.375 -87.6714 2046.18 514.351C575.875 -462.296 872.933 813.676 -154.597 -43.8403Z" fill="url(#paint31_linear)"/>
<path opacity="0.39" d="M-151.229 -45.3389C865.811 1186.43 794.637 -99.2849 2044.31 516.598C565.007 -463.795 871.805 814.051 -151.229 -45.3389Z" fill="url(#paint32_linear)"/>
<path opacity="0.4" d="M-148.233 -46.8364C865.436 1183.81 778.903 -110.897 2042.06 518.098C554.143 -465.292 869.557 814.801 -148.233 -46.8364Z" fill="url(#paint33_linear)"/>
<path opacity="0.41" d="M-145.225 -48.7256C866.197 1180.79 763.182 -123.65 2039.82 519.954C543.291 -466.807 869.569 815.159 -145.225 -48.7256Z" fill="url(#paint34_linear)"/>
<path opacity="0.43" d="M-141.857 -50.2236C865.069 1178.17 747.819 -133.016 2037.94 521.828C532.424 -468.305 869.564 815.534 -141.857 -50.2236Z" fill="url(#paint35_linear)"/>
<path opacity="0.44" d="M-138.86 -51.7085C864.695 1175.19 732.086 -146.114 2036.07 523.715C521.561 -470.164 869.565 815.922 -138.86 -51.7085Z" fill="url(#paint36_linear)"/>
<path opacity="0.45" d="M-135.865 -53.5908C864.319 1172.18 716.351 -158.111 2033.82 525.204C510.696 -470.173 869.563 816.287 -135.865 -53.5908Z" fill="url(#paint37_linear)"/>
<path opacity="0.46" d="M-132.498 -55.0889C864.315 1169.56 700.614 -170.473 2030.82 527.078C500.203 -472.795 866.937 816.663 -132.498 -55.0889Z" fill="url(#paint38_linear)"/>
<path opacity="0.48" d="M-129.489 -58.085C863.952 1166.56 684.893 -181.711 2030.83 528.577C489.351 -474.293 866.199 817.413 -129.489 -58.085Z" fill="url(#paint39_linear)"/>
<path opacity="0.49" d="M-126.134 -58.085C863.936 1164.32 669.518 -193.324 2027.82 530.825C478.472 -475.792 865.06 817.787 -126.134 -58.085Z" fill="url(#paint40_linear)"/>
<path opacity="0.5" d="M-123.125 -59.9541C863.573 1161.32 653.797 -205.308 2025.96 532.328C467.62 -477.286 864.322 818.166 -123.125 -59.9541Z" fill="url(#paint41_linear)"/>
<path opacity="0.51" d="M-123.125 -58.085C859.827 1146.33 654.921 -200.442 2015.1 525.206C471.366 -470.172 862.449 810.67 -123.125 -58.085Z" fill="url(#paint42_linear)"/>
<path opacity="0.52" d="M-123.51 -58.085C856.446 1131.72 656.035 -195.572 2004.6 518.462C475.102 -460.432 860.566 803.552 -123.51 -58.085Z" fill="url(#paint43_linear)"/>
<path opacity="0.54" d="M-123.51 -58.085C853.074 1116.74 657.158 -190.328 1993.36 511.719C478.474 -452.19 858.693 796.059 -123.51 -58.085Z" fill="url(#paint44_linear)"/>
<path opacity="0.55" d="M-123.51 -58.085C849.703 1103.25 658.656 -185.457 1983.62 503.852C482.219 -443.574 856.82 788.942 -123.51 -58.085Z" fill="url(#paint45_linear)"/>
<path opacity="0.56" d="M-123.868 -58.085C846.348 1085.64 659.797 -182.46 1973.9 496.36C485.982 -435.332 854.963 781.449 -123.868 -58.085Z" fill="url(#paint46_linear)"/>
<path opacity="0.57" d="M-123.868 -55.4536C842.976 1072.54 660.92 -175.334 1962.28 491.499C489.728 -427.082 853.09 774.341 -123.868 -55.4536Z" fill="url(#paint47_linear)"/>
<path opacity="0.59" d="M-123.868 -54.7046C839.979 1057.93 662.793 -170.464 1951.79 484.755C494.972 -418.465 851.218 766.098 -123.868 -54.7046Z" fill="url(#paint48_linear)"/>
<path opacity="0.6" d="M-124.226 -53.9551C836.251 1042.95 662.436 -166.343 1940.95 478.012C497.237 -410.223 849.362 759.356 -124.226 -53.9551Z" fill="url(#paint49_linear)"/>
<path opacity="0.61" d="M-124.226 -53.2061C832.13 1028.34 664.309 -160.723 1930.46 471.268C500.983 -401.607 847.489 752.237 -124.226 -53.2061Z" fill="url(#paint50_linear)"/>
<path opacity="0.62" d="M-124.226 -52.4507C829.508 1013.36 665.807 -155.472 1918.47 466.404C504.354 -393.359 845.99 744.75 -124.226 -52.4507Z" fill="url(#paint51_linear)"/>
<path opacity="0.63" d="M-124.636 -51.7085C826.101 997.241 666.521 -150.609 1909.07 457.781C508.065 -384.75 844.082 737.626 -124.636 -51.7085Z" fill="url(#paint52_linear)"/>
<path opacity="0.65" d="M-124.636 -50.9595C822.729 984.128 668.019 -145.739 1898.21 451.037C511.811 -376.508 842.209 728.634 -124.636 -50.9595Z" fill="url(#paint53_linear)"/>
<path opacity="0.66" d="M-124.636 -50.2236C819.733 969.13 669.143 -140.883 1888.47 444.281C515.557 -368.28 840.336 723.002 -124.636 -50.2236Z" fill="url(#paint54_linear)"/>
<path opacity="0.67" d="M-124.994 -49.4678C816.003 954.527 670.283 -136.006 1877.62 437.544C519.319 -359.657 838.479 715.516 -124.994 -49.4678Z" fill="url(#paint55_linear)"/>
<path opacity="0.68" d="M-124.994 -48.7256C811.508 939.535 671.407 -130.768 1867.13 430.794C523.065 -351.423 836.606 708.017 -124.994 -48.7256Z" fill="url(#paint56_linear)"/>
<path opacity="0.7" d="M-124.994 -47.9702C809.635 926.054 672.905 -125.892 1856.64 424.057C526.811 -342.8 834.733 700.905 -124.994 -47.9702Z" fill="url(#paint57_linear)"/>
<path opacity="0.71" d="M-125.366 -47.2212C805.891 909.945 673.657 -122.146 1845.78 416.939C530.185 -334.558 832.113 693.412 -125.366 -47.2212Z" fill="url(#paint58_linear)"/>
<path opacity="0.72" d="M-125.366 -46.4722C802.52 895.334 675.155 -116.152 1835.29 410.195C532.433 -326.317 832.113 686.294 -125.366 -46.4722Z" fill="url(#paint59_linear)"/>
<path opacity="0.73" d="M-125.366 -45.7231C799.523 880.723 676.279 -110.908 1824.81 403.826C537.677 -317.7 829.116 678.8 -125.366 -45.7231Z" fill="url(#paint60_linear)"/>
<path opacity="0.74" d="M-125.737 -44.5898C794.656 866.122 677.406 -106.028 1814.32 397.092C541.426 -309.449 827.247 671.692 -125.737 -44.5898Z" fill="url(#paint61_linear)"/>
<path opacity="0.76" d="M-125.737 -43.8403C792.409 851.137 678.53 -100.783 1803.83 391.473C545.173 -300.833 825.374 664.2 -125.737 -43.8403Z" fill="url(#paint62_linear)"/>
<path opacity="0.77" d="M-125.737 -43.085C789.037 836.534 680.029 -95.5324 1792.97 383.613C548.919 -292.585 823.501 656.714 -125.737 -43.085Z" fill="url(#paint63_linear)"/>
<path opacity="0.78" d="M-126.134 -42.3423C785.644 821.916 682.254 -91.0434 1782.46 376.863C552.642 -282.851 821.606 649.589 -126.134 -42.3423Z" fill="url(#paint64_linear)"/>
<path opacity="0.79" d="M-126.134 -41.5869C782.273 806.939 682.254 -85.7927 1771.97 370.501C556.014 -275.728 819.733 642.104 -126.134 -41.5869Z" fill="url(#paint65_linear)"/>
<path opacity="0.8" d="M-126.134 -40.8511C778.901 792.314 682.254 -80.9359 1761.48 363.369C559.76 -267.499 817.86 634.972 -126.134 -40.8511Z" fill="url(#paint66_linear)"/>
<path opacity="0.82" d="M-126.506 -40.1089C775.533 777.697 684.505 -77.5714 1750.62 356.619C563.509 -258.89 815.99 627.473 -126.506 -40.1089Z" fill="url(#paint67_linear)"/>
<path opacity="0.83" d="M-126.506 -39.3594C772.536 762.713 685.629 -71.2025 1740.13 349.876C567.255 -250.648 814.117 620.355 -126.506 -39.3594Z" fill="url(#paint68_linear)"/>
<path opacity="0.84" d="M-126.506 -38.604C768.79 748.108 687.127 -65.9517 1729.64 343.138C569.877 -242.025 812.244 612.868 -126.506 -38.604Z" fill="url(#paint69_linear)"/>
<path opacity="0.85" d="M-126.506 -37.8618C765.793 733.116 688.251 -61.0885 1719.15 336.763C574.747 -233.791 810.371 605.369 -126.506 -37.8618Z" fill="url(#paint70_linear)"/>
<path opacity="0.87" d="M-126.863 -37.106C762.064 718.512 689.392 -56.2118 1708.68 329.277C578.51 -225.542 808.515 598.257 -126.863 -37.106Z" fill="url(#paint71_linear)"/>
<path opacity="0.88" d="M-126.863 -36.3574C758.693 703.527 690.516 -51.3424 1697.82 322.533C581.881 -216.927 806.642 590.765 -126.863 -36.3574Z" fill="url(#paint72_linear)"/>
<path opacity="0.89" d="M-126.863 -35.6011C757.195 688.923 691.639 -46.0906 1687.33 316.546C585.627 -207.928 804.769 583.653 -126.863 -35.6011Z" fill="url(#paint73_linear)"/>
<path opacity="0.9" d="M-127.235 -34.8589C751.952 674.306 692.766 -41.2276 1676.84 309.047C589.376 -200.068 802.898 576.154 -127.235 -34.8589Z" fill="url(#paint74_linear)"/>
<path opacity="0.91" d="M-127.235 -34.1094C748.581 659.32 694.264 -36.3571 1666.35 303.052C593.122 -191.826 801.025 569.036 -127.235 -34.1094Z" fill="url(#paint75_linear)"/>
<path opacity="0.93" d="M-127.235 -33.3545C745.584 644.716 696.886 -31.4813 1655.86 295.566C596.868 -183.579 799.152 561.549 -127.235 -33.3545Z" fill="url(#paint76_linear)"/>
<path opacity="0.94" d="M-127.62 -32.6123C741.828 629.725 696.501 -26.6183 1644.99 288.816C600.604 -174.97 797.269 554.425 -127.62 -32.6123Z" fill="url(#paint77_linear)"/>
<path opacity="0.95" d="M-127.62 -31.8564C738.457 615.121 696.501 -21.367 1633 282.079C604.35 -166.721 794.647 546.939 -127.62 -31.8564Z" fill="url(#paint78_linear)"/>
<path opacity="0.96" d="M-127.62 -31.1074C733.961 600.135 699.123 -16.497 1624.01 275.336C607.346 -158.105 794.647 541.319 -127.62 -31.1074Z" fill="url(#paint79_linear)"/>
<path opacity="0.98" d="M-128.003 -30.3584C731.706 585.525 699.865 -11.6272 1613.14 269.341C611.459 -149.864 792.016 532.328 -128.003 -30.3584Z" fill="url(#paint80_linear)"/>
<path opacity="0.99" d="M-128.003 -29.6094C728.334 569.79 701.363 -6.75725 1602.65 261.474C615.205 -141.247 790.143 524.835 -128.003 -29.6094Z" fill="url(#paint81_linear)"/>
<path d="M-128.003 -28.8599C724.963 555.93 702.487 -1.51226 1592.16 254.731C618.951 -133.006 788.27 517.718 -128.003 -28.8599Z" fill="url(#paint82_linear)"/>
<path style="mix-blend-mode:screen" d="M818.899 337.164C981.021 303.854 1106.88 249.742 1100.01 216.302C1093.14 182.862 956.143 182.757 794.021 216.068C631.898 249.378 506.041 303.49 512.911 336.93C519.781 370.37 656.776 370.475 818.899 337.164Z" fill="url(#paint83_radial)"/>
<path style="mix-blend-mode:screen" d="M1860.13 403.769C1872.39 371.906 1757.25 297.964 1602.97 238.613C1448.69 179.263 1313.68 156.979 1301.43 188.842C1289.17 220.704 1404.31 294.647 1558.59 353.997C1712.87 413.348 1847.87 435.631 1860.13 403.769Z" fill="url(#paint84_radial)"/>
<path style="mix-blend-mode:screen" d="M1024.88 300.061C1167.46 277.146 1279.21 234.723 1274.48 205.307C1269.75 175.891 1150.34 170.621 1007.76 193.536C865.187 216.451 753.438 258.874 758.165 288.29C762.892 317.706 882.306 322.976 1024.88 300.061Z" fill="url(#paint85_radial)"/>
<g opacity="0.55">
<path opacity="0.55" d="M1370.04 236.365L993.568 193.658L993.943 192.534L1370.04 235.241V236.365Z" fill="black" fill-opacity="0.5"/>
<path opacity="0.55" d="M1241.93 909.951L1240.81 910.325L993.197 193.293L994.321 192.918L1241.93 909.951Z" fill="black" fill-opacity="0.5"/>
<path opacity="0.55" d="M1242.29 910.311L1240.79 909.936L1369.28 235.611L1370.78 235.986L1242.29 910.311Z" fill="black" fill-opacity="0.5"/>
<path opacity="0.55" d="M1241.16 910.694L835.098 657.073L835.847 655.949L1241.91 909.57L1241.16 910.694Z" fill="black" fill-opacity="0.5"/>
<path opacity="0.55" d="M1263.27 1487.62H1262.15L1240.79 910.326H1242.29L1263.27 1487.62Z" fill="black" fill-opacity="0.5"/>
<path opacity="0.55" d="M937.768 1362.49L936.645 1361.74L1240.82 909.941L1241.94 910.691L937.768 1362.49Z" fill="black" fill-opacity="0.5"/>
<path opacity="0.55" d="M936.625 1362.5L567.644 875.109L568.767 874.36L937.748 1361.75L936.625 1362.5Z" fill="black" fill-opacity="0.5"/>
<path opacity="0.55" d="M937.743 1362.12H936.244L834.727 656.698H835.85L937.743 1362.12Z" fill="black" fill-opacity="0.5"/>
<path opacity="0.55" d="M1241.53 911.064L568.001 875.099V873.976L1241.53 909.565V911.064Z" fill="black" fill-opacity="0.5"/>
<path opacity="0.55" d="M1241.55 910.694L532.052 1155.7L531.678 1154.58L1241.17 909.57L1241.55 910.694Z" fill="black" fill-opacity="0.5"/>
<path opacity="0.55" d="M532.444 1155.32L531.32 1154.95L565.409 869.11H566.533L532.444 1155.32Z" fill="black" fill-opacity="0.5"/>
<path opacity="0.55" d="M993.192 193.28L651.93 -201.2L653.053 -202.324L994.316 192.531L993.192 193.28Z" fill="black" fill-opacity="0.5"/>
<path opacity="0.55" d="M992.788 191.214L430.568 504.418L431.115 505.4L993.335 192.196L992.788 191.214Z" fill="black" fill-opacity="0.5"/>
<path opacity="0.55" d="M993.294 193.029L834.501 656.592L835.564 656.956L994.357 193.393L993.294 193.029Z" fill="black" fill-opacity="0.5"/>
<path opacity="0.55" d="M835.121 657.069L429.429 504.223L430.178 503.099L835.496 655.945L835.121 657.069Z" fill="black" fill-opacity="0.5"/>
<path opacity="0.55" d="M835.136 655.521L568.041 873.917L568.752 874.787L835.847 656.391L835.136 655.521Z" fill="black" fill-opacity="0.5"/>
<path opacity="0.55" d="M835.475 657.073L252.971 800.179L252.597 799.056L835.101 655.949L835.475 657.073Z" fill="black" fill-opacity="0.5"/>
<path opacity="0.55" d="M568.011 875.098L252.597 800.172L252.971 799.048L568.385 873.974L568.011 875.098Z" fill="black" fill-opacity="0.5"/>
<path opacity="0.55" d="M568.757 874.351L567.633 875.1L429.031 503.848L430.53 503.099L568.757 874.351Z" fill="black" fill-opacity="0.5"/>
<path opacity="0.55" d="M430.539 503.473L429.04 503.848L332.019 190.287L333.142 189.538L430.539 503.473Z" fill="black" fill-opacity="0.5"/>
<path opacity="0.55" d="M651.476 -201.823L429.362 503.537L430.434 503.875L652.548 -201.485L651.476 -201.823Z" fill="black" fill-opacity="0.5"/>
<path opacity="0.55" d="M333.142 190.283L332.019 189.534L651.928 -202.324L653.051 -201.2L333.142 190.283Z" fill="black" fill-opacity="0.5"/>
<path opacity="0.55" d="M218.895 602.003L217.771 601.629L332.025 189.916H333.149L218.895 602.003Z" fill="black" fill-opacity="0.5"/>
<path opacity="0.55" d="M332.004 190.286L3.10547 -79.4445L3.85469 -80.5684L333.128 189.536L332.004 190.286Z" fill="black" fill-opacity="0.5"/>
<path opacity="0.55" d="M218.504 602.374L218.13 601.25L429.404 503.099L430.154 504.223L218.504 602.374Z" fill="black" fill-opacity="0.5"/>
<path opacity="0.55" d="M218.878 601.906L217.771 602.1L252.331 799.522L253.438 799.328L218.878 601.906Z" fill="black" fill-opacity="0.5"/>
<path opacity="0.55" d="M36.827 954.892L35.7031 954.143L252.222 799.048L253.346 800.172L36.827 954.892Z" fill="black" fill-opacity="0.5"/>
<path opacity="0.55" d="M252.244 799.812L17.3691 482.505L18.4929 481.755L253.367 799.062L252.244 799.812Z" fill="black" fill-opacity="0.5"/>
<path opacity="0.55" d="M217.774 602.376L-41.4502 117.237L-40.3264 116.487L218.897 601.627L217.774 602.376Z" fill="black" fill-opacity="0.5"/>
<path opacity="0.55" d="M218.139 602.385L17.7275 482.505L18.1021 481.755L218.514 601.261L218.139 602.385Z" fill="black" fill-opacity="0.5"/>
<path opacity="0.55" d="M217.768 602.374L-423.549 8.21948L-422.8 7.47021L218.891 601.625L217.768 602.374Z" fill="black" fill-opacity="0.5"/>
<path opacity="0.55" d="M-40.3264 116.863L-41.4502 116.488L2.75263 -80.1895L3.87646 -79.8148L-40.3264 116.863Z" fill="black" fill-opacity="0.5"/>
<path opacity="0.55" d="M17.3428 482.5L-42.2188 428.179L-41.095 427.43L18.4666 481.75L17.3428 482.5Z" fill="black" fill-opacity="0.5"/>
<path opacity="0.55" d="M35.7117 954.906L-232.877 467.144L-231.753 466.77L36.8355 954.157L35.7117 954.906Z" fill="black" fill-opacity="0.5"/>
<path opacity="0.55" d="M-123.75 863.652L-124.305 864.629L35.6999 955.346L36.2541 954.368L-123.75 863.652Z" fill="black" fill-opacity="0.5"/>
<path opacity="0.55" d="M242.12 1741.62L-124.239 864.245L-123.115 863.496L243.244 1741.24L242.12 1741.62Z" fill="black" fill-opacity="0.5"/>
<path opacity="0.55" d="M272.076 1165.43L35.7031 954.896L36.827 954.146L272.826 1164.31L272.076 1165.43Z" fill="black" fill-opacity="0.5"/>
<path opacity="0.55" d="M338.844 206.965C348.343 203.423 353.172 192.851 349.63 183.352C346.088 173.853 335.517 169.024 326.018 172.566C316.519 176.108 311.691 186.68 315.233 196.179C318.774 205.678 329.346 210.507 338.844 206.965Z" fill="black" fill-opacity="0.5"/>
<path opacity="0.55" d="M24.1344 499.157C33.6323 495.613 38.4593 485.04 34.9157 475.542C31.3721 466.043 20.7999 461.216 11.302 464.76C1.80407 468.303 -3.02288 478.876 0.520696 488.375C4.06427 497.873 14.6365 502.701 24.1344 499.157Z" fill="black" fill-opacity="0.5"/>
<path opacity="0.55" d="M259.215 816.603C268.713 813.059 273.54 802.486 269.996 792.988C266.453 783.489 255.881 778.662 246.383 782.206C236.885 785.75 232.058 796.323 235.602 805.821C239.145 815.32 249.717 820.147 259.215 816.603Z" fill="black" fill-opacity="0.5"/>
<path opacity="0.55" d="M436.364 520.742C445.864 517.203 450.696 506.632 447.158 497.132C443.619 487.631 433.049 482.799 423.55 486.337C414.05 489.876 409.217 500.447 412.756 509.947C416.294 519.448 426.864 524.28 436.364 520.742Z" fill="black" fill-opacity="0.5"/>
<path opacity="0.55" d="M574.7 891.914C584.198 888.371 589.025 877.798 585.481 868.299C581.938 858.8 571.365 853.973 561.867 857.517C552.37 861.061 547.543 871.634 551.086 881.132C554.63 890.631 565.202 895.458 574.7 891.914Z" fill="black" fill-opacity="0.5"/>
<path opacity="0.55" d="M224.783 619.017C234.282 615.475 239.111 604.903 235.569 595.404C232.027 585.905 221.455 581.075 211.957 584.618C202.458 588.16 197.629 598.732 201.171 608.231C204.713 617.73 215.285 622.559 224.783 619.017Z" fill="black" fill-opacity="0.5"/>
<path opacity="0.55" d="M43.1178 971.535C52.6157 967.991 57.4427 957.418 53.8991 947.92C50.3555 938.421 39.7833 933.594 30.2854 937.138C20.7875 940.681 15.9605 951.254 19.5041 960.753C23.0476 970.252 33.6199 975.079 43.1178 971.535Z" fill="black" fill-opacity="0.5"/>
<path opacity="0.55" d="M1247.98 927.68C1257.47 924.137 1262.3 913.565 1258.76 904.066C1255.22 894.567 1244.65 889.738 1235.15 893.28C1225.65 896.822 1220.82 907.394 1224.36 916.893C1227.91 926.393 1238.48 931.222 1247.98 927.68Z" fill="black" fill-opacity="0.5"/>
<path opacity="0.55" d="M1000.32 209.937C1009.82 206.392 1014.65 195.818 1011.1 186.32C1007.56 176.822 996.984 171.997 987.486 175.542C977.989 179.088 973.164 189.662 976.709 199.159C980.254 208.657 990.827 213.483 1000.32 209.937Z" fill="black" fill-opacity="0.5"/>
<path opacity="0.55" d="M1376.65 253.205C1386.14 249.662 1390.97 239.09 1387.43 229.591C1383.89 220.092 1373.32 215.263 1363.82 218.805C1354.32 222.347 1349.49 232.919 1353.03 242.419C1356.58 251.918 1367.15 256.747 1376.65 253.205Z" fill="black" fill-opacity="0.5"/>
<path opacity="0.55" d="M841.968 673.927C851.466 670.383 856.293 659.81 852.75 650.312C849.206 640.813 838.634 635.986 829.136 639.53C819.638 643.073 814.811 653.646 818.355 663.145C821.898 672.643 832.471 677.471 841.968 673.927Z" fill="black" fill-opacity="0.5"/>
</g>
<g opacity="0.22">
<path opacity="0.22" d="M689.02 622.619L606.608 742.125H606.233L688.646 622.245L689.02 622.619Z" fill="black"/>
<path opacity="0.22" d="M893.552 787.826V788.201L606.233 742.496V741.747L893.552 787.826Z" fill="black"/>
<path opacity="0.22" d="M893.932 787.829L893.557 788.203L688.65 622.619L689.025 622.245L893.932 787.829Z" fill="black"/>
<path opacity="0.22" d="M893.538 788.196L734.708 879.605L734.333 879.231L893.538 787.821V788.196Z" fill="black"/>
<path opacity="0.22" d="M1092.83 884.849L1092.46 885.224L893.547 788.196V787.821L1092.83 884.849Z" fill="black"/>
<path opacity="0.22" d="M991.691 972.511H991.317L893.547 788.196L893.922 787.821L991.691 972.511Z" fill="black"/>
<path opacity="0.22" d="M1092.85 885.221L991.704 972.883L991.329 972.508L1092.47 884.847L1092.85 885.221Z" fill="black"/>
<path opacity="0.22" d="M1092.85 885.221L1044.91 1137.72L1044.16 1137.34L1092.48 884.847L1092.85 885.221Z" fill="black"/>
<path opacity="0.22" d="M1044.9 1137.34L1044.15 1137.71L991.329 972.5H991.704L1044.9 1137.34Z" fill="black"/>
<path opacity="0.22" d="M991.705 972.875L848.234 1072.15V1071.78L991.331 972.5L991.705 972.875Z" fill="black"/>
<path opacity="0.22" d="M991.678 972.891L759.799 1009.6V1008.86L991.303 972.142L991.678 972.891Z" fill="black"/>
<path opacity="0.22" d="M991.683 972.139L991.308 972.888L734.333 879.606V879.232L991.683 972.139Z" fill="black"/>
<path opacity="0.22" d="M893.906 788.196L760.174 1009.22H759.799L893.531 787.821L893.906 788.196Z" fill="black"/>
<path opacity="0.22" d="M893.468 788.01L848.116 1072.12L848.486 1072.18L893.838 788.069L893.468 788.01Z" fill="black"/>
<path opacity="0.22" d="M848.226 1071.79V1072.16L757.572 1009.22L757.947 1008.85L848.226 1071.79Z" fill="black"/>
<path opacity="0.22" d="M606.234 742.496L411.067 786.327V785.953L606.234 741.747V742.496Z" fill="black"/>
<path opacity="0.22" d="M609.608 988.989H609.234L605.862 742.112H606.612L609.608 988.989Z" fill="black"/>
<path opacity="0.22" d="M734.721 879.234L734.347 879.609L606.233 742.122L606.608 741.747L734.721 879.234Z" fill="black"/>
<path opacity="0.22" d="M734.722 879.606L609.605 988.997L609.23 988.622L734.347 879.232L734.722 879.606Z" fill="black"/>
<path opacity="0.22" d="M760.181 1009.23H759.806L734.333 879.606L734.708 879.232L760.181 1009.23Z" fill="black"/>
<path opacity="0.22" d="M734.737 879.606L677.797 1102.51L677.423 1102.13L734.362 879.232L734.737 879.606Z" fill="black"/>
<path opacity="0.22" d="M760.21 1009.22L677.797 1102.5L677.423 1102.13L759.835 1009.22H760.21Z" fill="black"/>
<path opacity="0.22" d="M759.82 1008.85V1009.6L609.23 989.37V988.621L759.82 1008.85Z" fill="black"/>
<path opacity="0.22" d="M609.242 988.625V989.375L485.624 965.398V965.023L609.242 988.625Z" fill="black"/>
<path opacity="0.22" d="M609.623 988.991H609.249L410.71 786.32L411.459 785.945L609.623 988.991Z" fill="black"/>
<path opacity="0.22" d="M486.005 965.016L485.631 965.391L410.71 786.32L411.459 785.945L486.005 965.016Z" fill="black"/>
<path opacity="0.22" d="M604.747 1078.16L604.372 1078.53L485.624 965.398L485.999 965.023L604.747 1078.16Z" fill="black"/>
<path opacity="0.22" d="M485.979 965.398L335.015 1027.96V1027.59L485.604 965.023L485.979 965.398Z" fill="black"/>
<path opacity="0.22" d="M604.739 1078.15H604.364L609.234 988.985H609.609L604.739 1078.15Z" fill="black"/>
<path opacity="0.22" d="M991.698 972.5L883.439 1210.76L882.689 1210.39L991.324 972.5H991.698Z" fill="black"/>
<path opacity="0.22" d="M974.482 1205.89H974.107L991.339 972.5H991.713L974.482 1205.89Z" fill="black"/>
<path opacity="0.22" d="M492.382 966.103C492.906 962.207 490.172 958.624 486.277 958.1C482.381 957.576 478.798 960.31 478.274 964.206C477.75 968.102 480.483 971.685 484.379 972.209C488.275 972.733 491.858 969.999 492.382 966.103Z" fill="black"/>
<path opacity="0.22" d="M616.348 990.003C616.875 986.107 614.144 982.522 610.249 981.996C606.353 981.469 602.768 984.2 602.242 988.096C601.715 991.991 604.446 995.576 608.341 996.103C612.237 996.629 615.822 993.898 616.348 990.003Z" fill="black"/>
<path opacity="0.22" d="M766.745 1010.3C767.27 1006.41 764.538 1002.82 760.643 1002.3C756.747 1001.77 753.163 1004.5 752.638 1008.4C752.112 1012.29 754.845 1015.88 758.74 1016.4C762.636 1016.93 766.22 1014.2 766.745 1010.3Z" fill="black"/>
<path opacity="0.22" d="M998.419 973.751C998.944 969.855 996.212 966.271 992.316 965.746C988.421 965.22 984.837 967.953 984.312 971.849C983.786 975.745 986.518 979.329 990.414 979.854C994.309 980.379 997.893 977.647 998.419 973.751Z" fill="black"/>
<path opacity="0.22" d="M900.479 788.986C901.005 785.09 898.273 781.506 894.377 780.98C890.481 780.455 886.897 783.187 886.372 787.083C885.847 790.979 888.579 794.563 892.475 795.088C896.37 795.614 899.954 792.882 900.479 788.986Z" fill="black"/>
<path opacity="0.22" d="M1099.75 886.024C1100.27 882.128 1097.53 878.548 1093.63 878.028C1089.74 877.508 1086.16 880.245 1085.64 884.142C1085.12 888.038 1087.85 891.618 1091.75 892.138C1095.65 892.657 1099.23 889.92 1099.75 886.024Z" fill="black"/>
<path opacity="0.22" d="M613.39 743.204C613.916 739.308 611.184 735.724 607.288 735.199C603.392 734.673 599.809 737.406 599.283 741.301C598.758 745.197 601.49 748.781 605.386 749.306C609.281 749.832 612.865 747.099 613.39 743.204Z" fill="black"/>
<path opacity="0.22" d="M696.061 623.698C696.587 619.802 693.856 616.217 689.96 615.691C686.065 615.165 682.48 617.897 681.954 621.793C681.428 625.689 684.16 629.273 688.055 629.799C691.951 630.325 695.535 627.593 696.061 623.698Z" fill="black"/>
<path opacity="0.22" d="M418.451 787.338C418.977 783.443 416.246 779.858 412.351 779.332C408.455 778.806 404.871 781.538 404.345 785.433C403.819 789.329 406.551 792.913 410.446 793.439C414.341 793.965 417.926 791.234 418.451 787.338Z" fill="black"/>
<path opacity="0.22" d="M741.649 880.358C742.175 876.462 739.442 872.878 735.547 872.353C731.651 871.828 728.067 874.56 727.542 878.456C727.017 882.351 729.749 885.935 733.644 886.46C737.54 886.986 741.124 884.254 741.649 880.358Z" fill="black"/>
<path opacity="0.22" d="M342.315 1028.73C342.837 1024.83 340.103 1021.25 336.207 1020.73C332.311 1020.21 328.729 1022.94 328.206 1026.84C327.683 1030.73 330.418 1034.32 334.314 1034.84C338.21 1035.36 341.792 1032.63 342.315 1028.73Z" fill="black"/>
</g>
<g opacity="0.98">
<path opacity="0.98" d="M-293.917 1023.07L177.331 1300.67L176.582 1302.17L-294.666 1024.57L-293.917 1023.07Z" fill="black" fill-opacity="0.1"/>
<path opacity="0.98" d="M270.612 209.402L272.485 209.777L178.086 1301.43L176.213 1301.06L270.612 209.402Z" fill="black" fill-opacity="0.1"/>
<path opacity="0.98" d="M271.116 209.4L-294.997 1023.07L-293.46 1024.14L272.654 210.47L271.116 209.4Z" fill="black" fill-opacity="0.1"/>
<path opacity="0.98" d="M272.099 209.018L659.061 782.194L657.563 783.318L270.601 210.142L272.099 209.018Z" fill="black" fill-opacity="0.1"/>
<path opacity="0.98" d="M581.634 -565.248L271.145 209.51L272.883 210.207L583.372 -564.551L581.634 -565.248Z" fill="black" fill-opacity="0.1"/>
<path opacity="0.98" d="M933.142 -218.262L272.032 206.765L273.044 208.338L934.154 -216.688L933.142 -218.262Z" fill="black" fill-opacity="0.1"/>
<path opacity="0.98" d="M939.6 -208.109L938.143 -206.932L1351.01 304.229L1352.47 303.052L939.6 -208.109Z" fill="black" fill-opacity="0.1"/>
<path opacity="0.98" d="M939.26 -207.932L1139.67 651.832L1137.8 652.206L937.387 -207.557L939.26 -207.932Z" fill="black" fill-opacity="0.1"/>
<path opacity="0.98" d="M937.39 -207.932L939.263 -207.557L659.062 782.95L657.563 782.575L937.39 -207.932Z" fill="black" fill-opacity="0.1"/>
<path opacity="0.98" d="M271.707 208.647L1139.28 651.08L1138.53 652.953L270.958 210.521L271.707 208.647Z" fill="black" fill-opacity="0.1"/>
<path opacity="0.98" d="M271.369 208.647L1351.34 302.304V304.177L271.369 210.521V208.647Z" fill="black" fill-opacity="0.1"/>
<path opacity="0.98" d="M1350.56 302.671L1352.06 303.795L1139.29 661.187L1137.42 660.063L1350.56 302.671Z" fill="black" fill-opacity="0.1"/>
<path opacity="0.98" d="M657.575 782.199L659.073 783.323L177.711 1301.8L176.213 1300.68L657.575 782.199Z" fill="black" fill-opacity="0.1"/>
<path opacity="0.98" d="M659.062 782.199L1104.09 1222.38L1102.59 1223.51L657.563 783.323L659.062 782.199Z" fill="black" fill-opacity="0.1"/>
<path opacity="0.98" d="M1138.55 651.083L1139.3 652.956L658.31 783.7L657.936 781.827L1138.55 651.083Z" fill="black" fill-opacity="0.1"/>
<path opacity="0.98" d="M658.31 781.815L1510.9 935.412L1510.53 937.285L657.936 783.688L658.31 781.815Z" fill="black" fill-opacity="0.1"/>
<path opacity="0.98" d="M1139.3 651.449L1511.28 935.789L1510.15 937.287L1138.17 652.947L1139.3 651.449Z" fill="black" fill-opacity="0.1"/>
<path opacity="0.98" d="M1137.81 651.832L1139.68 652.207L1104.47 1223.13H1102.59L1137.81 651.832Z" fill="black" fill-opacity="0.1"/>
<path opacity="0.98" d="M1509.78 936.163L1511.65 936.537L1441.23 1217.51L1439.35 1217.13L1509.78 936.163Z" fill="black" fill-opacity="0.1"/>
<path opacity="0.98" d="M1887.06 858.242L1510.52 935.268L1510.89 937.103L1887.44 860.078L1887.06 858.242Z" fill="black" fill-opacity="0.1"/>
<path opacity="0.98" d="M1511.66 936.163L1635.28 1492.85L1633.41 1493.23L1509.79 936.537L1511.66 936.163Z" fill="black" fill-opacity="0.1"/>
<path opacity="0.98" d="M1888.48 858.989L1956.66 1659.94L1954.79 1660.31L1886.61 859.363L1888.48 858.989Z" fill="black" fill-opacity="0.1"/>
<path opacity="0.98" d="M1888.11 858.63L2046.19 1072.17L2044.69 1073.29L1886.61 859.754L1888.11 858.63Z" fill="black" fill-opacity="0.1"/>
<path opacity="0.98" d="M1862.65 134.476L2170.2 498.236L2168.7 499.36L1861.53 135.599L1862.65 134.476Z" fill="black" fill-opacity="0.1"/>
<path opacity="0.98" d="M1852.17 -544.348L2170.21 498.232L2168.33 498.982L1850.3 -543.599L1852.17 -544.348Z" fill="black" fill-opacity="0.1"/>
<path opacity="0.98" d="M2076.55 -300.478L2078.42 -299.728L1863.03 135.211L1861.16 134.462L2076.55 -300.478Z" fill="black" fill-opacity="0.1"/>
<path opacity="0.98" d="M1820.7 -206.441L1863.03 134.842L1861.16 135.217L1818.83 -206.066L1820.7 -206.441Z" fill="black" fill-opacity="0.1"/>
<path opacity="0.98" d="M1860.97 134.545L1697.16 468.949L1698.84 469.773L1862.65 135.369L1860.97 134.545Z" fill="black" fill-opacity="0.1"/>
<path opacity="0.98" d="M938.905 -208.688L1862.3 134.094L1861.92 135.967L938.156 -206.815L938.905 -208.688Z" fill="black" fill-opacity="0.1"/>
<path opacity="0.98" d="M1544.99 -451.81L1698.95 469.392H1697.07L1543.11 -451.81H1544.99Z" fill="black" fill-opacity="0.1"/>
<path opacity="0.98" d="M1698.18 468.638L2169.43 497.859L2169.05 499.732L1697.81 470.511L1698.18 468.638Z" fill="black" fill-opacity="0.1"/>
<path opacity="0.98" d="M1700.45 442.403L1888.5 858.612L1886.62 859.361L1698.95 443.153L1700.45 442.403Z" fill="black" fill-opacity="0.1"/>
<path opacity="0.98" d="M1351.69 302.306L1698.57 468.639L1697.45 470.138L1350.94 304.179L1351.69 302.306Z" fill="black" fill-opacity="0.1"/>
<path opacity="0.98" d="M1537.41 938.005C1538.33 923.345 1527.19 910.712 1512.53 909.789C1497.87 908.867 1485.24 920.004 1484.32 934.665C1483.4 949.326 1494.53 961.959 1509.19 962.881C1523.85 963.803 1536.49 952.666 1537.41 938.005Z" fill="black" fill-opacity="0.1"/>
<path opacity="0.98" d="M1165.77 653.81C1166.68 639.148 1155.53 626.527 1140.87 625.62C1126.21 624.713 1113.59 635.864 1112.68 650.526C1111.77 665.187 1122.92 677.809 1137.58 678.716C1152.24 679.623 1164.87 668.472 1165.77 653.81Z" fill="black" fill-opacity="0.1"/>
<path opacity="0.98" d="M1888.72 136.949C1889.63 122.288 1878.49 109.663 1863.83 108.751C1849.17 107.839 1836.54 118.985 1835.63 133.646C1834.72 148.308 1845.86 160.933 1860.52 161.845C1875.19 162.757 1887.81 151.611 1888.72 136.949Z" fill="black" fill-opacity="0.1"/>
<path opacity="0.98" d="M1378.09 304.887C1379 290.225 1367.85 277.604 1353.19 276.697C1338.53 275.79 1325.91 286.941 1325 301.602C1324.09 316.264 1335.24 328.885 1349.9 329.792C1364.56 330.699 1377.18 319.548 1378.09 304.887Z" fill="black" fill-opacity="0.1"/>
<path opacity="0.98" d="M1914.04 860.992C1914.95 846.33 1903.81 833.701 1889.15 832.784C1874.49 831.867 1861.86 843.009 1860.95 857.67C1860.03 872.331 1871.17 884.96 1885.83 885.877C1900.49 886.794 1913.12 875.653 1914.04 860.992Z" fill="black" fill-opacity="0.1"/>
<path opacity="0.98" d="M298.166 211.2C299.078 196.539 287.932 183.914 273.272 183.002C258.611 182.09 245.987 193.236 245.075 207.897C244.163 222.559 255.308 235.184 269.969 236.096C284.63 237.008 297.254 225.862 298.166 211.2Z" fill="black" fill-opacity="0.1"/>
<path opacity="0.98" d="M684.839 784.348C685.751 769.687 674.605 757.062 659.945 756.15C645.284 755.238 632.66 766.384 631.748 781.045C630.836 795.707 641.981 808.332 656.642 809.244C671.302 810.156 683.927 799.01 684.839 784.348Z" fill="black" fill-opacity="0.1"/>
<path opacity="0.98" d="M1724.67 471.331C1725.58 456.67 1714.44 444.045 1699.78 443.133C1685.12 442.221 1672.49 453.367 1671.58 468.028C1670.67 482.69 1681.81 495.315 1696.47 496.227C1711.13 497.139 1723.76 485.993 1724.67 471.331Z" fill="black" fill-opacity="0.1"/>
</g>
<g opacity="0.78">
<path opacity="0.78" d="M744.833 777.707L804.02 679.93L804.395 680.305L745.208 778.082L744.833 777.707Z" fill="white"/>
<path opacity="0.78" d="M576.26 657.828V657.453L804.017 679.931V680.305L576.26 657.828Z" fill="white"/>
<path opacity="0.78" d="M575.889 657.828L576.263 657.453L744.834 777.708V778.082L575.889 657.828Z" fill="white"/>
<path opacity="0.78" d="M575.889 657.446L696.885 578.025L697.259 578.4L576.263 657.82L575.889 657.446Z" fill="white"/>
<path opacity="0.78" d="M415.19 590.762V590.387L576.269 657.445V657.82L415.19 590.762Z" fill="white"/>
<path opacity="0.78" d="M490.476 517.346L490.85 516.971L576.259 657.455L575.884 657.83L490.476 517.346Z" fill="white"/>
<path opacity="0.78" d="M414.793 590.398L490.462 516.971L490.837 517.346L415.168 590.772L414.793 590.398Z" fill="white"/>
<path opacity="0.78" d="M414.793 590.391L441.015 389.966H441.39L415.168 590.391H414.793Z" fill="white"/>
<path opacity="0.78" d="M441.027 389.975L441.402 389.601L490.849 516.973H490.474L441.027 389.975Z" fill="white"/>
<path opacity="0.78" d="M490.476 516.969L598.36 431.929L598.735 432.304L490.85 517.344L490.476 516.969Z" fill="white"/>
<path opacity="0.78" d="M490.476 516.965L671.033 477.255V477.629L490.85 517.34L490.476 516.965Z" fill="white"/>
<path opacity="0.78" d="M490.476 517.346L490.85 516.971L696.88 578.035V578.41L490.476 517.346Z" fill="white"/>
<path opacity="0.78" d="M670.655 477.21L576.008 657.268L576.339 657.442L670.986 477.384L670.655 477.21Z" fill="white"/>
<path opacity="0.78" d="M575.889 657.453L598.365 431.929L598.739 432.304L576.263 657.453H575.889Z" fill="white"/>
<path opacity="0.78" d="M592.958 431.167L592.764 431.486L666.635 476.68L666.83 476.361L592.958 431.167Z" fill="white"/>
<path opacity="0.78" d="M804.023 679.935L955.362 636.104V636.478L804.023 680.309V679.935Z" fill="white"/>
<path opacity="0.78" d="M790.157 486.255L804.392 680.311H804.018L790.157 486.255Z" fill="white"/>
<path opacity="0.78" d="M696.87 578.4L697.245 578.025L804.38 679.923L804.006 680.298L696.87 578.4Z" fill="white"/>
<path opacity="0.78" d="M696.87 578.038L790.146 486.255V486.63L697.245 578.413L696.87 578.038Z" fill="white"/>
<path opacity="0.78" d="M670.647 477.629L671.022 477.255L697.244 578.029L696.87 578.404L670.647 477.629Z" fill="white"/>
<path opacity="0.78" d="M731.004 400.729L696.697 578.39L697.065 578.461L731.372 400.8L731.004 400.729Z" fill="white"/>
<path opacity="0.78" d="M670.647 477.253L730.958 400.081L731.333 400.455L671.022 477.628L670.647 477.253Z" fill="white"/>
<path opacity="0.78" d="M671.046 477.629V477.255L790.169 486.246V486.621L671.046 477.629Z" fill="white"/>
<path opacity="0.78" d="M790.157 486.63V486.255L888.303 498.993V499.367L790.157 486.63Z" fill="white"/>
<path opacity="0.78" d="M790.157 486.63V486.255L955.731 636.105L955.356 636.48L790.157 486.63Z" fill="white"/>
<path opacity="0.78" d="M888.31 499.357L888.684 498.982L955.738 636.469H955.363L888.31 499.357Z" fill="white"/>
<path opacity="0.78" d="M789.785 416.205L790.16 415.83L888.68 498.997L888.305 499.371L789.785 416.205Z" fill="white"/>
<path opacity="0.78" d="M888.31 498.981L1004.06 442.787V443.162L888.684 499.355L888.31 498.981Z" fill="white"/>
<path opacity="0.78" d="M789.785 415.83H790.16V486.259L789.785 415.83Z" fill="white"/>
<path opacity="0.78" d="M731.337 400.455V400.081L789.774 415.815V416.189L731.337 400.455Z" fill="white"/>
<path opacity="0.78" d="M715.972 321.422H716.346L731.705 400.468H730.956L715.972 321.422Z" fill="white"/>
<path opacity="0.78" d="M731.337 400.085L847.838 375.735V376.109L731.337 400.46V400.085Z" fill="white"/>
<path opacity="0.78" d="M789.785 415.824L955.733 405.708V406.083L789.785 416.198V415.824Z" fill="white"/>
<path opacity="0.78" d="M789.785 415.82L847.848 375.735L848.223 376.109L790.16 416.194L789.785 415.82Z" fill="white"/>
<path opacity="0.78" d="M789.785 415.823L1033.65 314.674V315.049L789.785 416.198V415.823Z" fill="white"/>
<path opacity="0.78" d="M955.362 406.083L955.737 405.708L1004.06 442.796V443.171L955.362 406.083Z" fill="white"/>
<path opacity="0.78" d="M955.362 406.083L1033.65 314.674L1034.03 315.049L955.737 406.083H955.362Z" fill="white"/>
<path opacity="0.78" d="M870.307 366.743V366.369L955.716 405.704V406.079L870.307 366.743Z" fill="white"/>
<path opacity="0.78" d="M847.85 375.734L870.326 366.369V366.743L848.224 376.109L847.85 375.734Z" fill="white"/>
<path opacity="0.78" d="M870.307 366.367L883.417 309.424H883.792L870.681 366.742L870.307 366.367Z" fill="white"/>
<path opacity="0.78" d="M870.307 366.372L1033.63 314.674V315.049L870.307 366.747V366.372Z" fill="white"/>
<path opacity="0.78" d="M761.297 289.198V288.824L883.792 309.053V309.428L761.297 289.198Z" fill="white"/>
<path opacity="0.78" d="M883.815 309.054L1033.66 314.673V315.048L883.815 309.428V309.054Z" fill="white"/>
<path opacity="0.78" d="M715.972 321.416L883.793 309.054V309.428L716.346 321.791L715.972 321.416Z" fill="white"/>
<path opacity="0.78" d="M715.972 321.416L760.924 288.824L761.298 289.198L716.346 321.791L715.972 321.416Z" fill="white"/>
<path opacity="0.78" d="M641.456 261.856V261.481L761.328 288.829V289.204L641.456 261.856Z" fill="white"/>
<path opacity="0.78" d="M474.382 278.324L761.326 288.814V289.188L474.382 279.073V278.324Z" fill="white"/>
<path opacity="0.78" d="M405.434 244.238V243.864L641.432 261.471V261.846L405.434 244.238Z" fill="white"/>
<path opacity="0.78" d="M564.634 324.793L641.427 261.481L641.802 261.856L564.634 325.168V324.793Z" fill="white"/>
<path opacity="0.78" d="M422.654 325.168L641.421 261.481V261.856L422.654 325.542V325.168Z" fill="white"/>
<path opacity="0.78" d="M405.434 244.238L405.808 243.864L474.36 278.704V279.079L405.434 244.238Z" fill="white"/>
<path opacity="0.78" d="M422.654 325.162L474.349 278.709V279.084L423.029 325.537L422.654 325.162Z" fill="white"/>
<path opacity="0.78" d="M474.382 279.084V278.709L564.661 324.788V325.163L474.382 279.084Z" fill="white"/>
<path opacity="0.78" d="M493.113 332.657L564.662 324.79V325.164L493.488 333.031L493.113 332.657Z" fill="white"/>
<path opacity="0.78" d="M564.432 324.786L564.263 325.121L633.81 360.254L633.979 359.919L564.432 324.786Z" fill="white"/>
<path opacity="0.78" d="M490.476 516.972L564.646 324.79L565.021 325.164L490.85 516.972H490.476Z" fill="white"/>
<path opacity="0.78" d="M422.907 327.684L422.548 327.791L441.224 390.243L441.583 390.135L422.907 327.684Z" fill="white"/>
<path opacity="0.78" d="M441.027 389.593L493.097 332.65L493.471 333.025L441.402 389.968L441.027 389.593Z" fill="white"/>
<path opacity="0.78" d="M441.386 389.594L634.305 359.999V360.374L441.386 389.969V389.594Z" fill="white"/>
<path opacity="0.78" d="M474.382 278.709L493.486 332.655L493.112 333.03L474.382 278.709Z" fill="white"/>
<path opacity="0.78" d="M403.193 243.867L403.568 243.492L493.472 332.653L493.098 333.027L403.193 243.867Z" fill="white"/>
<path opacity="0.78" d="M493.098 332.65H493.472L490.85 516.966H490.476L493.098 332.65Z" fill="white"/>
<path opacity="0.78" d="M633.953 360.008L641.445 261.481H641.82L634.328 360.008H633.953Z" fill="white"/>
<path opacity="0.78" d="M628.69 359.634L715.972 321.422L716.347 321.797L628.69 360.008V359.634Z" fill="white"/>
<path opacity="0.78" d="M598.358 431.927L633.945 359.999H634.32L598.733 432.302L598.358 431.927Z" fill="white"/>
<path opacity="0.78" d="M961.352 406.172C961.581 403.077 959.258 400.382 956.163 400.152C953.068 399.923 950.373 402.246 950.144 405.341C949.915 408.436 952.237 411.131 955.332 411.36C958.427 411.59 961.123 409.267 961.352 406.172Z" fill="white"/>
<path opacity="0.78" d="M894.325 499.853C894.556 496.758 892.234 494.062 889.139 493.832C886.045 493.601 883.349 495.923 883.119 499.018C882.888 502.113 885.21 504.809 888.305 505.04C891.399 505.271 894.095 502.948 894.325 499.853Z" fill="white"/>
<path opacity="0.78" d="M876.15 367.068C876.381 363.973 874.059 361.277 870.965 361.047C867.87 360.816 865.174 363.138 864.944 366.233C864.713 369.328 867.035 372.024 870.13 372.254C873.224 372.485 875.92 370.163 876.15 367.068Z" fill="white"/>
<path opacity="0.78" d="M853.696 376.528C853.927 373.433 851.605 370.737 848.51 370.506C845.416 370.275 842.72 372.597 842.489 375.691C842.258 378.786 844.579 381.482 847.674 381.713C850.768 381.944 853.464 379.623 853.696 376.528Z" fill="white"/>
<path opacity="0.78" d="M736.847 400.63C737.077 397.535 734.754 394.84 731.659 394.61C728.564 394.381 725.869 396.704 725.64 399.799C725.411 402.894 727.733 405.589 730.828 405.818C733.923 406.048 736.618 403.725 736.847 400.63Z" fill="white"/>
<path opacity="0.78" d="M795.783 486.845C796.017 483.75 793.699 481.051 790.605 480.816C787.51 480.582 784.811 482.9 784.577 485.994C784.342 489.089 786.66 491.788 789.754 492.023C792.849 492.258 795.548 489.939 795.783 486.845Z" fill="white"/>
<path opacity="0.78" d="M676.372 477.712C676.601 474.617 674.278 471.922 671.184 471.692C668.089 471.463 665.394 473.786 665.164 476.881C664.935 479.976 667.258 482.671 670.353 482.9C673.447 483.13 676.142 480.807 676.372 477.712Z" fill="white"/>
<path opacity="0.78" d="M795.212 416.327C795.447 413.232 793.129 410.533 790.034 410.299C786.94 410.064 784.241 412.382 784.006 415.477C783.771 418.571 786.09 421.27 789.184 421.505C792.278 421.74 794.977 419.422 795.212 416.327Z" fill="white"/>
<path opacity="0.78" d="M570.359 325.27C570.589 322.175 568.267 319.479 565.173 319.248C562.078 319.018 559.382 321.34 559.152 324.435C558.921 327.53 561.243 330.226 564.338 330.456C567.433 330.687 570.128 328.365 570.359 325.27Z" fill="white"/>
<path opacity="0.78" d="M453.59 391.794C453.838 388.691 451.524 385.974 448.42 385.725C445.317 385.477 442.6 387.792 442.352 390.895C442.104 393.999 444.418 396.716 447.521 396.964C450.625 397.212 453.342 394.898 453.59 391.794Z" fill="white"/>
<path opacity="0.78" d="M496.174 517.3C496.405 514.205 494.083 511.509 490.988 511.279C487.893 511.048 485.198 513.37 484.967 516.465C484.737 519.56 487.059 522.256 490.153 522.486C493.248 522.717 495.944 520.395 496.174 517.3Z" fill="white"/>
<path opacity="0.78" d="M604.057 432.224C604.287 429.129 601.966 426.433 598.871 426.203C595.776 425.972 593.081 428.294 592.85 431.389C592.619 434.484 594.941 437.18 598.036 437.411C601.131 437.641 603.826 435.319 604.057 432.224Z" fill="white"/>
<path opacity="0.78" d="M428.473 325.875C428.704 322.78 426.382 320.084 423.288 319.852C420.193 319.621 417.497 321.943 417.266 325.038C417.035 328.133 419.356 330.829 422.451 331.06C425.546 331.291 428.242 328.97 428.473 325.875Z" fill="white"/>
<path opacity="0.78" d="M721.71 322.068C721.941 318.973 719.619 316.277 716.524 316.047C713.429 315.816 710.734 318.138 710.503 321.233C710.273 324.328 712.595 327.024 715.689 327.255C718.784 327.485 721.48 325.163 721.71 322.068Z" fill="white"/>
<path opacity="0.78" d="M581.746 658.091C581.976 654.996 579.653 652.3 576.558 652.07C573.464 651.84 570.768 654.163 570.538 657.258C570.309 660.353 572.631 663.048 575.726 663.278C578.82 663.508 581.516 661.186 581.746 658.091Z" fill="white"/>
<path opacity="0.78" d="M420.857 591.147C421.093 588.052 418.776 585.352 415.682 585.117C412.587 584.881 409.888 587.198 409.652 590.292C409.416 593.387 411.733 596.087 414.827 596.323C417.922 596.559 420.621 594.241 420.857 591.147Z" fill="white"/>
<path opacity="0.78" d="M810.039 680.522C810.27 677.428 807.948 674.732 804.853 674.501C801.758 674.271 799.063 676.593 798.832 679.688C798.602 682.783 800.924 685.478 804.018 685.709C807.113 685.939 809.809 683.617 810.039 680.522Z" fill="white"/>
<path opacity="0.78" d="M750.496 778.273C750.731 775.178 748.412 772.48 745.318 772.245C742.223 772.011 739.525 774.33 739.29 777.424C739.056 780.519 741.375 783.218 744.469 783.452C747.564 783.686 750.262 781.368 750.496 778.273Z" fill="white"/>
<path opacity="0.78" d="M961.264 636.78C961.488 633.685 959.161 630.994 956.066 630.769C952.971 630.545 950.28 632.872 950.055 635.967C949.83 639.062 952.158 641.754 955.253 641.978C958.348 642.203 961.039 639.876 961.264 636.78Z" fill="white"/>
<path opacity="0.78" d="M702.34 578.887C702.57 575.792 700.247 573.097 697.152 572.868C694.057 572.638 691.363 574.961 691.133 578.056C690.904 581.151 693.227 583.846 696.321 584.076C699.416 584.305 702.111 581.982 702.34 578.887Z" fill="white"/>
<path opacity="0.78" d="M1009.86 443.546C1010.09 440.451 1007.77 437.756 1004.67 437.525C1001.58 437.295 998.882 439.617 998.652 442.712C998.421 445.806 1000.74 448.502 1003.84 448.733C1006.93 448.963 1009.63 446.641 1009.86 443.546Z" fill="white"/>
<path opacity="0.78" d="M1047.9 315.004C1048.15 311.901 1045.84 309.184 1042.73 308.935C1039.63 308.687 1036.91 311.002 1036.67 314.105C1036.42 317.209 1038.73 319.926 1041.84 320.174C1044.94 320.422 1047.66 318.108 1047.9 315.004Z" fill="white"/>
<path opacity="0.78" d="M889.589 309.653C889.824 306.558 887.507 303.859 884.413 303.623C881.319 303.387 878.619 305.704 878.383 308.799C878.147 311.893 880.464 314.593 883.559 314.829C886.653 315.065 889.353 312.748 889.589 309.653Z" fill="white"/>
<path opacity="0.78" d="M767.102 289.457C767.332 286.362 765.01 283.666 761.916 283.435C758.821 283.205 756.125 285.527 755.895 288.622C755.664 291.717 757.986 294.413 761.081 294.644C764.176 294.874 766.871 292.552 767.102 289.457Z" fill="white"/>
<path opacity="0.78" d="M647.035 261.976C647.266 258.881 644.944 256.185 641.849 255.954C638.755 255.724 636.059 258.046 635.829 261.141C635.598 264.236 637.92 266.932 641.015 267.162C644.109 267.393 646.805 265.071 647.035 261.976Z" fill="white"/>
<path opacity="0.78" d="M639.651 360.502C639.883 357.407 637.561 354.71 634.466 354.479C631.372 354.248 628.676 356.57 628.445 359.665C628.214 362.76 630.535 365.456 633.63 365.687C636.724 365.918 639.42 363.596 639.651 360.502Z" fill="white"/>
<path opacity="0.78" d="M499.104 333.191C499.334 330.096 497.012 327.4 493.918 327.17C490.823 326.939 488.127 329.261 487.897 332.356C487.666 335.451 489.988 338.147 493.083 338.377C496.178 338.608 498.873 336.286 499.104 333.191Z" fill="white"/>
<path opacity="0.78" d="M480.015 279.065C480.246 275.971 477.924 273.274 474.83 273.043C471.735 272.812 469.039 275.134 468.808 278.229C468.577 281.324 470.898 284.02 473.993 284.251C477.088 284.482 479.784 282.16 480.015 279.065Z" fill="white"/>
<path opacity="0.78" d="M411.158 244.656C411.389 241.561 409.067 238.866 405.972 238.635C402.878 238.405 400.182 240.727 399.952 243.821C399.721 246.916 402.043 249.612 405.138 249.842C408.232 250.073 410.928 247.751 411.158 244.656Z" fill="white"/>
</g>
</g>
<defs>
<linearGradient id="paint0_linear" x1="1108.95" y1="-307.961" x2="666.498" y2="1146.32" gradientUnits="userSpaceOnUse">
<stop stop-color="#FFFD02"/>
<stop offset="1" stop-color="#FF7C01"/>
</linearGradient>
<linearGradient id="paint1_linear" x1="10081.1" y1="16250.7" x2="152341" y2="53462" gradientUnits="userSpaceOnUse">
<stop stop-color="#FFFD02"/>
<stop offset="1" stop-color="#FF7C01"/>
</linearGradient>
<linearGradient id="paint2_linear" x1="7396.79" y1="14666.7" x2="128857" y2="78693.8" gradientUnits="userSpaceOnUse">
<stop stop-color="#FFFD02"/>
<stop offset="1" stop-color="#FF7C01"/>
</linearGradient>
<linearGradient id="paint3_linear" x1="9304.12" y1="13066.1" x2="105731" y2="89445.7" gradientUnits="userSpaceOnUse">
<stop stop-color="#FFFD02"/>
<stop offset="1" stop-color="#FF7C01"/>
</linearGradient>
<linearGradient id="paint4_linear" x1="8421.46" y1="11045.9" x2="82960.3" y2="90978.2" gradientUnits="userSpaceOnUse">
<stop stop-color="#FFFD02"/>
<stop offset="1" stop-color="#FF7C01"/>
</linearGradient>
<linearGradient id="paint5_linear" x1="10144.6" y1="9099.43" x2="66692.9" y2="86975.2" gradientUnits="userSpaceOnUse">
<stop stop-color="#FFFD02"/>
<stop offset="1" stop-color="#FF7C01"/>
</linearGradient>
<linearGradient id="paint6_linear" x1="10892.3" y1="7882.25" x2="53988.8" y2="81945.1" gradientUnits="userSpaceOnUse">
<stop stop-color="#FFFD02"/>
<stop offset="1" stop-color="#FF7C01"/>
</linearGradient>
<linearGradient id="paint7_linear" x1="14298" y1="6705.06" x2="47486" y2="75295.6" gradientUnits="userSpaceOnUse">
<stop stop-color="#FFFD02"/>
<stop offset="1" stop-color="#FF7C01"/>
</linearGradient>
<linearGradient id="paint8_linear" x1="18426.8" y1="5127.08" x2="43667.9" y2="67611.7" gradientUnits="userSpaceOnUse">
<stop stop-color="#FFFD02"/>
<stop offset="1" stop-color="#FF7C01"/>
</linearGradient>
<linearGradient id="paint9_linear" x1="23025.6" y1="4276.26" x2="42880.5" y2="61272.7" gradientUnits="userSpaceOnUse">
<stop stop-color="#FFFD02"/>
<stop offset="1" stop-color="#FF7C01"/>
</linearGradient>
<linearGradient id="paint10_linear" x1="26240.6" y1="3200.25" x2="41700.8" y2="55063.3" gradientUnits="userSpaceOnUse">
<stop stop-color="#FFFD02"/>
<stop offset="1" stop-color="#FF7C01"/>
</linearGradient>
<linearGradient id="paint11_linear" x1="31354.9" y1="2449.71" x2="43416.6" y2="49587.4" gradientUnits="userSpaceOnUse">
<stop stop-color="#FFFD02"/>
<stop offset="1" stop-color="#FF7C01"/>
</linearGradient>
<linearGradient id="paint12_linear" x1="34430.1" y1="2951.51" x2="43808.1" y2="45686.2" gradientUnits="userSpaceOnUse">
<stop stop-color="#FFFD02"/>
<stop offset="1" stop-color="#FF7C01"/>
</linearGradient>
<linearGradient id="paint13_linear" x1="41072.5" y1="2754.84" x2="48265.7" y2="41269.5" gradientUnits="userSpaceOnUse">
<stop stop-color="#FFFD02"/>
<stop offset="1" stop-color="#FF7C01"/>
</linearGradient>
<linearGradient id="paint14_linear" x1="43945.2" y1="2739.22" x2="49411.8" y2="37364.7" gradientUnits="userSpaceOnUse">
<stop stop-color="#FFFD02"/>
<stop offset="1" stop-color="#FF7C01"/>
</linearGradient>
<linearGradient id="paint15_linear" x1="47969" y1="2929.18" x2="52085.4" y2="33882.9" gradientUnits="userSpaceOnUse">
<stop stop-color="#FFFD02"/>
<stop offset="1" stop-color="#FF7C01"/>
</linearGradient>
<linearGradient id="paint16_linear" x1="50304.4" y1="4745.63" x2="53020.9" y2="32307.8" gradientUnits="userSpaceOnUse">
<stop stop-color="#FFFD02"/>
<stop offset="1" stop-color="#FF7C01"/>
</linearGradient>
<linearGradient id="paint17_linear" x1="54050.2" y1="5309.53" x2="55870.9" y2="29441.1" gradientUnits="userSpaceOnUse">
<stop stop-color="#FFFD02"/>
<stop offset="1" stop-color="#FF7C01"/>
</linearGradient>
<linearGradient id="paint18_linear" x1="57313.2" y1="6009.62" x2="58429.5" y2="26815.3" gradientUnits="userSpaceOnUse">
<stop stop-color="#FFFD02"/>
<stop offset="1" stop-color="#FF7C01"/>
</linearGradient>
<linearGradient id="paint19_linear" x1="60042.9" y1="7306.1" x2="60628.4" y2="24961.4" gradientUnits="userSpaceOnUse">
<stop stop-color="#FFFD02"/>
<stop offset="1" stop-color="#FF7C01"/>
</linearGradient>
<linearGradient id="paint20_linear" x1="59666.8" y1="8195.06" x2="59858.8" y2="22693.2" gradientUnits="userSpaceOnUse">
<stop stop-color="#FFFD02"/>
<stop offset="1" stop-color="#FF7C01"/>
</linearGradient>
<linearGradient id="paint21_linear" x1="61050.2" y1="9618.52" x2="60972.9" y2="21352.8" gradientUnits="userSpaceOnUse">
<stop stop-color="#FFFD02"/>
<stop offset="1" stop-color="#FF7C01"/>
</linearGradient>
<linearGradient id="paint22_linear" x1="59897.6" y1="10600.6" x2="59624.8" y2="21063.2" gradientUnits="userSpaceOnUse">
<stop stop-color="#FFFD02"/>
<stop offset="1" stop-color="#FF7C01"/>
</linearGradient>
<linearGradient id="paint23_linear" x1="59921.4" y1="11968" x2="59496.2" y2="21322.9" gradientUnits="userSpaceOnUse">
<stop stop-color="#FFFD02"/>
<stop offset="1" stop-color="#FF7C01"/>
</linearGradient>
<linearGradient id="paint24_linear" x1="60285.8" y1="11317.9" x2="59616.2" y2="21583.3" gradientUnits="userSpaceOnUse">
<stop stop-color="#FFFD02"/>
<stop offset="1" stop-color="#FF7C01"/>
</linearGradient>
<linearGradient id="paint25_linear" x1="60863" y1="10533.8" x2="59911" y2="21777.9" gradientUnits="userSpaceOnUse">
<stop stop-color="#FFFD02"/>
<stop offset="1" stop-color="#FF7C01"/>
</linearGradient>
<linearGradient id="paint26_linear" x1="59401" y1="11313.4" x2="57938.7" y2="23839.7" gradientUnits="userSpaceOnUse">
<stop stop-color="#FFFD02"/>
<stop offset="1" stop-color="#FF7C01"/>
</linearGradient>
<linearGradient id="paint27_linear" x1="60648.3" y1="10557.9" x2="58697.6" y2="24669.3" gradientUnits="userSpaceOnUse">
<stop stop-color="#FFFD02"/>
<stop offset="1" stop-color="#FF7C01"/>
</linearGradient>
<linearGradient id="paint28_linear" x1="60636.6" y1="9721.36" x2="58039.1" y2="25837.7" gradientUnits="userSpaceOnUse">
<stop stop-color="#FFFD02"/>
<stop offset="1" stop-color="#FF7C01"/>
</linearGradient>
<linearGradient id="paint29_linear" x1="64840" y1="8868.02" x2="61353.4" y2="27605.6" gradientUnits="userSpaceOnUse">
<stop stop-color="#FFFD02"/>
<stop offset="1" stop-color="#FF7C01"/>
</linearGradient>
<linearGradient id="paint30_linear" x1="66611.8" y1="8727.15" x2="61941.1" y2="30709.1" gradientUnits="userSpaceOnUse">
<stop stop-color="#FFFD02"/>
<stop offset="1" stop-color="#FF7C01"/>
</linearGradient>
<linearGradient id="paint31_linear" x1="70412.7" y1="7933.06" x2="64203.7" y2="33616" gradientUnits="userSpaceOnUse">
<stop stop-color="#FFFD02"/>
<stop offset="1" stop-color="#FF7C01"/>
</linearGradient>
<linearGradient id="paint32_linear" x1="71948.8" y1="7318.32" x2="63543" y2="37407.6" gradientUnits="userSpaceOnUse">
<stop stop-color="#FFFD02"/>
<stop offset="1" stop-color="#FF7C01"/>
</linearGradient>
<linearGradient id="paint33_linear" x1="76239.2" y1="7373.19" x2="64874.8" y2="42810" gradientUnits="userSpaceOnUse">
<stop stop-color="#FFFD02"/>
<stop offset="1" stop-color="#FF7C01"/>
</linearGradient>
<linearGradient id="paint34_linear" x1="80540.2" y1="7179.18" x2="65105.6" y2="48934.2" gradientUnits="userSpaceOnUse">
<stop stop-color="#FFFD02"/>
<stop offset="1" stop-color="#FF7C01"/>
</linearGradient>
<linearGradient id="paint35_linear" x1="84895.6" y1="7611.58" x2="64028" y2="56292.7" gradientUnits="userSpaceOnUse">
<stop stop-color="#FFFD02"/>
<stop offset="1" stop-color="#FF7C01"/>
</linearGradient>
<linearGradient id="paint36_linear" x1="87385.4" y1="8190.05" x2="59196.5" y2="64365.3" gradientUnits="userSpaceOnUse">
<stop stop-color="#FFFD02"/>
<stop offset="1" stop-color="#FF7C01"/>
</linearGradient>
<linearGradient id="paint37_linear" x1="91295.9" y1="9524.16" x2="52404.6" y2="73174" gradientUnits="userSpaceOnUse">
<stop stop-color="#FFFD02"/>
<stop offset="1" stop-color="#FF7C01"/>
</linearGradient>
<linearGradient id="paint38_linear" x1="92152.7" y1="10033.6" x2="39330.4" y2="80552.8" gradientUnits="userSpaceOnUse">
<stop stop-color="#FFFD02"/>
<stop offset="1" stop-color="#FF7C01"/>
</linearGradient>
<linearGradient id="paint39_linear" x1="97257.4" y1="11281.9" x2="25760.2" y2="87381.9" gradientUnits="userSpaceOnUse">
<stop stop-color="#FFFD02"/>
<stop offset="1" stop-color="#FF7C01"/>
</linearGradient>
<linearGradient id="paint40_linear" x1="98273.3" y1="12535.6" x2="2698.58" y2="89559.3" gradientUnits="userSpaceOnUse">
<stop stop-color="#FFFD02"/>
<stop offset="1" stop-color="#FF7C01"/>
</linearGradient>
<linearGradient id="paint41_linear" x1="100517" y1="13415.9" x2="-23492" y2="82858.4" gradientUnits="userSpaceOnUse">
<stop stop-color="#FFFD02"/>
<stop offset="1" stop-color="#FF7C01"/>
</linearGradient>
<linearGradient id="paint42_linear" x1="91690.7" y1="10999.4" x2="21954.5" y2="85877.4" gradientUnits="userSpaceOnUse">
<stop stop-color="#FFFD02"/>
<stop offset="1" stop-color="#FF7C01"/>
</linearGradient>
<linearGradient id="paint43_linear" x1="84045.9" y1="9274.59" x2="46253.2" y2="71092.5" gradientUnits="userSpaceOnUse">
<stop stop-color="#FFFD02"/>
<stop offset="1" stop-color="#FF7C01"/>
</linearGradient>
<linearGradient id="paint44_linear" x1="72783" y1="7764.97" x2="52013.5" y2="54379.7" gradientUnits="userSpaceOnUse">
<stop stop-color="#FFFD02"/>
<stop offset="1" stop-color="#FF7C01"/>
</linearGradient>
<linearGradient id="paint45_linear" x1="64119.9" y1="7486.41" x2="52925.4" y2="41070" gradientUnits="userSpaceOnUse">
<stop stop-color="#FFFD02"/>
<stop offset="1" stop-color="#FF7C01"/>
</linearGradient>
<linearGradient id="paint46_linear" x1="53690.4" y1="7851.5" x2="47543.3" y2="31737.7" gradientUnits="userSpaceOnUse">
<stop stop-color="#FFFD02"/>
<stop offset="1" stop-color="#FF7C01"/>
</linearGradient>
<linearGradient id="paint47_linear" x1="46857.3" y1="8894.16" x2="43583.4" y2="25589.5" gradientUnits="userSpaceOnUse">
<stop stop-color="#FFFD02"/>
<stop offset="1" stop-color="#FF7C01"/>
</linearGradient>
<linearGradient id="paint48_linear" x1="40464.2" y1="9039" x2="38728.9" y2="20802.2" gradientUnits="userSpaceOnUse">
<stop stop-color="#FFFD02"/>
<stop offset="1" stop-color="#FF7C01"/>
</linearGradient>
<linearGradient id="paint49_linear" x1="38626.7" y1="9670.47" x2="37723.7" y2="18358.2" gradientUnits="userSpaceOnUse">
<stop stop-color="#FFFD02"/>
<stop offset="1" stop-color="#FF7C01"/>
</linearGradient>
<linearGradient id="paint50_linear" x1="36022.6" y1="9077.13" x2="35628.4" y2="16355.1" gradientUnits="userSpaceOnUse">
<stop stop-color="#FFFD02"/>
<stop offset="1" stop-color="#FF7C01"/>
</linearGradient>
<linearGradient id="paint51_linear" x1="33454.8" y1="6928.89" x2="33278.1" y2="17362.6" gradientUnits="userSpaceOnUse">
<stop stop-color="#FFFD02"/>
<stop offset="1" stop-color="#FF7C01"/>
</linearGradient>
<linearGradient id="paint52_linear" x1="29912.7" y1="5030.76" x2="30211" y2="20367.2" gradientUnits="userSpaceOnUse">
<stop stop-color="#FFFD02"/>
<stop offset="1" stop-color="#FF7C01"/>
</linearGradient>
<linearGradient id="paint53_linear" x1="23263.4" y1="3106.7" x2="24410.4" y2="23322.9" gradientUnits="userSpaceOnUse">
<stop stop-color="#FFFD02"/>
<stop offset="1" stop-color="#FF7C01"/>
</linearGradient>
<linearGradient id="paint54_linear" x1="16823.1" y1="2089.52" x2="19290.7" y2="27321.4" gradientUnits="userSpaceOnUse">
<stop stop-color="#FFFD02"/>
<stop offset="1" stop-color="#FF7C01"/>
</linearGradient>
<linearGradient id="paint55_linear" x1="8388.55" y1="1558.36" x2="12787.6" y2="32198.6" gradientUnits="userSpaceOnUse">
<stop stop-color="#FFFD02"/>
<stop offset="1" stop-color="#FF7C01"/>
</linearGradient>
<linearGradient id="paint56_linear" x1="1519.22" y1="1602.31" x2="8923.48" y2="38359.1" gradientUnits="userSpaceOnUse">
<stop stop-color="#FFFD02"/>
<stop offset="1" stop-color="#FF7C01"/>
</linearGradient>
<linearGradient id="paint57_linear" x1="-6833.88" y1="1907.74" x2="5388.2" y2="46106.3" gradientUnits="userSpaceOnUse">
<stop stop-color="#FFFD02"/>
<stop offset="1" stop-color="#FF7C01"/>
</linearGradient>
<linearGradient id="paint58_linear" x1="-13857.6" y1="3157.82" x2="6892.91" y2="56233.8" gradientUnits="userSpaceOnUse">
<stop stop-color="#FFFD02"/>
<stop offset="1" stop-color="#FF7C01"/>
</linearGradient>
<linearGradient id="paint59_linear" x1="-16969" y1="4633.97" x2="20232.2" y2="68059.1" gradientUnits="userSpaceOnUse">
<stop stop-color="#FFFD02"/>
<stop offset="1" stop-color="#FF7C01"/>
</linearGradient>
<linearGradient id="paint60_linear" x1="-19032.5" y1="6100.21" x2="52657.2" y2="72919.2" gradientUnits="userSpaceOnUse">
<stop stop-color="#FFFD02"/>
<stop offset="1" stop-color="#FF7C01"/>
</linearGradient>
<linearGradient id="paint61_linear" x1="-17477" y1="6936" x2="101582" y2="34071.3" gradientUnits="userSpaceOnUse">
<stop stop-color="#FFFD02"/>
<stop offset="1" stop-color="#FF7C01"/>
</linearGradient>
<linearGradient id="paint62_linear" x1="-14427.9" y1="7334.49" x2="80006.3" y2="-37276.5" gradientUnits="userSpaceOnUse">
<stop stop-color="#FFFD02"/>
<stop offset="1" stop-color="#FF7C01"/>
</linearGradient>
<linearGradient id="paint63_linear" x1="-9719.09" y1="8496.23" x2="34079.4" y2="-44287.2" gradientUnits="userSpaceOnUse">
<stop stop-color="#FFFD02"/>
<stop offset="1" stop-color="#FF7C01"/>
</linearGradient>
<linearGradient id="paint64_linear" x1="-5184.99" y1="9353.31" x2="15262.8" y2="-30498.3" gradientUnits="userSpaceOnUse">
<stop stop-color="#FFFD02"/>
<stop offset="1" stop-color="#FF7C01"/>
</linearGradient>
<linearGradient id="paint65_linear" x1="1694.76" y1="9931.2" x2="11924.1" y2="-18594.8" gradientUnits="userSpaceOnUse">
<stop stop-color="#FFFD02"/>
<stop offset="1" stop-color="#FF7C01"/>
</linearGradient>
<linearGradient id="paint66_linear" x1="7358.07" y1="10077.7" x2="12746.1" y2="-9935.91" gradientUnits="userSpaceOnUse">
<stop stop-color="#FFFD02"/>
<stop offset="1" stop-color="#FF7C01"/>
</linearGradient>
<linearGradient id="paint67_linear" x1="12761.5" y1="9444.18" x2="15430.4" y2="-4391.82" gradientUnits="userSpaceOnUse">
<stop stop-color="#FFFD02"/>
<stop offset="1" stop-color="#FF7C01"/>
</linearGradient>
<linearGradient id="paint68_linear" x1="17786.9" y1="9171.63" x2="19184.2" y2="-307.499" gradientUnits="userSpaceOnUse">
<stop stop-color="#FFFD02"/>
<stop offset="1" stop-color="#FF7C01"/>
</linearGradient>
<linearGradient id="paint69_linear" x1="20345.7" y1="8845.28" x2="21044.3" y2="2472.6" gradientUnits="userSpaceOnUse">
<stop stop-color="#FFFD02"/>
<stop offset="1" stop-color="#FF7C01"/>
</linearGradient>
<linearGradient id="paint70_linear" x1="23502.6" y1="8513.27" x2="23848.3" y2="4139.61" gradientUnits="userSpaceOnUse">
<stop stop-color="#FFFD02"/>
<stop offset="1" stop-color="#FF7C01"/>
</linearGradient>
<linearGradient id="paint71_linear" x1="24692.6" y1="7823.75" x2="24848.7" y2="4792.73" gradientUnits="userSpaceOnUse">
<stop stop-color="#FFFD02"/>
<stop offset="1" stop-color="#FF7C01"/>
</linearGradient>
<linearGradient id="paint72_linear" x1="26468.9" y1="7383.01" x2="26561.3" y2="3946.86" gradientUnits="userSpaceOnUse">
<stop stop-color="#FFFD02"/>
<stop offset="1" stop-color="#FF7C01"/>
</linearGradient>
<linearGradient id="paint73_linear" x1="27409.1" y1="7976.32" x2="27426" y2="2555.43" gradientUnits="userSpaceOnUse">
<stop stop-color="#FFFD02"/>
<stop offset="1" stop-color="#FF7C01"/>
</linearGradient>
<linearGradient id="paint74_linear" x1="29745" y1="8550.52" x2="29595.8" y2="1079.94" gradientUnits="userSpaceOnUse">
<stop stop-color="#FFFD02"/>
<stop offset="1" stop-color="#FF7C01"/>
</linearGradient>
<linearGradient id="paint75_linear" x1="34193.6" y1="8988.84" x2="33768.4" y2="-555.662" gradientUnits="userSpaceOnUse">
<stop stop-color="#FFFD02"/>
<stop offset="1" stop-color="#FF7C01"/>
</linearGradient>
<linearGradient id="paint76_linear" x1="38410.3" y1="8649.4" x2="37585.7" y2="-3039.59" gradientUnits="userSpaceOnUse">
<stop stop-color="#FFFD02"/>
<stop offset="1" stop-color="#FF7C01"/>
</linearGradient>
<linearGradient id="paint77_linear" x1="43562.5" y1="8615.53" x2="42122.9" y2="-5494.82" gradientUnits="userSpaceOnUse">
<stop stop-color="#FFFD02"/>
<stop offset="1" stop-color="#FF7C01"/>
</linearGradient>
<linearGradient id="paint78_linear" x1="47467.3" y1="8333.7" x2="45074.6" y2="-8710.84" gradientUnits="userSpaceOnUse">
<stop stop-color="#FFFD02"/>
<stop offset="1" stop-color="#FF7C01"/>
</linearGradient>
<linearGradient id="paint79_linear" x1="51078.9" y1="7986.89" x2="46992.1" y2="-12913.2" gradientUnits="userSpaceOnUse">
<stop stop-color="#FFFD02"/>
<stop offset="1" stop-color="#FF7C01"/>
</linearGradient>
<linearGradient id="paint80_linear" x1="52969.3" y1="7322.14" x2="45481.3" y2="-19267.6" gradientUnits="userSpaceOnUse">
<stop stop-color="#FFFD02"/>
<stop offset="1" stop-color="#FF7C01"/>
</linearGradient>
<linearGradient id="paint81_linear" x1="54725.8" y1="6746.49" x2="38552.9" y2="-28508.8" gradientUnits="userSpaceOnUse">
<stop stop-color="#FFFD02"/>
<stop offset="1" stop-color="#FF7C01"/>
</linearGradient>
<linearGradient id="paint82_linear" x1="54902.7" y1="5916.82" x2="9004.6" y2="-37157.3" gradientUnits="userSpaceOnUse">
<stop stop-color="#FFFD02"/>
<stop offset="1" stop-color="#FF7C01"/>
</linearGradient>
<radialGradient id="paint83_radial" cx="0" cy="0" r="1" gradientUnits="userSpaceOnUse" gradientTransform="translate(775.631 272.609) rotate(168.389) scale(300.663 61.6781)">
<stop stop-color="#FFF502"/>
<stop offset="0.14" stop-color="#C8C002"/>
<stop offset="0.32" stop-color="#8C8701"/>
<stop offset="0.48" stop-color="#5A5601"/>
<stop offset="0.64" stop-color="#333100"/>
<stop offset="0.78" stop-color="#171600"/>
<stop offset="0.91" stop-color="#060600"/>
<stop offset="1"/>
</radialGradient>
<radialGradient id="paint84_radial" cx="0" cy="0" r="1" gradientUnits="userSpaceOnUse" gradientTransform="translate(-41886.8 59990.6) rotate(-158.959) scale(990.746 984.172)">
<stop stop-color="#FFF502"/>
<stop offset="0.14" stop-color="#C8C002"/>
<stop offset="0.32" stop-color="#8C8701"/>
<stop offset="0.48" stop-color="#5A5601"/>
<stop offset="0.64" stop-color="#333100"/>
<stop offset="0.78" stop-color="#171600"/>
<stop offset="0.91" stop-color="#060600"/>
<stop offset="1"/>
</radialGradient>
<radialGradient id="paint85_radial" cx="0" cy="0" r="1" gradientUnits="userSpaceOnUse" gradientTransform="translate(-119735 29360.2) rotate(170.869) scale(3658.83 154.846)">
<stop stop-color="#FFF502"/>
<stop offset="0.14" stop-color="#C8C002"/>
<stop offset="0.32" stop-color="#8C8701"/>
<stop offset="0.48" stop-color="#5A5601"/>
<stop offset="0.64" stop-color="#333100"/>
<stop offset="0.78" stop-color="#171600"/>
<stop offset="0.91" stop-color="#060600"/>
<stop offset="1"/>
</radialGradient>
<clipPath id="clip0">
<rect width="1920" height="1024" fill="white"/>
</clipPath>
</defs>
</svg>
