<svg width="647" height="264" viewBox="0 0 647 264" fill="none" xmlns="http://www.w3.org/2000/svg">
<path d="M177.7 224.6H153.3L147.3 239H133L166.2 162.5H167L200.2 239H183.4L177.7 224.6ZM172.9 212.4L165.8 194.5L158.4 212.4H172.9ZM261.148 232.9C259.282 234.433 256.315 235.967 252.248 237.5C248.182 239.033 243.748 239.8 238.948 239.8C231.282 239.8 224.615 238.133 218.948 234.8C213.282 231.467 208.948 227 205.948 221.4C202.948 215.733 201.448 209.533 201.448 202.8C201.448 195.4 202.948 188.8 205.948 183C208.948 177.2 213.148 172.7 218.548 169.5C223.948 166.233 230.182 164.6 237.248 164.6C241.715 164.6 245.848 165.2 249.648 166.4C253.448 167.6 256.782 169.1 259.648 170.9L253.948 184.6C248.682 180.6 243.282 178.6 237.748 178.6C234.015 178.6 230.515 179.633 227.248 181.7C223.982 183.767 221.382 186.6 219.448 190.2C217.515 193.733 216.548 197.667 216.548 202C216.548 206.733 217.448 210.9 219.248 214.5C221.048 218.033 223.615 220.8 226.948 222.8C230.282 224.8 234.182 225.8 238.648 225.8C242.248 225.8 245.482 225.233 248.348 224.1C251.215 222.9 253.482 221.5 255.148 219.9L261.148 232.9ZM312.075 224.6H287.675L281.675 239H267.375L300.575 162.5H301.375L334.575 239H317.775L312.075 224.6ZM307.275 212.4L300.175 194.5L292.775 212.4H307.275ZM345.304 165.4H367.304C376.704 165.4 384.437 167.233 390.504 170.9C396.571 174.5 400.971 179.2 403.704 185C406.504 190.733 407.904 196.9 407.904 203.5C407.904 210.567 406.237 216.8 402.904 222.2C399.571 227.6 395.071 231.767 389.404 234.7C383.804 237.567 377.637 239 370.904 239H345.304V165.4ZM368.404 225C375.937 225 381.904 223.067 386.304 219.2C390.704 215.333 392.904 209.767 392.904 202.5C392.904 196.633 391.671 191.967 389.204 188.5C386.804 185.033 383.971 182.633 380.704 181.3C377.504 179.967 374.471 179.3 371.604 179.3H359.804V225H368.404ZM472.652 165.4V179.4H436.952V195.1H468.552V209.1H436.952V225H474.052V239H422.452V165.4H472.652ZM564.854 162.4V239H550.354V203.9L526.354 238H526.154L503.054 206.1V239H489.054V162.4H489.154L526.454 215.3L564.654 162.4H564.854ZM645.078 165.4L617.478 216.1V239H602.978V216.1L575.878 165.4H593.778L610.678 199.4L627.178 165.4H645.078Z" fill="#E9C716"/>
<g clip-path="url(#clip0)">
<path d="M338.102 68.8983L314.405 54.7493L312.497 62.2746L311.166 67.5243C309.668 73.4303 319.936 81.1298 334.098 84.7206C348.26 88.3112 360.958 86.4344 362.455 80.5284C362.467 80.4819 362.463 80.4312 362.473 80.3855L365.677 67.7491L338.102 68.8983Z" fill="#E9C716"/>
<path d="M294.484 39.0196L303.877 45.334L305.235 43.6718L309.112 44.3114L309.51 45.0116L306.058 44.9582L305.227 46.2426C305.226 46.2424 293.973 59.7541 293.146 67.5502C293.146 67.5502 297.042 71.4528 302.326 69.8778L308.76 49.6203L309.194 47.9084L316.416 48.0994L315.632 49.1651L310.119 49.53L312.261 50.9688L338.921 67.2002L370.093 65.6317L391.416 63.5964L347.678 32.6619L294.484 39.0196Z" fill="#E9C716"/>
<path d="M294.484 39.0196L303.877 45.334L305.235 43.6718L309.112 44.3114L309.51 45.0116L306.058 44.9582L305.227 46.2426C305.226 46.2424 293.973 59.7541 293.146 67.5502C293.146 67.5502 297.042 71.4528 302.326 69.8778L308.76 49.6203L309.194 47.9084L316.416 48.0994L315.632 49.1651L310.119 49.53L312.261 50.9688L338.921 67.2002L370.093 65.6317L391.416 63.5964L347.678 32.6619L294.484 39.0196Z" stroke="white"/>
</g>
<path fill-rule="evenodd" clip-rule="evenodd" d="M332.754 86.4C321.51 83.2502 312.719 77.7439 309.663 72.4H291.144V86.4H308.344V146H322.844V86.4H332.754ZM45.6 90.2C39.2 86.6667 33.6333 84.9 28.9 84.9C25.7 84.9 23.2 85.5333 21.4 86.8C19.6667 88.0667 18.8 89.9667 18.8 92.5C18.8 94.8333 20.0667 96.9 22.6 98.7C25.2 100.433 28.6333 102.1 32.9 103.7C36.3667 104.967 39.3333 106.433 41.8 108.1C44.2667 109.7 46.3 111.933 47.9 114.8C49.5667 117.667 50.4 121.3 50.4 125.7C50.4 129.5 49.4 133.033 47.4 136.3C45.4667 139.5 42.6 142.067 38.8 144C35 145.867 30.4667 146.8 25.2 146.8C20.8 146.8 16.4333 146.167 12.1 144.9C7.76667 143.567 3.73333 141.567 0 138.9L6.4 127.6C8.93333 129.467 11.8333 131 15.1 132.2C18.3667 133.4 21.3 134 23.9 134C26.9667 134 29.6333 133.367 31.9 132.1C34.1667 130.767 35.3 128.633 35.3 125.7C35.3 121.9 31.7333 118.6 24.6 115.8C20.4 114.133 16.9 112.533 14.1 111C11.3 109.467 8.86667 107.267 6.8 104.4C4.8 101.533 3.8 97.9333 3.8 93.6C3.8 87.2667 5.86667 82.1667 10 78.3C14.2 74.4333 19.7667 72.3333 26.7 72C32.1667 72 36.7333 72.6333 40.4 73.9C44.0667 75.1 47.6333 76.8333 51.1 79.1L45.6 90.2ZM140.401 69.4V146H125.901V110.9L101.901 145H101.701L78.6008 113.1V146H64.6008V69.4H64.7008L102.001 122.3L140.201 69.4H140.401ZM195.825 131.6H171.425L165.425 146H151.125L184.325 69.5H185.125L218.325 146H201.525L195.825 131.6ZM191.025 119.4L183.925 101.5L176.525 119.4H191.025ZM268.754 146L253.254 122.6H243.554V146H229.054V72.4H251.354C260.487 72.4 267.554 74.6333 272.554 79.1C277.621 83.5 280.154 89.5333 280.154 97.2C280.154 101.733 279.187 106 277.254 110C275.387 113.933 272.487 117.033 268.554 119.3L285.654 146H268.754ZM243.554 108.6H253.854C257.787 108.6 260.654 107.467 262.454 105.2C264.254 102.867 265.154 100.367 265.154 97.7C265.154 95.0333 264.387 92.5 262.854 90.1C261.321 87.6333 258.354 86.4 253.954 86.4H243.554V108.6Z" fill="#E9C716"/>
<defs>
<clipPath id="clip0">
<rect width="100" height="100" fill="white" transform="translate(304.377) rotate(14.2272)"/>
</clipPath>
</defs>
</svg>
