<svg xmlns="http://www.w3.org/2000/svg" xmlns:xlink="http://www.w3.org/1999/xlink" viewBox="0 0 353.19 310.41"><defs><style>.cls-1{fill:none;}.cls-2{fill:#7dc3ea;}.cls-10,.cls-3{fill:#fff;}.cls-4{fill:#396caa;}.cls-5{fill:#173d7a;}.cls-6{fill:url(#Áåçûìÿííûé_ãðàäèåíò_21);}.cls-7{fill:#d4ecff;}.cls-8{fill:url(#Áåçûìÿííûé_ãðàäèåíò_28);}.cls-9{fill:#ff2c9c;}.cls-10{opacity:0.4;}.cls-11{fill:#5793ce;}.cls-12{fill:url(#Áåçûìÿííûé_ãðàäèåíò_31);}.cls-13{fill:url(#Áåçûìÿííûé_ãðàäèåíò_9);}.cls-14{clip-path:url(#clip-path);}.cls-15{fill:#092e63;}.cls-16{fill:#b70083;}.cls-17{fill:url(#Áåçûìÿííûé_ãðàäèåíò_31-2);}.cls-18{fill:#79b1e0;}</style><linearGradient id="Áåçûìÿííûé_ãðàäèåíò_21" x1="133.63" y1="172.48" x2="342.98" y2="172.48" gradientUnits="userSpaceOnUse"><stop offset="0" stop-color="#86b8e0"/><stop offset="0.12" stop-color="#98c4e7"/><stop offset="0.33" stop-color="#b2d6f2"/><stop offset="0.54" stop-color="#c5e2f9"/><stop offset="0.76" stop-color="#d0eafe"/><stop offset="1" stop-color="#d4ecff"/></linearGradient><radialGradient id="Áåçûìÿííûé_ãðàäèåíò_28" cx="322.54" cy="131.62" r="203.92" gradientUnits="userSpaceOnUse"><stop offset="0" stop-color="#173d7a"/><stop offset="0.42" stop-color="#153b76"/><stop offset="0.82" stop-color="#0e336b"/><stop offset="1" stop-color="#092e63"/></radialGradient><linearGradient id="Áåçûìÿííûé_ãðàäèåíò_31" x1="134.88" y1="11.5" x2="160.86" y2="45.44" gradientUnits="userSpaceOnUse"><stop offset="0" stop-color="#ff2c9c"/><stop offset="0.31" stop-color="#fb289b"/><stop offset="0.6" stop-color="#f01d97"/><stop offset="0.88" stop-color="#dd0a91"/><stop offset="1" stop-color="#d3008d"/></linearGradient><linearGradient id="Áåçûìÿííûé_ãðàäèåíò_9" x1="80.12" y1="23.16" x2="147.47" y2="56.61" gradientUnits="userSpaceOnUse"><stop offset="0" stop-color="#d4ecff"/><stop offset="0.24" stop-color="#d0eafe"/><stop offset="0.46" stop-color="#c5e2f9"/><stop offset="0.67" stop-color="#b2d6f2"/><stop offset="0.88" stop-color="#98c4e7"/><stop offset="1" stop-color="#86b8e0"/></linearGradient><clipPath id="clip-path"><path class="cls-1" d="M116.08,70.2c0,14.71-10.33,20.67-23.06,13.31S70,58.27,70,43.57,80.28,22.9,93,30.25,116.08,55.49,116.08,70.2Z"/></clipPath><linearGradient id="Áåçûìÿííûé_ãðàäèåíò_31-2" x1="146.82" y1="124.05" x2="232.26" y2="124.05" xlink:href="#Áåçûìÿííûé_ãðàäèåíò_31"/></defs><title>Asset 1</title><g id="Layer_2" data-name="Layer 2"><g id="Ñëîé_1" data-name="Ñëîé 1"><path class="cls-2" d="M320.59,174.09l-84.08-48.69c-4.57-2.65-12.55-2.33-17.83.71L42.22,227.67c-5.28,3-5.86,7.65-1.29,10.29L125,286.65c4.57,2.65,12.55,2.33,17.83-.71L319.29,184.39C324.58,181.35,325.16,176.74,320.59,174.09Z"/><path class="cls-3" d="M132.8,278a17.28,17.28,0,0,1-8.53-2L40.19,227.35c-2.46-1.43-3.82-3.47-3.81-5.75,0-2.64,1.87-5.22,5.11-7.09L217.94,113c5.77-3.33,14.25-3.64,19.3-.71l84.08,48.69c2.46,1.43,3.82,3.47,3.81,5.75,0,2.64-1.87,5.22-5.11,7.09L143.57,275.33A22.1,22.1,0,0,1,132.8,278Zm96-164.83a19.36,19.36,0,0,0-9.35,2.3L43,217.06c-2.28,1.31-3.63,3-3.64,4.54s1.27,2.58,2.35,3.2l84.08,48.69c4.08,2.36,11.57,2,16.36-.72L318.56,171.23c2.28-1.31,3.63-3,3.64-4.54s-1.27-2.58-2.35-3.2l-84.08-48.69A14.34,14.34,0,0,0,228.76,113.21Z"/><path class="cls-4" d="M122.56,256.73l-87.5-50.67c-2.87-1.67-4.21-3.91-4.12-6.24h0l0-12.7,4.87,5.7c.32-.21.63-.42,1-.61l179-103c7.11-4.09,17.85-4.52,24-1l86.27,50,5.41-5.95,0,12.42h0c.13,2.8-1.86,5.78-5.88,8.09l-179,103C139.45,259.86,128.71,260.29,122.56,256.73Z"/><path class="cls-5" d="M75.25,225.65l5,2.91c.67.39,1.21,0,1.21-.92h0a2.9,2.9,0,0,0-1.21-2.32l-5-2.91c-.67-.39-1.21,0-1.21.92h0A2.9,2.9,0,0,0,75.25,225.65Z"/><path class="cls-6" d="M215.8,89.2c7.11-4.09,17.85-4.52,24-1l86.27,50,5.41-5.95,0,12.42h0c.13,2.8-1.86,5.78-5.88,8.09l-179,103a27.68,27.68,0,0,1-12.92,3.36l.17-122.74Z"/><path class="cls-7" d="M327.33,126.14l-87.5-50.67c-6.14-3.56-16.89-3.13-24,1l-179,103c-7.11,4.09-7.89,10.29-1.74,13.85L122.6,244c6.14,3.56,16.89,3.13,24-1l179-103C332.69,135.9,333.47,129.7,327.33,126.14Z"/><path class="cls-3" d="M122.53,245.32,35,194.65c-3.17-1.84-4.48-4.37-4-7,.16,2.1,1.5,4.09,4.12,5.61L122.6,244c6.14,3.56,16.89,3.13,24-1l179-103c3.44-2,5.38-4.46,5.79-6.89.21,2.84-1.77,5.89-5.86,8.24l-179,103C139.42,248.45,128.68,248.88,122.53,245.32Z"/><path class="cls-8" d="M320.59,128.14,236.51,79.45c-4.57-2.65-12.55-2.33-17.83.71L42.22,181.72c-5.28,3-5.86,7.65-1.29,10.29L125,240.7c4.57,2.65,12.55,2.33,17.83-.71L319.29,138.43C324.58,135.39,325.16,130.79,320.59,128.14Z"/><polygon class="cls-7" points="146.19 215.41 86.86 181.16 90.64 178.97 149.97 213.22 146.19 215.41"/><polygon class="cls-7" points="104.91 205.42 74.86 188.08 78.65 185.89 108.69 203.24 104.91 205.42"/><polygon class="cls-9" points="119.48 213.84 109.74 208.22 113.53 206.03 123.27 211.66 119.48 213.84"/><polygon class="cls-3" points="134.19 222.33 124.45 216.71 128.24 214.52 137.98 220.15 134.19 222.33"/><polygon class="cls-3" points="105.24 198.69 80.86 184.62 84.65 182.43 109.03 196.51 105.24 198.69"/><polygon class="cls-7" points="135 215.88 110.62 201.8 114.41 199.62 138.79 213.69 135 215.88"/><path class="cls-9" d="M117,185.79a4.88,4.88,0,0,1-4.42,0,1.35,1.35,0,0,1,0-2.55,4.88,4.88,0,0,1,4.42,0A1.35,1.35,0,0,1,117,185.79Z"/><path class="cls-3" d="M123.55,189.6a4.88,4.88,0,0,1-4.42,0,1.35,1.35,0,0,1,0-2.55,4.88,4.88,0,0,1,4.42,0A1.35,1.35,0,0,1,123.55,189.6Z"/><path class="cls-7" d="M130.16,193.41a4.88,4.88,0,0,1-4.42,0,1.35,1.35,0,0,1,0-2.55,4.88,4.88,0,0,1,4.42,0A1.35,1.35,0,0,1,130.16,193.41Z"/><path class="cls-9" d="M136.76,197.22a4.88,4.88,0,0,1-4.42,0,1.35,1.35,0,0,1,0-2.55,4.88,4.88,0,0,1,4.42,0A1.35,1.35,0,0,1,136.76,197.22Z"/><path class="cls-3" d="M143.36,201a4.88,4.88,0,0,1-4.42,0,1.35,1.35,0,0,1,0-2.55,4.88,4.88,0,0,1,4.42,0A1.35,1.35,0,0,1,143.36,201Z"/><polygon class="cls-9" points="276.05 128.52 266.06 122.75 269.94 120.51 279.93 126.27 276.05 128.52"/><polygon class="cls-3" points="289.96 136.55 279.97 130.78 283.85 128.54 293.84 134.31 289.96 136.55"/><polygon class="cls-3" points="231.43 102.51 221.44 96.75 225.32 94.5 235.31 100.27 231.43 102.51"/><polygon class="cls-3" points="273.82 134.33 259.91 126.3 263.8 124.06 277.71 132.09 273.82 134.33"/><polygon class="cls-7" points="283.81 140.1 277.71 136.57 281.59 134.33 287.69 137.85 283.81 140.1"/><path class="cls-3" d="M302.65,216.72a1.36,1.36,0,0,1-1.2-2,15.26,15.26,0,0,1,5.54-6.1,7.15,7.15,0,0,1,3.91-1.08c1.78.07,3.93-1.23,5.83-3.52a13.44,13.44,0,0,1,3.53-3.06,7,7,0,0,1,3.91-1.08c1.77.06,3.93-1.23,5.83-3.52a13.44,13.44,0,0,1,3.53-3.06,7.1,7.1,0,0,1,3.91-1.08c1.78.05,3.93-1.23,5.83-3.52a13.45,13.45,0,0,1,3.53-3.06,6.21,6.21,0,0,1,5.59-.69,1.36,1.36,0,0,1-1.08,2.49,3.64,3.64,0,0,0-3.15.56,10.71,10.71,0,0,0-2.8,2.44c-2.48,3-5.42,4.63-8.05,4.5a4.51,4.51,0,0,0-2.42.72,10.71,10.71,0,0,0-2.79,2.44c-2.48,3-5.39,4.62-8.05,4.5a4.47,4.47,0,0,0-2.42.72,10.71,10.71,0,0,0-2.79,2.44c-2.48,3-5.4,4.63-8.05,4.5a4.49,4.49,0,0,0-2.42.72,12.5,12.5,0,0,0-4.5,5A1.36,1.36,0,0,1,302.65,216.72Z"/><path class="cls-3" d="M223,268.87a5.77,5.77,0,0,1-2.61,4.52c-1.44.83-2.61.16-2.61-1.51a5.77,5.77,0,0,1,2.61-4.52C221.79,266.53,223,267.21,223,268.87Z"/><path class="cls-3" d="M231.43,264a5.77,5.77,0,0,1-2.61,4.52c-1.44.83-2.61.16-2.61-1.51a5.77,5.77,0,0,1,2.61-4.52C230.26,261.64,231.43,262.32,231.43,264Z"/><path class="cls-3" d="M239.89,259.1a5.77,5.77,0,0,1-2.61,4.52c-1.44.83-2.61.16-2.61-1.51a5.77,5.77,0,0,1,2.61-4.52C238.72,256.76,239.89,257.43,239.89,259.1Z"/><path class="cls-3" d="M248.36,254.21a5.77,5.77,0,0,1-2.61,4.52c-1.44.83-2.61.16-2.61-1.51a5.77,5.77,0,0,1,2.61-4.52C247.19,251.87,248.36,252.54,248.36,254.21Z"/><path class="cls-3" d="M202.33,47.65a5.77,5.77,0,0,1-2.61,4.52c-1.44.83-2.61.16-2.61-1.51a5.77,5.77,0,0,1,2.61-4.52C201.16,45.31,202.33,46,202.33,47.65Z"/><path class="cls-3" d="M209.53,43.49A5.77,5.77,0,0,1,206.92,48c-1.44.83-2.61.16-2.61-1.51A5.77,5.77,0,0,1,206.92,42C208.36,41.15,209.53,41.82,209.53,43.49Z"/><path class="cls-3" d="M202.33,39.33a5.77,5.77,0,0,1-2.61,4.52c-1.44.83-2.61.16-2.61-1.51a5.77,5.77,0,0,1,2.61-4.52C201.16,37,202.33,37.66,202.33,39.33Z"/><path class="cls-3" d="M209.53,35.17a5.77,5.77,0,0,1-2.61,4.52c-1.44.83-2.61.16-2.61-1.51a5.77,5.77,0,0,1,2.61-4.52C208.36,32.83,209.53,33.5,209.53,35.17Z"/><polygon class="cls-3" points="43.57 143.68 38.34 146.7 38.34 140.67 43.57 137.65 43.57 143.68"/><polygon class="cls-3" points="52.03 138.79 46.81 141.81 46.81 135.78 52.03 132.76 52.03 138.79"/><polygon class="cls-3" points="60.5 133.91 55.28 136.92 55.28 130.89 60.5 127.88 60.5 133.91"/><polygon class="cls-3" points="68.97 129.02 63.74 132.03 63.74 126 68.97 122.99 68.97 129.02"/><polygon class="cls-3" points="167.69 299.57 162.46 302.59 162.46 296.56 167.69 293.54 167.69 299.57"/><polygon class="cls-3" points="174.94 295.33 169.71 298.35 169.71 292.32 174.94 289.3 174.94 295.33"/><polygon class="cls-3" points="167.73 307.4 162.51 310.41 162.51 304.38 167.73 301.37 167.73 307.4"/><polygon class="cls-3" points="174.94 303.24 169.71 306.25 169.71 300.22 174.94 297.2 174.94 303.24"/><path class="cls-3" d="M289.35,26a10,10,0,0,0-2.55,2.19c-.12-5-3.73-7-8.17-4.47a14.87,14.87,0,0,0-3.93,3.43c-2-3.46-6.08-4.26-10.83-1.52-6.68,3.86-12.1,13.24-12.1,21a14.41,14.41,0,0,0,.12,1.8,4.56,4.56,0,0,0-3.39.68,12.79,12.79,0,0,0-5.79,10c0,3.69,2.59,5.19,5.79,3.34l40.85-23.58a12.3,12.3,0,0,0,5.56-9.64C294.91,25.67,292.42,24.23,289.35,26Z"/><path class="cls-10" d="M49.38,270.53a10.58,10.58,0,0,0-2.7,2.32c-.13-5.33-3.95-7.46-8.66-4.74a15.75,15.75,0,0,0-4.16,3.63c-2.1-3.66-6.44-4.51-11.47-1.61-7.07,4.08-12.81,14-12.81,22.19a15.26,15.26,0,0,0,.13,1.91,4.83,4.83,0,0,0-3.59.72A13.55,13.55,0,0,0,0,305.58c0,3.91,2.74,5.49,6.13,3.54l43.26-25a13,13,0,0,0,5.89-10.21C55.28,270.18,52.64,268.66,49.38,270.53Z"/><path class="cls-2" d="M114.39,126.61l60.09-34.69c6.5-3.76,5.69-10.32-1.82-14.65h0c-7.51-4.34-18.87-4.81-25.38-1.05L87.19,110.9c-6.5,3.76-5.69,10.32,1.82,14.65h0C96.53,129.89,107.89,130.36,114.39,126.61Z"/><path class="cls-3" d="M103.35,120a30.83,30.83,0,0,1-15.06-3.81c-4.42-2.55-6.95-6-6.95-9.56,0-3,1.82-5.73,5.13-7.64l60.09-34.69c7-4.05,18.81-3.59,26.85,1.05,4.42,2.55,6.95,6,6.95,9.56,0,3-1.82,5.73-5.13,7.64l-60.09,34.69A23.94,23.94,0,0,1,103.35,120Zm55-55.51A21,21,0,0,0,148,66.88L87.93,101.57c-2.39,1.38-3.66,3.14-3.66,5.09,0,2.45,2,5,5.48,7,7.09,4.09,17.82,4.57,23.91,1.05L173.75,80c2.39-1.38,3.66-3.14,3.66-5.09,0-2.45-2-5-5.48-7A28,28,0,0,0,158.3,64.52Z"/><path class="cls-11" d="M147.43,73.25V68.89l5.15-26-5.09-3.15L137.3,45.4l-.07,33.47c0,2.25.84,3.78,2.14,4.27h0L143.9,86l.57-2.16.78-3.93A12.46,12.46,0,0,0,147.43,73.25Z"/><path class="cls-11" d="M147.4,85.9h0c-2.82,1.55-5.09-.18-5.09-3.88l.07-33.47,10.2-5.63-.07,33.47C152.51,80.09,150.22,84.35,147.4,85.9Z"/><path class="cls-12" d="M174.94,24.89c0-8.5-6-18.83-13.32-23.08-3.81-2.2-7.24-2.33-9.67-.78h0L111.55,24.36l20.84,31.31L171,33.55l.1-.06.09,0h0C173.5,32,174.94,29.06,174.94,24.89Z"/><path class="cls-13" d="M155.92,36.24c0-8.74-6.13-19.36-13.7-23.73-3.44-2-6.58-2.33-9-1.31h0l0,0-.06,0-.31.15a96,96,0,0,1-46.08,9.77L82.21,21,119,84l2-3.85a96,96,0,0,1,30.88-35C154.35,43.73,155.92,40.65,155.92,36.24Z"/><path class="cls-7" d="M123.25,69.75C123.25,53,111.48,32.6,97,24.22c-7.24-4.18-13.8-4.58-18.55-1.86h0l0,0,0,0L74,24.92l1.51-.31c-3.07,3.19-4.87,8.23-4.87,14.79,0,16.76,11.77,37.15,26.29,45.53,5.7,3.29,11,4.24,15.28,3.17l-.68,1,4-2.32.06,0,.14-.08h0C120.38,83.87,123.25,78,123.25,69.75Z"/><path class="cls-3" d="M120.17,71.55c0-16.76-11.77-37.15-26.29-45.53-7.14-4.12-13.62-4.57-18.36-2l-.66.39c-.23.14-.45.29-.66.45l1.34-.28c-3.07,3.19-4.87,8.23-4.87,14.79,0,16.76,11.77,37.15,26.29,45.53,5.7,3.29,11,4.24,15.28,3.17l-.62.92C116.87,86.5,120.17,80.42,120.17,71.55Z"/><path class="cls-11" d="M119.3,72.06c0,16.76-11.77,23.56-26.29,15.18S66.73,58.47,66.73,41.71,78.5,18.15,93,26.53,119.3,55.3,119.3,72.06Z"/><path class="cls-5" d="M116.08,70.2c0,14.71-10.33,20.67-23.06,13.31S70,58.27,70,43.57,80.28,22.9,93,30.25,116.08,55.49,116.08,70.2Z"/><path class="cls-3" d="M94.09,83C81.35,75.7,71,57.81,71,43.11c0-7.72,2.85-13,7.4-15.27C73.25,29.73,70,35.25,70,43.57,70,58.27,80.28,76.16,93,83.51c6,3.49,11.55,4,15.67,2C104.7,86.93,99.62,86.25,94.09,83Z"/><g class="cls-14"><polygon class="cls-7" points="89.56 51.37 123.02 25.5 135.18 46.58 95.9 62.69 89.56 51.37"/><path class="cls-11" d="M97.62,59.54c0,2.94-2.06,4.13-4.61,2.66a10.18,10.18,0,0,1-4.61-8c0-2.94,2.06-4.13,4.61-2.66A10.18,10.18,0,0,1,97.62,59.54Z"/></g><path class="cls-3" d="M139.86,73.53l-.18-.1a2.9,2.9,0,0,1-1.22-2.31l0-6.46c0-.89.54-1.3,1.21-.92l.18.1A2.9,2.9,0,0,1,141,66.16l0,6.46C141.07,73.51,140.53,73.92,139.86,73.53Z"/><path class="cls-15" d="M213.84,177c-13.42,7.75-35.18,7.75-48.6,0s-13.42-20.31,0-28.06,35.18-7.75,48.6,0S227.26,169.24,213.84,177Z"/><path class="cls-9" d="M232.26,136V124H230a27.28,27.28,0,0,0-10.25-9.59c-16.68-9.63-43.73-9.63-60.41,0A27.28,27.28,0,0,0,149.09,124h-2.26V136h0c0,6.33,4.14,12.67,12.51,17.5,16.68,9.63,43.73,9.63,60.41,0C228.09,148.67,232.26,142.36,232.26,136Z"/><path class="cls-16" d="M219.75,114.46c-8.34-4.82-19.27-7.22-30.2-7.22v53.47c10.93,0,21.86-2.41,30.21-7.22s12.51-11.13,12.51-17.44V124H230A27.28,27.28,0,0,0,219.75,114.46Z"/><path class="cls-17" d="M219.75,141.49c-16.68,9.63-43.73,9.63-60.41,0s-16.68-25.25,0-34.88,43.73-9.63,60.41,0S236.43,131.86,219.75,141.49Z"/><path class="cls-3" d="M219.75,141.49c-16.68,9.63-43.73,9.63-60.41,0-8-4.62-12.12-10.61-12.45-16.66-.36,6.57,3.76,13.21,12.45,18.22,16.68,9.63,43.73,9.63,60.41,0,8.69-5,12.81-11.65,12.45-18.22C231.86,130.88,227.74,136.87,219.75,141.49Z"/><path class="cls-3" d="M172.51,125.13l16.72-9.66c1.89-1.09,5.12-.62,5.88.86l7,13.72c.79,1.55-1.7,3-4.38,2.53L174,128.52C171.44,128.08,170.62,126.22,172.51,125.13Z"/><polygon class="cls-18" points="182.85 200.71 114.65 161.33 116.46 160.29 184.66 199.67 182.85 200.71"/><polygon class="cls-7" points="136.65 175.18 113.66 161.9 117.45 159.72 140.44 172.99 136.65 175.18"/><polygon class="cls-3" points="135.75 175.9 134.78 175.35 140.73 171.92 141.69 172.47 135.75 175.9"/></g></g></svg>