<svg xmlns="http://www.w3.org/2000/svg" xmlns:xlink="http://www.w3.org/1999/xlink" viewBox="0 0 1225.13 500"><defs><style>.cls-1{fill:url(#linear-gradient);}.cls-2{fill:#edf5f7;}.cls-3{fill:#2e98d8;}.cls-4{fill:#ffcf83;}.cls-5{fill:#edb666;}.cls-6{fill:#414649;}.cls-7{fill:#fff;}.cls-8{fill:#f5edea;}.cls-9{fill:#ffedd2;}.cls-10{fill:#ffd599;}.cls-11{fill:#0990ba;}.cls-12{fill:#e9f9ff;}.cls-13{fill:#0277bd;}.cls-14{fill:#097db7;}.cls-15{fill:#9ae6f7;}.cls-16{fill:#48cbff;}</style><linearGradient id="linear-gradient" x1="44.89" y1="577.75" x2="1180.24" y2="-77.75" gradientUnits="userSpaceOnUse"><stop offset="0" stop-color="#cff109"/><stop offset="1" stop-color="#35e609"/></linearGradient></defs><title>Asset 2</title><g id="Layer_2" data-name="Layer 2"><g id="Ñëîé_1" data-name="Ñëîé 1"><rect class="cls-1" width="1225.13" height="500"/></g><g id="Ñëîé_2" data-name="Ñëîé 2"><path class="cls-2" d="M733.89,219.27a1,1,0,0,1-1-.93c-.13-1.9-.36-3.87-.68-5.85a1,1,0,1,1,2-.32c.33,2,.57,4.08.7,6a1,1,0,0,1-.93,1.06Zm-2.06-12.45a1,1,0,0,1-1-.75c-.49-1.9-1.07-3.8-1.72-5.64a1,1,0,1,1,1.88-.66c.67,1.89,1.26,3.85,1.77,5.8a1,1,0,0,1-.71,1.22A1,1,0,0,1,731.82,206.82Zm-4.24-11.88a1,1,0,0,1-.91-.58c-.83-1.79-1.73-3.55-2.7-5.24a1,1,0,1,1,1.73-1c1,1.74,1.93,3.55,2.78,5.39a1,1,0,0,1-.9,1.42ZM721.25,184a1,1,0,0,1-.81-.42c-1.14-1.59-2.36-3.14-3.64-4.62a1,1,0,0,1,1.51-1.3c1.32,1.53,2.58,3.13,3.75,4.77a1,1,0,0,1-.81,1.58Zm-8.29-9.5a1,1,0,0,1-.69-.27c-1.42-1.35-2.92-2.64-4.46-3.85a1,1,0,0,1,1.23-1.57c1.58,1.24,3.13,2.58,4.59,4a1,1,0,0,1-.69,1.72ZM703,166.8a1,1,0,0,1-.53-.15c-1.65-1-3.37-2-5.11-2.92a1,1,0,0,1,.91-1.77c1.8.92,3.57,1.93,5.27,3a1,1,0,0,1-.53,1.84Zm-11.25-5.69a1,1,0,0,1-.36-.07c-1.81-.71-3.68-1.36-5.57-1.92a1,1,0,1,1,.57-1.91c1.94.58,3.87,1.24,5.74,2a1,1,0,0,1-.36,1.92Zm-12.11-3.53-.2,0c-1.92-.38-3.88-.69-5.83-.91a1,1,0,1,1,.23-2c2,.23,4,.55,6,.94a1,1,0,0,1-.19,2Zm-18.52-1.25a1,1,0,0,1-.07-2c1.41-.11,2.92-.16,4.47-.16l1.61,0a1,1,0,0,1,1,1,1,1,0,0,1-1,1l-1.56,0c-1.5,0-3,.05-4.32.16Z"/><path class="cls-3" d="M560.2,321.25h-45a8.78,8.78,0,0,1-8.76-8.76V276.28a8.78,8.78,0,0,1,8.76-8.76h36.21a8.78,8.78,0,0,1,8.76,8.76Z"/><rect class="cls-4" x="562.65" y="235.64" width="101.93" height="92.56" rx="40" ry="40"/><rect class="cls-5" x="571.39" y="249.43" width="87.49" height="58.74" rx="16.3" ry="16.3"/><path class="cls-6" d="M651.18,303.39l-71.66.39a4,4,0,0,1-4-3.92l-.74-137.7a4,4,0,0,1,3.92-4l71.66-.39a4,4,0,0,1,4,3.92l.74,137.7A4,4,0,0,1,651.18,303.39Z"/><rect class="cls-7" x="580.58" y="167.92" width="68.71" height="117.38" rx="0.43" ry="0.43" transform="translate(-1.21 3.31) rotate(-0.31)"/><rect class="cls-8" x="602.1" y="291.47" width="26.41" height="7.03" rx="0.61" ry="0.61" transform="translate(-1.58 3.31) rotate(-0.31)"/><path class="cls-8" d="M625.09,164.17l-22.94.12a1.32,1.32,0,0,1-1.32-1.31h0a1.32,1.32,0,0,1,1.31-1.32l22.94-.12a1.32,1.32,0,0,1,1.32,1.31h0A1.32,1.32,0,0,1,625.09,164.17Z"/><path class="cls-8" d="M628.86,164.15h0a1.32,1.32,0,0,1-1.32-1.31h0a1.32,1.32,0,0,1,1.31-1.32h0a1.32,1.32,0,0,1,1.32,1.31h0A1.32,1.32,0,0,1,628.86,164.15Z"/><polygon class="cls-4" points="664.58 290.92 675 267.53 658.88 261.32 664.58 290.92"/><rect class="cls-4" x="626.83" y="239.92" width="53.33" height="26.27" rx="12" ry="12" transform="translate(123.01 -204.85) rotate(19.63)"/><rect class="cls-4" x="553.28" y="280.25" width="36.23" height="17.84" rx="8.92" ry="8.92"/><path class="cls-5" d="M553.28,289a8.78,8.78,0,0,1,8.76-8.76h18.72C585.57,280.25,553.28,289,553.28,289Z"/><ellipse class="cls-9" cx="638.36" cy="246.05" rx="9.04" ry="7.06" transform="translate(159.22 734.38) rotate(-66.62)"/><path class="cls-10" d="M641,234.67l33.74,12A31.49,31.49,0,0,1,663.33,248a27.92,27.92,0,0,1-13.86-4.42A27.1,27.1,0,0,1,641,234.67Z"/><polygon class="cls-5" points="656.34 268.02 665.95 271.44 657.9 286.42 656.34 268.02"/><polygon class="cls-4" points="555.81 295.49 564.31 308.68 564.31 294.39 555.81 295.49"/><polygon class="cls-5" points="574.82 304.61 562.03 298.1 575.56 298.1 574.82 304.61"/><ellipse class="cls-9" cx="580.7" cy="288.9" rx="6.91" ry="4.76" transform="translate(264.99 855.48) rotate(-87.32)"/><rect class="cls-4" x="553.28" y="258.51" width="43.42" height="21.38" rx="10.69" ry="10.69"/><path class="cls-5" d="M553.28,269c-.87-9,4.72-10.49,10.49-10.49H586.2C592,258.51,553.28,269,553.28,269Z"/><ellipse class="cls-9" cx="586.14" cy="268.88" rx="8.29" ry="5.7" transform="translate(290.18 841.82) rotate(-87.32)"/><rect class="cls-4" x="553.28" y="236.77" width="50.95" height="21.38" rx="10.69" ry="10.69"/><path class="cls-5" d="M553.28,247.27c-.4-9.78,5.71-11.15,12.31-10.49h26.32C598.69,236.77,553.28,247.27,553.28,247.27Z"/><ellipse class="cls-9" cx="594.65" cy="247.47" rx="8.29" ry="5.7" transform="translate(319.68 829.91) rotate(-87.32)"/><rect class="cls-4" x="552.41" y="215.39" width="55.47" height="21.38" rx="10.69" ry="10.69"/><path class="cls-5" d="M552.41,225.88c-.16-.66-.3-5.26,1.31-7.45a7.53,7.53,0,0,1,5.28-2.8,46.48,46.48,0,0,1,6.82-.23h28.66C601.84,215.39,552.41,225.88,552.41,225.88Z"/><ellipse class="cls-9" cx="597.91" cy="226.08" rx="8.29" ry="5.7" transform="translate(344.15 812.78) rotate(-87.32)"/><rect class="cls-11" x="575.18" y="327.55" width="76.87" height="80.95"/><rect class="cls-12" x="568.94" y="326.88" width="92.03" height="18.28"/><circle class="cls-2" cx="639.04" cy="354.83" r="4.17"/><circle class="cls-2" cx="639.04" cy="369.42" r="4.17"/><path class="cls-13" d="M550.25,176.07H506a8.78,8.78,0,0,1-8.76-8.76V131.82a8.78,8.78,0,0,1,8.76-8.76H541.5a8.78,8.78,0,0,1,8.76,8.76Z"/><path class="cls-7" d="M507.07,255.4H471.6a8.78,8.78,0,0,1-8.76-8.76V219.93a8.78,8.78,0,0,1,8.76-8.76h26.72a8.78,8.78,0,0,1,8.76,8.76Z"/><path class="cls-12" d="M581.47,146.85h46.59a8.78,8.78,0,0,0,8.76-8.76V100.26a8.78,8.78,0,0,0-8.76-8.76H590.23a8.78,8.78,0,0,0-8.76,8.76Z"/><path class="cls-3" d="M675.65,240.67h33.69a8.78,8.78,0,0,0,8.76-8.76V207a8.78,8.78,0,0,0-8.76-8.76H684.41a8.78,8.78,0,0,0-8.76,8.76Z"/><path class="cls-7" d="M703.41,207.34a8.63,8.63,0,0,0-6.57,3A8.65,8.65,0,0,0,681.62,216c0,11.63,15.22,18.71,15.22,18.71s15.22-7.08,15.22-18.71A8.65,8.65,0,0,0,703.41,207.34Z"/><path class="cls-14" d="M698.55,276.87h44.38a8.78,8.78,0,0,0,8.76-8.76V232.49a8.78,8.78,0,0,0-8.76-8.76H707.3a8.78,8.78,0,0,0-8.76,8.76Z"/><path class="cls-7" d="M717.59,184.31h31.29a8.78,8.78,0,0,0,8.76-8.76V153a8.78,8.78,0,0,0-8.76-8.76H726.35a8.78,8.78,0,0,0-8.76,8.76Z"/><path class="cls-15" d="M672.85,106.35H700a0,0,0,0,1,0,0v27.17a12,12,0,0,1-12,12H672.85a12,12,0,0,1-12-12V118.35A12,12,0,0,1,672.85,106.35Z" transform="translate(1360.87 251.86) rotate(180)"/><polygon class="cls-2" points="667.33 176.17 660.37 169.22 661.92 167.67 667.33 173.08 673.48 166.92 675.03 168.47 667.33 176.17"/><polygon class="cls-2" points="667.33 183.47 660.37 176.51 661.92 174.97 667.33 180.38 673.48 174.22 675.03 175.77 667.33 183.47"/><polygon class="cls-2" points="667.33 190.77 660.37 183.81 661.92 182.26 667.33 187.67 673.48 181.52 675.03 183.06 667.33 190.77"/><polygon class="cls-14" points="683.86 331.68 690.81 338.64 689.27 340.18 683.86 334.77 677.7 340.93 676.16 339.38 683.86 331.68"/><polygon class="cls-14" points="683.86 324.38 690.81 331.34 689.27 332.89 683.86 327.48 677.7 333.63 676.16 332.09 683.86 324.38"/><polygon class="cls-14" points="683.86 317.09 690.81 324.04 689.27 325.59 683.86 320.18 677.7 326.34 676.16 324.79 683.86 317.09"/><polygon class="cls-14" points="532.61 237.91 525.66 230.96 527.21 229.41 532.61 234.82 538.77 228.66 540.32 230.21 532.61 237.91"/><polygon class="cls-14" points="532.61 245.21 525.66 238.25 527.21 236.71 532.61 242.11 538.77 235.96 540.32 237.51 532.61 245.21"/><polygon class="cls-14" points="532.61 252.51 525.66 245.55 527.21 244 532.61 249.41 538.77 243.26 540.32 244.8 532.61 252.51"/><polygon class="cls-2" points="479.18 138.4 477.63 136.85 485.33 129.15 492.29 136.11 490.74 137.66 485.33 132.25 479.18 138.4"/><polygon class="cls-2" points="479.18 131.1 477.63 129.56 485.33 121.86 492.29 128.81 490.74 130.36 485.33 124.95 479.18 131.1"/><polygon class="cls-2" points="479.18 123.81 477.63 122.26 485.33 114.56 492.29 121.52 490.74 123.06 485.33 117.65 479.18 123.81"/><rect class="cls-2" x="532.78" y="194.1" width="29.44" height="2.19"/><polygon class="cls-2" points="560.21 191.39 560.21 199.06 564.23 195.03 560.21 191.39"/><polygon class="cls-2" points="533.34 191.39 533.34 199.06 529.31 195.03 533.34 191.39"/><rect class="cls-2" x="675.98" y="293.5" width="29.44" height="2.19"/><polygon class="cls-2" points="703.41 290.79 703.41 298.46 707.43 294.43 703.41 290.79"/><polygon class="cls-2" points="676.54 290.79 676.54 298.46 672.51 294.43 676.54 290.79"/><rect class="cls-2" x="757.39" y="209.67" width="2.19" height="29.44"/><polygon class="cls-2" points="762.29 237.09 754.63 237.09 758.65 241.12 762.29 237.09"/><polygon class="cls-2" points="762.29 210.22 754.63 210.22 758.65 206.2 762.29 210.22"/><circle class="cls-7" cx="708.78" cy="266.97" r="3.76"/><path class="cls-7" d="M722.66,265.82H719a9.08,9.08,0,0,0-9.07-9.07v-3.65A12.73,12.73,0,0,1,722.66,265.82Z"/><path class="cls-7" d="M735.52,265.2h-3.65a21.33,21.33,0,0,0-21.31-21.31v-3.65A25,25,0,0,1,735.52,265.2Z"/><path class="cls-7" d="M747.71,263.9h-3.65a32.23,32.23,0,0,0-32.2-32.2v-3.65A35.89,35.89,0,0,1,747.71,263.9Z"/><circle class="cls-16" cx="609.15" cy="134.35" r="2.96" transform="translate(83.42 470.08) rotate(-45)"/><path class="cls-16" d="M613.91,128.29a6.76,6.76,0,0,0-9.54,0l-2.58-2.58a10.4,10.4,0,0,1,14.7,0Z"/><path class="cls-16" d="M597.56,120.79,595,118.21a20,20,0,0,1,28.33,0l-2.58,2.58a16.38,16.38,0,0,0-23.17,0Z"/><path class="cls-16" d="M626.79,113.28a25,25,0,0,0-35.29,0l-2.58-2.58a28.6,28.6,0,0,1,40.45,0Z"/><rect class="cls-7" x="502.98" y="135.26" width="40.84" height="27.71" rx="12" ry="12"/><polygon class="cls-15" points="519.04 148.91 519.04 142.49 524.6 145.7 530.16 148.91 524.6 152.12 519.04 155.33 519.04 148.91"/><rect class="cls-15" x="720.48" y="153.04" width="34.27" height="23.26" rx="11.63" ry="11.63"/><polygon class="cls-7" points="733.96 164.49 733.96 159.11 738.62 161.8 743.29 164.49 738.62 167.18 733.96 169.88 733.96 164.49"/><path class="cls-3" d="M491.52,221a8.63,8.63,0,0,0-6.57,3,8.65,8.65,0,0,0-15.22,5.63c0,11.63,15.22,18.71,15.22,18.71s15.22-7.08,15.22-18.71A8.65,8.65,0,0,0,491.52,221Z"/><path class="cls-7" d="M694.24,137.92H666.61a12.2,12.2,0,0,1,12.2-12.2H682a12.2,12.2,0,0,1,12.2,12.2Z"/><ellipse class="cls-7" cx="680.6" cy="120.58" rx="6.95" ry="9.14"/><path class="cls-7" d="M540.52,269.42A4.57,4.57,0,0,0,536,274v10.39H518.88c-1.52,0-2.76,1.64-2.76,3.65a3.58,3.58,0,0,0,2.16,3.56,3.58,3.58,0,0,0-2.16,3.56,3.8,3.8,0,0,0,1.72,3.38,3.8,3.8,0,0,0-1.72,3.38,3.58,3.58,0,0,0,2.16,3.56,3.58,3.58,0,0,0-2.16,3.56c0,2,1.24,3.65,2.76,3.65h22.94c1.79,0,3.26-1.94,3.26-4.31V274A4.57,4.57,0,0,0,540.52,269.42Z"/><rect class="cls-7" x="540.2" y="286.65" width="10.34" height="25.98"/><path class="cls-2" d="M567.26,355.83h0c-.67,0-1.71,0-3-.08a1,1,0,0,1-1-1,1,1,0,0,1,1-1c1.28.05,2.3.07,3,.07a1,1,0,0,1,0,2Z"/><path class="cls-2" d="M557.92,355.27h-.11c-1.91-.21-3.84-.47-5.74-.79a1,1,0,1,1,.33-2c1.87.31,3.76.57,5.63.77a1,1,0,0,1-.11,2Zm-11.94-2-.22,0c-1.88-.43-3.76-.92-5.61-1.46a1,1,0,1,1,.55-1.91c1.81.52,3.66,1,5.5,1.43a1,1,0,0,1-.22,2Zm-11.62-3.41a1,1,0,0,1-.34-.06c-1.82-.65-3.63-1.37-5.39-2.12a1,1,0,1,1,.78-1.83c1.72.74,3.5,1.43,5.29,2.07a1,1,0,0,1-.34,1.94Zm-11.12-4.78a1,1,0,0,1-.45-.11c-1.72-.87-3.43-1.8-5.09-2.77a1,1,0,0,1,1-1.72c1.62.95,3.3,1.86,5,2.71a1,1,0,0,1-.45,1.89Zm-10.43-6.14a1,1,0,0,1-.56-.17c-1.59-1.08-3.17-2.22-4.69-3.4a1,1,0,0,1,1.22-1.58c1.49,1.15,3,2.27,4.59,3.33a1,1,0,0,1-.56,1.82Zm-9.55-7.43a1,1,0,0,1-.66-.25q-1.07-.95-2.13-1.95c-.7-.66-1.4-1.34-2.09-2a1,1,0,0,1,1.41-1.41q1,1,2,2t2.08,1.91a1,1,0,0,1-.66,1.74Zm-8.52-8.59a1,1,0,0,1-.75-.34c-1.26-1.45-2.5-3-3.67-4.48a1,1,0,1,1,1.58-1.22c1.15,1.5,2.36,3,3.6,4.39a1,1,0,0,1-.75,1.65Zm-7.35-9.61a1,1,0,0,1-.83-.44c-1.07-1.6-2.1-3.25-3.08-4.91a1,1,0,1,1,1.72-1c1,1.63,2,3.25,3,4.81a1,1,0,0,1-.83,1.55Zm-6.08-10.46a1,1,0,0,1-.89-.55c-.86-1.71-1.68-3.48-2.44-5.25a1,1,0,0,1,1.83-.79c.75,1.74,1.55,3.47,2.4,5.15a1,1,0,0,1-.89,1.44Zm-4.75-11.13a1,1,0,0,1-.94-.66c-.65-1.81-1.25-3.67-1.79-5.51a1,1,0,0,1,1.91-.56c.53,1.81,1.12,3.63,1.76,5.4a1,1,0,0,1-.6,1.27A1,1,0,0,1,476.56,291.68Z"/><path class="cls-2" d="M473.19,280a1,1,0,0,1-1-.78c-.22-1-.42-1.95-.61-3a1,1,0,1,1,2-.37c.19,1,.38,1.93.6,2.89a1,1,0,0,1-.76,1.19Z"/><path class="cls-2" d="M492.29,207.18a1,1,0,0,1-1-.95v-.06a42.41,42.41,0,0,1,.55-6.1,1,1,0,0,1,2,.31,40.24,40.24,0,0,0-.53,5.79,1,1,0,0,1-1,1Zm2-12.43a1,1,0,0,1-1-1.29,42.27,42.27,0,0,1,2.18-5.72,1,1,0,1,1,1.8.85,40.31,40.31,0,0,0-2.08,5.45A1,1,0,0,1,494.3,194.75Zm5.51-11.29a1,1,0,0,1-.8-1.59,30,30,0,0,1,3.27-3.74,1,1,0,1,1,1.38,1.43,28,28,0,0,0-3,3.49A1,1,0,0,1,499.82,183.45Z"/></g></g></svg>