<svg xmlns="http://www.w3.org/2000/svg" viewBox="0 0 974.55 732.38"><defs><style>.cls-1{isolation:isolate;}.cls-2{opacity:0.12;mix-blend-mode:multiply;}.cls-3{fill:#162742;}.cls-4{fill:#eacdb0;}.cls-5{fill:#8faa8d;}.cls-6{fill:#3a3029;}.cls-7{fill:#736357;}.cls-8{fill:#a67c52;}.cls-9{fill:#f1c937;}.cls-10{fill:#b0265a;}.cls-11{fill:#ebba31;}.cls-12{fill:#3f3289;}.cls-13{fill:#ebba6a;}.cls-14{fill:#c19856;}.cls-15{fill:#ae843f;}.cls-16{opacity:0.2;}.cls-17{fill:#252323;}.cls-18{opacity:0.1;}.cls-19{fill:#913828;}.cls-20{fill:#534741;}.cls-21{fill:#595958;}.cls-22{fill:#d6c0b9;}.cls-23{fill:#99704a;}.cls-24{fill:#f4da68;}.cls-25{fill:#e6bc34;}.cls-26{fill:#747474;}.cls-27{fill:#b7ccea;}.cls-28{fill:#e5d1bd;}.cls-29{fill:#4d4d4d;}.cls-30{fill:#627277;}.cls-31{fill:#2d4661;}.cls-32{fill:#263d54;}.cls-33{fill:#f4d68e;}.cls-34{fill:#385576;}.cls-35{fill:#5da498;}</style></defs><title>Asset 2</title><g class="cls-1"><g id="Layer_2" data-name="Layer 2"><g id="object"><g class="cls-2"><path class="cls-3" d="M916.32,709.52c-24.6,6.68-49.68,10.15-76.24,13.15-29.82,3.37-59.67,4.57-89.42,5.59-61.38,2.09-122.64,1.77-184.23,2-167.72.66-284.6.05-505.66-17.66-14-1.12-28.16-4.53-40-10.39S-.85,687.55.06,676.3c1.11-13.83,14.68-23.11,32.07-27.18,20.08-4.7,42.7-3.85,63.49-5.83,30.38-2.89,61.65-1.29,91.92-1.92,65.06-1.36,130.71-3,195.36-4,184.23-3,370.46-12.27,552.07,8.41,14.23,1.62,30.62,4.47,37.14,15.3,8.22,13.63-5.69,30.05-21.9,36.86A269.31,269.31,0,0,1,916.32,709.52Z"/></g><path class="cls-4" d="M737.39,154.07l1.78-9.05c2-1.87,7.14-5.12,5.69-8.31a3.32,3.32,0,0,0-4.13-1.63c-1.68.7.77-5.79.78-5.68-.37-5.45-4.58-7.17-9.51-5a10.73,10.73,0,0,0-6.21,8.87c-.51,4.15,2,7.65,1.92,11.55l-.2,9.39Z"/><path class="cls-5" d="M742.77,192.26l-.09-.65Q741,178.22,740,164.74c-.31-4.43-.11-9.1-.76-13.48-.41-2.76.2-2.85-2.35-3.93-1.8-.76-4.57-.48-6.48-.35-5.13.35-5.24.8-6.34,5.46-1.84,7.79-2.36,16.2-2.89,24.17-.87,13.09-3.36,27,1.77,39.6,5.58,13.65,16.6,25.41,25.84,36.65,3.35,4.08,7.92,8.6,13,7.34a12.74,12.74,0,0,0,5.56-3.61c7.1-6.9,25.89-30.85,10.9-37.57a155.6,155.6,0,0,1-30.07-17.78,14.41,14.41,0,0,1-4.08-4.1A13.39,13.39,0,0,1,742.77,192.26Z"/><path class="cls-4" d="M860.74,184.75l1.57-9.09c-1.2-2.45-4.84-7.33-2.35-9.8a3.32,3.32,0,0,1,4.44,0c1.32,1.25,1.34-5.68,1.3-5.58,2.29-5,6.84-5.06,10.65-1.24A10.73,10.73,0,0,1,879,169.5c-1,4.06-4.61,6.43-5.92,10.11l-3.16,8.85Z"/><path class="cls-5" d="M842.09,218.5l.31-.58q6.4-11.89,12.09-24.14c1.87-4,3.35-8.46,5.52-12.32,1.36-2.43.83-2.74,3.6-2.83,2-.07,4.44,1.18,6.17,2,4.66,2.16,4.61,2.61,4,7.36-1.06,7.93-3.57,16-5.92,23.61-3.86,12.54-6.51,26.46-15.78,36.36-10.08,10.76-24.57,17.81-37.22,25-4.59,2.62-10.47,5.21-14.81,2.2a12.74,12.74,0,0,1-3.91-5.36c-5.58-12-11.33-47.42,10.38-48.67,10-.58,16.81,6.84,27.27,3.81a14.41,14.41,0,0,0,5.27-2.37A13.39,13.39,0,0,0,842.09,218.5Z"/><path class="cls-6" d="M764.66,484.06c1.06,4.68,1.81,9.55,3,14.13a8.78,8.78,0,0,1,.53,3.39,4.67,4.67,0,0,1-2.72,3.33,13,13,0,0,1-4.34,1c-4.5.48-21.65,4-23.31-1.93-.58-2.09.14-4.29.86-6.34a1.11,1.11,0,0,1,1.52-.91c2.91.45,9.23,1.53,10.49-2.12a5.8,5.8,0,0,0-.16-3.23l-1.94-8c4.83-2.08,9.8-4.19,15.05-4.33C764,480.8,764.3,482.44,764.66,484.06Z"/><polygon class="cls-7" points="734.51 353.03 722.17 428.22 749.48 492.05 765.75 487.6 762.65 432.19 793.04 361.6 734.51 353.03"/><path class="cls-6" d="M893.88,447.55c-.2,10.35,1.59,21.07-3.28,30.29a5.15,5.15,0,0,1-1.56,2,4.51,4.51,0,0,1-2.06.54c-3.58.34-8.17-1.06-7.93-5.65a2.71,2.71,0,0,1,.23-1.09c.33-.65,1-.92,1.64-1.3a6.76,6.76,0,0,0,2.73-4.63c.91-5.34-1.81-8.5-4.35-12.66-2-3.34-2.76-3.63-1.63-7.48,1-3.43,1.81-7.08,2.64-10.44a12.31,12.31,0,0,0,6.69,2.24c2,.06,4.21-.24,5.64,1.19,1.26,1.27,1.31,3.37,1.28,5.23Z"/><path class="cls-7" d="M877.39,455.09l1.31.34a1.93,1.93,0,0,0,1.11.07c.49-.19.65-.81.76-1.38q1.74-8.71,2.68-17.78l-35.3-23a33.83,33.83,0,0,1-7.23-5.75c-2.71-3.08-4.29-7-5.85-10.71q-6.3-15.07-13.93-29.73c-3.36-6.46-7.1-13.09-12.55-17.78-4.39-3.77-9.51-6-14.13-9.32-2.06-1.5-4.13-3.28-6.38-3.75-2.6-.54-2.83,1.18-3.93,2.67a32.39,32.39,0,0,1-4.64,5.57q-7.12,6.25-13.94,12.86c-1.74,1.68-8.34,5.88-8.48,8.59s6.65,9.73,8.49,12.15q20.16,26.44,41.91,51.51a26.55,26.55,0,0,0,3.26,3.34,22,22,0,0,0,4.08,2.46,147.25,147.25,0,0,0,17.08,7.26c7.45,2.62,14.94,4.54,22.41,6.45Z"/><path class="cls-5" d="M727.23,344.51c6.4-40.75,23.58-79.38,41.66-116.66,2-4.2,4.44-8.74,8.75-10.53,2.79-1.16,5.94-1,9-.72,6.27.49,12.74,1.11,18.26,4.13,12.66,6.91,15.88,23.33,17.69,37.64,3.54,28.06,6.93,56.33,6,84.68-.27,8.58,1.88,26.41-6.91,31.19-8.15,4.44-29.61-2.14-38.34-3.65-19.39-3.35-38.65-7.21-57.94-11.09Q726.06,351.95,727.23,344.51Z"/><path class="cls-4" d="M824.39,189.9a13.29,13.29,0,0,0,3.29-5.77c.47-1.76.88-3.85-.31-5.23a3.81,3.81,0,0,0-3.72-1,13.52,13.52,0,0,0-3.36,1.56c-2.13-3.18-.67-9.31-2.11-13.13a26.78,26.78,0,0,0-4.59-7.15,18.87,18.87,0,0,0-4-4c-6.15-4.1-14.24-4.8-21.27-3-14.9,3.81-16.11,19.7-19.63,32C765.88,194,765,204,775.41,210c2.67,1.52,5.61,3.86,6.63,6.82a16.43,16.43,0,0,1,.68,5,7.6,7.6,0,0,0,.68,3.69c1.11,1.92,3.62,2.48,5.84,2.85,2.7.45,5.85.76,7.78-1.11,2.46-2.4,2.17-6.74,4.22-9.5,1.69-2.29,4.09-3.49,6.14-5.3s4-4,6.16-5.88c2.79-2.48,5.58-5.35,5.64-9.27,0-1.39-.19-2.94.7-4a5.78,5.78,0,0,1,1.66-1.16A13,13,0,0,0,824.39,189.9Z"/><path class="cls-8" d="M830.26,160.52a33.05,33.05,0,0,0-9-10.93,29.09,29.09,0,0,0-9.75-5.53c-6.72-1.91-24.78,3.3-26.75-5.28-.74-3.2-5.61-4.62-8-2.32-.7.68-1.17,1.58-1.89,2.25a2.36,2.36,0,0,1-2.73.54c-1.11-.7-.91-2.44-1.88-3.33-1.2-1.1-3.29,0-3.84,1.47-.32.86,0,1.91-.28,2.69-.22.6-.72.78-1,1.34-.6,1.27-1.22,2.32-.51,3.76a17.33,17.33,0,0,1,.93,1.67c.41,1.15-.07,2.38-.25,3.57-.4,2.63.71,5.22,2.21,7.52a19.73,19.73,0,0,0-2.23,7.7c-.15,4.31,2.55,9.51,3.82,13.6a12.79,12.79,0,0,0,1.87-4,18.27,18.27,0,0,1,5.39-7.52c1.18-1,2.48-1.82,3.59-2.87l.49.19a9.53,9.53,0,0,0,3.11.84c3.67.13,7.27.85,11.05,1.16s7.9.76,11.43,2.48,6.55,5,7,8.86c.19,1.75-.07,3.78,1.17,5,4.32,4.37,7.35-4.52,11.07-2.47,2.71,1.5.17,5.87-1.22,7.52-1.24,1.46-2.86,2.58-4.08,4.06s-2,3.58-1.21,5.33a1.39,1.39,0,0,0,1,.88c.53.08,1-.34,1.36-.74,5.17-5.5,9.69-11.89,11.52-19.21A26.17,26.17,0,0,0,830.26,160.52Z"/><path class="cls-9" d="M922.65,0l-36.22,12.7c-1.92-5.38-3.19-8.47-3.19-8.47l.1,0c-.92-2.44-30,6.24-64.91,19.39s-62.51,25.77-61.59,28.21l.1,0s1.08,3.18,3.2,8.5L725.6,74.18a1.13,1.13,0,0,0-.37,1.61l3.31,6a200.64,200.64,0,0,0,24.67,34.15c19.45,21.27,38.27,29.33,54.58,23.43,20.38,18.55,41,21.63,41,21.63l6.57-1.38.59-.22L876,211.52l-1,.37a6.48,6.48,0,0,0-3.69,5.63c-.14,4.33,3.6,7.38,2.2,11.92a20.52,20.52,0,0,1-3.92,6.49c-1.5,1.87-3.12,3.83-3.5,6.11a5.81,5.81,0,0,0,.55,4l-11.91,4.65a3.16,3.16,0,0,0-1.6,4.15l8.92,23,91-34.24-9.36-24.11a3.14,3.14,0,0,0-4-2l-11.2,4.37c0-.06,0-.12-.06-.18a5.9,5.9,0,0,0-1.68-2c-1.79-1.46-4.3-1.86-6.67-2.27a20.53,20.53,0,0,1-7.23-2.28c-4.05-2.47-3.27-7.24-6.24-10.39-2.12-2.25-4.17-2.32-6.57-1.75l-.9.32-19.41-52.82.68-.25,5.69-3.23s14-15.26,16.82-43.39l.8-.29c16.17-6.31,25-24.78,25.62-53.61a200.64,200.64,0,0,0-4-41.94L924,1A1.13,1.13,0,0,0,922.65,0ZM743.11,83.78a1.15,1.15,0,0,1,.32-1.7l22.15-8.91c6.17,13.83,15.54,32.44,27.81,49.9,1.09,1.53,2.21,3,3.33,4.4C775.11,128.65,752.86,98.77,743.11,83.78Zm172.7-65c2.59,18,5.63,56.27-12.52,68.95-.11-1.91-.25-3.85-.47-5.85-2.28-21.23-7.5-41.42-12-55.88l23.62-8.28C915,17.54,915.71,18.06,915.82,18.81Z"/><polygon class="cls-10" points="327.79 675.96 327.79 662.36 314.19 662.36 314.19 635.07 300.57 635.07 300.57 621.89 287.11 621.89 287.11 608.37 248.71 608.37 248.71 621.89 235.78 621.89 235.78 635.07 222.32 635.07 222.32 662.36 208.72 662.36 208.72 675.96 222.32 675.96 222.32 676.28 222.32 689.45 235.49 689.45 235.49 676.28 248.71 676.28 248.71 689.45 261.88 689.45 261.88 676.28 273.94 676.28 273.94 689.45 287.11 689.45 287.11 676.28 301.33 676.28 301.33 689.45 314.5 689.45 314.19 676.28 314.19 675.96 327.79 675.96"/><rect class="cls-11" x="235.92" y="635.07" width="13.6" height="13.6"/><rect class="cls-11" x="286.82" y="635.07" width="13.6" height="13.6"/><rect class="cls-10" x="222.32" y="608.37" width="13.6" height="13.6"/><rect class="cls-10" x="208.72" y="594.77" width="13.6" height="13.6"/><rect class="cls-10" x="300.59" y="608.37" width="13.6" height="13.6" transform="translate(614.79 1230.33) rotate(180)"/><rect class="cls-10" x="314.19" y="594.77" width="13.6" height="13.6" transform="translate(641.98 1203.14) rotate(180)"/><path class="cls-12" d="M933.75,580.09v-17H916.41V545.72H867v17.42H850.34v17H833v105h17v-17h17v17h17v-17h15.52v17h17v-17h18.31v17h17v-105Z"/><rect class="cls-11" x="866.98" y="598.96" width="16.96" height="16.96"/><rect class="cls-11" x="899.46" y="598.96" width="16.96" height="16.96"/><rect class="cls-13" x="689.89" y="503.06" width="194" height="194"/><rect class="cls-14" x="609.1" y="583.86" width="194" height="32.4" transform="translate(1306.15 -106.04) rotate(90)"/><rect class="cls-14" x="770.69" y="583.86" width="194" height="32.4" transform="translate(1467.75 -267.63) rotate(90)"/><rect class="cls-15" x="681.77" y="503.06" width="208.88" height="27.62"/><rect class="cls-15" x="681.77" y="669.44" width="208.88" height="27.62"/><g class="cls-16"><rect class="cls-17" x="716.4" y="530.68" width="5.9" height="138.75"/></g><g class="cls-16"><rect class="cls-17" x="851.49" y="530.68" width="5.9" height="138.75"/></g><g class="cls-18"><polygon class="cls-17" points="689.89 530.68 883.89 545.9 883.89 530.68 689.89 530.68"/></g><rect class="cls-19" x="757.5" y="561.8" width="15.87" height="15.87"/><rect class="cls-19" x="804.94" y="561.8" width="15.87" height="15.87"/><rect class="cls-19" x="804.94" y="577.46" width="15.87" height="15.87"/><rect class="cls-19" x="789.66" y="593.33" width="15.87" height="15.87"/><rect class="cls-19" x="773.79" y="609.19" width="15.87" height="15.87"/><rect class="cls-19" x="773.79" y="640.51" width="15.87" height="15.87"/><rect class="cls-19" x="773.37" y="546.15" width="15.87" height="15.87"/><rect class="cls-19" x="789.07" y="546.15" width="15.87" height="15.87"/><polygon class="cls-4" points="146.99 657.58 146.59 685.44 163.11 685.66 163.55 654.77 146.99 657.58"/><path class="cls-20" d="M161.64,681.3,147.28,686,143,690.65l.72,10.92,38.82,3h0a8.64,8.64,0,0,0-4.33-13.13l-1.81-.62Z"/><polygon class="cls-4" points="27.99 630.86 17.05 656.5 32.24 662.97 44.37 634.55 27.99 630.86"/><path class="cls-20" d="M32,663.45A12.59,12.59,0,0,0,30,661.73c-1.83-1.33-16.55-9.13-17.81-5.62a3.94,3.94,0,0,0-.07,1.8,133.88,133.88,0,0,0,7.06,29.67c1.49,4.1,3.74,8.64,8,9.66a12.54,12.54,0,0,0,5.67-.3A59,59,0,0,0,41,694.49a4.48,4.48,0,0,0,2.48-1.73c1-1.81-.74-3.94-2.56-4.92s-4-1.67-4.93-3.53a7.13,7.13,0,0,1-.5-2.71C35.07,674.75,36.24,668.17,32,663.45Z"/><path class="cls-21" d="M131.74,528.44c-5.42,24.77-20.91,42.57-37.45,60.79A784.72,784.72,0,0,0,41,654.7l-21.5-9c6-34.81,22.51-66.75,35.3-99.68,8.89-22.88,16.1-47.07,16.49-71.8.19-12.3-2.78-23.54-4.38-35.5-2-14.82-2.09-30-3.87-44.88-.6-5-.94-10.89,2.9-14.14a13.23,13.23,0,0,1,6.16-2.48C153.55,361.46,142,481.33,131.74,528.44Z"/><path class="cls-21" d="M65.34,398.53A168.94,168.94,0,0,1,69.94,358c23.18-1.24,49.38,1.32,72.31,6,22.41,4.55,36.39,9.43,36.55,33.73.3,44.72,17.77,82.81,25.32,125.79,4.39,25-3.19,47.32-11.59,70.45A784.69,784.69,0,0,0,168,674.71l-23.3-.14c-7.66-34.48-4.5-70.3-5.15-105.62-.45-24.54-3-49.66-12-72.69C117.69,470.94,103.41,481,87,466.34,71.09,452.07,65.41,424.49,65.34,398.53Z"/><path class="cls-22" d="M93.12,239.18a61.92,61.92,0,0,0-7,6.75l-6,6.37c-6.9,7.36-10.31,18.25-13.26,27.65C51.28,329.43,45.68,397.3,55.79,449c38.33,3.31,82.7-6.35,120.94-11.58,3.72-.51,7.93-1.34,9.86-4.56,1.17-2,1.2-4.35,1.2-6.63,0-32.82-6.94-68.09-13.44-100.44a353.69,353.69,0,0,0-10.46-40.42c-4.59-14-9.77-29.14-20.51-39.74-11.5-11.34-33.5-16.94-47.9-8.09A26.73,26.73,0,0,0,93.12,239.18Z"/><path class="cls-23" d="M149.17,189.66A111.68,111.68,0,0,0,143,169.89c-5.77-14-17.43-24.72-30.39-26.8-21.15-3.4-36,16.4-40.4,35.37-4.84,20.62,7.33,44.51,24.7,55a5.56,5.56,0,0,0,2.5,1,6.67,6.67,0,0,0,3.39-1.21c6-3.32,13.13-4,20-4.35q12.45-.65,24.92-.22C152,216.16,151.86,202.62,149.17,189.66Z"/><path class="cls-4" d="M105.23,239a5.49,5.49,0,0,0,1.11,1.35,11.73,11.73,0,0,0,6.81,2.71,28.93,28.93,0,0,0,9.56-1.29c4.23-1.1,3.92-3.64,4.31-7.62.48-5-1.65-10,1.8-14.24,4.36-5.38,8.09-6.1,8.95-14q1.76-16.2,2.18-32.51c.36-13.95-10.88-18.21-23.35-19a37,37,0,0,0-24,6.5,20.27,20.27,0,0,0-7,7.91c-2.36,5.18-1.78,11.43-1.14,17.27l1.77,16.17c.68,6.2,1.87,13.31,6.65,16.4,2.54,1.64,5.74,1.82,8,4,2.78,2.71,2.87,7,3.2,10.68C104.29,235.39,104.26,237.37,105.23,239Z"/><path class="cls-8" d="M108.27,172.58a80.69,80.69,0,0,0,10.42,7c10.9,5.85,23.75,6.75,36,5.73-5.08-4.74-5.9-12.4-8.14-19-4.69-13.84-17.26-24.58-31.47-26.89-6.18-1-12.8-.44-18.2,2.78C77.79,153.64,98,164.8,108.27,172.58Z"/><path class="cls-8" d="M92,177.64a46.42,46.42,0,0,0-2,23.48c2.06,12.54,8.1,24,14.17,35.1-.39-.71-9.48-1.67-10.84-2.1a50.53,50.53,0,0,1-10.73-4.82C76.53,225.64,69,219.76,66,213c-3.8-8.59-3.34-21.24-1.21-30.21A57.48,57.48,0,0,1,79.58,156c4.31-4.4,9.75-8.34,16.08-9,4.52-.44,11,1.36,12.63,6.28,1.85,5.75-5.29,9.21-8.67,12.48A31.82,31.82,0,0,0,92,177.64Z"/><path class="cls-4" d="M228.62,196.09c.15-.15.3,0,1.13-.21,1.51-.36,1.84.12,3.11-.9,3.92-3.14,3.56-6.72,5-11.07a10,10,0,0,1,1.38-3.05c2.13-2.81,4.91-.29,7,1.29,2.71,2.06,5.61,5,5.77,8.66.14,3.23.12,6.56-1,9.58a27,27,0,0,1-3.31,5.72c-2.39,3.44-5.64,6-8.07,9.18s-2.65,8.15-3.75,11.84a143.68,143.68,0,0,1-11.19,27,1,1,0,0,1-1.6.43l-13.29-7.33a250.37,250.37,0,0,1,9.65-23.36c2.8-5.92,9.6-14.09,8.78-20.61-.2-1.59-.78-5,.05-6.49A4.18,4.18,0,0,1,228.62,196.09Z"/><path class="cls-22" d="M126.46,291.86c-2.9-2.45-5.74-5-8.59-7.48-2.12-1.87-4.29-3.81-5.49-6.37a16.34,16.34,0,0,1-1.26-6.83,38.31,38.31,0,0,1,6.56-21.68,18.4,18.4,0,0,1,4.53-4.89c4.22-2.95,9.89-2.9,14.86-1.58,8.09,2.15,15,7.22,21.78,12.19l12,8.85c3.1,2.29,4.72,4.88,7.82,2.37,3.4-2.75,6.13-7.69,8.86-11.1l14.77-18.51,24.05,9.25c1.76.68,4.61,1.19,6.11,2.35,1.29,1,1.28.16,1.64,2,.31,1.52-1.46,4.83-2,6.28-3.15,8.5-7.89,16.29-12.57,24l-22.63,37.25a17.56,17.56,0,0,1-3.63,4.69c-5.94,4.85-19.82-3.63-25.75-6.06a152.39,152.39,0,0,1-26.15-13.32A154.82,154.82,0,0,1,126.46,291.86Z"/><path class="cls-4" d="M54.09,122.39c0-.18-.21-.16-.71-.72-.18-.2-2.27-1.4-2.22-1.53a75.18,75.18,0,0,0,3-7.13,23,23,0,0,1,2.12-4.48,1.9,1.9,0,0,0-.63-2.18,5.56,5.56,0,0,0-2.22-1c-3.18-.85-6.74-1.65-9.61,0A12.74,12.74,0,0,0,41.69,107c-2.54,2.26-4.94,3.84-5.82,7.27a23.58,23.58,0,0,0-.5,5.77c0,8.2.87,15-1.75,23-2.4,7.37-6,14.33-8,21.85a1.21,1.21,0,0,0,.82,1.77A51.08,51.08,0,0,0,41,170.47c2.12-12.55,5.4-25,7.31-37.49a9.56,9.56,0,0,1,.8-3.09,10.94,10.94,0,0,1,1.69-2.11c.94-1,3.11-3.23,3.24-4.69A3.66,3.66,0,0,0,54.09,122.39Z"/><path class="cls-22" d="M92.83,270.7c3.58-6.64,8.23-13.28,10.78-20.4a19.21,19.21,0,0,0,1.36-8.84,9,9,0,0,0-4.84-7.16,15.23,15.23,0,0,0-4.61-.94c-13.13-1.41-27.1-5.34-37.41-13.74A20.89,20.89,0,0,1,52,212.43c-2.57-5.63-.71-12.81-.48-18.79q.46-12.21.93-24.41a4.87,4.87,0,0,0-.58-3.12c-.76-1-2.16-1.29-3.42-1.47L21,160.73a2.77,2.77,0,0,0-1.86.17,2.74,2.74,0,0,0-.94,1.41c-7.75,19.59-11.58,41.41-14.94,62-1.13,6.91,3.92,12.57,8.27,17.43,13.76,15.37,27.18,30.1,40.12,46.23,4.12,5.13,9.4,10.79,16,10.11C78.06,297.06,88.44,278.83,92.83,270.7Z"/><path class="cls-9" d="M272.9,13.88l20.19,73.84a3.81,3.81,0,0,0,2.42,2.6l72,25a3.84,3.84,0,0,1,.84,6.81l-63.66,42.26a3.84,3.84,0,0,0-1.71,3.12l-1.57,76.6a3.81,3.81,0,0,1-6.19,2.93l-59.53-47.72a3.79,3.79,0,0,0-3.48-.67l-73,22.32a3.81,3.81,0,0,1-4.67-5l26.87-71.75a3.84,3.84,0,0,0-.44-3.54L137.47,77.9a3.84,3.84,0,0,1,3.3-6l76.14,3.37a3.81,3.81,0,0,0,3.21-1.52l46.06-61.14A3.8,3.8,0,0,1,272.9,13.88Z"/><path class="cls-24" d="M266.55,28.82,226,80.66a10.06,10.06,0,0,1-8.9,3.83l-65.22-6.4L219,94.25a10.06,10.06,0,0,0,11-4.62Z"/><path class="cls-25" d="M157.66,207.73,154.57,216a3.81,3.81,0,0,0,4.67,5l73-22.32a3.79,3.79,0,0,1,3.48.67l59.53,47.72a3.81,3.81,0,0,0,6.19-2.93l1.57-76.6a3.84,3.84,0,0,1,1.71-3.12l63.66-42.26a3.84,3.84,0,0,0-.84-6.81L343.38,107C289.38,171.67,220.63,198,157.66,207.73Z"/><polygon class="cls-26" points="151.89 229.15 151.89 229.15 151.91 229.15 151.89 229.15"/><path class="cls-4" d="M582.45,132.36c.12-.16.28-.06,1-.37.26-.11,2.89-.29,2.9-.43a81.87,81.87,0,0,1,.46-8.41c.38-2.29.08-3.12.07-5.4a2.07,2.07,0,0,1,1.66-1.83,6.05,6.05,0,0,1,2.63.12c3.51.69,7.39,1.6,9.42,4.55a13.87,13.87,0,0,1,1.31,2.64c1.4,3.42,3,6.12,2.23,9.89a25.68,25.68,0,0,1-2.26,5.88,54.85,54.85,0,0,1-5.11,9.08c-1.35,1.82-3,3.51-3.81,5.61s-1.23,5.22-3.5,6.08a6,6,0,0,1-2.78.13l-4.29-.48a1.58,1.58,0,0,1-1.57-2.18A51.9,51.9,0,0,1,583,145.47a10.42,10.42,0,0,0,.69-3.41,11.92,11.92,0,0,0-.65-2.88c-.43-1.47-1.5-4.64-.93-6.13A4,4,0,0,1,582.45,132.36Z"/><path class="cls-27" d="M484.63,258l-.06-.11c-2.83-5.19-10.12-19.31-6.54-25.28,3.31-5.51,18.8-4.18,24.41-4.39,9.93-.36,20-.35,29.68-2.63,3.37-.79,6.77-1.89,9.44-4.09a25.65,25.65,0,0,0,5-6.23c8.67-13.59,14.15-28.78,19.89-43.75,2.91-7.59,6.75-14.95,9.5-22.56,1.36-3.76-.14-4.14,4.11-4.28,4.84-.15,7.3,3.38,11.2,5.5,4.42,2.41,9.5,3.4,14.12,5.33.49.2,1,.49,1.14,1a1.7,1.7,0,0,1-.12.87c-1.86,5.8-4.55,11-6.58,16.6-2.85,7.85-4.13,16.69-6.14,24.81L582,246c-2.48,10-5.46,21.16-15.27,25.91-12,5.82-24.38,11.38-37.25,15.26-11.73,3.54-19.62,1.69-28.07-7.19C495.05,273.34,489.08,266.11,484.63,258Z"/><path class="cls-28" d="M591.54,621.6c.59,14.22.8,28.38.26,42.3-3.8.4-7.52,1.32-11.4,1.24-.41,0-3.8-26.51-5.77-41.86C580.29,622.88,585.92,622.33,591.54,621.6Z"/><path class="cls-29" d="M592.87,656.55c2.39-.46,3.81.59,5.43,2,.94.83,1.58,2,2.71,2.62a8.8,8.8,0,0,0,3.56.81c7,.61,23.13.11,14.69,11.93-7.66,10.73-28.43,6.77-40.44,4a4.12,4.12,0,0,1-2.21-.89,5.63,5.63,0,0,1-1.24-2.36c-1.43-5-3.38-11.2,2.74-13.38,2.61-.93,5.05.78,7.81-.22C588.2,660.31,590.49,657,592.87,656.55Z"/><path class="cls-30" d="M605.18,647.22c-15.59-.1-19.4,3.32-35,3.22-4.67-.08-17.28-83.69-18.29-88.53-1.19-5.7-2.56-11.53-5.83-16.35-4.37-6.46-11.54-10.32-18.18-14.42a169,169,0,0,1-44.3-39.64C476.42,482.32,470,471.9,469,460.3c-1.25-13.84,7.58-29.3,22.28-30.63a78,78,0,0,1,39.28,6.71c24.69,11.29,41.63,34.47,63.67,50.34,14.55,10.48,12.94,21.76,13.25,38.5.29,15.25.18,30.5-.11,45.75C606.86,596.39,605.55,621.79,605.18,647.22Z"/><path class="cls-28" d="M428,657c-.66,15.15-1.84,42.09-1.45,42.17,3.76.73,7.52.46,11.28.71,3-13.9,5.18-28.18,7-42.59Q436.43,657.1,428,657Z"/><path class="cls-29" d="M440.19,693.46c2.09-.35,3.68.44,3.65,4.41,0,2.35-1,4.61-1,7a17.48,17.48,0,0,0,.64,4.12l3.1,13.06a11.92,11.92,0,0,1,.47,4.65c-1,6.31-9.74,6.65-14.26,4.56a17.13,17.13,0,0,1-9.32-10.52,30.42,30.42,0,0,1-.84-7.68l-.31-12.73a9,9,0,0,1,.34-3.36c1.59-4.32,6.88-.2,9.93-.74C434.66,695.83,437.77,693.87,440.19,693.46Z"/><path class="cls-30" d="M454.6,687.33c-14.51,1.13-22.34.18-37.68-2.57C415.36,653,413,568.11,413,568.11s-16.45-101.4-16.42-130.94c0-4.75,5.08-21.61,7.13-25.89,3.88-8.11,13.78-11.52,22.77-11.76,14-.37,38.33,7.13,43,22.34,5,16.08,13.36,31.63,14.62,48.36,1.52,20.23-11.68,89.27-11.68,89.27S460.07,652.73,454.6,687.33Z"/><path class="cls-27" d="M440.14,231.69a40.06,40.06,0,0,1,8.34-3.94,53.64,53.64,0,0,1,10.22-2.2c8.81-1.13,17.9-.94,26.36,1.75,25.08,8,26.32,33.86,33.3,55.44,8.41,26,16.26,52.25,22,79,3.19,15,4.32,30.1,6.5,45.23,1.86,12.92,5.52,25.88,7.64,38.94.3,1.83.47,4-.94,5.23-1,.89-2.54.88-3.9.85-51.31-1.11-101.94,30.81-153.35,12.76a8.48,8.48,0,0,1-4.41-2.76,9.2,9.2,0,0,1-1.19-4.57q-.41-5.07-.75-10.15c-2.28-34.38-2.11-69.09,2.65-103.26a330.08,330.08,0,0,1,10.86-50.29c2.2-7.24,6-13.24,8.44-20.33,2.8-8,6-15.85,10.39-23.07C426.8,242.93,432.83,236.21,440.14,231.69Z"/><path class="cls-20" d="M439,161.48a41.76,41.76,0,0,0-3.84,19.12c0,1.74.05,3.76-1.28,4.88s.05,3.52-1.19,2.13-5.46-6.25-5.75-8.09a69.06,69.06,0,0,1-.85-13.08c.12-3.8.63-7.81,2.9-10.85a21.32,21.32,0,0,1,5.07-4.43c2.68-1.87,5.44-3.77,8.6-4.58,5.45-1.4,9,.37,4.35,4.55A33.81,33.81,0,0,0,439,161.48Z"/><path class="cls-4" d="M478.38,233.41c.14,2.68.87,5.42-1.35,7.65a8.09,8.09,0,0,1-4,1.91,25.76,25.76,0,0,1-11.62-.06,10.39,10.39,0,0,1-4.36-2c-1.45-1.23-1.61-2.47-1.78-4.19-.21-2-.75-4-1.15-6.07-.87-4.44-1.43-8.93-1.86-13.43-6.69-.7-14.61-2.33-17.33-9.13a22.88,22.88,0,0,1-1.21-6.85l-2.12-28.85c-.24-3.33-.48-6.76.45-9.92,1.64-5.55,6.49-9.12,11.33-11.48,12.34-6,27.14-6.8,39.34-.19a21.46,21.46,0,0,1,8.37,7.4c3.12,5.1,3.2,11.65,3.17,17.78l-.07,17c0,6.51-.51,14-5.3,17.78-2.54,2-6,2.55-8.1,5.05-3.74,4.37-1.42,10.37-2.28,15.42A9.82,9.82,0,0,0,478.38,233.41Z"/><path class="cls-20" d="M432.32,207c1.58,5.91,4.85,11.44,9.93,14.48,5.76,3.45,12.7,3.26,19.25,3l10.76-.46c9.07-.38,18-2.15,22-12a29.14,29.14,0,0,0,1.56-14.67,9.48,9.48,0,0,0-1.17-3.89,3.31,3.31,0,0,0-3.25-1.7c-1.59.33-2.44,2.13-3.38,3.54-2.06,3.09-5.94,5-9.26,3.63a12.51,12.51,0,0,1-2.72-1.71c-.36-.27-.71-.54-1.07-.79a23.18,23.18,0,0,0-12-3.78c-3.65-.23-9.06-1.22-11.53,2l-4.33,5.7a8.78,8.78,0,0,1-2,2.11,5.84,5.84,0,0,1-2.76.85c-2.43.2-5.23-.74-6.22-3.16a12.18,12.18,0,0,1-.58-3.38,5.4,5.4,0,0,0-1.13-3.16c-2.89-3.11-3.33,2.17-3.32,4A37.31,37.31,0,0,0,432.32,207Zm24.78,0c3,1.74,6,1.57,9.12.4,1.6-.6,2.48,2.1.88,2.7-3.76,1.41-7.57,1.54-11.17-.56C454.43,208.72,455.59,206.17,457.1,207Z"/><path class="cls-20" d="M426.28,145.57a51.42,51.42,0,0,1-1.87-7,14,14,0,0,0,7,.14l-.26-4.15c-.07-1.15,15.41-3,16.67-3.17,11.75-1.75,22.49-3.39,33.6,2.26,9.48,4.83,15.87,12.55,18,23,2,10-.42,23.38-5.68,32.13-.14-2.69,1-9.12.18-11.63a22.86,22.86,0,0,0-3-7.13,30.11,30.11,0,0,0-11.26-10.4c-7.21-3.89-15.41-5.66-23.53-6.25-7.44-.54-16.48-.9-23.62,1.54-3.44,1.17-4,2.09-6.31-1.31-.41-.6-3.86-7.69-3.57-7.71Z"/><path class="cls-31" d="M646.37,292.05a88.11,88.11,0,0,0-167.31,13.53l-89.35,31.33a88.11,88.11,0,0,0-139.12,93.93h-.15L302,577.93l.17,0a50.66,50.66,0,0,0,96.93-17.55l7.27-66.91,157.39-55.19L611.26,486a50.66,50.66,0,0,0,86.66-46.84l.15-.09L646.49,292Z"/><path class="cls-32" d="M646.36,292.24s55.49,173.43-25.67,201.9a50.65,50.65,0,0,0,77.23-55l.15-.09L646.5,292Z"/><path class="cls-32" d="M384.44,395.56l-22.21,7.79a4.9,4.9,0,0,1-6.25-3l-7.79-22.21a4.9,4.9,0,0,0-6.25-3l-22.21,7.79a4.9,4.9,0,0,0-3,6.25l7.79,22.21a4.9,4.9,0,0,1-3,6.25l-21.74,7.63a4.9,4.9,0,0,0-3,6.25l7.79,22.21a4.9,4.9,0,0,0,6.25,3l21.74-7.62a4.9,4.9,0,0,1,6.25,3l7.62,21.74a4.9,4.9,0,0,0,6.25,3L374.89,469a4.9,4.9,0,0,0,3-6.25l-7.62-21.74a4.9,4.9,0,0,1,3-6.25L395.47,427a4.9,4.9,0,0,0,3-6.25l-7.79-22.21A4.9,4.9,0,0,0,384.44,395.56Z"/><circle class="cls-32" cx="567.84" cy="313.24" r="16.34" transform="translate(-71.67 205.57) rotate(-19.33)"/><circle class="cls-32" cx="548.04" cy="355.57" r="16.34" transform="translate(-86.79 201.4) rotate(-19.33)"/><circle class="cls-32" cx="608.42" cy="334.4" r="16.34" transform="translate(-76.38 220.19) rotate(-19.33)"/><circle class="cls-32" cx="589.63" cy="375.37" r="16.34" transform="translate(-91 216.28) rotate(-19.33)"/><path class="cls-33" d="M378.2,392.56,356,400.35a4.9,4.9,0,0,1-6.25-3L342,375.14a4.9,4.9,0,0,0-6.25-3l-22.21,7.79a4.9,4.9,0,0,0-3,6.25l7.79,22.21a4.9,4.9,0,0,1-3,6.25l-21.74,7.62a4.9,4.9,0,0,0-3,6.25l7.79,22.21a4.9,4.9,0,0,0,6.25,3l21.74-7.62a4.9,4.9,0,0,1,6.25,3l7.62,21.74a4.9,4.9,0,0,0,6.25,3L368.65,466a4.9,4.9,0,0,0,3-6.25L364,438.05a4.9,4.9,0,0,1,3-6.25L389.24,424a4.9,4.9,0,0,0,3-6.25l-7.79-22.21A4.9,4.9,0,0,0,378.2,392.56Z"/><circle class="cls-33" cx="561.6" cy="310.24" r="16.34" transform="translate(-71.02 203.33) rotate(-19.33)"/><circle class="cls-33" cx="541.8" cy="352.57" r="16.34" transform="translate(-86.15 199.17) rotate(-19.33)"/><circle class="cls-33" cx="602.18" cy="331.4" r="16.34" transform="translate(-75.74 217.95) rotate(-19.33)"/><circle class="cls-33" cx="583.39" cy="372.38" r="16.34" transform="translate(-90.36 214.05) rotate(-19.33)"/><path class="cls-34" d="M324.72,341a83.49,83.49,0,0,1,39.12-4,73.22,73.22,0,0,0-91.77,106.89A83.85,83.85,0,0,1,324.72,341Z"/><path class="cls-32" d="M320.26,599.5h0a50.66,50.66,0,0,0,78.86-39.14l7.05-64.91S396.22,572.86,320.26,599.5Z"/><polygon class="cls-32" points="546.13 420.36 477.7 444.18 409.27 468 406.39 493.57 485.22 465.8 564.26 438.62 546.13 420.36"/><path class="cls-4" d="M440.42,400.66c0,.19-.21.18-.68.77-.17.21-2.23,1.56-2.18,1.68a76.82,76.82,0,0,1,3.47,7.1c.74,2.05,1.36,2.59,2.42,4.45a1.94,1.94,0,0,1-.52,2.26,5.68,5.68,0,0,1-2.21,1.11c-3.19,1-6.78,2.07-9.79.58a13,13,0,0,1-2.28-1.56c-2.72-2.16-5.26-3.64-6.35-7.08a24.09,24.09,0,0,1-.84-5.85,51.45,51.45,0,0,1,0-9.78c.28-2.11.81-4.23.55-6.34s-1.38-4.84.08-6.58a5.62,5.62,0,0,1,2.22-1.38l3.73-1.57a2,2,0,0,1,1-.23c.62.09,1,.73,1.26,1.3a48.68,48.68,0,0,1,3.57,10.66,9.77,9.77,0,0,0,1,3.11,11.18,11.18,0,0,0,1.85,2.06c1,1,3.35,3.11,3.57,4.59A3.72,3.72,0,0,1,440.42,400.66Z"/><path class="cls-27" d="M459.15,253.28a42.29,42.29,0,0,1-.87,10.9,41.79,41.79,0,0,1-4,12,79.83,79.83,0,0,1-7,9.89c-6.42,8.44-14.76,19.51-15.38,30.35-.87,15.1,1.59,30,3.74,44.93,1.09,7.55,1.32,15.32,2.54,22.82.61,3.71,2,3.33-1.41,5.38-2.62,1.58-8,1.55-11.09,2.14a31.24,31.24,0,0,0-6.46,1.7c-1.16.5-3.9,3-5,2.94-2.45-.15-3.95-3.39-5-5.29-2.86-5.08-4.37-10.78-6.5-16.17-7.4-18.73-11.78-38.49-16.13-58.16l-3.78-17.08a15.39,15.39,0,0,1-.54-5.18,14.75,14.75,0,0,1,1.86-4.94c9.17-17.38,20.82-34,36.83-45.47,4.13-3,8.32-6,13.08-7.76s10.23-2.26,14.86-.15c4.85,2.22,8.18,7.05,9.53,12.21A26.54,26.54,0,0,1,459.15,253.28Z"/><polygon class="cls-35" points="613.43 62.75 613.43 49.45 599.84 49.45 599.84 35.8 561.08 35.8 561.08 49.45 548.03 49.45 548.03 62.75 534.44 62.75 534.44 90.3 534.44 104.02 534.44 104.34 547.74 104.34 561.08 104.34 561.25 117.85 548.17 117.85 548.17 131.57 561.43 131.57 561.89 131.57 574.72 131.57 574.37 104.34 586.54 104.34 586.89 131.57 599.55 131.57 600.19 131.57 613.27 131.57 613.27 117.85 600.01 117.85 599.84 104.34 614.19 104.34 627.17 104.34 627.17 104.02 627.17 90.3 627.17 62.75 613.43 62.75"/><rect class="cls-11" x="548.17" y="62.75" width="13.72" height="13.72"/><rect class="cls-11" x="573.95" y="76.82" width="13.72" height="13.72"/><rect class="cls-11" x="599.55" y="62.75" width="13.72" height="13.72"/><rect class="cls-35" x="534.44" y="35.8" width="13.72" height="13.72"/><rect class="cls-35" x="613.45" y="35.8" width="13.72" height="13.72" transform="translate(1240.62 85.32) rotate(180)"/></g></g></g></svg>