<svg xmlns="http://www.w3.org/2000/svg" xmlns:xlink="http://www.w3.org/1999/xlink" viewBox="0 0 1225.07 500"><defs><style>.cls-1{fill:url(#linear-gradient);}.cls-2{fill:#36c0ea;}.cls-3{fill:#37b0e9;}.cls-4{fill:#2698cf;}.cls-5{fill:#f5b400;}.cls-6{fill:#0d3f72;}.cls-7{fill:#abc8cc;}.cls-8{fill:#fff;}.cls-9{fill:#0095e0;}.cls-10{fill:#dce0e2;}.cls-11{fill:#c4e2f2;}.cls-12{fill:#f26229;}.cls-13{fill:#ffbd38;}.cls-14{fill:#eb5a49;}.cls-15{fill:#86cccc;}.cls-16{fill:#f6ba04;}.cls-17{fill:#f9c543;}.cls-18{fill:#4a5259;}.cls-19{fill:#e7edf2;}.cls-20{fill:#efedee;}.cls-21{fill:#c5cfd1;}.cls-22{fill:#fdfeff;}.cls-23{fill:#fe9122;}</style><linearGradient id="linear-gradient" x1="181.27" y1="681.27" x2="1043.8" y2="-181.27" gradientUnits="userSpaceOnUse"><stop offset="0" stop-color="#dee047"/><stop offset="1" stop-color="#ceb209"/></linearGradient></defs><title>Asset 1</title><g id="Layer_2" data-name="Layer 2"><g id="Ñëîé_1" data-name="Ñëîé 1"><rect class="cls-1" width="1225.07" height="500"/></g><g id="Ñëîé_2" data-name="Ñëîé 2"><circle class="cls-2" cx="612.53" cy="250" r="138.36"/><path class="cls-3" d="M670.65,342.3H550.6a2.19,2.19,0,0,1-2.19-2.19h0a2.19,2.19,0,0,1,2.19-2.19H670.65a2.19,2.19,0,0,1,2.19,2.19h0A2.19,2.19,0,0,1,670.65,342.3Z"/><rect class="cls-3" x="481.51" y="337.52" width="262.04" height="2.19"/><path class="cls-4" d="M550.57,267.49,540.88,257,536,260.64a22.93,22.93,0,0,0-2.45-1.32l-.46-8-14.31-.6-.18,1.25-.63,0-.88,6.24a23,23,0,0,0-2.25.81l-5-4.49-10.54,9.69,4.06,5.39q-.52,1-.94,2l-7.49.43-.6,14.31,7.53,1.06c.06.18.12.36.18.54l-5.06,5.67,9.69,10.54,5.33-4,.88.5-.38,7.28,14.16,2.15,1.81-7.13a23.07,23.07,0,0,0,3.19-.89l5.09,4.54,10.54-9.69-3.59-4.76q.49-.81.9-1.66l7.51-.43.6-14.31-6.4-.9c-.15-.64-.34-1.27-.55-1.89Zm-14.44,1.46a16.74,16.74,0,1,1-23.66-1A16.76,16.76,0,0,1,536.13,268.95Z"/><path class="cls-4" d="M519.47,229.66l-5-5.48-2.54,1.91a11.91,11.91,0,0,0-1.27-.69l-.24-4.17-7.44-.31-.09.65h-.33l-.46,3.25a12,12,0,0,0-1.17.42l-2.62-2.34-5.48,5,2.11,2.8q-.27.52-.49,1.06l-3.9.22-.31,7.44,3.91.55.09.28-2.63,2.95,5,5.48,2.77-2.09.46.26-.2,3.79,7.36,1.12.94-3.71a12,12,0,0,0,1.66-.46l2.64,2.36,5.48-5-1.86-2.48q.25-.42.47-.86l3.9-.22.31-7.44-3.33-.47c-.08-.33-.18-.66-.28-1Zm-7.51.76a8.7,8.7,0,1,1-12.3-.51A8.71,8.71,0,0,1,512,230.42Z"/><path class="cls-5" d="M532.23,128.82V224h15.5V128.82Zm7.75,7.34a2.89,2.89,0,1,1,2.89-2.89A2.89,2.89,0,0,1,540,136.16Z"/><rect class="cls-6" x="542.95" y="140.74" width="4.79" height="1.6"/><rect class="cls-6" x="542.95" y="160.69" width="4.79" height="1.6"/><rect class="cls-6" x="545.34" y="144.73" width="2.39" height="1.6"/><rect class="cls-6" x="545.34" y="148.72" width="2.39" height="1.6"/><rect class="cls-6" x="545.34" y="152.71" width="2.39" height="1.6"/><rect class="cls-6" x="545.34" y="156.7" width="2.39" height="1.6"/><rect class="cls-6" x="545.34" y="164.67" width="2.39" height="1.6"/><rect class="cls-6" x="545.34" y="168.66" width="2.39" height="1.6"/><rect class="cls-6" x="545.34" y="172.65" width="2.39" height="1.6"/><rect class="cls-6" x="545.34" y="176.64" width="2.39" height="1.6"/><rect class="cls-6" x="542.95" y="180.63" width="4.79" height="1.6"/><rect class="cls-6" x="545.34" y="184.61" width="2.39" height="1.6"/><rect class="cls-6" x="545.34" y="188.6" width="2.39" height="1.6"/><rect class="cls-6" x="545.34" y="192.59" width="2.39" height="1.6"/><rect class="cls-6" x="545.34" y="196.58" width="2.39" height="1.6"/><rect class="cls-6" x="542.95" y="200.57" width="4.79" height="1.6"/><rect class="cls-6" x="545.34" y="204.55" width="2.39" height="1.6"/><rect class="cls-6" x="545.34" y="208.54" width="2.39" height="1.6"/><rect class="cls-6" x="545.34" y="212.53" width="2.39" height="1.6"/><rect class="cls-6" x="545.34" y="216.52" width="2.39" height="1.6"/><rect class="cls-6" x="542.95" y="220.51" width="4.79" height="1.6"/><polygon class="cls-7" points="630.03 336.43 586.84 336.43 589.32 318.06 627.54 318.06 630.03 336.43"/><rect class="cls-6" x="527.01" y="199.42" width="162.43" height="119.63" rx="3.5" ry="3.5"/><path class="cls-8" d="M527,302.18v14a2.88,2.88,0,0,0,2.88,2.88H686.56a2.88,2.88,0,0,0,2.88-2.88v-14Z"/><rect class="cls-9" x="532.23" y="204.88" width="151.4" height="91.84"/><circle class="cls-10" cx="608.43" cy="311.86" r="3.72"/><path class="cls-8" d="M634,339.91H581.38v-.52a4.44,4.44,0,0,1,4.44-4.44h43.73a4.44,4.44,0,0,1,4.44,4.44Z"/><rect class="cls-11" x="549.51" y="156.5" width="116.35" height="140.21"/><rect class="cls-8" x="549.51" y="224.13" width="116.35" height="48.39"/><rect class="cls-12" x="549.51" y="206.65" width="116.35" height="17.48"/><rect class="cls-13" x="549.51" y="163.35" width="116.35" height="43.3"/><rect class="cls-8" x="549.51" y="149.4" width="116.69" height="146.64"/><rect class="cls-6" x="549.51" y="149.4" width="116.69" height="13.16"/><rect class="cls-14" x="549.51" y="162.56" width="116.69" height="11.35"/><rect class="cls-5" x="558.72" y="179.27" width="98.27" height="5.68"/><rect class="cls-14" x="567.94" y="191.46" width="18.72" height="18.72"/><rect class="cls-14" x="597.19" y="191.46" width="18.72" height="18.72"/><rect class="cls-14" x="626.43" y="191.46" width="18.72" height="18.72"/><rect class="cls-5" x="549.51" y="223.64" width="116.69" height="40.95"/><circle class="cls-8" cx="643.4" cy="155.98" r="2.81"/><circle class="cls-8" cx="652.17" cy="155.98" r="2.81"/><circle class="cls-8" cx="660.95" cy="155.98" r="2.81"/><rect class="cls-8" x="555.65" y="228.61" width="31" height="31"/><rect class="cls-6" x="567.94" y="212.82" width="18.72" height="2.05"/><rect class="cls-6" x="567.94" y="215.74" width="8.13" height="2.05"/><rect class="cls-6" x="578.52" y="215.74" width="8.13" height="2.05"/><rect class="cls-6" x="567.94" y="218.67" width="6.09" height="2.05"/><rect class="cls-6" x="575.54" y="218.67" width="9.45" height="2.05"/><rect class="cls-6" x="597.19" y="212.82" width="18.72" height="2.05"/><rect class="cls-6" x="597.19" y="215.74" width="8.13" height="2.05"/><rect class="cls-6" x="607.77" y="215.74" width="8.13" height="2.05"/><rect class="cls-6" x="597.19" y="218.67" width="6.09" height="2.05"/><rect class="cls-6" x="604.79" y="218.67" width="9.45" height="2.05"/><rect class="cls-6" x="626.43" y="212.82" width="18.72" height="2.05"/><rect class="cls-6" x="626.43" y="215.74" width="8.13" height="2.05"/><rect class="cls-6" x="637.02" y="215.74" width="8.13" height="2.05"/><rect class="cls-6" x="626.43" y="218.67" width="6.09" height="2.05"/><rect class="cls-6" x="634.04" y="218.67" width="9.45" height="2.05"/><rect class="cls-6" x="593.33" y="228.61" width="43.69" height="3.8"/><rect class="cls-8" x="593.33" y="236.36" width="17.55" height="1.9"/><rect class="cls-8" x="617.6" y="236.36" width="31.59" height="1.9"/><rect class="cls-8" x="593.33" y="239.87" width="32.17" height="1.9"/><rect class="cls-8" x="629.48" y="239.87" width="19.71" height="1.9"/><rect class="cls-8" x="593.33" y="243.38" width="10.38" height="1.9"/><rect class="cls-8" x="606.55" y="243.38" width="42.65" height="1.9"/><rect class="cls-8" x="593.33" y="246.89" width="7.93" height="1.9"/><rect class="cls-8" x="603.77" y="246.89" width="26.62" height="1.9"/><rect class="cls-8" x="633.36" y="246.89" width="15.44" height="1.9"/><rect class="cls-8" x="593.33" y="250.4" width="10.44" height="1.9"/><rect class="cls-8" x="606.05" y="250.4" width="43.14" height="1.9"/><rect class="cls-8" x="593.33" y="253.91" width="6.14" height="1.9"/><rect class="cls-8" x="600.93" y="253.91" width="26.62" height="1.9"/><rect class="cls-8" x="629.48" y="253.91" width="19.71" height="1.9"/><rect class="cls-8" x="593.33" y="257.42" width="9.94" height="1.9"/><rect class="cls-8" x="605.71" y="257.42" width="14.67" height="2.19"/><rect class="cls-8" x="622.58" y="257.42" width="20.03" height="1.9"/><rect class="cls-15" x="555.65" y="269.85" width="106.6" height="21.06"/><rect class="cls-6" x="559.02" y="272.41" width="58.06" height="3.29"/><rect class="cls-8" x="559.02" y="278.26" width="22.03" height="1.9"/><rect class="cls-8" x="579.58" y="278.26" width="35.3" height="1.9"/><rect class="cls-8" x="617.51" y="278.26" width="17.55" height="1.9"/><rect class="cls-8" x="637.02" y="278.26" width="21.68" height="1.9"/><rect class="cls-8" x="559.02" y="282.35" width="22.03" height="1.9"/><rect class="cls-8" x="583.29" y="282.35" width="31.59" height="1.9"/><rect class="cls-8" x="611.75" y="282.35" width="28.52" height="1.9"/><rect class="cls-8" x="642.61" y="282.35" width="16.09" height="1.9"/><rect class="cls-8" x="559.02" y="286.45" width="22.03" height="1.9"/><rect class="cls-8" x="577.83" y="286.45" width="31.59" height="1.9"/><rect class="cls-8" x="611.75" y="286.23" width="16.11" height="2.12"/><rect class="cls-8" x="630.38" y="286.45" width="28.31" height="1.9"/><rect class="cls-16" x="532.52" y="128.73" width="74.66" height="7.37"/><rect class="cls-17" x="532.52" y="128.73" width="74.66" height="3.69"/><polygon class="cls-8" points="607.18 128.73 615.3 132.42 607.18 136.11 605.63 135.19 606.99 134.01 605.63 132.83 607.17 131.83 605.54 131.2 606.9 130.24 605.63 129.38 607.18 128.73"/><polygon class="cls-18" points="615.3 132.42 612.23 133.81 612.23 131.03 615.3 132.42"/><path class="cls-18" d="M575,161.4l-.57-.78L613.48,132a.48.48,0,0,1,.62,0l23.21,22.3-.67.7-22.92-22Z"/><path class="cls-19" d="M664.31,173.38h-.48a.24.24,0,1,1,0-.48h.24v-.24a.24.24,0,1,1,.48,0v.48A.24.24,0,0,1,664.31,173.38Z"/><path class="cls-19" d="M660.86,173.38h-1a.24.24,0,0,1,0-.48h1a.24.24,0,0,1,0,.48Zm-4,0h-1a.24.24,0,0,1,0-.48h1a.24.24,0,0,1,0,.48Zm-4,0h-1a.24.24,0,0,1,0-.48h1a.24.24,0,1,1,0,.48Zm-4,0h-1a.24.24,0,1,1,0-.48h1a.24.24,0,0,1,0,.48Zm-4,0h-1a.24.24,0,0,1,0-.48h1a.24.24,0,0,1,0,.48Zm-4,0h-1a.24.24,0,0,1,0-.48h1a.24.24,0,1,1,0,.48Zm-4,0h-1a.24.24,0,1,1,0-.48h1a.24.24,0,1,1,0,.48Zm-4,0h-1a.24.24,0,1,1,0-.48h1a.24.24,0,0,1,0,.48Zm-4,0h-1a.24.24,0,0,1,0-.48h1a.24.24,0,0,1,0,.48Zm-4,0h-1a.24.24,0,0,1,0-.48h1a.24.24,0,1,1,0,.48Zm-4,0h-1a.24.24,0,1,1,0-.48h1a.24.24,0,0,1,0,.48Zm-4,0h-1a.24.24,0,0,1,0-.48h1a.24.24,0,0,1,0,.48Zm-4,0h-1a.24.24,0,0,1,0-.48h1a.24.24,0,1,1,0,.48Zm-4,0h-1a.24.24,0,0,1,0-.48h1a.24.24,0,1,1,0,.48Zm-4,0h-1a.24.24,0,1,1,0-.48h1a.24.24,0,0,1,0,.48Z"/><path class="cls-19" d="M601.54,173.38h-.48a.24.24,0,0,1-.24-.24v-.48a.24.24,0,1,1,.48,0v.24h.24a.24.24,0,0,1,0,.48Z"/><path class="cls-19" d="M601.06,170.55a.24.24,0,0,1-.24-.24v-.78a.24.24,0,1,1,.48,0v.78A.24.24,0,0,1,601.06,170.55Zm0-3.13a.24.24,0,0,1-.24-.24v-.78a.24.24,0,0,1,.48,0v.78A.24.24,0,0,1,601.06,167.42Z"/><path class="cls-19" d="M601.06,164.29a.24.24,0,0,1-.24-.24v-.48a.24.24,0,0,1,.24-.24h.48a.24.24,0,0,1,0,.48h-.24V164A.24.24,0,0,1,601.06,164.29Z"/><path class="cls-19" d="M660.86,163.8h-1a.24.24,0,0,1,0-.48h1a.24.24,0,0,1,0,.48Zm-4,0h-1a.24.24,0,0,1,0-.48h1a.24.24,0,0,1,0,.48Zm-4,0h-1a.24.24,0,0,1,0-.48h1a.24.24,0,1,1,0,.48Zm-4,0h-1a.24.24,0,1,1,0-.48h1a.24.24,0,0,1,0,.48Zm-4,0h-1a.24.24,0,0,1,0-.48h1a.24.24,0,0,1,0,.48Zm-4,0h-1a.24.24,0,0,1,0-.48h1a.24.24,0,1,1,0,.48Zm-4,0h-1a.24.24,0,1,1,0-.48h1a.24.24,0,0,1,0,.48Zm-4,0h-1a.24.24,0,1,1,0-.48h1a.24.24,0,0,1,0,.48Zm-4,0h-1a.24.24,0,0,1,0-.48h1a.24.24,0,0,1,0,.48Zm-4,0h-1a.24.24,0,0,1,0-.48h1a.24.24,0,1,1,0,.48Zm-4,0h-1a.24.24,0,1,1,0-.48h1a.24.24,0,0,1,0,.48Zm-4,0h-1a.24.24,0,0,1,0-.48h1a.24.24,0,0,1,0,.48Zm-4,0h-1a.24.24,0,0,1,0-.48h1a.24.24,0,1,1,0,.48Zm-4,0h-1a.24.24,0,1,1,0-.48h1a.24.24,0,1,1,0,.48Zm-4,0h-1a.24.24,0,1,1,0-.48h1a.24.24,0,0,1,0,.48Z"/><path class="cls-19" d="M664.31,164.29a.24.24,0,0,1-.24-.24v-.24h-.24a.24.24,0,1,1,0-.48h.48a.24.24,0,0,1,.24.24V164A.24.24,0,0,1,664.31,164.29Z"/><path class="cls-19" d="M664.31,170.55a.24.24,0,0,1-.24-.24v-.78a.24.24,0,1,1,.48,0v.78A.24.24,0,0,1,664.31,170.55Zm0-3.13a.24.24,0,0,1-.24-.24v-.78a.24.24,0,0,1,.48,0v.78A.24.24,0,0,1,664.31,167.42Z"/><rect class="cls-15" x="574.32" y="156.95" width="64.45" height="11.23" transform="translate(-13.69 64.42) rotate(-6.01)"/><rect class="cls-8" x="576.21" y="158.68" width="51.98" height="8.68" transform="translate(-13.76 63.97) rotate(-6.01)"/><path class="cls-20" d="M632.78,156.38a2.47,2.47,0,1,0,.12,3.74l4.16,3.37.51-.63-4.17-3.38A2.47,2.47,0,0,0,632.78,156.38Zm0,3.19a2,2,0,1,1-.3-2.84A2,2,0,0,1,632.79,159.58Z"/><rect class="cls-21" x="577.59" y="162.12" width="0.76" height="6.84" transform="translate(-14.16 61.43) rotate(-6.01)"/><path class="cls-6" d="M719.48,330.59h-2.91a.48.48,0,1,1,0-1h2.91a.48.48,0,1,1,0,1Zm-5.81,0h-2.91a.48.48,0,1,1,0-1h2.91a.48.48,0,1,1,0,1Zm-5.81,0h-2.91a.48.48,0,1,1,0-1h2.91a.48.48,0,1,1,0,1Zm-5.81,0h-2.91a.48.48,0,1,1,0-1H702a.48.48,0,1,1,0,1Zm-5.81,0h-2.91a.48.48,0,1,1,0-1h2.91a.48.48,0,1,1,0,1Zm-5.81,0H687.5a.48.48,0,1,1,0-1h2.91a.48.48,0,1,1,0,1Zm-5.81,0h-2.91a.48.48,0,1,1,0-1h2.91a.48.48,0,0,1,0,1Zm-5.81,0h-2.91a.48.48,0,1,1,0-1h2.91a.48.48,0,1,1,0,1Zm-5.81,0h-2.91a.48.48,0,1,1,0-1H673a.48.48,0,0,1,0,1Zm-5.81,0h-2.91a.48.48,0,1,1,0-1h2.91a.48.48,0,1,1,0,1Zm-5.81,0h-2.91a.48.48,0,1,1,0-1h2.91a.48.48,0,0,1,0,1Zm-5.81,0h-2.91a.48.48,0,1,1,0-1h2.91a.48.48,0,1,1,0,1Zm-5.81,0H646.8a.48.48,0,0,1,0-1h2.91a.48.48,0,0,1,0,1Zm-5.81,0H641a.48.48,0,1,1,0-1h2.91a.48.48,0,0,1,0,1Zm-5.81,0h-2.91a.48.48,0,0,1,0-1h2.91a.48.48,0,0,1,0,1ZM634,328.85a.48.48,0,0,1-.48-.48v-2.91a.48.48,0,1,1,1,0v2.91A.48.48,0,0,1,634,328.85Zm85.48,0a.48.48,0,0,1-.48-.48v-2.91a.48.48,0,1,1,1,0v2.91A.48.48,0,0,1,719.48,328.82ZM634,323a.48.48,0,0,1-.48-.48v-2.91a.48.48,0,1,1,1,0v2.91A.48.48,0,0,1,634,323Zm85.48,0a.48.48,0,0,1-.48-.48v-2.91a.48.48,0,1,1,1,0v2.91A.48.48,0,0,1,719.48,323ZM634,317.22a.48.48,0,0,1-.48-.48v-2.91a.48.48,0,1,1,1,0v2.91A.48.48,0,0,1,634,317.22Zm85.48,0a.48.48,0,0,1-.48-.48V313.8a.48.48,0,1,1,1,0v2.91A.48.48,0,0,1,719.48,317.19ZM634,311.41a.48.48,0,0,1-.48-.48V308a.48.48,0,1,1,1,0v2.91A.48.48,0,0,1,634,311.41Zm85.48,0a.48.48,0,0,1-.48-.48V308a.48.48,0,1,1,1,0v2.91A.48.48,0,0,1,719.48,311.38ZM634,305.59a.48.48,0,0,1-.48-.48V302.2a.48.48,0,0,1,1,0v2.91A.48.48,0,0,1,634,305.59Zm85.48,0a.48.48,0,0,1-.48-.48v-2.91a.48.48,0,1,1,1,0v2.91A.48.48,0,0,1,719.48,305.56ZM634,299.78a.48.48,0,0,1-.48-.48v-2.91a.48.48,0,1,1,1,0v2.91A.48.48,0,0,1,634,299.78Zm85.48,0a.48.48,0,0,1-.48-.48v-2.91a.48.48,0,1,1,1,0v2.91A.48.48,0,0,1,719.48,299.75ZM634,294a.48.48,0,0,1-.48-.48v-2.91a.48.48,0,1,1,1,0v2.91A.48.48,0,0,1,634,294Zm85.48,0a.48.48,0,0,1-.48-.48v-2.91a.48.48,0,1,1,1,0v2.91A.48.48,0,0,1,719.48,293.93ZM634,288.15a.48.48,0,0,1-.48-.48v-2.91a.48.48,0,1,1,1,0v2.91A.48.48,0,0,1,634,288.15Zm85.48,0a.48.48,0,0,1-.48-.48v-2.91a.48.48,0,1,1,1,0v2.91A.48.48,0,0,1,719.48,288.12ZM634,282.33a.48.48,0,0,1-.48-.48v-2.91a.48.48,0,1,1,1,0v2.91A.48.48,0,0,1,634,282.33Zm85.48,0a.48.48,0,0,1-.48-.48v-2.91a.48.48,0,1,1,1,0v2.91A.48.48,0,0,1,719.48,282.31ZM634,276.52a.48.48,0,0,1-.48-.48v-2.91a.48.48,0,1,1,1,0V276A.48.48,0,0,1,634,276.52Zm85.48,0A.48.48,0,0,1,719,276V273.1a.48.48,0,1,1,1,0V276A.48.48,0,0,1,719.48,276.49ZM634,270.71a.48.48,0,0,1-.48-.48v-2.91a.48.48,0,1,1,1,0v2.91A.48.48,0,0,1,634,270.71Zm85.48,0a.48.48,0,0,1-.48-.48v-2.91a.48.48,0,1,1,1,0v2.91A.48.48,0,0,1,719.48,270.68ZM634,264.89a.48.48,0,0,1-.48-.48V261.5a.48.48,0,1,1,1,0v2.91A.48.48,0,0,1,634,264.89Zm85.48,0a.48.48,0,0,1-.48-.48v-2.91a.48.48,0,1,1,1,0v2.91A.48.48,0,0,1,719.48,264.86ZM634,259.08a.48.48,0,0,1-.48-.48v-2.91a.48.48,0,0,1,1,0v2.91A.48.48,0,0,1,634,259.08Zm85.48,0a.48.48,0,0,1-.48-.48v-2.91a.48.48,0,1,1,1,0v2.91A.48.48,0,0,1,719.48,259ZM634,253.26a.48.48,0,0,1-.48-.48v-2.91a.48.48,0,1,1,1,0v2.91A.48.48,0,0,1,634,253.26Zm85.48,0a.48.48,0,0,1-.48-.48v-2.91a.48.48,0,1,1,1,0v2.91A.48.48,0,0,1,719.48,253.23ZM634,247.45a.48.48,0,0,1-.48-.48v-2.34a.48.48,0,0,1,.48-.48h.57a.48.48,0,0,1,0,1h-.09V247A.48.48,0,0,1,634,247.45Zm85.48,0a.48.48,0,0,1-.48-.48v-1.82h-.11a.48.48,0,1,1,0-1h.6a.48.48,0,0,1,.48.48v2.31A.48.48,0,0,1,719.48,247.42ZM716,245.11h-2.91a.48.48,0,1,1,0-1H716a.48.48,0,1,1,0,1Zm-5.81,0h-2.91a.48.48,0,1,1,0-1h2.91a.48.48,0,1,1,0,1Zm-5.81,0h-2.91a.48.48,0,1,1,0-1h2.91a.48.48,0,1,1,0,1Zm-5.81,0h-2.91a.48.48,0,1,1,0-1h2.91a.48.48,0,1,1,0,1Zm-5.81,0h-2.91a.48.48,0,1,1,0-1h2.91a.48.48,0,1,1,0,1Zm-5.81,0H684a.48.48,0,1,1,0-1h2.91a.48.48,0,1,1,0,1Zm-5.81,0h-2.91a.48.48,0,1,1,0-1h2.91a.48.48,0,1,1,0,1Zm-5.81,0h-2.91a.48.48,0,1,1,0-1h2.91a.48.48,0,0,1,0,1Zm-5.81,0h-2.91a.48.48,0,1,1,0-1h2.91a.48.48,0,0,1,0,1Zm-5.81,0h-2.91a.48.48,0,1,1,0-1h2.91a.48.48,0,0,1,0,1Zm-5.81,0h-2.91a.48.48,0,1,1,0-1h2.91a.48.48,0,0,1,0,1Zm-5.81,0h-2.91a.48.48,0,1,1,0-1H652a.48.48,0,0,1,0,1Zm-5.81,0H643.3a.48.48,0,1,1,0-1h2.91a.48.48,0,0,1,0,1Zm-5.81,0h-2.91a.48.48,0,1,1,0-1h2.91a.48.48,0,0,1,0,1Z"/><rect class="cls-22" x="715.97" y="283.92" width="7.02" height="7.02"/><path class="cls-6" d="M723,291.42h-7a.48.48,0,0,1-.48-.48v-7a.48.48,0,0,1,.48-.48h7a.48.48,0,0,1,.48.48v7A.48.48,0,0,1,723,291.42Zm-6.54-1h6.05v-6.05h-6.05Z"/><rect class="cls-22" x="630.5" y="283.92" width="7.02" height="7.02"/><path class="cls-6" d="M637.52,291.42h-7a.48.48,0,0,1-.48-.48v-7a.48.48,0,0,1,.48-.48h7a.48.48,0,0,1,.48.48v7A.48.48,0,0,1,637.52,291.42Zm-6.53-1H637v-6.05H631Z"/><rect class="cls-22" x="715.97" y="241.12" width="7.02" height="7.02"/><path class="cls-6" d="M723,248.62h-7a.48.48,0,0,1-.48-.48v-7a.48.48,0,0,1,.48-.48h7a.48.48,0,0,1,.48.48v7A.48.48,0,0,1,723,248.62Zm-6.54-1h6.05V241.6h-6.05Z"/><rect class="cls-22" x="630.5" y="241.12" width="7.02" height="7.02"/><path class="cls-6" d="M637.52,248.62h-7a.48.48,0,0,1-.48-.48v-7a.48.48,0,0,1,.48-.48h7a.48.48,0,0,1,.48.48v7A.48.48,0,0,1,637.52,248.62Zm-6.53-1H637V241.6H631Z"/><rect class="cls-22" x="715.97" y="326.59" width="7.02" height="7.02"/><path class="cls-6" d="M723,334.1h-7a.48.48,0,0,1-.48-.48v-7a.48.48,0,0,1,.48-.48h7a.48.48,0,0,1,.48.48v7A.48.48,0,0,1,723,334.1Zm-6.54-1h6.05v-6.05h-6.05Z"/><rect class="cls-22" x="630.5" y="326.59" width="7.02" height="7.02"/><path class="cls-6" d="M637.52,334.1h-7a.48.48,0,0,1-.48-.48v-7a.48.48,0,0,1,.48-.48h7a.48.48,0,0,1,.48.48v7A.48.48,0,0,1,637.52,334.1Zm-6.53-1H637v-6.05H631Z"/><rect class="cls-22" x="673.24" y="326.66" width="7.02" height="7.02" transform="translate(1006.91 -346.58) rotate(90)"/><path class="cls-6" d="M680.26,334.16h-7a.48.48,0,0,1-.48-.48v-7a.48.48,0,0,1,.48-.48h7a.48.48,0,0,1,.48.48v7A.48.48,0,0,1,680.26,334.16Zm-6.53-1h6.05v-6.05h-6.05Z"/><rect class="cls-22" x="673.24" y="241.18" width="7.02" height="7.02" transform="translate(921.44 -432.05) rotate(90)"/><path class="cls-6" d="M680.26,248.69h-7a.48.48,0,0,1-.48-.48v-7a.48.48,0,0,1,.48-.48h7a.48.48,0,0,1,.48.48v7A.48.48,0,0,1,680.26,248.69Zm-6.53-1h6.05v-6.05h-6.05Z"/><polygon class="cls-6" points="650.57 251.07 633.34 244.27 640.99 260.65 644.18 257.46 650.26 263.55 653.46 260.35 647.37 254.27 650.57 251.07"/><path class="cls-6" d="M702.42,185.43c4,3.61,7.52,7.39,9.48,10.88a3.79,3.79,0,0,1-5.1,5.1c-3.49-2-7.27-5.49-10.88-9.48-5.5-5-11.3-12.38-17.47-21.21l1-1,.77-.77,1-1C690,174.14,697.43,179.93,702.42,185.43Z"/><polygon class="cls-5" points="681.21 167.97 674.77 162.74 673.28 164.24 678.46 170.72 681.21 167.97"/><path class="cls-8" d="M674.77,162.74s.39-6.2-3.85-6.36-7.19-.35-7.44-3.39c0,0-2.77,11.4,9.8,11.24Z"/><path class="cls-14" d="M671.1,156.4a7,7,0,0,0-4,2,4.87,4.87,0,0,0-1.4,3.54c-3.58-3.29-2.21-8.95-2.21-8.95.25,3,3.2,3.24,7.44,3.39Z"/><rect class="cls-6" x="539.2" y="283.71" width="31.23" height="2.79" transform="matrix(0.84, -0.55, 0.55, 0.84, -65.64, 349.45)"/><rect class="cls-23" x="534.73" y="290.13" width="9.77" height="9.77" transform="translate(587.35 908.16) rotate(-123.12)"/><rect class="cls-5" x="495.87" y="301.26" width="46.98" height="13.96" rx="6.25" ry="6.25" transform="translate(-84.04 333.82) rotate(-33.12)"/><rect class="cls-23" x="505.98" y="311.49" width="32.93" height="2.79" rx="1.25" ry="1.25" transform="translate(-86.08 336.26) rotate(-33.12)"/><rect class="cls-23" x="502.93" y="306.82" width="32.93" height="2.79" rx="1.25" ry="1.25" transform="translate(-84.02 333.9) rotate(-33.12)"/><rect class="cls-23" x="500.07" y="302.43" width="32.93" height="2.79" rx="1.25" ry="1.25" transform="translate(-82.09 331.56) rotate(-33.12)"/><path class="cls-6" d="M565,278.07l.36.55a2.81,2.81,0,0,0,3.89.82l8-5.25-3.43-5.26-8,5.25A2.81,2.81,0,0,0,565,278.07Z"/><rect class="cls-5" x="572.52" y="269.33" width="3.34" height="6.28" transform="translate(-55.59 357.98) rotate(-33.12)"/></g></g></svg>