<svg width="349" height="133" viewBox="0 0 349 133" fill="none" xmlns="http://www.w3.org/2000/svg">
<g filter="url(#filter0_d)">
<path d="M312.59 108.18H79.3701V16.1801H312.59C319.693 16.1801 326.504 18.6117 331.527 22.94C336.549 27.2684 339.37 33.1389 339.37 39.2601V85.1101C339.367 91.2295 336.544 97.0974 331.522 101.424C326.501 105.75 319.691 108.18 312.59 108.18V108.18Z" fill="white"/>
<path d="M139.152 45.85H132.456L131.07 49H129.216L134.922 36.4H136.704L142.428 49H140.538L139.152 45.85ZM138.522 44.41L135.804 38.236L133.086 44.41H138.522ZM154.069 47.488V51.214H152.449V49H144.475V51.214H142.837V47.488H143.341C143.953 47.452 144.373 47.02 144.601 46.192C144.829 45.364 144.985 44.194 145.069 42.682L145.213 39.46H152.611V47.488H154.069ZM146.653 42.808C146.605 44.008 146.503 45.004 146.347 45.796C146.203 46.576 145.933 47.14 145.537 47.488H150.883V40.972H146.743L146.653 42.808ZM161.378 39.37C162.302 39.37 163.13 39.574 163.862 39.982C164.594 40.39 165.164 40.96 165.572 41.692C165.992 42.424 166.202 43.27 166.202 44.23C166.202 45.19 165.992 46.042 165.572 46.786C165.164 47.518 164.594 48.088 163.862 48.496C163.13 48.904 162.302 49.108 161.378 49.108C160.694 49.108 160.064 48.976 159.488 48.712C158.924 48.448 158.444 48.064 158.048 47.56V52.492H156.32V39.46H157.976V40.972C158.36 40.444 158.846 40.048 159.434 39.784C160.022 39.508 160.67 39.37 161.378 39.37ZM161.234 47.596C161.846 47.596 162.392 47.458 162.872 47.182C163.364 46.894 163.748 46.498 164.024 45.994C164.312 45.478 164.456 44.89 164.456 44.23C164.456 43.57 164.312 42.988 164.024 42.484C163.748 41.968 163.364 41.572 162.872 41.296C162.392 41.02 161.846 40.882 161.234 40.882C160.634 40.882 160.088 41.026 159.596 41.314C159.116 41.59 158.732 41.98 158.444 42.484C158.168 42.988 158.03 43.57 158.03 44.23C158.03 44.89 158.168 45.478 158.444 45.994C158.72 46.498 159.104 46.894 159.596 47.182C160.088 47.458 160.634 47.596 161.234 47.596ZM177.335 44.284C177.335 44.416 177.323 44.59 177.299 44.806H169.559C169.667 45.646 170.033 46.324 170.657 46.84C171.293 47.344 172.079 47.596 173.015 47.596C174.155 47.596 175.073 47.212 175.769 46.444L176.723 47.56C176.291 48.064 175.751 48.448 175.103 48.712C174.467 48.976 173.753 49.108 172.961 49.108C171.953 49.108 171.059 48.904 170.279 48.496C169.499 48.076 168.893 47.494 168.461 46.75C168.041 46.006 167.831 45.166 167.831 44.23C167.831 43.306 168.035 42.472 168.443 41.728C168.863 40.984 169.433 40.408 170.153 40C170.885 39.58 171.707 39.37 172.619 39.37C173.531 39.37 174.341 39.58 175.049 40C175.769 40.408 176.327 40.984 176.723 41.728C177.131 42.472 177.335 43.324 177.335 44.284ZM172.619 40.828C171.791 40.828 171.095 41.08 170.531 41.584C169.979 42.088 169.655 42.748 169.559 43.564H175.679C175.583 42.76 175.253 42.106 174.689 41.602C174.137 41.086 173.447 40.828 172.619 40.828ZM184.174 49.108C183.202 49.108 182.332 48.898 181.564 48.478C180.808 48.058 180.214 47.482 179.782 46.75C179.35 46.006 179.134 45.166 179.134 44.23C179.134 43.294 179.35 42.46 179.782 41.728C180.214 40.984 180.808 40.408 181.564 40C182.332 39.58 183.202 39.37 184.174 39.37C185.038 39.37 185.806 39.544 186.478 39.892C187.162 40.24 187.69 40.744 188.062 41.404L186.748 42.25C186.448 41.794 186.076 41.452 185.632 41.224C185.188 40.996 184.696 40.882 184.156 40.882C183.532 40.882 182.968 41.02 182.464 41.296C181.972 41.572 181.582 41.968 181.294 42.484C181.018 42.988 180.88 43.57 180.88 44.23C180.88 44.902 181.018 45.496 181.294 46.012C181.582 46.516 181.972 46.906 182.464 47.182C182.968 47.458 183.532 47.596 184.156 47.596C184.696 47.596 185.188 47.482 185.632 47.254C186.076 47.026 186.448 46.684 186.748 46.228L188.062 47.056C187.69 47.716 187.162 48.226 186.478 48.586C185.806 48.934 185.038 49.108 184.174 49.108ZM190.8 41.836C190.464 41.836 190.176 41.722 189.936 41.494C189.696 41.254 189.576 40.954 189.576 40.594C189.576 40.246 189.696 39.958 189.936 39.73C190.176 39.49 190.464 39.37 190.8 39.37C191.136 39.37 191.418 39.484 191.646 39.712C191.874 39.94 191.988 40.234 191.988 40.594C191.988 40.954 191.868 41.254 191.628 41.494C191.4 41.722 191.124 41.836 190.8 41.836ZM190.8 49.108C190.464 49.108 190.176 48.994 189.936 48.766C189.696 48.526 189.576 48.226 189.576 47.866C189.576 47.518 189.696 47.23 189.936 47.002C190.176 46.762 190.464 46.642 190.8 46.642C191.136 46.642 191.418 46.756 191.646 46.984C191.874 47.212 191.988 47.506 191.988 47.866C191.988 48.226 191.868 48.526 191.628 48.766C191.4 48.994 191.124 49.108 190.8 49.108Z" fill="#666666"/>
<path d="M135.336 73.004H132.63V80H131.827V73.004H129.121V72.3H135.336V73.004ZM139.647 72.3C140.629 72.3 141.399 72.5347 141.957 73.004C142.514 73.4733 142.793 74.1187 142.793 74.94C142.793 75.7613 142.514 76.4067 141.957 76.876C141.399 77.338 140.629 77.569 139.647 77.569H137.579V80H136.765V72.3H139.647ZM139.625 76.854C140.387 76.854 140.97 76.689 141.374 76.359C141.777 76.0217 141.979 75.5487 141.979 74.94C141.979 74.3167 141.777 73.84 141.374 73.51C140.97 73.1727 140.387 73.004 139.625 73.004H137.579V76.854H139.625ZM151.947 79.296V81.804H151.188V80H144.467V72.3H145.27V79.296H149.923V72.3H150.726V79.296H151.947ZM156.444 72.3H157.247V78.68L162.175 72.3H162.912V80H162.109V73.631L157.181 80H156.444V72.3ZM165.324 74.214H166.105V76.777H169.746V74.214H170.527V80H169.746V77.448H166.105V80H165.324V74.214ZM176.817 74.907H174.628V80H173.847V74.907H171.658V74.214H176.817V74.907ZM182.737 77.349H177.897C177.941 77.9503 178.172 78.438 178.59 78.812C179.008 79.1787 179.536 79.362 180.174 79.362C180.534 79.362 180.864 79.2997 181.164 79.175C181.465 79.043 181.725 78.8523 181.945 78.603L182.385 79.109C182.129 79.417 181.806 79.6517 181.417 79.813C181.036 79.9743 180.614 80.055 180.152 80.055C179.558 80.055 179.03 79.9303 178.568 79.681C178.114 79.4243 177.758 79.0723 177.501 78.625C177.245 78.1777 177.116 77.6717 177.116 77.107C177.116 76.5423 177.237 76.0363 177.479 75.589C177.729 75.1417 178.066 74.7933 178.491 74.544C178.924 74.2947 179.408 74.17 179.943 74.17C180.479 74.17 180.959 74.2947 181.384 74.544C181.81 74.7933 182.143 75.1417 182.385 75.589C182.627 76.029 182.748 76.535 182.748 77.107L182.737 77.349ZM179.943 74.841C179.386 74.841 178.917 75.0207 178.535 75.38C178.161 75.732 177.949 76.194 177.897 76.766H182C181.949 76.194 181.733 75.732 181.351 75.38C180.977 75.0207 180.508 74.841 179.943 74.841ZM188.569 74.907H185.258V80H184.477V74.214H188.569V74.907ZM192.679 74.17C193.222 74.17 193.713 74.2947 194.153 74.544C194.593 74.786 194.938 75.1307 195.187 75.578C195.436 76.0253 195.561 76.535 195.561 77.107C195.561 77.6863 195.436 78.1997 195.187 78.647C194.938 79.0943 194.593 79.4427 194.153 79.692C193.72 79.934 193.229 80.055 192.679 80.055C192.21 80.055 191.784 79.9597 191.403 79.769C191.029 79.571 190.721 79.285 190.479 78.911V82.134H189.698V74.214H190.446V75.358C190.681 74.9767 190.989 74.6833 191.37 74.478C191.759 74.2727 192.195 74.17 192.679 74.17ZM192.624 79.362C193.027 79.362 193.394 79.2703 193.724 79.087C194.054 78.8963 194.311 78.6287 194.494 78.284C194.685 77.9393 194.78 77.547 194.78 77.107C194.78 76.667 194.685 76.2783 194.494 75.941C194.311 75.5963 194.054 75.3287 193.724 75.138C193.394 74.9473 193.027 74.852 192.624 74.852C192.213 74.852 191.843 74.9473 191.513 75.138C191.19 75.3287 190.934 75.5963 190.743 75.941C190.56 76.2783 190.468 76.667 190.468 77.107C190.468 77.547 190.56 77.9393 190.743 78.284C190.934 78.6287 191.19 78.8963 191.513 79.087C191.843 79.2703 192.213 79.362 192.624 79.362ZM199.626 80.055C199.069 80.055 198.566 79.9303 198.119 79.681C197.672 79.4243 197.32 79.0723 197.063 78.625C196.806 78.1777 196.678 77.6717 196.678 77.107C196.678 76.5423 196.806 76.0363 197.063 75.589C197.32 75.1417 197.672 74.7933 198.119 74.544C198.566 74.2947 199.069 74.17 199.626 74.17C200.183 74.17 200.686 74.2947 201.133 74.544C201.58 74.7933 201.929 75.1417 202.178 75.589C202.435 76.0363 202.563 76.5423 202.563 77.107C202.563 77.6717 202.435 78.1777 202.178 78.625C201.929 79.0723 201.58 79.4243 201.133 79.681C200.686 79.9303 200.183 80.055 199.626 80.055ZM199.626 79.362C200.037 79.362 200.403 79.2703 200.726 79.087C201.056 78.8963 201.313 78.6287 201.496 78.284C201.679 77.9393 201.771 77.547 201.771 77.107C201.771 76.667 201.679 76.2747 201.496 75.93C201.313 75.5853 201.056 75.3213 200.726 75.138C200.403 74.9473 200.037 74.852 199.626 74.852C199.215 74.852 198.845 74.9473 198.515 75.138C198.192 75.3213 197.936 75.5853 197.745 75.93C197.562 76.2747 197.47 76.667 197.47 77.107C197.47 77.547 197.562 77.9393 197.745 78.284C197.936 78.6287 198.192 78.8963 198.515 79.087C198.845 79.2703 199.215 79.362 199.626 79.362ZM204.137 78.856C204.306 78.856 204.445 78.9147 204.555 79.032C204.665 79.142 204.72 79.2813 204.72 79.45C204.72 79.538 204.705 79.6333 204.676 79.736C204.654 79.8387 204.617 79.956 204.566 80.088L204.104 81.606H203.576L203.95 80.011C203.833 79.9743 203.737 79.9083 203.664 79.813C203.591 79.7103 203.554 79.5893 203.554 79.45C203.554 79.2813 203.609 79.142 203.719 79.032C203.829 78.9147 203.968 78.856 204.137 78.856ZM215.947 72.3V80H215.144V73.004H210.271V80H209.468V72.3H215.947ZM221.339 74.17C221.882 74.17 222.373 74.2947 222.813 74.544C223.253 74.786 223.598 75.1307 223.847 75.578C224.096 76.0253 224.221 76.535 224.221 77.107C224.221 77.6863 224.096 78.1997 223.847 78.647C223.598 79.0943 223.253 79.4427 222.813 79.692C222.38 79.934 221.889 80.055 221.339 80.055C220.87 80.055 220.444 79.9597 220.063 79.769C219.689 79.571 219.381 79.285 219.139 78.911V82.134H218.358V74.214H219.106V75.358C219.341 74.9767 219.649 74.6833 220.03 74.478C220.419 74.2727 220.855 74.17 221.339 74.17ZM221.284 79.362C221.687 79.362 222.054 79.2703 222.384 79.087C222.714 78.8963 222.971 78.6287 223.154 78.284C223.345 77.9393 223.44 77.547 223.44 77.107C223.44 76.667 223.345 76.2783 223.154 75.941C222.971 75.5963 222.714 75.3287 222.384 75.138C222.054 74.9473 221.687 74.852 221.284 74.852C220.873 74.852 220.503 74.9473 220.173 75.138C219.85 75.3287 219.594 75.5963 219.403 75.941C219.22 76.2783 219.128 76.667 219.128 77.107C219.128 77.547 219.22 77.9393 219.403 78.284C219.594 78.6287 219.85 78.8963 220.173 79.087C220.503 79.2703 220.873 79.362 221.284 79.362ZM228.286 80.055C227.729 80.055 227.226 79.9303 226.779 79.681C226.332 79.4243 225.98 79.0723 225.723 78.625C225.466 78.1777 225.338 77.6717 225.338 77.107C225.338 76.5423 225.466 76.0363 225.723 75.589C225.98 75.1417 226.332 74.7933 226.779 74.544C227.226 74.2947 227.729 74.17 228.286 74.17C228.843 74.17 229.346 74.2947 229.793 74.544C230.24 74.7933 230.589 75.1417 230.838 75.589C231.095 76.0363 231.223 76.5423 231.223 77.107C231.223 77.6717 231.095 78.1777 230.838 78.625C230.589 79.0723 230.24 79.4243 229.793 79.681C229.346 79.9303 228.843 80.055 228.286 80.055ZM228.286 79.362C228.697 79.362 229.063 79.2703 229.386 79.087C229.716 78.8963 229.973 78.6287 230.156 78.284C230.339 77.9393 230.431 77.547 230.431 77.107C230.431 76.667 230.339 76.2747 230.156 75.93C229.973 75.5853 229.716 75.3213 229.386 75.138C229.063 74.9473 228.697 74.852 228.286 74.852C227.875 74.852 227.505 74.9473 227.175 75.138C226.852 75.3213 226.596 75.5853 226.405 75.93C226.222 76.2747 226.13 76.667 226.13 77.107C226.13 77.547 226.222 77.9393 226.405 78.284C226.596 78.6287 226.852 78.8963 227.175 79.087C227.505 79.2703 227.875 79.362 228.286 79.362ZM235.312 80.055C234.74 80.055 234.227 79.9303 233.772 79.681C233.325 79.4317 232.973 79.0833 232.716 78.636C232.46 78.1813 232.331 77.6717 232.331 77.107C232.331 76.5423 232.46 76.0363 232.716 75.589C232.973 75.1417 233.325 74.7933 233.772 74.544C234.227 74.2947 234.74 74.17 235.312 74.17C235.811 74.17 236.255 74.269 236.643 74.467C237.039 74.6577 237.351 74.94 237.578 75.314L236.995 75.71C236.805 75.424 236.563 75.2113 236.269 75.072C235.976 74.9253 235.657 74.852 235.312 74.852C234.894 74.852 234.517 74.9473 234.179 75.138C233.849 75.3213 233.589 75.5853 233.398 75.93C233.215 76.2747 233.123 76.667 233.123 77.107C233.123 77.5543 233.215 77.9503 233.398 78.295C233.589 78.6323 233.849 78.8963 234.179 79.087C234.517 79.2703 234.894 79.362 235.312 79.362C235.657 79.362 235.976 79.2923 236.269 79.153C236.563 79.0137 236.805 78.801 236.995 78.515L237.578 78.911C237.351 79.285 237.039 79.571 236.643 79.769C236.247 79.9597 235.804 80.055 235.312 80.055ZM244.282 74.214V80H243.501V74.907H239.871V80H239.09V74.214H244.282ZM248.604 77.426H247.284V80H246.503V74.214H247.284V76.755H248.615L250.65 74.214H251.497L249.22 77.019L251.662 80H250.738L248.604 77.426ZM257.75 77.349H252.91C252.954 77.9503 253.185 78.438 253.603 78.812C254.021 79.1787 254.549 79.362 255.187 79.362C255.546 79.362 255.876 79.2997 256.177 79.175C256.478 79.043 256.738 78.8523 256.958 78.603L257.398 79.109C257.141 79.417 256.819 79.6517 256.43 79.813C256.049 79.9743 255.627 80.055 255.165 80.055C254.571 80.055 254.043 79.9303 253.581 79.681C253.126 79.4243 252.771 79.0723 252.514 78.625C252.257 78.1777 252.129 77.6717 252.129 77.107C252.129 76.5423 252.25 76.0363 252.492 75.589C252.741 75.1417 253.079 74.7933 253.504 74.544C253.937 74.2947 254.421 74.17 254.956 74.17C255.491 74.17 255.972 74.2947 256.397 74.544C256.822 74.7933 257.156 75.1417 257.398 75.589C257.64 76.029 257.761 76.535 257.761 77.107L257.75 77.349ZM254.956 74.841C254.399 74.841 253.929 75.0207 253.548 75.38C253.174 75.732 252.961 76.194 252.91 76.766H257.013C256.962 76.194 256.745 75.732 256.364 75.38C255.99 75.0207 255.521 74.841 254.956 74.841ZM263.302 74.907H261.113V80H260.332V74.907H258.143V74.214H263.302V74.907ZM267.497 72.3H273.129V72.993H268.3V75.512H270.819C271.729 75.512 272.418 75.699 272.887 76.073C273.364 76.447 273.602 76.9897 273.602 77.701C273.602 78.4417 273.346 79.01 272.832 79.406C272.326 79.802 271.597 80 270.643 80H267.497V72.3ZM270.632 79.351C271.344 79.351 271.879 79.2153 272.238 78.944C272.605 78.6727 272.788 78.2693 272.788 77.734C272.788 77.206 272.609 76.8137 272.249 76.557C271.897 76.293 271.358 76.161 270.632 76.161H268.3V79.351H270.632ZM280.058 74.214L277.165 80.693C276.931 81.2357 276.659 81.6207 276.351 81.848C276.043 82.0753 275.673 82.189 275.24 82.189C274.962 82.189 274.701 82.145 274.459 82.057C274.217 81.969 274.008 81.837 273.832 81.661L274.195 81.078C274.489 81.3713 274.841 81.518 275.251 81.518C275.515 81.518 275.739 81.4447 275.922 81.298C276.113 81.1513 276.289 80.902 276.45 80.55L276.703 79.989L274.118 74.214H274.932L277.11 79.131L279.288 74.214H280.058ZM281.275 74.214H282.056V76.777H285.697V74.214H286.478V80H285.697V77.448H282.056V80H281.275V74.214ZM293.758 77.349H288.918C288.962 77.9503 289.193 78.438 289.611 78.812C290.029 79.1787 290.557 79.362 291.195 79.362C291.554 79.362 291.884 79.2997 292.185 79.175C292.486 79.043 292.746 78.8523 292.966 78.603L293.406 79.109C293.149 79.417 292.827 79.6517 292.438 79.813C292.057 79.9743 291.635 80.055 291.173 80.055C290.579 80.055 290.051 79.9303 289.589 79.681C289.134 79.4243 288.779 79.0723 288.522 78.625C288.265 78.1777 288.137 77.6717 288.137 77.107C288.137 76.5423 288.258 76.0363 288.5 75.589C288.749 75.1417 289.087 74.7933 289.512 74.544C289.945 74.2947 290.429 74.17 290.964 74.17C291.499 74.17 291.98 74.2947 292.405 74.544C292.83 74.7933 293.164 75.1417 293.406 75.589C293.648 76.029 293.769 76.535 293.769 77.107L293.758 77.349ZM290.964 74.841C290.407 74.841 289.937 75.0207 289.556 75.38C289.182 75.732 288.969 76.194 288.918 76.766H293.021C292.97 76.194 292.753 75.732 292.372 75.38C291.998 75.0207 291.529 74.841 290.964 74.841ZM289.985 73.059C289.853 73.059 289.739 73.015 289.644 72.927C289.556 72.839 289.512 72.7253 289.512 72.586C289.512 72.454 289.556 72.344 289.644 72.256C289.739 72.1607 289.853 72.113 289.985 72.113C290.11 72.113 290.22 72.1607 290.315 72.256C290.41 72.344 290.458 72.454 290.458 72.586C290.458 72.718 290.41 72.8317 290.315 72.927C290.227 73.015 290.117 73.059 289.985 73.059ZM291.943 73.059C291.811 73.059 291.697 73.015 291.602 72.927C291.514 72.8317 291.47 72.718 291.47 72.586C291.47 72.454 291.518 72.344 291.613 72.256C291.708 72.1607 291.818 72.113 291.943 72.113C292.075 72.113 292.185 72.1607 292.273 72.256C292.368 72.344 292.416 72.454 292.416 72.586C292.416 72.7253 292.368 72.839 292.273 72.927C292.185 73.015 292.075 73.059 291.943 73.059ZM301.023 79.318V81.397H300.286V80H295.105V81.397H294.368V79.318H294.698C295.086 79.296 295.35 79.01 295.49 78.46C295.629 77.91 295.724 77.14 295.776 76.15L295.853 74.214H300.121V79.318H301.023ZM296.491 76.194C296.454 77.0153 296.384 77.6937 296.282 78.229C296.179 78.757 295.996 79.12 295.732 79.318H299.34V74.907H296.557L296.491 76.194ZM304.646 77.426H303.326V80H302.545V74.214H303.326V76.755H304.657L306.692 74.214H307.539L305.262 77.019L307.704 80H306.78L304.646 77.426ZM311.119 80.055C310.562 80.055 310.059 79.9303 309.612 79.681C309.165 79.4243 308.813 79.0723 308.556 78.625C308.299 78.1777 308.171 77.6717 308.171 77.107C308.171 76.5423 308.299 76.0363 308.556 75.589C308.813 75.1417 309.165 74.7933 309.612 74.544C310.059 74.2947 310.562 74.17 311.119 74.17C311.676 74.17 312.179 74.2947 312.626 74.544C313.073 74.7933 313.422 75.1417 313.671 75.589C313.928 76.0363 314.056 76.5423 314.056 77.107C314.056 77.6717 313.928 78.1777 313.671 78.625C313.422 79.0723 313.073 79.4243 312.626 79.681C312.179 79.9303 311.676 80.055 311.119 80.055ZM311.119 79.362C311.53 79.362 311.896 79.2703 312.219 79.087C312.549 78.8963 312.806 78.6287 312.989 78.284C313.172 77.9393 313.264 77.547 313.264 77.107C313.264 76.667 313.172 76.2747 312.989 75.93C312.806 75.5853 312.549 75.3213 312.219 75.138C311.896 74.9473 311.53 74.852 311.119 74.852C310.708 74.852 310.338 74.9473 310.008 75.138C309.685 75.3213 309.429 75.5853 309.238 75.93C309.055 76.2747 308.963 76.667 308.963 77.107C308.963 77.547 309.055 77.9393 309.238 78.284C309.429 78.6287 309.685 78.8963 310.008 79.087C310.338 79.2703 310.708 79.362 311.119 79.362ZM318.706 74.17C319.249 74.17 319.74 74.2947 320.18 74.544C320.62 74.786 320.965 75.1307 321.214 75.578C321.464 76.0253 321.588 76.535 321.588 77.107C321.588 77.6863 321.464 78.1997 321.214 78.647C320.965 79.0943 320.62 79.4427 320.18 79.692C319.748 79.934 319.256 80.055 318.706 80.055C318.237 80.055 317.812 79.9597 317.43 79.769C317.056 79.571 316.748 79.285 316.506 78.911V82.134H315.725V74.214H316.473V75.358C316.708 74.9767 317.016 74.6833 317.397 74.478C317.786 74.2727 318.222 74.17 318.706 74.17ZM318.651 79.362C319.055 79.362 319.421 79.2703 319.751 79.087C320.081 78.8963 320.338 78.6287 320.521 78.284C320.712 77.9393 320.807 77.547 320.807 77.107C320.807 76.667 320.712 76.2783 320.521 75.941C320.338 75.5963 320.081 75.3287 319.751 75.138C319.421 74.9473 319.055 74.852 318.651 74.852C318.241 74.852 317.87 74.9473 317.54 75.138C317.218 75.3287 316.961 75.5963 316.77 75.941C316.587 76.2783 316.495 76.667 316.495 77.107C316.495 77.547 316.587 77.9393 316.77 78.284C316.961 78.6287 317.218 78.8963 317.54 79.087C317.87 79.2703 318.241 79.362 318.651 79.362ZM131.596 88.457C132.711 88.457 133.521 88.6587 134.027 89.062C134.54 89.458 134.797 90.0153 134.797 90.734C134.797 91.1813 134.691 91.581 134.478 91.933C134.273 92.285 133.961 92.5637 133.543 92.769C133.125 92.967 132.612 93.066 132.003 93.066C131.453 93.066 130.929 92.978 130.43 92.802C129.939 92.6187 129.543 92.3767 129.242 92.076L129.627 91.449C129.884 91.713 130.221 91.9293 130.639 92.098C131.057 92.2593 131.508 92.34 131.992 92.34C132.63 92.34 133.121 92.197 133.466 91.911C133.818 91.625 133.994 91.2437 133.994 90.767C133.994 90.239 133.796 89.8393 133.4 89.568C133.011 89.2967 132.351 89.161 131.42 89.161H129.781L130.177 85.3H134.39V86.004H130.87L130.606 88.457H131.596ZM141.007 92.296V93H135.606V92.439L138.807 89.304C139.21 88.908 139.481 88.567 139.621 88.281C139.767 87.9877 139.841 87.6943 139.841 87.401C139.841 86.9463 139.683 86.5943 139.368 86.345C139.06 86.0883 138.616 85.96 138.037 85.96C137.135 85.96 136.434 86.246 135.936 86.818L135.375 86.334C135.675 85.982 136.057 85.7107 136.519 85.52C136.988 85.3293 137.516 85.234 138.103 85.234C138.887 85.234 139.507 85.421 139.962 85.795C140.424 86.1617 140.655 86.6677 140.655 87.313C140.655 87.709 140.567 88.0903 140.391 88.457C140.215 88.8237 139.881 89.2453 139.39 89.722L136.772 92.296H141.007ZM142.713 91.856C142.882 91.856 143.021 91.9147 143.131 92.032C143.241 92.142 143.296 92.2813 143.296 92.45C143.296 92.538 143.281 92.6333 143.252 92.736C143.23 92.8387 143.193 92.956 143.142 93.088L142.68 94.606H142.152L142.526 93.011C142.409 92.9743 142.313 92.9083 142.24 92.813C142.167 92.7103 142.13 92.5893 142.13 92.45C142.13 92.2813 142.185 92.142 142.295 92.032C142.405 91.9147 142.544 91.856 142.713 91.856ZM154.325 87.214V93H153.61V88.424L151.267 92.296H150.915L148.572 88.413V93H147.857V87.214H148.649L151.102 91.383L153.599 87.214H154.325ZM161.608 90.349H156.768C156.812 90.9503 157.043 91.438 157.461 91.812C157.879 92.1787 158.407 92.362 159.045 92.362C159.404 92.362 159.734 92.2997 160.035 92.175C160.335 92.043 160.596 91.8523 160.816 91.603L161.256 92.109C160.999 92.417 160.676 92.6517 160.288 92.813C159.906 92.9743 159.485 93.055 159.023 93.055C158.429 93.055 157.901 92.9303 157.439 92.681C156.984 92.4243 156.628 92.0723 156.372 91.625C156.115 91.1777 155.987 90.6717 155.987 90.107C155.987 89.5423 156.108 89.0363 156.35 88.589C156.599 88.1417 156.936 87.7933 157.362 87.544C157.794 87.2947 158.278 87.17 158.814 87.17C159.349 87.17 159.829 87.2947 160.255 87.544C160.68 87.7933 161.014 88.1417 161.256 88.589C161.498 89.029 161.619 89.535 161.619 90.107L161.608 90.349ZM158.814 87.841C158.256 87.841 157.787 88.0207 157.406 88.38C157.032 88.732 156.819 89.194 156.768 89.766H160.871C160.819 89.194 160.603 88.732 160.222 88.38C159.848 88.0207 159.378 87.841 158.814 87.841ZM167.16 87.907H164.971V93H164.19V87.907H162.001V87.214H167.16V87.907ZM171.27 87.17C171.812 87.17 172.304 87.2947 172.744 87.544C173.184 87.786 173.528 88.1307 173.778 88.578C174.027 89.0253 174.152 89.535 174.152 90.107C174.152 90.6863 174.027 91.1997 173.778 91.647C173.528 92.0943 173.184 92.4427 172.744 92.692C172.311 92.934 171.82 93.055 171.27 93.055C170.8 93.055 170.375 92.9597 169.994 92.769C169.62 92.571 169.312 92.285 169.07 91.911V95.134H168.289V87.214H169.037V88.358C169.271 87.9767 169.579 87.6833 169.961 87.478C170.349 87.2727 170.786 87.17 171.27 87.17ZM171.215 92.362C171.618 92.362 171.985 92.2703 172.315 92.087C172.645 91.8963 172.901 91.6287 173.085 91.284C173.275 90.9393 173.371 90.547 173.371 90.107C173.371 89.667 173.275 89.2783 173.085 88.941C172.901 88.5963 172.645 88.3287 172.315 88.138C171.985 87.9473 171.618 87.852 171.215 87.852C170.804 87.852 170.434 87.9473 170.104 88.138C169.781 88.3287 169.524 88.5963 169.334 88.941C169.15 89.2783 169.059 89.667 169.059 90.107C169.059 90.547 169.15 90.9393 169.334 91.284C169.524 91.6287 169.781 91.8963 170.104 92.087C170.434 92.2703 170.804 92.362 171.215 92.362ZM178.217 93.055C177.659 93.055 177.157 92.9303 176.71 92.681C176.262 92.4243 175.91 92.0723 175.654 91.625C175.397 91.1777 175.269 90.6717 175.269 90.107C175.269 89.5423 175.397 89.0363 175.654 88.589C175.91 88.1417 176.262 87.7933 176.71 87.544C177.157 87.2947 177.659 87.17 178.217 87.17C178.774 87.17 179.276 87.2947 179.724 87.544C180.171 87.7933 180.519 88.1417 180.769 88.589C181.025 89.0363 181.154 89.5423 181.154 90.107C181.154 90.6717 181.025 91.1777 180.769 91.625C180.519 92.0723 180.171 92.4243 179.724 92.681C179.276 92.9303 178.774 93.055 178.217 93.055ZM178.217 92.362C178.627 92.362 178.994 92.2703 179.317 92.087C179.647 91.8963 179.903 91.6287 180.087 91.284C180.27 90.9393 180.362 90.547 180.362 90.107C180.362 89.667 180.27 89.2747 180.087 88.93C179.903 88.5853 179.647 88.3213 179.317 88.138C178.994 87.9473 178.627 87.852 178.217 87.852C177.806 87.852 177.436 87.9473 177.106 88.138C176.783 88.3213 176.526 88.5853 176.336 88.93C176.152 89.2747 176.061 89.667 176.061 90.107C176.061 90.547 176.152 90.9393 176.336 91.284C176.526 91.6287 176.783 91.8963 177.106 92.087C177.436 92.2703 177.806 92.362 178.217 92.362ZM191.323 85.3V93H190.531V89.81C189.695 90.1693 188.884 90.349 188.1 90.349C187.198 90.349 186.494 90.129 185.988 89.689C185.489 89.249 185.24 88.633 185.24 87.841V85.3H186.043V87.753C186.043 88.347 186.23 88.809 186.604 89.139C186.978 89.469 187.502 89.634 188.177 89.634C188.947 89.634 189.731 89.4507 190.531 89.084V85.3H191.323ZM193.748 87.214H194.529V91.812L198.39 87.214H199.083V93H198.302V88.402L194.452 93H193.748V87.214ZM206.051 87.214V93H205.27V87.907H202.498L202.421 89.337C202.362 90.5397 202.223 91.4637 202.003 92.109C201.783 92.7543 201.391 93.077 200.826 93.077C200.672 93.077 200.485 93.0477 200.265 92.989L200.32 92.318C200.452 92.3473 200.544 92.362 200.595 92.362C200.896 92.362 201.123 92.2227 201.277 91.944C201.431 91.6653 201.534 91.3207 201.585 90.91C201.636 90.4993 201.68 89.9567 201.717 89.282L201.816 87.214H206.051ZM210.262 87.17C211.017 87.17 211.597 87.3607 212 87.742C212.403 88.116 212.605 88.6733 212.605 89.414V93H211.857V92.098C211.681 92.3987 211.421 92.6333 211.076 92.802C210.739 92.9707 210.335 93.055 209.866 93.055C209.221 93.055 208.707 92.901 208.326 92.593C207.945 92.285 207.754 91.878 207.754 91.372C207.754 90.8807 207.93 90.4847 208.282 90.184C208.641 89.8833 209.21 89.733 209.987 89.733H211.824V89.381C211.824 88.8823 211.685 88.5047 211.406 88.248C211.127 87.984 210.72 87.852 210.185 87.852C209.818 87.852 209.466 87.9143 209.129 88.039C208.792 88.1563 208.502 88.3213 208.26 88.534L207.908 87.951C208.201 87.7017 208.553 87.511 208.964 87.379C209.375 87.2397 209.807 87.17 210.262 87.17ZM209.987 92.439C210.427 92.439 210.805 92.34 211.12 92.142C211.435 91.9367 211.67 91.6433 211.824 91.262V90.316H210.009C209.019 90.316 208.524 90.6607 208.524 91.35C208.524 91.6873 208.652 91.955 208.909 92.153C209.166 92.3437 209.525 92.439 209.987 92.439ZM214.684 87.214H215.465V89.777H219.106V87.214H219.887V93H219.106V90.448H215.465V93H214.684V87.214ZM224.805 89.986C225.216 90.0813 225.531 90.2463 225.751 90.481C225.978 90.7157 226.092 91.0017 226.092 91.339C226.092 91.6763 225.975 91.977 225.74 92.241C225.513 92.505 225.201 92.7103 224.805 92.857C224.409 92.9963 223.973 93.066 223.496 93.066C223.078 93.066 222.667 93.0073 222.264 92.89C221.861 92.7653 221.509 92.5857 221.208 92.351L221.472 91.768C221.736 91.966 222.044 92.12 222.396 92.23C222.748 92.34 223.104 92.395 223.463 92.395C223.998 92.395 224.435 92.296 224.772 92.098C225.117 91.8927 225.289 91.6177 225.289 91.273C225.289 90.965 225.15 90.7267 224.871 90.558C224.592 90.382 224.211 90.294 223.727 90.294H222.737V89.722H223.683C224.116 89.722 224.464 89.6413 224.728 89.48C224.992 89.3113 225.124 89.0877 225.124 88.809C225.124 88.501 224.974 88.259 224.673 88.083C224.38 87.907 223.995 87.819 223.518 87.819C222.895 87.819 222.279 87.9767 221.67 88.292L221.45 87.687C222.139 87.3277 222.854 87.148 223.595 87.148C224.035 87.148 224.431 87.214 224.783 87.346C225.142 87.4707 225.421 87.6503 225.619 87.885C225.824 88.1197 225.927 88.391 225.927 88.699C225.927 88.9923 225.824 89.2527 225.619 89.48C225.421 89.7073 225.15 89.876 224.805 89.986ZM229.856 87.17C230.611 87.17 231.191 87.3607 231.594 87.742C231.997 88.116 232.199 88.6733 232.199 89.414V93H231.451V92.098C231.275 92.3987 231.015 92.6333 230.67 92.802C230.333 92.9707 229.929 93.055 229.46 93.055C228.815 93.055 228.301 92.901 227.92 92.593C227.539 92.285 227.348 91.878 227.348 91.372C227.348 90.8807 227.524 90.4847 227.876 90.184C228.235 89.8833 228.804 89.733 229.581 89.733H231.418V89.381C231.418 88.8823 231.279 88.5047 231 88.248C230.721 87.984 230.314 87.852 229.779 87.852C229.412 87.852 229.06 87.9143 228.723 88.039C228.386 88.1563 228.096 88.3213 227.854 88.534L227.502 87.951C227.795 87.7017 228.147 87.511 228.558 87.379C228.969 87.2397 229.401 87.17 229.856 87.17ZM229.581 92.439C230.021 92.439 230.399 92.34 230.714 92.142C231.029 91.9367 231.264 91.6433 231.418 91.262V90.316H229.603C228.613 90.316 228.118 90.6607 228.118 91.35C228.118 91.6873 228.246 91.955 228.503 92.153C228.76 92.3437 229.119 92.439 229.581 92.439ZM237.259 87.17C237.802 87.17 238.293 87.2947 238.733 87.544C239.173 87.786 239.518 88.1307 239.767 88.578C240.016 89.0253 240.141 89.535 240.141 90.107C240.141 90.6863 240.016 91.1997 239.767 91.647C239.518 92.0943 239.173 92.4427 238.733 92.692C238.3 92.934 237.809 93.055 237.259 93.055C236.79 93.055 236.364 92.9597 235.983 92.769C235.609 92.571 235.301 92.285 235.059 91.911V95.134H234.278V87.214H235.026V88.358C235.261 87.9767 235.569 87.6833 235.95 87.478C236.339 87.2727 236.775 87.17 237.259 87.17ZM237.204 92.362C237.607 92.362 237.974 92.2703 238.304 92.087C238.634 91.8963 238.891 91.6287 239.074 91.284C239.265 90.9393 239.36 90.547 239.36 90.107C239.36 89.667 239.265 89.2783 239.074 88.941C238.891 88.5963 238.634 88.3287 238.304 88.138C237.974 87.9473 237.607 87.852 237.204 87.852C236.793 87.852 236.423 87.9473 236.093 88.138C235.77 88.3287 235.514 88.5963 235.323 88.941C235.14 89.2783 235.048 89.667 235.048 90.107C235.048 90.547 235.14 90.9393 235.323 91.284C235.514 91.6287 235.77 91.8963 236.093 92.087C236.423 92.2703 236.793 92.362 237.204 92.362Z" fill="#666666"/>
<path d="M64.02 121.04C96.6158 121.04 123.04 94.6158 123.04 62.02C123.04 29.4242 96.6158 3 64.02 3C31.4242 3 5 29.4242 5 62.02C5 94.6158 31.4242 121.04 64.02 121.04Z" fill="white"/>
<path d="M64.02 108C89.4141 108 110 87.4141 110 62.02C110 36.626 89.4141 16.04 64.02 16.04C38.626 16.04 18.04 36.626 18.04 62.02C18.04 87.4141 38.626 108 64.02 108Z" fill="#FF6B3E"/>
<g style="mix-blend-mode:soft-light" opacity="0.5">
<path d="M64.0205 16.04C76.2205 16.04 87.9207 20.8865 96.5474 29.5131C105.174 38.1398 110.021 49.8401 110.021 62.04C110.021 74.24 105.174 85.9403 96.5474 94.5669C87.9207 103.194 76.2205 108.04 64.0205 108.04" fill="black"/>
</g>
<path d="M129.37 62.1801L280.8 62.02" stroke="#666666" stroke-width="0.75" stroke-miterlimit="10"/>
<path d="M65.3703 35.11C62.7739 34.9319 60.1686 35.2891 57.716 36.1595C55.2634 37.0299 53.0157 38.3948 51.1123 40.1697C49.209 41.9446 47.6906 44.0916 46.6512 46.4775C45.6119 48.8634 45.0738 51.4375 45.0703 54.04C45.0703 73.04 64.0703 88.98 64.0703 88.98C64.0703 88.98 81.4603 74.55 82.9103 56.4C83.7703 45.64 76.1103 35.83 65.3703 35.11ZM63.7803 63.52C62.1644 63.52 60.5849 63.0408 59.2413 62.1431C57.8978 61.2453 56.8506 59.9694 56.2322 58.4765C55.6138 56.9836 55.4521 55.3409 55.7673 53.7561C56.0825 52.1712 56.8607 50.7155 58.0033 49.5729C59.1458 48.4303 60.6016 47.6522 62.1864 47.3369C63.7712 47.0217 65.414 47.1835 66.9068 47.8019C68.3997 48.4202 69.6757 49.4674 70.5734 50.811C71.4712 52.1545 71.9503 53.7341 71.9503 55.35C71.9503 56.4229 71.739 57.4853 71.3284 58.4765C70.9178 59.4677 70.316 60.3684 69.5574 61.127C68.7987 61.8857 67.8981 62.4875 66.9068 62.8981C65.9156 63.3086 64.8532 63.52 63.7803 63.52Z" fill="white"/>
</g>
<defs>
<filter id="filter0_d" x="0" y="0" width="348.37" height="132.04" filterUnits="userSpaceOnUse" color-interpolation-filters="sRGB">
<feFlood flood-opacity="0" result="BackgroundImageFix"/>
<feColorMatrix in="SourceAlpha" type="matrix" values="0 0 0 0 0 0 0 0 0 0 0 0 0 0 0 0 0 0 127 0"/>
<feOffset dx="2" dy="4"/>
<feGaussianBlur stdDeviation="3.5"/>
<feColorMatrix type="matrix" values="0 0 0 0 0.6 0 0 0 0 0.6 0 0 0 0 0.6 0 0 0 0.5 0"/>
<feBlend mode="normal" in2="BackgroundImageFix" result="effect1_dropShadow"/>
<feBlend mode="normal" in="SourceGraphic" in2="effect1_dropShadow" result="shape"/>
</filter>
</defs>
</svg>
