<svg width="348" height="133" viewBox="0 0 348 133" fill="none" xmlns="http://www.w3.org/2000/svg">
<g filter="url(#filter0_d)">
<path d="M312.22 108H79V16H312.22C319.323 16 326.134 18.4316 331.156 22.76C336.179 27.0883 339 32.9588 339 39.08V84.89C339.005 87.9234 338.315 90.9279 336.972 93.7316C335.628 96.5352 333.656 99.0831 331.169 101.229C328.682 103.376 325.728 105.079 322.476 106.24C319.225 107.402 315.74 108 312.22 108V108Z" fill="white"/>
<path d="M140.436 35.256C141.636 35.256 142.716 35.538 143.676 36.102C144.636 36.654 145.392 37.422 145.944 38.406C146.496 39.378 146.772 40.476 146.772 41.7C146.772 42.924 146.496 44.028 145.944 45.012C145.392 45.984 144.636 46.752 143.676 47.316C142.716 47.868 141.636 48.144 140.436 48.144C139.404 48.144 138.468 47.976 137.628 47.64C136.788 47.304 136.086 46.812 135.522 46.164L136.656 45.03C137.604 46.026 138.834 46.524 140.346 46.524C141.15 46.524 141.882 46.35 142.542 46.002C143.202 45.642 143.742 45.144 144.162 44.508C144.582 43.872 144.834 43.146 144.918 42.33H138.816V40.854H144.9C144.78 40.074 144.51 39.384 144.09 38.784C143.67 38.184 143.136 37.716 142.488 37.38C141.84 37.044 141.126 36.876 140.346 36.876C138.846 36.876 137.616 37.374 136.656 38.37L135.522 37.236C136.086 36.588 136.788 36.096 137.628 35.76C138.48 35.424 139.416 35.256 140.436 35.256ZM157.292 38.46V48H155.564V39.972H151.46L151.352 42.096C151.292 43.38 151.178 44.454 151.01 45.318C150.842 46.17 150.566 46.854 150.182 47.37C149.798 47.886 149.264 48.144 148.58 48.144C148.268 48.144 147.914 48.09 147.518 47.982L147.626 46.524C147.782 46.56 147.926 46.578 148.058 46.578C148.538 46.578 148.898 46.368 149.138 45.948C149.378 45.528 149.534 45.03 149.606 44.454C149.678 43.878 149.744 43.056 149.804 41.988L149.966 38.46H157.292ZM169.255 43.284C169.255 43.416 169.243 43.59 169.219 43.806H161.479C161.587 44.646 161.953 45.324 162.577 45.84C163.213 46.344 163.999 46.596 164.935 46.596C166.075 46.596 166.993 46.212 167.689 45.444L168.643 46.56C168.211 47.064 167.671 47.448 167.023 47.712C166.387 47.976 165.673 48.108 164.881 48.108C163.873 48.108 162.979 47.904 162.199 47.496C161.419 47.076 160.813 46.494 160.381 45.75C159.961 45.006 159.751 44.166 159.751 43.23C159.751 42.306 159.955 41.472 160.363 40.728C160.783 39.984 161.353 39.408 162.073 39C162.805 38.58 163.627 38.37 164.539 38.37C165.451 38.37 166.261 38.58 166.969 39C167.689 39.408 168.247 39.984 168.643 40.728C169.051 41.472 169.255 42.324 169.255 43.284ZM164.539 39.828C163.711 39.828 163.015 40.08 162.451 40.584C161.899 41.088 161.575 41.748 161.479 42.564H167.599C167.503 41.76 167.173 41.106 166.609 40.602C166.057 40.086 165.367 39.828 164.539 39.828ZM175.644 43.968H173.664V48H171.936V38.46H173.664V42.492H175.68L178.776 38.46H180.63L177.012 43.05L180.882 48H178.848L175.644 43.968ZM189.645 39.972H186.153V48H184.425V39.972H180.933V38.46H189.645V39.972ZM196.47 38.37C197.394 38.37 198.222 38.574 198.954 38.982C199.686 39.39 200.256 39.96 200.664 40.692C201.084 41.424 201.294 42.27 201.294 43.23C201.294 44.19 201.084 45.042 200.664 45.786C200.256 46.518 199.686 47.088 198.954 47.496C198.222 47.904 197.394 48.108 196.47 48.108C195.786 48.108 195.156 47.976 194.58 47.712C194.016 47.448 193.536 47.064 193.14 46.56V51.492H191.412V38.46H193.068V39.972C193.452 39.444 193.938 39.048 194.526 38.784C195.114 38.508 195.762 38.37 196.47 38.37ZM196.326 46.596C196.938 46.596 197.484 46.458 197.964 46.182C198.456 45.894 198.84 45.498 199.116 44.994C199.404 44.478 199.548 43.89 199.548 43.23C199.548 42.57 199.404 41.988 199.116 41.484C198.84 40.968 198.456 40.572 197.964 40.296C197.484 40.02 196.938 39.882 196.326 39.882C195.726 39.882 195.18 40.026 194.688 40.314C194.208 40.59 193.824 40.98 193.536 41.484C193.26 41.988 193.122 42.57 193.122 43.23C193.122 43.89 193.26 44.478 193.536 44.994C193.812 45.498 194.196 45.894 194.688 46.182C195.18 46.458 195.726 46.596 196.326 46.596ZM207.891 48.108C206.943 48.108 206.091 47.898 205.335 47.478C204.579 47.058 203.985 46.482 203.553 45.75C203.133 45.006 202.923 44.166 202.923 43.23C202.923 42.294 203.133 41.46 203.553 40.728C203.985 39.984 204.579 39.408 205.335 39C206.091 38.58 206.943 38.37 207.891 38.37C208.839 38.37 209.685 38.58 210.429 39C211.185 39.408 211.773 39.984 212.193 40.728C212.625 41.46 212.841 42.294 212.841 43.23C212.841 44.166 212.625 45.006 212.193 45.75C211.773 46.482 211.185 47.058 210.429 47.478C209.685 47.898 208.839 48.108 207.891 48.108ZM207.891 46.596C208.503 46.596 209.049 46.458 209.529 46.182C210.021 45.894 210.405 45.498 210.681 44.994C210.957 44.478 211.095 43.89 211.095 43.23C211.095 42.57 210.957 41.988 210.681 41.484C210.405 40.968 210.021 40.572 209.529 40.296C209.049 40.02 208.503 39.882 207.891 39.882C207.279 39.882 206.727 40.02 206.235 40.296C205.755 40.572 205.371 40.968 205.083 41.484C204.807 41.988 204.669 42.57 204.669 43.23C204.669 43.89 204.807 44.478 205.083 44.994C205.371 45.498 205.755 45.894 206.235 46.182C206.727 46.458 207.279 46.596 207.891 46.596ZM215.336 38.46H217.064V42.51H222.5V38.46H224.228V48H222.5V44.004H217.064V48H215.336V38.46ZM227.588 38.46H229.316V42.51H234.752V38.46H236.48V48H234.752V44.004H229.316V48H227.588V38.46ZM243.242 38.37C244.562 38.37 245.57 38.694 246.266 39.342C246.974 39.99 247.328 40.956 247.328 42.24V48H245.69V46.74C245.402 47.184 244.988 47.526 244.448 47.766C243.92 47.994 243.29 48.108 242.558 48.108C241.49 48.108 240.632 47.85 239.984 47.334C239.348 46.818 239.03 46.14 239.03 45.3C239.03 44.46 239.336 43.788 239.948 43.284C240.56 42.768 241.532 42.51 242.864 42.51H245.6V42.168C245.6 41.424 245.384 40.854 244.952 40.458C244.52 40.062 243.884 39.864 243.044 39.864C242.48 39.864 241.928 39.96 241.388 40.152C240.848 40.332 240.392 40.578 240.02 40.89L239.3 39.594C239.792 39.198 240.38 38.898 241.064 38.694C241.748 38.478 242.474 38.37 243.242 38.37ZM242.846 46.776C243.506 46.776 244.076 46.632 244.556 46.344C245.036 46.044 245.384 45.624 245.6 45.084V43.752H242.936C241.472 43.752 240.74 44.244 240.74 45.228C240.74 45.708 240.926 46.086 241.298 46.362C241.67 46.638 242.186 46.776 242.846 46.776ZM258.09 38.46V48H256.542V44.976H253.77H253.572L251.484 48H249.63L251.952 44.742C251.232 44.526 250.68 44.172 250.296 43.68C249.912 43.176 249.72 42.552 249.72 41.808C249.72 40.716 250.092 39.888 250.836 39.324C251.58 38.748 252.606 38.46 253.914 38.46H258.09ZM251.484 41.862C251.484 42.498 251.682 42.972 252.078 43.284C252.486 43.584 253.092 43.734 253.896 43.734H256.542V39.972H253.968C252.312 39.972 251.484 40.602 251.484 41.862ZM275.133 38.46V48H273.405V39.972H268.023V48H266.295V38.46H275.133ZM282.563 48.108C281.615 48.108 280.763 47.898 280.007 47.478C279.251 47.058 278.657 46.482 278.225 45.75C277.805 45.006 277.595 44.166 277.595 43.23C277.595 42.294 277.805 41.46 278.225 40.728C278.657 39.984 279.251 39.408 280.007 39C280.763 38.58 281.615 38.37 282.563 38.37C283.511 38.37 284.357 38.58 285.101 39C285.857 39.408 286.445 39.984 286.865 40.728C287.297 41.46 287.513 42.294 287.513 43.23C287.513 44.166 287.297 45.006 286.865 45.75C286.445 46.482 285.857 47.058 285.101 47.478C284.357 47.898 283.511 48.108 282.563 48.108ZM282.563 46.596C283.175 46.596 283.721 46.458 284.201 46.182C284.693 45.894 285.077 45.498 285.353 44.994C285.629 44.478 285.767 43.89 285.767 43.23C285.767 42.57 285.629 41.988 285.353 41.484C285.077 40.968 284.693 40.572 284.201 40.296C283.721 40.02 283.175 39.882 282.563 39.882C281.951 39.882 281.399 40.02 280.907 40.296C280.427 40.572 280.043 40.968 279.755 41.484C279.479 41.988 279.341 42.57 279.341 43.23C279.341 43.89 279.479 44.478 279.755 44.994C280.043 45.498 280.427 45.894 280.907 46.182C281.399 46.458 281.951 46.596 282.563 46.596ZM297.622 38.46V48H295.894V44.148C294.862 44.628 293.836 44.868 292.816 44.868C291.628 44.868 290.71 44.592 290.062 44.04C289.414 43.488 289.09 42.66 289.09 41.556V38.46H290.818V41.448C290.818 42.108 291.022 42.606 291.43 42.942C291.85 43.278 292.432 43.446 293.176 43.446C294.016 43.446 294.922 43.236 295.894 42.816V38.46H297.622ZM308.087 39.972H304.595V48H302.867V39.972H299.375V38.46H308.087V39.972ZM313.256 38.37C314.576 38.37 315.584 38.694 316.28 39.342C316.988 39.99 317.342 40.956 317.342 42.24V48H315.704V46.74C315.416 47.184 315.002 47.526 314.462 47.766C313.934 47.994 313.304 48.108 312.572 48.108C311.504 48.108 310.646 47.85 309.998 47.334C309.362 46.818 309.044 46.14 309.044 45.3C309.044 44.46 309.35 43.788 309.962 43.284C310.574 42.768 311.546 42.51 312.878 42.51H315.614V42.168C315.614 41.424 315.398 40.854 314.966 40.458C314.534 40.062 313.898 39.864 313.058 39.864C312.494 39.864 311.942 39.96 311.402 40.152C310.862 40.332 310.406 40.578 310.034 40.89L309.314 39.594C309.806 39.198 310.394 38.898 311.078 38.694C311.762 38.478 312.488 38.37 313.256 38.37ZM312.86 46.776C313.52 46.776 314.09 46.632 314.57 46.344C315.05 46.044 315.398 45.624 315.614 45.084V43.752H312.95C311.486 43.752 310.754 44.244 310.754 45.228C310.754 45.708 310.94 46.086 311.312 46.362C311.684 46.638 312.2 46.776 312.86 46.776ZM320.831 40.836C320.495 40.836 320.207 40.722 319.967 40.494C319.727 40.254 319.607 39.954 319.607 39.594C319.607 39.246 319.727 38.958 319.967 38.73C320.207 38.49 320.495 38.37 320.831 38.37C321.167 38.37 321.449 38.484 321.677 38.712C321.905 38.94 322.019 39.234 322.019 39.594C322.019 39.954 321.899 40.254 321.659 40.494C321.431 40.722 321.155 40.836 320.831 40.836ZM320.831 48.108C320.495 48.108 320.207 47.994 319.967 47.766C319.727 47.526 319.607 47.226 319.607 46.866C319.607 46.518 319.727 46.23 319.967 46.002C320.207 45.762 320.495 45.642 320.831 45.642C321.167 45.642 321.449 45.756 321.677 45.984C321.905 46.212 322.019 46.506 322.019 46.866C322.019 47.226 321.899 47.526 321.659 47.766C321.431 47.994 321.155 48.108 320.831 48.108Z" fill="#666666"/>
<path d="M137.64 81.055C137.171 81.055 136.72 80.989 136.287 80.857C135.862 80.7177 135.528 80.5453 135.286 80.34L135.638 79.724C135.88 79.9147 136.184 80.0723 136.551 80.197C136.918 80.3143 137.299 80.373 137.695 80.373C138.223 80.373 138.612 80.2923 138.861 80.131C139.118 79.9623 139.246 79.7277 139.246 79.427C139.246 79.2143 139.176 79.0493 139.037 78.932C138.898 78.8073 138.722 78.7157 138.509 78.657C138.296 78.591 138.014 78.5287 137.662 78.47C137.193 78.382 136.815 78.294 136.529 78.206C136.243 78.1107 135.997 77.953 135.792 77.733C135.594 77.513 135.495 77.2087 135.495 76.82C135.495 76.336 135.697 75.94 136.1 75.632C136.503 75.324 137.064 75.17 137.783 75.17C138.157 75.17 138.531 75.2213 138.905 75.324C139.279 75.4193 139.587 75.5477 139.829 75.709L139.488 76.336C139.011 76.006 138.443 75.841 137.783 75.841C137.284 75.841 136.907 75.929 136.65 76.105C136.401 76.281 136.276 76.512 136.276 76.798C136.276 77.018 136.346 77.194 136.485 77.326C136.632 77.458 136.811 77.557 137.024 77.623C137.237 77.6817 137.53 77.744 137.904 77.81C138.366 77.898 138.736 77.986 139.015 78.074C139.294 78.162 139.532 78.3123 139.73 78.525C139.928 78.7377 140.027 79.031 140.027 79.405C140.027 79.911 139.814 80.3143 139.389 80.615C138.971 80.9083 138.388 81.055 137.64 81.055ZM148.687 75.17C149.413 75.17 149.981 75.379 150.392 75.797C150.81 76.215 151.019 76.831 151.019 77.645V81H150.238V77.722C150.238 77.1207 150.091 76.6623 149.798 76.347C149.512 76.0317 149.105 75.874 148.577 75.874C147.976 75.874 147.503 76.061 147.158 76.435C146.813 76.8017 146.641 77.3113 146.641 77.964V81H145.86V77.722C145.86 77.1207 145.713 76.6623 145.42 76.347C145.134 76.0317 144.723 75.874 144.188 75.874C143.594 75.874 143.121 76.061 142.769 76.435C142.424 76.8017 142.252 77.3113 142.252 77.964V81H141.471V75.214H142.219V76.27C142.424 75.918 142.71 75.6467 143.077 75.456C143.444 75.2653 143.865 75.17 144.342 75.17C144.826 75.17 145.244 75.2727 145.596 75.478C145.955 75.6833 146.223 75.9877 146.399 76.391C146.612 76.0097 146.916 75.7127 147.312 75.5C147.715 75.28 148.174 75.17 148.687 75.17ZM155.161 75.17C155.916 75.17 156.496 75.3607 156.899 75.742C157.302 76.116 157.504 76.6733 157.504 77.414V81H156.756V80.098C156.58 80.3987 156.32 80.6333 155.975 80.802C155.638 80.9707 155.234 81.055 154.765 81.055C154.12 81.055 153.606 80.901 153.225 80.593C152.844 80.285 152.653 79.878 152.653 79.372C152.653 78.8807 152.829 78.4847 153.181 78.184C153.54 77.8833 154.109 77.733 154.886 77.733H156.723V77.381C156.723 76.8823 156.584 76.5047 156.305 76.248C156.026 75.984 155.619 75.852 155.084 75.852C154.717 75.852 154.365 75.9143 154.028 76.039C153.691 76.1563 153.401 76.3213 153.159 76.534L152.807 75.951C153.1 75.7017 153.452 75.511 153.863 75.379C154.274 75.2397 154.706 75.17 155.161 75.17ZM154.886 80.439C155.326 80.439 155.704 80.34 156.019 80.142C156.334 79.9367 156.569 79.6433 156.723 79.262V78.316H154.908C153.918 78.316 153.423 78.6607 153.423 79.35C153.423 79.6873 153.551 79.955 153.808 80.153C154.065 80.3437 154.424 80.439 154.886 80.439ZM160.373 76.347C160.556 75.9583 160.828 75.665 161.187 75.467C161.554 75.269 162.005 75.17 162.54 75.17V75.929L162.353 75.918C161.744 75.918 161.268 76.105 160.923 76.479C160.578 76.853 160.406 77.3773 160.406 78.052V81H159.625V75.214H160.373V76.347ZM167.248 80.648C167.102 80.78 166.918 80.8827 166.698 80.956C166.486 81.022 166.262 81.055 166.027 81.055C165.485 81.055 165.067 80.9083 164.773 80.615C164.48 80.3217 164.333 79.9073 164.333 79.372V75.874H163.299V75.214H164.333V73.949H165.114V75.214H166.874V75.874H165.114V79.328C165.114 79.6727 165.199 79.9367 165.367 80.12C165.543 80.296 165.793 80.384 166.115 80.384C166.277 80.384 166.431 80.3583 166.577 80.307C166.731 80.2557 166.863 80.1823 166.973 80.087L167.248 80.648ZM170.694 75.17C171.449 75.17 172.029 75.3607 172.432 75.742C172.835 76.116 173.037 76.6733 173.037 77.414V81H172.289V80.098C172.113 80.3987 171.853 80.6333 171.508 80.802C171.171 80.9707 170.767 81.055 170.298 81.055C169.653 81.055 169.139 80.901 168.758 80.593C168.377 80.285 168.186 79.878 168.186 79.372C168.186 78.8807 168.362 78.4847 168.714 78.184C169.073 77.8833 169.642 77.733 170.419 77.733H172.256V77.381C172.256 76.8823 172.117 76.5047 171.838 76.248C171.559 75.984 171.152 75.852 170.617 75.852C170.25 75.852 169.898 75.9143 169.561 76.039C169.224 76.1563 168.934 76.3213 168.692 76.534L168.34 75.951C168.633 75.7017 168.985 75.511 169.396 75.379C169.807 75.2397 170.239 75.17 170.694 75.17ZM170.419 80.439C170.859 80.439 171.237 80.34 171.552 80.142C171.867 79.9367 172.102 79.6433 172.256 79.262V78.316H170.441C169.451 78.316 168.956 78.6607 168.956 79.35C168.956 79.6873 169.084 79.955 169.341 80.153C169.598 80.3437 169.957 80.439 170.419 80.439ZM177.578 81.055C177.006 81.055 176.492 80.9303 176.038 80.681C175.59 80.4317 175.238 80.0833 174.982 79.636C174.725 79.1813 174.597 78.6717 174.597 78.107C174.597 77.5423 174.725 77.0363 174.982 76.589C175.238 76.1417 175.59 75.7933 176.038 75.544C176.492 75.2947 177.006 75.17 177.578 75.17C178.076 75.17 178.52 75.269 178.909 75.467C179.305 75.6577 179.616 75.94 179.844 76.314L179.261 76.71C179.07 76.424 178.828 76.2113 178.535 76.072C178.241 75.9253 177.922 75.852 177.578 75.852C177.16 75.852 176.782 75.9473 176.445 76.138C176.115 76.3213 175.854 76.5853 175.664 76.93C175.48 77.2747 175.389 77.667 175.389 78.107C175.389 78.5543 175.48 78.9503 175.664 79.295C175.854 79.6323 176.115 79.8963 176.445 80.087C176.782 80.2703 177.16 80.362 177.578 80.362C177.922 80.362 178.241 80.2923 178.535 80.153C178.828 80.0137 179.07 79.801 179.261 79.515L179.844 79.911C179.616 80.285 179.305 80.571 178.909 80.769C178.513 80.9597 178.069 81.055 177.578 81.055ZM183.402 75.17C184.157 75.17 184.737 75.3607 185.14 75.742C185.543 76.116 185.745 76.6733 185.745 77.414V81H184.997V80.098C184.821 80.3987 184.561 80.6333 184.216 80.802C183.879 80.9707 183.475 81.055 183.006 81.055C182.361 81.055 181.847 80.901 181.466 80.593C181.085 80.285 180.894 79.878 180.894 79.372C180.894 78.8807 181.07 78.4847 181.422 78.184C181.781 77.8833 182.35 77.733 183.127 77.733H184.964V77.381C184.964 76.8823 184.825 76.5047 184.546 76.248C184.267 75.984 183.86 75.852 183.325 75.852C182.958 75.852 182.606 75.9143 182.269 76.039C181.932 76.1563 181.642 76.3213 181.4 76.534L181.048 75.951C181.341 75.7017 181.693 75.511 182.104 75.379C182.515 75.2397 182.947 75.17 183.402 75.17ZM183.127 80.439C183.567 80.439 183.945 80.34 184.26 80.142C184.575 79.9367 184.81 79.6433 184.964 79.262V78.316H183.149C182.159 78.316 181.664 78.6607 181.664 79.35C181.664 79.6873 181.792 79.955 182.049 80.153C182.306 80.3437 182.665 80.439 183.127 80.439ZM193.168 72.838V81H192.42V79.856C192.185 80.2447 191.873 80.5417 191.485 80.747C191.103 80.9523 190.671 81.055 190.187 81.055C189.644 81.055 189.153 80.9303 188.713 80.681C188.273 80.4317 187.928 80.0833 187.679 79.636C187.429 79.1887 187.305 78.679 187.305 78.107C187.305 77.535 187.429 77.0253 187.679 76.578C187.928 76.1307 188.273 75.786 188.713 75.544C189.153 75.2947 189.644 75.17 190.187 75.17C190.656 75.17 191.078 75.269 191.452 75.467C191.833 75.6577 192.145 75.94 192.387 76.314V72.838H193.168ZM190.253 80.362C190.656 80.362 191.019 80.2703 191.342 80.087C191.672 79.8963 191.928 79.6287 192.112 79.284C192.302 78.9393 192.398 78.547 192.398 78.107C192.398 77.667 192.302 77.2747 192.112 76.93C191.928 76.5853 191.672 76.3213 191.342 76.138C191.019 75.9473 190.656 75.852 190.253 75.852C189.842 75.852 189.472 75.9473 189.142 76.138C188.819 76.3213 188.562 76.5853 188.372 76.93C188.188 77.2747 188.097 77.667 188.097 78.107C188.097 78.547 188.188 78.9393 188.372 79.284C188.562 79.6287 188.819 79.8963 189.142 80.087C189.472 80.2703 189.842 80.362 190.253 80.362ZM200.381 78.349H195.541C195.585 78.9503 195.816 79.438 196.234 79.812C196.652 80.1787 197.18 80.362 197.818 80.362C198.177 80.362 198.507 80.2997 198.808 80.175C199.109 80.043 199.369 79.8523 199.589 79.603L200.029 80.109C199.772 80.417 199.45 80.6517 199.061 80.813C198.68 80.9743 198.258 81.055 197.796 81.055C197.202 81.055 196.674 80.9303 196.212 80.681C195.757 80.4243 195.402 80.0723 195.145 79.625C194.888 79.1777 194.76 78.6717 194.76 78.107C194.76 77.5423 194.881 77.0363 195.123 76.589C195.372 76.1417 195.71 75.7933 196.135 75.544C196.568 75.2947 197.052 75.17 197.587 75.17C198.122 75.17 198.603 75.2947 199.028 75.544C199.453 75.7933 199.787 76.1417 200.029 76.589C200.271 77.029 200.392 77.535 200.392 78.107L200.381 78.349ZM197.587 75.841C197.03 75.841 196.56 76.0207 196.179 76.38C195.805 76.732 195.592 77.194 195.541 77.766H199.644C199.593 77.194 199.376 76.732 198.995 76.38C198.621 76.0207 198.152 75.841 197.587 75.841ZM209.198 75.17C209.924 75.17 210.492 75.379 210.903 75.797C211.321 76.215 211.53 76.831 211.53 77.645V81H210.749V77.722C210.749 77.1207 210.602 76.6623 210.309 76.347C210.023 76.0317 209.616 75.874 209.088 75.874C208.486 75.874 208.013 76.061 207.669 76.435C207.324 76.8017 207.152 77.3113 207.152 77.964V81H206.371V77.722C206.371 77.1207 206.224 76.6623 205.931 76.347C205.645 76.0317 205.234 75.874 204.699 75.874C204.105 75.874 203.632 76.061 203.28 76.435C202.935 76.8017 202.763 77.3113 202.763 77.964V81H201.982V75.214H202.73V76.27C202.935 75.918 203.221 75.6467 203.588 75.456C203.954 75.2653 204.376 75.17 204.853 75.17C205.337 75.17 205.755 75.2727 206.107 75.478C206.466 75.6833 206.734 75.9877 206.91 76.391C207.122 76.0097 207.427 75.7127 207.823 75.5C208.226 75.28 208.684 75.17 209.198 75.17ZM218.402 75.214L215.509 81.693C215.275 82.2357 215.003 82.6207 214.695 82.848C214.387 83.0753 214.017 83.189 213.584 83.189C213.306 83.189 213.045 83.145 212.803 83.057C212.561 82.969 212.352 82.837 212.176 82.661L212.539 82.078C212.833 82.3713 213.185 82.518 213.595 82.518C213.859 82.518 214.083 82.4447 214.266 82.298C214.457 82.1513 214.633 81.902 214.794 81.55L215.047 80.989L212.462 75.214H213.276L215.454 80.131L217.632 75.214H218.402ZM219.203 81.055C219.042 81.055 218.902 80.9963 218.785 80.879C218.675 80.7617 218.62 80.6187 218.62 80.45C218.62 80.2813 218.675 80.142 218.785 80.032C218.902 79.9147 219.042 79.856 219.203 79.856C219.364 79.856 219.504 79.9147 219.621 80.032C219.738 80.142 219.797 80.2813 219.797 80.45C219.797 80.6187 219.738 80.7617 219.621 80.879C219.504 80.9963 219.364 81.055 219.203 81.055ZM226.51 75.214V81H225.762V79.944C225.557 80.296 225.274 80.571 224.915 80.769C224.556 80.9597 224.145 81.055 223.683 81.055C222.928 81.055 222.33 80.846 221.89 80.428C221.457 80.0027 221.241 79.383 221.241 78.569V75.214H222.022V78.492C222.022 79.1007 222.172 79.5627 222.473 79.878C222.774 80.1933 223.203 80.351 223.76 80.351C224.369 80.351 224.849 80.1677 225.201 79.801C225.553 79.427 225.729 78.91 225.729 78.25V75.214H226.51ZM232.778 80.351V81H228.07V80.483L231.711 75.874H228.136V75.214H232.712V75.731L229.071 80.351H232.778ZM238.936 73.234C239.918 73.234 240.795 73.4393 241.565 73.85C242.342 74.2533 242.947 74.8253 243.38 75.566C243.812 76.2993 244.029 77.139 244.029 78.085C244.029 79.0163 243.867 79.746 243.545 80.274C243.222 80.7947 242.775 81.055 242.203 81.055C241.843 81.055 241.55 80.9487 241.323 80.736C241.103 80.5233 240.982 80.23 240.96 79.856C240.74 80.2373 240.439 80.5343 240.058 80.747C239.676 80.9523 239.244 81.055 238.76 81.055C238.246 81.055 237.781 80.934 237.363 80.692C236.952 80.4427 236.626 80.1017 236.384 79.669C236.149 79.2363 236.032 78.7487 236.032 78.206C236.032 77.6633 236.149 77.1793 236.384 76.754C236.626 76.3213 236.952 75.984 237.363 75.742C237.781 75.5 238.246 75.379 238.76 75.379C239.229 75.379 239.651 75.4817 240.025 75.687C240.406 75.885 240.71 76.1673 240.938 76.534V75.423H241.653V79.592C241.653 79.8853 241.715 80.098 241.84 80.23C241.964 80.362 242.129 80.428 242.335 80.428C242.679 80.428 242.951 80.2227 243.149 79.812C243.354 79.4013 243.457 78.8293 243.457 78.096C243.457 77.2453 243.266 76.4973 242.885 75.852C242.503 75.1993 241.968 74.6933 241.279 74.334C240.597 73.9747 239.816 73.795 238.936 73.795C238.048 73.795 237.26 73.982 236.571 74.356C235.889 74.7227 235.357 75.2433 234.976 75.918C234.594 76.5853 234.404 77.348 234.404 78.206C234.404 79.064 234.591 79.8303 234.965 80.505C235.346 81.1797 235.874 81.704 236.549 82.078C237.231 82.452 238.012 82.639 238.892 82.639C239.236 82.639 239.596 82.5987 239.97 82.518C240.351 82.4373 240.696 82.3163 241.004 82.155L241.191 82.694C240.875 82.8553 240.509 82.98 240.091 83.068C239.68 83.156 239.28 83.2 238.892 83.2C237.894 83.2 237.011 82.9873 236.241 82.562C235.471 82.1367 234.869 81.5463 234.437 80.791C234.011 80.0283 233.799 79.1667 233.799 78.206C233.799 77.238 234.015 76.38 234.448 75.632C234.88 74.8767 235.485 74.29 236.263 73.872C237.047 73.4467 237.938 73.234 238.936 73.234ZM238.859 80.417C239.255 80.417 239.61 80.3253 239.926 80.142C240.241 79.9587 240.49 79.702 240.674 79.372C240.857 79.0347 240.949 78.646 240.949 78.206C240.949 77.7733 240.857 77.392 240.674 77.062C240.49 76.7247 240.241 76.468 239.926 76.292C239.61 76.1087 239.255 76.017 238.859 76.017C238.455 76.017 238.092 76.1087 237.77 76.292C237.454 76.4753 237.205 76.732 237.022 77.062C236.846 77.392 236.758 77.7733 236.758 78.206C236.758 78.6387 236.846 79.0237 237.022 79.361C237.205 79.691 237.454 79.9513 237.77 80.142C238.092 80.3253 238.455 80.417 238.859 80.417ZM251.038 75.214V80.296C251.038 81.2787 250.796 82.0047 250.312 82.474C249.835 82.9507 249.113 83.189 248.145 83.189C247.609 83.189 247.1 83.1083 246.616 82.947C246.139 82.793 245.75 82.5767 245.45 82.298L245.846 81.704C246.124 81.9533 246.462 82.1477 246.858 82.287C247.261 82.4263 247.683 82.496 248.123 82.496C248.856 82.496 249.395 82.3237 249.74 81.979C250.084 81.6417 250.257 81.1137 250.257 80.395V79.658C250.015 80.0247 249.696 80.3033 249.3 80.494C248.911 80.6847 248.478 80.78 248.002 80.78C247.459 80.78 246.964 80.6627 246.517 80.428C246.077 80.186 245.728 79.8523 245.472 79.427C245.222 78.9943 245.098 78.5067 245.098 77.964C245.098 77.4213 245.222 76.9373 245.472 76.512C245.728 76.0867 246.077 75.7567 246.517 75.522C246.957 75.2873 247.452 75.17 248.002 75.17C248.493 75.17 248.937 75.269 249.333 75.467C249.729 75.665 250.048 75.951 250.29 76.325V75.214H251.038ZM248.079 80.087C248.497 80.087 248.874 79.999 249.212 79.823C249.549 79.6397 249.809 79.3867 249.993 79.064C250.183 78.7413 250.279 78.3747 250.279 77.964C250.279 77.5533 250.183 77.1903 249.993 76.875C249.809 76.5523 249.549 76.303 249.212 76.127C248.882 75.9437 248.504 75.852 248.079 75.852C247.661 75.852 247.283 75.94 246.946 76.116C246.616 76.292 246.355 76.5413 246.165 76.864C245.981 77.1867 245.89 77.5533 245.89 77.964C245.89 78.3747 245.981 78.7413 246.165 79.064C246.355 79.3867 246.616 79.6397 246.946 79.823C247.283 79.999 247.661 80.087 248.079 80.087ZM260.438 75.17C261.164 75.17 261.732 75.379 262.143 75.797C262.561 76.215 262.77 76.831 262.77 77.645V81H261.989V77.722C261.989 77.1207 261.842 76.6623 261.549 76.347C261.263 76.0317 260.856 75.874 260.328 75.874C259.726 75.874 259.253 76.061 258.909 76.435C258.564 76.8017 258.392 77.3113 258.392 77.964V81H257.611V77.722C257.611 77.1207 257.464 76.6623 257.171 76.347C256.885 76.0317 256.474 75.874 255.939 75.874C255.345 75.874 254.872 76.061 254.52 76.435C254.175 76.8017 254.003 77.3113 254.003 77.964V81H253.222V75.214H253.97V76.27C254.175 75.918 254.461 75.6467 254.828 75.456C255.194 75.2653 255.616 75.17 256.093 75.17C256.577 75.17 256.995 75.2727 257.347 75.478C257.706 75.6833 257.974 75.9877 258.15 76.391C258.362 76.0097 258.667 75.7127 259.063 75.5C259.466 75.28 259.924 75.17 260.438 75.17ZM266.912 75.17C267.667 75.17 268.246 75.3607 268.65 75.742C269.053 76.116 269.255 76.6733 269.255 77.414V81H268.507V80.098C268.331 80.3987 268.07 80.6333 267.726 80.802C267.388 80.9707 266.985 81.055 266.516 81.055C265.87 81.055 265.357 80.901 264.976 80.593C264.594 80.285 264.404 79.878 264.404 79.372C264.404 78.8807 264.58 78.4847 264.932 78.184C265.291 77.8833 265.859 77.733 266.637 77.733H268.474V77.381C268.474 76.8823 268.334 76.5047 268.056 76.248C267.777 75.984 267.37 75.852 266.835 75.852C266.468 75.852 266.116 75.9143 265.779 76.039C265.441 76.1563 265.152 76.3213 264.91 76.534L264.558 75.951C264.851 75.7017 265.203 75.511 265.614 75.379C266.024 75.2397 266.457 75.17 266.912 75.17ZM266.637 80.439C267.077 80.439 267.454 80.34 267.77 80.142C268.085 79.9367 268.32 79.6433 268.474 79.262V78.316H266.659C265.669 78.316 265.174 78.6607 265.174 79.35C265.174 79.6873 265.302 79.955 265.559 80.153C265.815 80.3437 266.175 80.439 266.637 80.439ZM271.376 75.214H272.157V81H271.376V75.214ZM271.772 73.949C271.611 73.949 271.475 73.894 271.365 73.784C271.255 73.674 271.2 73.542 271.2 73.388C271.2 73.2413 271.255 73.113 271.365 73.003C271.475 72.893 271.611 72.838 271.772 72.838C271.933 72.838 272.069 72.893 272.179 73.003C272.289 73.1057 272.344 73.2303 272.344 73.377C272.344 73.5383 272.289 73.674 272.179 73.784C272.069 73.894 271.933 73.949 271.772 73.949ZM274.33 72.838H275.111V81H274.33V72.838ZM277.361 81.055C277.2 81.055 277.061 80.9963 276.943 80.879C276.833 80.7617 276.778 80.6187 276.778 80.45C276.778 80.2813 276.833 80.142 276.943 80.032C277.061 79.9147 277.2 79.856 277.361 79.856C277.523 79.856 277.662 79.9147 277.779 80.032C277.897 80.142 277.955 80.2813 277.955 80.45C277.955 80.6187 277.897 80.7617 277.779 80.879C277.662 80.9963 277.523 81.055 277.361 81.055ZM281.852 81.055C281.28 81.055 280.767 80.9303 280.312 80.681C279.865 80.4317 279.513 80.0833 279.256 79.636C279 79.1813 278.871 78.6717 278.871 78.107C278.871 77.5423 279 77.0363 279.256 76.589C279.513 76.1417 279.865 75.7933 280.312 75.544C280.767 75.2947 281.28 75.17 281.852 75.17C282.351 75.17 282.795 75.269 283.183 75.467C283.579 75.6577 283.891 75.94 284.118 76.314L283.535 76.71C283.345 76.424 283.103 76.2113 282.809 76.072C282.516 75.9253 282.197 75.852 281.852 75.852C281.434 75.852 281.057 75.9473 280.719 76.138C280.389 76.3213 280.129 76.5853 279.938 76.93C279.755 77.2747 279.663 77.667 279.663 78.107C279.663 78.5543 279.755 78.9503 279.938 79.295C280.129 79.6323 280.389 79.8963 280.719 80.087C281.057 80.2703 281.434 80.362 281.852 80.362C282.197 80.362 282.516 80.2923 282.809 80.153C283.103 80.0137 283.345 79.801 283.535 79.515L284.118 79.911C283.891 80.285 283.579 80.571 283.183 80.769C282.787 80.9597 282.344 81.055 281.852 81.055ZM287.921 81.055C287.363 81.055 286.861 80.9303 286.414 80.681C285.966 80.4243 285.614 80.0723 285.358 79.625C285.101 79.1777 284.973 78.6717 284.973 78.107C284.973 77.5423 285.101 77.0363 285.358 76.589C285.614 76.1417 285.966 75.7933 286.414 75.544C286.861 75.2947 287.363 75.17 287.921 75.17C288.478 75.17 288.98 75.2947 289.428 75.544C289.875 75.7933 290.223 76.1417 290.473 76.589C290.729 77.0363 290.858 77.5423 290.858 78.107C290.858 78.6717 290.729 79.1777 290.473 79.625C290.223 80.0723 289.875 80.4243 289.428 80.681C288.98 80.9303 288.478 81.055 287.921 81.055ZM287.921 80.362C288.331 80.362 288.698 80.2703 289.021 80.087C289.351 79.8963 289.607 79.6287 289.791 79.284C289.974 78.9393 290.066 78.547 290.066 78.107C290.066 77.667 289.974 77.2747 289.791 76.93C289.607 76.5853 289.351 76.3213 289.021 76.138C288.698 75.9473 288.331 75.852 287.921 75.852C287.51 75.852 287.14 75.9473 286.81 76.138C286.487 76.3213 286.23 76.5853 286.04 76.93C285.856 77.2747 285.765 77.667 285.765 78.107C285.765 78.547 285.856 78.9393 286.04 79.284C286.23 79.6287 286.487 79.8963 286.81 80.087C287.14 80.2703 287.51 80.362 287.921 80.362ZM299.668 75.17C300.394 75.17 300.963 75.379 301.373 75.797C301.791 76.215 302 76.831 302 77.645V81H301.219V77.722C301.219 77.1207 301.073 76.6623 300.779 76.347C300.493 76.0317 300.086 75.874 299.558 75.874C298.957 75.874 298.484 76.061 298.139 76.435C297.795 76.8017 297.622 77.3113 297.622 77.964V81H296.841V77.722C296.841 77.1207 296.695 76.6623 296.401 76.347C296.115 76.0317 295.705 75.874 295.169 75.874C294.575 75.874 294.102 76.061 293.75 76.435C293.406 76.8017 293.233 77.3113 293.233 77.964V81H292.452V75.214H293.2V76.27C293.406 75.918 293.692 75.6467 294.058 75.456C294.425 75.2653 294.847 75.17 295.323 75.17C295.807 75.17 296.225 75.2727 296.577 75.478C296.937 75.6833 297.204 75.9877 297.38 76.391C297.593 76.0097 297.897 75.7127 298.293 75.5C298.697 75.28 299.155 75.17 299.668 75.17Z" fill="#666666"/>
<path d="M64.02 121.04C96.6158 121.04 123.04 94.6158 123.04 62.02C123.04 29.4242 96.6158 3 64.02 3C31.4242 3 5 29.4242 5 62.02C5 94.6158 31.4242 121.04 64.02 121.04Z" fill="white"/>
<path d="M64.02 108C89.4141 108 110 87.4141 110 62.02C110 36.626 89.4141 16.04 64.02 16.04C38.626 16.04 18.04 36.626 18.04 62.02C18.04 87.4141 38.626 108 64.02 108Z" fill="#009DDD"/>
<g style="mix-blend-mode:soft-light" opacity="0.3">
<path d="M64.0205 16.05C70.0613 16.05 76.043 17.2399 81.6239 19.5516C87.2049 21.8633 92.2759 25.2516 96.5474 29.5231C100.819 33.7946 104.207 38.8656 106.519 44.4466C108.831 50.0276 110.021 56.0092 110.021 62.05C110.021 68.0909 108.831 74.0725 106.519 79.6535C104.207 85.2345 100.819 90.3055 96.5474 94.577C92.2759 98.8485 87.2049 102.237 81.6239 104.548C76.043 106.86 70.0613 108.05 64.0205 108.05" fill="black"/>
</g>
<path d="M134.998 61.51H280.801" stroke="#666666" stroke-width="0.75" stroke-miterlimit="10"/>
<path d="M64.0899 70.56L35.8599 46.96C35.5891 47.5951 35.4269 48.2711 35.3799 48.96V74.7299C35.4279 76.3944 36.1119 77.9771 37.2912 79.1526C38.4705 80.3282 40.0553 81.0072 41.7199 81.05H86.4599C88.078 80.99 89.6068 80.2932 90.7137 79.1115C91.8206 77.9297 92.4158 76.3585 92.3699 74.74V48.9799C92.3976 48.3212 92.3165 47.6624 92.1299 47.03L64.0899 70.56Z" fill="white"/>
<path d="M64.0905 65.34L89.7605 43.95C88.7711 43.3362 87.6245 43.0235 86.4605 43.05H41.7205C40.5807 43.023 39.4568 43.3214 38.4805 43.91L64.0905 65.34Z" fill="white"/>
</g>
<defs>
<filter id="filter0_d" x="0" y="0" width="348" height="132.04" filterUnits="userSpaceOnUse" color-interpolation-filters="sRGB">
<feFlood flood-opacity="0" result="BackgroundImageFix"/>
<feColorMatrix in="SourceAlpha" type="matrix" values="0 0 0 0 0 0 0 0 0 0 0 0 0 0 0 0 0 0 127 0"/>
<feOffset dx="2" dy="4"/>
<feGaussianBlur stdDeviation="3.5"/>
<feColorMatrix type="matrix" values="0 0 0 0 0.6 0 0 0 0 0.6 0 0 0 0 0.6 0 0 0 0.5 0"/>
<feBlend mode="normal" in2="BackgroundImageFix" result="effect1_dropShadow"/>
<feBlend mode="normal" in="SourceGraphic" in2="effect1_dropShadow" result="shape"/>
</filter>
</defs>
</svg>
