<svg width="348" height="133" viewBox="0 0 348 133" fill="none" xmlns="http://www.w3.org/2000/svg">
<g filter="url(#filter0_d)">
<path d="M312.227 108H79V16H312.227C319.328 16 326.138 18.4316 331.158 22.76C336.179 27.0883 339 32.9588 339 39.08V84.89C339.005 87.9234 338.315 90.9279 336.972 93.7316C335.629 96.5352 333.657 99.0831 331.171 101.229C328.684 103.376 325.731 105.079 322.481 106.24C319.23 107.402 315.746 108 312.227 108V108Z" fill="white"/>
<path d="M147.62 33.966H143.3V45H141.536V33.966H137.234V32.4H147.62V33.966ZM157.157 40.284C157.157 40.416 157.145 40.59 157.121 40.806H149.381C149.489 41.646 149.855 42.324 150.479 42.84C151.115 43.344 151.901 43.596 152.837 43.596C153.977 43.596 154.895 43.212 155.591 42.444L156.545 43.56C156.113 44.064 155.573 44.448 154.925 44.712C154.289 44.976 153.575 45.108 152.783 45.108C151.775 45.108 150.881 44.904 150.101 44.496C149.321 44.076 148.715 43.494 148.283 42.75C147.863 42.006 147.653 41.166 147.653 40.23C147.653 39.306 147.857 38.472 148.265 37.728C148.685 36.984 149.255 36.408 149.975 36C150.707 35.58 151.529 35.37 152.441 35.37C153.353 35.37 154.163 35.58 154.871 36C155.591 36.408 156.149 36.984 156.545 37.728C156.953 38.472 157.157 39.324 157.157 40.284ZM152.441 36.828C151.613 36.828 150.917 37.08 150.353 37.584C149.801 38.088 149.477 38.748 149.381 39.564H155.501C155.405 38.76 155.075 38.106 154.511 37.602C153.959 37.086 153.269 36.828 152.441 36.828ZM167.87 35.46V45H166.142V36.972H162.038L161.93 39.096C161.87 40.38 161.756 41.454 161.588 42.318C161.42 43.17 161.144 43.854 160.76 44.37C160.376 44.886 159.842 45.144 159.158 45.144C158.846 45.144 158.492 45.09 158.096 44.982L158.204 43.524C158.36 43.56 158.504 43.578 158.636 43.578C159.116 43.578 159.476 43.368 159.716 42.948C159.956 42.528 160.112 42.03 160.184 41.454C160.256 40.878 160.322 40.056 160.382 38.988L160.544 35.46H167.87ZM179.833 40.284C179.833 40.416 179.821 40.59 179.797 40.806H172.057C172.165 41.646 172.531 42.324 173.155 42.84C173.791 43.344 174.577 43.596 175.513 43.596C176.653 43.596 177.571 43.212 178.267 42.444L179.221 43.56C178.789 44.064 178.249 44.448 177.601 44.712C176.965 44.976 176.251 45.108 175.459 45.108C174.451 45.108 173.557 44.904 172.777 44.496C171.997 44.076 171.391 43.494 170.959 42.75C170.539 42.006 170.329 41.166 170.329 40.23C170.329 39.306 170.533 38.472 170.941 37.728C171.361 36.984 171.931 36.408 172.651 36C173.383 35.58 174.205 35.37 175.117 35.37C176.029 35.37 176.839 35.58 177.547 36C178.267 36.408 178.825 36.984 179.221 37.728C179.629 38.472 179.833 39.324 179.833 40.284ZM175.117 36.828C174.289 36.828 173.593 37.08 173.029 37.584C172.477 38.088 172.153 38.748 172.057 39.564H178.177C178.081 38.76 177.751 38.106 177.187 37.602C176.635 37.086 175.945 36.828 175.117 36.828ZM194.556 40.212C194.556 41.688 194.064 42.852 193.08 43.704C192.096 44.556 190.71 45.03 188.922 45.126V48.492H187.23V45.126C185.442 45.03 184.056 44.562 183.072 43.722C182.1 42.87 181.614 41.7 181.614 40.212C181.614 38.736 182.1 37.584 183.072 36.756C184.044 35.928 185.43 35.466 187.23 35.37V31.644H188.922V35.37C190.71 35.466 192.096 35.934 193.08 36.774C194.064 37.602 194.556 38.748 194.556 40.212ZM183.324 40.212C183.324 41.232 183.648 42.03 184.296 42.606C184.956 43.182 185.934 43.512 187.23 43.596V36.9C185.922 36.984 184.944 37.308 184.296 37.872C183.648 38.436 183.324 39.216 183.324 40.212ZM188.922 43.614C191.538 43.41 192.846 42.276 192.846 40.212C192.846 39.204 192.516 38.424 191.856 37.872C191.196 37.308 190.218 36.984 188.922 36.9V43.614ZM201.084 45.108C200.136 45.108 199.284 44.898 198.528 44.478C197.772 44.058 197.178 43.482 196.746 42.75C196.326 42.006 196.116 41.166 196.116 40.23C196.116 39.294 196.326 38.46 196.746 37.728C197.178 36.984 197.772 36.408 198.528 36C199.284 35.58 200.136 35.37 201.084 35.37C202.032 35.37 202.878 35.58 203.622 36C204.378 36.408 204.966 36.984 205.386 37.728C205.818 38.46 206.034 39.294 206.034 40.23C206.034 41.166 205.818 42.006 205.386 42.75C204.966 43.482 204.378 44.058 203.622 44.478C202.878 44.898 202.032 45.108 201.084 45.108ZM201.084 43.596C201.696 43.596 202.242 43.458 202.722 43.182C203.214 42.894 203.598 42.498 203.874 41.994C204.15 41.478 204.288 40.89 204.288 40.23C204.288 39.57 204.15 38.988 203.874 38.484C203.598 37.968 203.214 37.572 202.722 37.296C202.242 37.02 201.696 36.882 201.084 36.882C200.472 36.882 199.92 37.02 199.428 37.296C198.948 37.572 198.564 37.968 198.276 38.484C198 38.988 197.862 39.57 197.862 40.23C197.862 40.89 198 41.478 198.276 41.994C198.564 42.498 198.948 42.894 199.428 43.182C199.92 43.458 200.472 43.596 201.084 43.596ZM208.529 35.46H210.257V39.51H215.693V35.46H217.421V45H215.693V41.004H210.257V45H208.529V35.46ZM225.083 38.7C226.283 38.712 227.201 38.988 227.837 39.528C228.473 40.068 228.791 40.83 228.791 41.814C228.791 42.846 228.443 43.644 227.747 44.208C227.063 44.76 226.079 45.03 224.795 45.018L220.781 45V35.46H222.509V38.682L225.083 38.7ZM230.213 35.46H231.941V45H230.213V35.46ZM224.669 43.704C225.449 43.716 226.037 43.56 226.433 43.236C226.841 42.912 227.045 42.432 227.045 41.796C227.045 41.172 226.847 40.716 226.451 40.428C226.055 40.14 225.461 39.99 224.669 39.978L222.509 39.942V43.686L224.669 43.704ZM235.679 37.836C235.343 37.836 235.055 37.722 234.815 37.494C234.575 37.254 234.455 36.954 234.455 36.594C234.455 36.246 234.575 35.958 234.815 35.73C235.055 35.49 235.343 35.37 235.679 35.37C236.015 35.37 236.297 35.484 236.525 35.712C236.753 35.94 236.867 36.234 236.867 36.594C236.867 36.954 236.747 37.254 236.507 37.494C236.279 37.722 236.003 37.836 235.679 37.836ZM235.679 45.108C235.343 45.108 235.055 44.994 234.815 44.766C234.575 44.526 234.455 44.226 234.455 43.866C234.455 43.518 234.575 43.23 234.815 43.002C235.055 42.762 235.343 42.642 235.679 42.642C236.015 42.642 236.297 42.756 236.525 42.984C236.753 43.212 236.867 43.506 236.867 43.866C236.867 44.226 236.747 44.526 236.507 44.766C236.279 44.994 236.003 45.108 235.679 45.108Z" fill="#666666"/>
<path d="M142.555 72.48H140.509V74.482H139.816V72.48H137.77V71.831H139.816V69.818H140.509V71.831H142.555V72.48ZM149.176 68.234C150.195 68.234 150.976 68.5713 151.519 69.246C152.062 69.9133 152.333 70.8593 152.333 72.084C152.333 72.942 152.186 73.668 151.893 74.262C151.6 74.856 151.189 75.307 150.661 75.615C150.133 75.9157 149.517 76.066 148.813 76.066C148.05 76.066 147.442 75.9267 146.987 75.648L147.306 75.01C147.673 75.252 148.171 75.373 148.802 75.373C149.653 75.373 150.32 75.1053 150.804 74.57C151.288 74.0273 151.53 73.2427 151.53 72.216C151.53 72.0253 151.519 71.8163 151.497 71.589C151.306 72.007 151.002 72.3333 150.584 72.568C150.166 72.7953 149.686 72.909 149.143 72.909C148.637 72.909 148.186 72.8137 147.79 72.623C147.401 72.4323 147.097 72.1647 146.877 71.82C146.657 71.468 146.547 71.061 146.547 70.599C146.547 70.1297 146.661 69.7153 146.888 69.356C147.115 68.9967 147.427 68.7217 147.823 68.531C148.226 68.333 148.677 68.234 149.176 68.234ZM149.264 72.238C149.653 72.238 149.994 72.1647 150.287 72.018C150.588 71.8713 150.822 71.6697 150.991 71.413C151.16 71.1563 151.244 70.8703 151.244 70.555C151.244 70.2617 151.163 69.9903 151.002 69.741C150.848 69.4917 150.617 69.29 150.309 69.136C150.001 68.982 149.634 68.905 149.209 68.905C148.652 68.905 148.197 69.059 147.845 69.367C147.5 69.6677 147.328 70.071 147.328 70.577C147.328 71.083 147.5 71.4863 147.845 71.787C148.197 72.0877 148.67 72.238 149.264 72.238ZM155.879 68.234C156.899 68.234 157.68 68.5713 158.222 69.246C158.765 69.9133 159.036 70.8593 159.036 72.084C159.036 72.942 158.89 73.668 158.596 74.262C158.303 74.856 157.892 75.307 157.364 75.615C156.836 75.9157 156.22 76.066 155.516 76.066C154.754 76.066 154.145 75.9267 153.69 75.648L154.009 75.01C154.376 75.252 154.875 75.373 155.505 75.373C156.356 75.373 157.023 75.1053 157.507 74.57C157.991 74.0273 158.233 73.2427 158.233 72.216C158.233 72.0253 158.222 71.8163 158.2 71.589C158.01 72.007 157.705 72.3333 157.287 72.568C156.869 72.7953 156.389 72.909 155.846 72.909C155.34 72.909 154.889 72.8137 154.493 72.623C154.105 72.4323 153.8 72.1647 153.58 71.82C153.36 71.468 153.25 71.061 153.25 70.599C153.25 70.1297 153.364 69.7153 153.591 69.356C153.819 68.9967 154.13 68.7217 154.526 68.531C154.93 68.333 155.381 68.234 155.879 68.234ZM155.967 72.238C156.356 72.238 156.697 72.1647 156.99 72.018C157.291 71.8713 157.526 71.6697 157.694 71.413C157.863 71.1563 157.947 70.8703 157.947 70.555C157.947 70.2617 157.867 69.9903 157.705 69.741C157.551 69.4917 157.32 69.29 157.012 69.136C156.704 68.982 156.338 68.905 155.912 68.905C155.355 68.905 154.9 69.059 154.548 69.367C154.204 69.6677 154.031 70.071 154.031 70.577C154.031 71.083 154.204 71.4863 154.548 71.787C154.9 72.0877 155.373 72.238 155.967 72.238ZM164.595 71.963C165.079 72.1243 165.45 72.3663 165.706 72.689C165.97 73.0117 166.102 73.4003 166.102 73.855C166.102 74.3023 165.981 74.6947 165.739 75.032C165.497 75.362 165.149 75.6187 164.694 75.802C164.247 75.978 163.719 76.066 163.11 76.066C162.186 76.066 161.46 75.868 160.932 75.472C160.404 75.076 160.14 74.537 160.14 73.855C160.14 73.393 160.265 73.0043 160.514 72.689C160.771 72.3663 161.141 72.1243 161.625 71.963C161.229 71.809 160.929 71.589 160.723 71.303C160.518 71.0097 160.415 70.665 160.415 70.269C160.415 69.6457 160.657 69.1507 161.141 68.784C161.633 68.4173 162.289 68.234 163.11 68.234C163.653 68.234 164.126 68.3183 164.529 68.487C164.94 68.6483 165.259 68.883 165.486 69.191C165.714 69.499 165.827 69.8583 165.827 70.269C165.827 70.665 165.721 71.0097 165.508 71.303C165.296 71.589 164.991 71.809 164.595 71.963ZM161.207 70.291C161.207 70.7163 161.376 71.0537 161.713 71.303C162.051 71.5523 162.516 71.677 163.11 71.677C163.704 71.677 164.17 71.5523 164.507 71.303C164.852 71.0537 165.024 70.72 165.024 70.302C165.024 69.8693 164.848 69.5283 164.496 69.279C164.152 69.0297 163.69 68.905 163.11 68.905C162.524 68.905 162.058 69.0297 161.713 69.279C161.376 69.5283 161.207 69.8657 161.207 70.291ZM163.11 75.395C163.792 75.395 164.324 75.2557 164.705 74.977C165.094 74.6983 165.288 74.3207 165.288 73.844C165.288 73.3673 165.094 72.9933 164.705 72.722C164.324 72.4433 163.792 72.304 163.11 72.304C162.436 72.304 161.904 72.4433 161.515 72.722C161.134 72.9933 160.943 73.3673 160.943 73.844C160.943 74.328 161.134 74.7093 161.515 74.988C161.897 75.2593 162.428 75.395 163.11 75.395ZM172.476 68.234C173.495 68.234 174.276 68.5713 174.819 69.246C175.362 69.9133 175.633 70.8593 175.633 72.084C175.633 72.942 175.486 73.668 175.193 74.262C174.9 74.856 174.489 75.307 173.961 75.615C173.433 75.9157 172.817 76.066 172.113 76.066C171.35 76.066 170.742 75.9267 170.287 75.648L170.606 75.01C170.973 75.252 171.471 75.373 172.102 75.373C172.953 75.373 173.62 75.1053 174.104 74.57C174.588 74.0273 174.83 73.2427 174.83 72.216C174.83 72.0253 174.819 71.8163 174.797 71.589C174.606 72.007 174.302 72.3333 173.884 72.568C173.466 72.7953 172.986 72.909 172.443 72.909C171.937 72.909 171.486 72.8137 171.09 72.623C170.701 72.4323 170.397 72.1647 170.177 71.82C169.957 71.468 169.847 71.061 169.847 70.599C169.847 70.1297 169.961 69.7153 170.188 69.356C170.415 68.9967 170.727 68.7217 171.123 68.531C171.526 68.333 171.977 68.234 172.476 68.234ZM172.564 72.238C172.953 72.238 173.294 72.1647 173.587 72.018C173.888 71.8713 174.122 71.6697 174.291 71.413C174.46 71.1563 174.544 70.8703 174.544 70.555C174.544 70.2617 174.463 69.9903 174.302 69.741C174.148 69.4917 173.917 69.29 173.609 69.136C173.301 68.982 172.934 68.905 172.509 68.905C171.952 68.905 171.497 69.059 171.145 69.367C170.8 69.6677 170.628 70.071 170.628 70.577C170.628 71.083 170.8 71.4863 171.145 71.787C171.497 72.0877 171.97 72.238 172.564 72.238ZM179.85 76.066C179.256 76.066 178.724 75.9083 178.255 75.593C177.793 75.2777 177.43 74.8267 177.166 74.24C176.909 73.646 176.781 72.9493 176.781 72.15C176.781 71.3507 176.909 70.6577 177.166 70.071C177.43 69.477 177.793 69.0223 178.255 68.707C178.724 68.3917 179.256 68.234 179.85 68.234C180.444 68.234 180.972 68.3917 181.434 68.707C181.903 69.0223 182.27 69.477 182.534 70.071C182.798 70.6577 182.93 71.3507 182.93 72.15C182.93 72.9493 182.798 73.646 182.534 74.24C182.27 74.8267 181.903 75.2777 181.434 75.593C180.972 75.9083 180.444 76.066 179.85 76.066ZM179.85 75.34C180.297 75.34 180.69 75.2153 181.027 74.966C181.372 74.7167 181.639 74.3537 181.83 73.877C182.021 73.4003 182.116 72.8247 182.116 72.15C182.116 71.4753 182.021 70.8997 181.83 70.423C181.639 69.9463 181.372 69.5833 181.027 69.334C180.69 69.0847 180.297 68.96 179.85 68.96C179.403 68.96 179.007 69.0847 178.662 69.334C178.325 69.5833 178.061 69.9463 177.87 70.423C177.679 70.8997 177.584 71.4753 177.584 72.15C177.584 72.8247 177.679 73.4003 177.87 73.877C178.061 74.3537 178.325 74.7167 178.662 74.966C179.007 75.2153 179.403 75.34 179.85 75.34ZM189.341 68.234C190.36 68.234 191.141 68.5713 191.684 69.246C192.227 69.9133 192.498 70.8593 192.498 72.084C192.498 72.942 192.351 73.668 192.058 74.262C191.765 74.856 191.354 75.307 190.826 75.615C190.298 75.9157 189.682 76.066 188.978 76.066C188.215 76.066 187.607 75.9267 187.152 75.648L187.471 75.01C187.838 75.252 188.336 75.373 188.967 75.373C189.818 75.373 190.485 75.1053 190.969 74.57C191.453 74.0273 191.695 73.2427 191.695 72.216C191.695 72.0253 191.684 71.8163 191.662 71.589C191.471 72.007 191.167 72.3333 190.749 72.568C190.331 72.7953 189.851 72.909 189.308 72.909C188.802 72.909 188.351 72.8137 187.955 72.623C187.566 72.4323 187.262 72.1647 187.042 71.82C186.822 71.468 186.712 71.061 186.712 70.599C186.712 70.1297 186.826 69.7153 187.053 69.356C187.28 68.9967 187.592 68.7217 187.988 68.531C188.391 68.333 188.842 68.234 189.341 68.234ZM189.429 72.238C189.818 72.238 190.159 72.1647 190.452 72.018C190.753 71.8713 190.987 71.6697 191.156 71.413C191.325 71.1563 191.409 70.8703 191.409 70.555C191.409 70.2617 191.328 69.9903 191.167 69.741C191.013 69.4917 190.782 69.29 190.474 69.136C190.166 68.982 189.799 68.905 189.374 68.905C188.817 68.905 188.362 69.059 188.01 69.367C187.665 69.6677 187.493 70.071 187.493 70.577C187.493 71.083 187.665 71.4863 188.01 71.787C188.362 72.0877 188.835 72.238 189.429 72.238ZM198.883 75.296V76H193.482V75.439L196.683 72.304C197.086 71.908 197.357 71.567 197.497 71.281C197.643 70.9877 197.717 70.6943 197.717 70.401C197.717 69.9463 197.559 69.5943 197.244 69.345C196.936 69.0883 196.492 68.96 195.913 68.96C195.011 68.96 194.31 69.246 193.812 69.818L193.251 69.334C193.551 68.982 193.933 68.7107 194.395 68.52C194.864 68.3293 195.392 68.234 195.979 68.234C196.763 68.234 197.383 68.421 197.838 68.795C198.3 69.1617 198.531 69.6677 198.531 70.313C198.531 70.709 198.443 71.0903 198.267 71.457C198.091 71.8237 197.757 72.2453 197.266 72.722L194.648 75.296H198.883ZM201.901 71.457C203.015 71.457 203.826 71.6587 204.332 72.062C204.845 72.458 205.102 73.0153 205.102 73.734C205.102 74.1813 204.995 74.581 204.783 74.933C204.577 75.285 204.266 75.5637 203.848 75.769C203.43 75.967 202.916 76.066 202.308 76.066C201.758 76.066 201.233 75.978 200.735 75.802C200.243 75.6187 199.847 75.3767 199.547 75.076L199.932 74.449C200.188 74.713 200.526 74.9293 200.944 75.098C201.362 75.2593 201.813 75.34 202.297 75.34C202.935 75.34 203.426 75.197 203.771 74.911C204.123 74.625 204.299 74.2437 204.299 73.767C204.299 73.239 204.101 72.8393 203.705 72.568C203.316 72.2967 202.656 72.161 201.725 72.161H200.086L200.482 68.3H204.695V69.004H201.175L200.911 71.457H201.901ZM211.01 71.457C212.125 71.457 212.935 71.6587 213.441 72.062C213.954 72.458 214.211 73.0153 214.211 73.734C214.211 74.1813 214.105 74.581 213.892 74.933C213.687 75.285 213.375 75.5637 212.957 75.769C212.539 75.967 212.026 76.066 211.417 76.066C210.867 76.066 210.343 75.978 209.844 75.802C209.353 75.6187 208.957 75.3767 208.656 75.076L209.041 74.449C209.298 74.713 209.635 74.9293 210.053 75.098C210.471 75.2593 210.922 75.34 211.406 75.34C212.044 75.34 212.535 75.197 212.88 74.911C213.232 74.625 213.408 74.2437 213.408 73.767C213.408 73.239 213.21 72.8393 212.814 72.568C212.425 72.2967 211.765 72.161 210.834 72.161H209.195L209.591 68.3H213.804V69.004H210.284L210.02 71.457H211.01ZM218.407 71.391C218.913 71.391 219.36 71.4863 219.749 71.677C220.145 71.8677 220.453 72.139 220.673 72.491C220.893 72.8357 221.003 73.239 221.003 73.701C221.003 74.1703 220.889 74.5847 220.662 74.944C220.434 75.3033 220.119 75.582 219.716 75.78C219.32 75.9707 218.872 76.066 218.374 76.066C217.354 76.066 216.573 75.7323 216.031 75.065C215.488 74.3903 215.217 73.4407 215.217 72.216C215.217 71.358 215.363 70.632 215.657 70.038C215.95 69.444 216.361 68.9967 216.889 68.696C217.417 68.388 218.033 68.234 218.737 68.234C219.499 68.234 220.108 68.3733 220.563 68.652L220.244 69.29C219.877 69.048 219.378 68.927 218.748 68.927C217.897 68.927 217.23 69.1983 216.746 69.741C216.262 70.2763 216.02 71.0573 216.02 72.084C216.02 72.2673 216.031 72.4763 216.053 72.711C216.243 72.293 216.548 71.9703 216.966 71.743C217.384 71.5083 217.864 71.391 218.407 71.391ZM218.341 75.395C218.898 75.395 219.349 75.2447 219.694 74.944C220.046 74.636 220.222 74.229 220.222 73.723C220.222 73.217 220.046 72.8137 219.694 72.513C219.349 72.2123 218.88 72.062 218.286 72.062C217.897 72.062 217.552 72.1353 217.252 72.282C216.958 72.4287 216.727 72.6303 216.559 72.887C216.39 73.1437 216.306 73.4297 216.306 73.745C216.306 74.0383 216.383 74.3097 216.537 74.559C216.698 74.8083 216.933 75.01 217.241 75.164C217.549 75.318 217.915 75.395 218.341 75.395ZM230.057 75.296V76H224.656V75.439L227.857 72.304C228.26 71.908 228.531 71.567 228.671 71.281C228.817 70.9877 228.891 70.6943 228.891 70.401C228.891 69.9463 228.733 69.5943 228.418 69.345C228.11 69.0883 227.666 68.96 227.087 68.96C226.185 68.96 225.484 69.246 224.986 69.818L224.425 69.334C224.725 68.982 225.107 68.7107 225.569 68.52C226.038 68.3293 226.566 68.234 227.153 68.234C227.937 68.234 228.557 68.421 229.012 68.795C229.474 69.1617 229.705 69.6677 229.705 70.313C229.705 70.709 229.617 71.0903 229.441 71.457C229.265 71.8237 228.931 72.2453 228.44 72.722L225.822 75.296H230.057ZM233.075 71.457C234.189 71.457 235 71.6587 235.506 72.062C236.019 72.458 236.276 73.0153 236.276 73.734C236.276 74.1813 236.169 74.581 235.957 74.933C235.751 75.285 235.44 75.5637 235.022 75.769C234.604 75.967 234.09 76.066 233.482 76.066C232.932 76.066 232.407 75.978 231.909 75.802C231.417 75.6187 231.021 75.3767 230.721 75.076L231.106 74.449C231.362 74.713 231.7 74.9293 232.118 75.098C232.536 75.2593 232.987 75.34 233.471 75.34C234.109 75.34 234.6 75.197 234.945 74.911C235.297 74.625 235.473 74.2437 235.473 73.767C235.473 73.239 235.275 72.8393 234.879 72.568C234.49 72.2967 233.83 72.161 232.899 72.161H231.26L231.656 68.3H235.869V69.004H232.349L232.085 71.457H233.075ZM142.555 85.48H140.509V87.482H139.816V85.48H137.77V84.831H139.816V82.818H140.509V84.831H142.555V85.48ZM149.176 81.234C150.195 81.234 150.976 81.5713 151.519 82.246C152.062 82.9133 152.333 83.8593 152.333 85.084C152.333 85.942 152.186 86.668 151.893 87.262C151.6 87.856 151.189 88.307 150.661 88.615C150.133 88.9157 149.517 89.066 148.813 89.066C148.05 89.066 147.442 88.9267 146.987 88.648L147.306 88.01C147.673 88.252 148.171 88.373 148.802 88.373C149.653 88.373 150.32 88.1053 150.804 87.57C151.288 87.0273 151.53 86.2427 151.53 85.216C151.53 85.0253 151.519 84.8163 151.497 84.589C151.306 85.007 151.002 85.3333 150.584 85.568C150.166 85.7953 149.686 85.909 149.143 85.909C148.637 85.909 148.186 85.8137 147.79 85.623C147.401 85.4323 147.097 85.1647 146.877 84.82C146.657 84.468 146.547 84.061 146.547 83.599C146.547 83.1297 146.661 82.7153 146.888 82.356C147.115 81.9967 147.427 81.7217 147.823 81.531C148.226 81.333 148.677 81.234 149.176 81.234ZM149.264 85.238C149.653 85.238 149.994 85.1647 150.287 85.018C150.588 84.8713 150.822 84.6697 150.991 84.413C151.16 84.1563 151.244 83.8703 151.244 83.555C151.244 83.2617 151.163 82.9903 151.002 82.741C150.848 82.4917 150.617 82.29 150.309 82.136C150.001 81.982 149.634 81.905 149.209 81.905C148.652 81.905 148.197 82.059 147.845 82.367C147.5 82.6677 147.328 83.071 147.328 83.577C147.328 84.083 147.5 84.4863 147.845 84.787C148.197 85.0877 148.67 85.238 149.264 85.238ZM155.879 81.234C156.899 81.234 157.68 81.5713 158.222 82.246C158.765 82.9133 159.036 83.8593 159.036 85.084C159.036 85.942 158.89 86.668 158.596 87.262C158.303 87.856 157.892 88.307 157.364 88.615C156.836 88.9157 156.22 89.066 155.516 89.066C154.754 89.066 154.145 88.9267 153.69 88.648L154.009 88.01C154.376 88.252 154.875 88.373 155.505 88.373C156.356 88.373 157.023 88.1053 157.507 87.57C157.991 87.0273 158.233 86.2427 158.233 85.216C158.233 85.0253 158.222 84.8163 158.2 84.589C158.01 85.007 157.705 85.3333 157.287 85.568C156.869 85.7953 156.389 85.909 155.846 85.909C155.34 85.909 154.889 85.8137 154.493 85.623C154.105 85.4323 153.8 85.1647 153.58 84.82C153.36 84.468 153.25 84.061 153.25 83.599C153.25 83.1297 153.364 82.7153 153.591 82.356C153.819 81.9967 154.13 81.7217 154.526 81.531C154.93 81.333 155.381 81.234 155.879 81.234ZM155.967 85.238C156.356 85.238 156.697 85.1647 156.99 85.018C157.291 84.8713 157.526 84.6697 157.694 84.413C157.863 84.1563 157.947 83.8703 157.947 83.555C157.947 83.2617 157.867 82.9903 157.705 82.741C157.551 82.4917 157.32 82.29 157.012 82.136C156.704 81.982 156.338 81.905 155.912 81.905C155.355 81.905 154.9 82.059 154.548 82.367C154.204 82.6677 154.031 83.071 154.031 83.577C154.031 84.083 154.204 84.4863 154.548 84.787C154.9 85.0877 155.373 85.238 155.967 85.238ZM164.595 84.963C165.079 85.1243 165.45 85.3663 165.706 85.689C165.97 86.0117 166.102 86.4003 166.102 86.855C166.102 87.3023 165.981 87.6947 165.739 88.032C165.497 88.362 165.149 88.6187 164.694 88.802C164.247 88.978 163.719 89.066 163.11 89.066C162.186 89.066 161.46 88.868 160.932 88.472C160.404 88.076 160.14 87.537 160.14 86.855C160.14 86.393 160.265 86.0043 160.514 85.689C160.771 85.3663 161.141 85.1243 161.625 84.963C161.229 84.809 160.929 84.589 160.723 84.303C160.518 84.0097 160.415 83.665 160.415 83.269C160.415 82.6457 160.657 82.1507 161.141 81.784C161.633 81.4173 162.289 81.234 163.11 81.234C163.653 81.234 164.126 81.3183 164.529 81.487C164.94 81.6483 165.259 81.883 165.486 82.191C165.714 82.499 165.827 82.8583 165.827 83.269C165.827 83.665 165.721 84.0097 165.508 84.303C165.296 84.589 164.991 84.809 164.595 84.963ZM161.207 83.291C161.207 83.7163 161.376 84.0537 161.713 84.303C162.051 84.5523 162.516 84.677 163.11 84.677C163.704 84.677 164.17 84.5523 164.507 84.303C164.852 84.0537 165.024 83.72 165.024 83.302C165.024 82.8693 164.848 82.5283 164.496 82.279C164.152 82.0297 163.69 81.905 163.11 81.905C162.524 81.905 162.058 82.0297 161.713 82.279C161.376 82.5283 161.207 82.8657 161.207 83.291ZM163.11 88.395C163.792 88.395 164.324 88.2557 164.705 87.977C165.094 87.6983 165.288 87.3207 165.288 86.844C165.288 86.3673 165.094 85.9933 164.705 85.722C164.324 85.4433 163.792 85.304 163.11 85.304C162.436 85.304 161.904 85.4433 161.515 85.722C161.134 85.9933 160.943 86.3673 160.943 86.844C160.943 87.328 161.134 87.7093 161.515 87.988C161.897 88.2593 162.428 88.395 163.11 88.395ZM172.476 81.234C173.495 81.234 174.276 81.5713 174.819 82.246C175.362 82.9133 175.633 83.8593 175.633 85.084C175.633 85.942 175.486 86.668 175.193 87.262C174.9 87.856 174.489 88.307 173.961 88.615C173.433 88.9157 172.817 89.066 172.113 89.066C171.35 89.066 170.742 88.9267 170.287 88.648L170.606 88.01C170.973 88.252 171.471 88.373 172.102 88.373C172.953 88.373 173.62 88.1053 174.104 87.57C174.588 87.0273 174.83 86.2427 174.83 85.216C174.83 85.0253 174.819 84.8163 174.797 84.589C174.606 85.007 174.302 85.3333 173.884 85.568C173.466 85.7953 172.986 85.909 172.443 85.909C171.937 85.909 171.486 85.8137 171.09 85.623C170.701 85.4323 170.397 85.1647 170.177 84.82C169.957 84.468 169.847 84.061 169.847 83.599C169.847 83.1297 169.961 82.7153 170.188 82.356C170.415 81.9967 170.727 81.7217 171.123 81.531C171.526 81.333 171.977 81.234 172.476 81.234ZM172.564 85.238C172.953 85.238 173.294 85.1647 173.587 85.018C173.888 84.8713 174.122 84.6697 174.291 84.413C174.46 84.1563 174.544 83.8703 174.544 83.555C174.544 83.2617 174.463 82.9903 174.302 82.741C174.148 82.4917 173.917 82.29 173.609 82.136C173.301 81.982 172.934 81.905 172.509 81.905C171.952 81.905 171.497 82.059 171.145 82.367C170.8 82.6677 170.628 83.071 170.628 83.577C170.628 84.083 170.8 84.4863 171.145 84.787C171.497 85.0877 171.97 85.238 172.564 85.238ZM182.129 81.3V81.861L178.906 89H178.048L181.216 82.004H177.256V83.445H176.475V81.3H182.129ZM192.596 86.976H191.056V89H190.264V86.976H185.919V86.404L190 81.3H190.88L186.942 86.272H190.286V84.49H191.056V86.272H192.596V86.976ZM198.21 81.3V81.861L194.987 89H194.129L197.297 82.004H193.337V83.445H192.556V81.3H198.21ZM204.688 81.3V81.861L201.465 89H200.607L203.775 82.004H199.815V83.445H199.034V81.3H204.688ZM214.044 81.3V81.861L210.821 89H209.963L213.131 82.004H209.171V83.445H208.39V81.3H214.044ZM217.609 84.6C218.416 84.644 219.028 84.864 219.446 85.26C219.871 85.6487 220.084 86.1583 220.084 86.789C220.084 87.229 219.978 87.6213 219.765 87.966C219.552 88.3033 219.237 88.571 218.819 88.769C218.401 88.967 217.891 89.066 217.29 89.066C216.733 89.066 216.205 88.978 215.706 88.802C215.215 88.6187 214.819 88.3767 214.518 88.076L214.903 87.449C215.16 87.713 215.501 87.9293 215.926 88.098C216.351 88.2593 216.806 88.34 217.29 88.34C217.921 88.34 218.408 88.2043 218.753 87.933C219.098 87.6543 219.27 87.273 219.27 86.789C219.27 86.3123 219.098 85.9383 218.753 85.667C218.408 85.3957 217.888 85.26 217.191 85.26H216.641V84.677L218.775 82.004H214.837V81.3H219.787V81.861L217.609 84.6ZM229.337 88.296V89H223.936V88.439L227.137 85.304C227.54 84.908 227.812 84.567 227.951 84.281C228.098 83.9877 228.171 83.6943 228.171 83.401C228.171 82.9463 228.013 82.5943 227.698 82.345C227.39 82.0883 226.946 81.96 226.367 81.96C225.465 81.96 224.765 82.246 224.266 82.818L223.705 82.334C224.006 81.982 224.387 81.7107 224.849 81.52C225.318 81.3293 225.846 81.234 226.433 81.234C227.218 81.234 227.837 81.421 228.292 81.795C228.754 82.1617 228.985 82.6677 228.985 83.313C228.985 83.709 228.897 84.0903 228.721 84.457C228.545 84.8237 228.211 85.2453 227.72 85.722L225.102 88.296H229.337ZM235.722 81.3V81.861L232.499 89H231.641L234.809 82.004H230.849V83.445H230.068V81.3H235.722Z" fill="#666666"/>
<path d="M64.02 121.04C96.6158 121.04 123.04 94.6158 123.04 62.02C123.04 29.4242 96.6158 3 64.02 3C31.4241 3 5 29.4242 5 62.02C5 94.6158 31.4241 121.04 64.02 121.04Z" fill="white"/>
<path d="M64.02 108C89.4141 108 110 87.4141 110 62.02C110 36.626 89.4141 16.04 64.02 16.04C38.626 16.04 18.04 36.626 18.04 62.02C18.04 87.4141 38.626 108 64.02 108Z" fill="#FFD0AC"/>
<g style="mix-blend-mode:soft-light" opacity="0.3">
<path d="M64.0205 16.05C76.2205 16.05 87.9208 20.8965 96.5474 29.5231C105.174 38.1498 110.021 49.8501 110.021 62.05C110.021 74.25 105.174 85.9503 96.5474 94.577C87.9208 103.204 76.2205 108.05 64.0205 108.05" fill="black"/>
</g>
<path d="M136.76 58.02H280.8" stroke="#666666" stroke-width="0.75" stroke-miterlimit="10"/>
<path d="M32.9903 70.3101V60.0501C32.9903 57.8197 33.8763 55.6806 35.4535 54.1034C37.0307 52.5262 39.1698 51.6401 41.4003 51.6401H85.4803C87.7099 51.6428 89.8475 52.5297 91.4241 54.1063C93.0007 55.6829 93.8876 57.8205 93.8903 60.0501V70.3301C93.8903 71.4228 93.4562 72.4708 92.6836 73.2434C91.9109 74.0161 90.863 74.4501 89.7703 74.4501H79.0903C77.9976 74.4501 76.9497 74.0161 76.177 73.2434C75.4044 72.4708 74.9703 71.4228 74.9703 70.3301V64.1801H50.8503V70.3301C50.8503 71.4228 50.4162 72.4708 49.6436 73.2434C48.8709 74.0161 47.823 74.4501 46.7303 74.4501H37.1003C36.5584 74.4488 36.0221 74.3406 35.5221 74.1317C35.0221 73.9229 34.5682 73.6174 34.1864 73.2328C33.8046 72.8483 33.5024 72.3921 33.2972 71.8906C33.092 71.3891 32.9877 70.852 32.9903 70.3101V70.3101Z" fill="white"/>
</g>
<defs>
<filter id="filter0_d" x="0" y="0" width="348" height="132.04" filterUnits="userSpaceOnUse" color-interpolation-filters="sRGB">
<feFlood flood-opacity="0" result="BackgroundImageFix"/>
<feColorMatrix in="SourceAlpha" type="matrix" values="0 0 0 0 0 0 0 0 0 0 0 0 0 0 0 0 0 0 127 0"/>
<feOffset dx="2" dy="4"/>
<feGaussianBlur stdDeviation="3.5"/>
<feColorMatrix type="matrix" values="0 0 0 0 0.6 0 0 0 0 0.6 0 0 0 0 0.6 0 0 0 0.5 0"/>
<feBlend mode="normal" in2="BackgroundImageFix" result="effect1_dropShadow"/>
<feBlend mode="normal" in="SourceGraphic" in2="effect1_dropShadow" result="shape"/>
</filter>
</defs>
</svg>
