<svg width="348" height="133" viewBox="0 0 348 133" fill="none" xmlns="http://www.w3.org/2000/svg">
<g filter="url(#filter0_d)">
<path d="M312.227 108H79V16H312.227C319.328 16 326.138 18.4316 331.158 22.76C336.179 27.0883 339 32.9588 339 39.08V84.89C339.005 87.9234 338.315 90.9279 336.972 93.7315C335.629 96.5352 333.657 99.083 331.171 101.229C328.684 103.376 325.731 105.078 322.481 106.24C319.23 107.402 315.746 108 312.227 108V108Z" fill="white"/>
<path d="M145.81 42.466C146.662 42.67 147.304 43.036 147.736 43.564C148.18 44.08 148.402 44.746 148.402 45.562C148.402 46.654 148 47.5 147.196 48.1C146.404 48.7 145.246 49 143.722 49H137.962V36.4H143.38C144.76 36.4 145.834 36.682 146.602 37.246C147.382 37.798 147.772 38.596 147.772 39.64C147.772 40.324 147.598 40.906 147.25 41.386C146.914 41.866 146.434 42.226 145.81 42.466ZM139.744 41.944H143.254C144.13 41.944 144.796 41.77 145.252 41.422C145.72 41.074 145.954 40.564 145.954 39.892C145.954 39.22 145.72 38.71 145.252 38.362C144.784 38.002 144.118 37.822 143.254 37.822H139.744V41.944ZM143.686 47.578C145.618 47.578 146.584 46.858 146.584 45.418C146.584 44.698 146.338 44.17 145.846 43.834C145.366 43.486 144.646 43.312 143.686 43.312H139.744V47.578H143.686ZM159.743 44.284C159.743 44.416 159.731 44.59 159.707 44.806H151.967C152.075 45.646 152.441 46.324 153.065 46.84C153.701 47.344 154.487 47.596 155.423 47.596C156.563 47.596 157.481 47.212 158.177 46.444L159.131 47.56C158.699 48.064 158.159 48.448 157.511 48.712C156.875 48.976 156.161 49.108 155.369 49.108C154.361 49.108 153.467 48.904 152.687 48.496C151.907 48.076 151.301 47.494 150.869 46.75C150.449 46.006 150.239 45.166 150.239 44.23C150.239 43.306 150.443 42.472 150.851 41.728C151.271 40.984 151.841 40.408 152.561 40C153.293 39.58 154.115 39.37 155.027 39.37C155.939 39.37 156.749 39.58 157.457 40C158.177 40.408 158.735 40.984 159.131 41.728C159.539 42.472 159.743 43.324 159.743 44.284ZM155.027 40.828C154.199 40.828 153.503 41.08 152.939 41.584C152.387 42.088 152.063 42.748 151.967 43.564H158.087C157.991 42.76 157.661 42.106 157.097 41.602C156.545 41.086 155.855 40.828 155.027 40.828ZM167.284 39.784C168.172 39.784 168.964 39.982 169.66 40.378C170.356 40.774 170.896 41.326 171.28 42.034C171.676 42.73 171.874 43.528 171.874 44.428C171.874 45.352 171.664 46.174 171.244 46.894C170.836 47.602 170.254 48.154 169.498 48.55C168.754 48.946 167.902 49.144 166.942 49.144C165.322 49.144 164.068 48.592 163.18 47.488C162.304 46.372 161.866 44.806 161.866 42.79C161.866 40.834 162.268 39.304 163.072 38.2C163.876 37.084 165.106 36.346 166.762 35.986L171.118 35.014L171.37 36.598L167.356 37.462C166.108 37.738 165.178 38.206 164.566 38.866C163.954 39.526 163.606 40.474 163.522 41.71C163.93 41.098 164.458 40.624 165.106 40.288C165.754 39.952 166.48 39.784 167.284 39.784ZM166.978 47.704C167.59 47.704 168.13 47.566 168.598 47.29C169.078 47.014 169.45 46.636 169.714 46.156C169.978 45.664 170.11 45.106 170.11 44.482C170.11 43.534 169.822 42.772 169.246 42.196C168.67 41.62 167.914 41.332 166.978 41.332C166.042 41.332 165.28 41.62 164.692 42.196C164.116 42.772 163.828 43.534 163.828 44.482C163.828 45.106 163.96 45.664 164.224 46.156C164.5 46.636 164.878 47.014 165.358 47.29C165.838 47.566 166.378 47.704 166.978 47.704ZM173.87 43.312H178.712V44.806H173.87V43.312ZM185.742 49.108C184.77 49.108 183.9 48.898 183.132 48.478C182.376 48.058 181.782 47.482 181.35 46.75C180.918 46.006 180.702 45.166 180.702 44.23C180.702 43.294 180.918 42.46 181.35 41.728C181.782 40.984 182.376 40.408 183.132 40C183.9 39.58 184.77 39.37 185.742 39.37C186.606 39.37 187.374 39.544 188.046 39.892C188.73 40.24 189.258 40.744 189.63 41.404L188.316 42.25C188.016 41.794 187.644 41.452 187.2 41.224C186.756 40.996 186.264 40.882 185.724 40.882C185.1 40.882 184.536 41.02 184.032 41.296C183.54 41.572 183.15 41.968 182.862 42.484C182.586 42.988 182.448 43.57 182.448 44.23C182.448 44.902 182.586 45.496 182.862 46.012C183.15 46.516 183.54 46.906 184.032 47.182C184.536 47.458 185.1 47.596 185.724 47.596C186.264 47.596 186.756 47.482 187.2 47.254C187.644 47.026 188.016 46.684 188.316 46.228L189.63 47.056C189.258 47.716 188.73 48.226 188.046 48.586C187.374 48.934 186.606 49.108 185.742 49.108ZM195.269 39.37C196.589 39.37 197.597 39.694 198.293 40.342C199.001 40.99 199.355 41.956 199.355 43.24V49H197.717V47.74C197.429 48.184 197.015 48.526 196.475 48.766C195.947 48.994 195.317 49.108 194.585 49.108C193.517 49.108 192.659 48.85 192.011 48.334C191.375 47.818 191.057 47.14 191.057 46.3C191.057 45.46 191.363 44.788 191.975 44.284C192.587 43.768 193.559 43.51 194.891 43.51H197.627V43.168C197.627 42.424 197.411 41.854 196.979 41.458C196.547 41.062 195.911 40.864 195.071 40.864C194.507 40.864 193.955 40.96 193.415 41.152C192.875 41.332 192.419 41.578 192.047 41.89L191.327 40.594C191.819 40.198 192.407 39.898 193.091 39.694C193.775 39.478 194.501 39.37 195.269 39.37ZM194.873 47.776C195.533 47.776 196.103 47.632 196.583 47.344C197.063 47.044 197.411 46.624 197.627 46.084V44.752H194.963C193.499 44.752 192.767 45.244 192.767 46.228C192.767 46.708 192.953 47.086 193.325 47.362C193.697 47.638 194.213 47.776 194.873 47.776ZM202.467 39.46H204.195V46.408L210.045 39.46H211.611V49H209.883V42.052L204.051 49H202.467V39.46ZM206.931 38.218C206.043 38.218 205.353 38.008 204.861 37.588C204.369 37.156 204.117 36.538 204.105 35.734H205.275C205.287 36.178 205.437 36.538 205.725 36.814C206.025 37.078 206.421 37.21 206.913 37.21C207.405 37.21 207.801 37.078 208.101 36.814C208.401 36.538 208.557 36.178 208.569 35.734H209.775C209.763 36.538 209.505 37.156 209.001 37.588C208.497 38.008 207.807 38.218 206.931 38.218ZM222.075 40.972H218.583V49H216.855V40.972H213.363V39.46H222.075V40.972ZM224.22 41.836C223.884 41.836 223.596 41.722 223.356 41.494C223.116 41.254 222.996 40.954 222.996 40.594C222.996 40.246 223.116 39.958 223.356 39.73C223.596 39.49 223.884 39.37 224.22 39.37C224.556 39.37 224.838 39.484 225.066 39.712C225.294 39.94 225.408 40.234 225.408 40.594C225.408 40.954 225.288 41.254 225.048 41.494C224.82 41.722 224.544 41.836 224.22 41.836ZM224.22 49.108C223.884 49.108 223.596 48.994 223.356 48.766C223.116 48.526 222.996 48.226 222.996 47.866C222.996 47.518 223.116 47.23 223.356 47.002C223.596 46.762 223.884 46.642 224.22 46.642C224.556 46.642 224.838 46.756 225.066 46.984C225.294 47.212 225.408 47.506 225.408 47.866C225.408 48.226 225.288 48.526 225.048 48.766C224.82 48.994 224.544 49.108 224.22 49.108Z" fill="#666666"/>
<path d="M139.64 80.055C139.171 80.055 138.72 79.989 138.287 79.857C137.862 79.7177 137.528 79.5453 137.286 79.34L137.638 78.724C137.88 78.9147 138.184 79.0723 138.551 79.197C138.918 79.3143 139.299 79.373 139.695 79.373C140.223 79.373 140.612 79.2923 140.861 79.131C141.118 78.9623 141.246 78.7277 141.246 78.427C141.246 78.2143 141.176 78.0493 141.037 77.932C140.898 77.8073 140.722 77.7157 140.509 77.657C140.296 77.591 140.014 77.5287 139.662 77.47C139.193 77.382 138.815 77.294 138.529 77.206C138.243 77.1107 137.997 76.953 137.792 76.733C137.594 76.513 137.495 76.2087 137.495 75.82C137.495 75.336 137.697 74.94 138.1 74.632C138.503 74.324 139.064 74.17 139.783 74.17C140.157 74.17 140.531 74.2213 140.905 74.324C141.279 74.4193 141.587 74.5477 141.829 74.709L141.488 75.336C141.011 75.006 140.443 74.841 139.783 74.841C139.284 74.841 138.907 74.929 138.65 75.105C138.401 75.281 138.276 75.512 138.276 75.798C138.276 76.018 138.346 76.194 138.485 76.326C138.632 76.458 138.811 76.557 139.024 76.623C139.237 76.6817 139.53 76.744 139.904 76.81C140.366 76.898 140.736 76.986 141.015 77.074C141.294 77.162 141.532 77.3123 141.73 77.525C141.928 77.7377 142.027 78.031 142.027 78.405C142.027 78.911 141.814 79.3143 141.389 79.615C140.971 79.9083 140.388 80.055 139.64 80.055ZM150.687 74.17C151.413 74.17 151.981 74.379 152.392 74.797C152.81 75.215 153.019 75.831 153.019 76.645V80H152.238V76.722C152.238 76.1207 152.091 75.6623 151.798 75.347C151.512 75.0317 151.105 74.874 150.577 74.874C149.976 74.874 149.503 75.061 149.158 75.435C148.813 75.8017 148.641 76.3113 148.641 76.964V80H147.86V76.722C147.86 76.1207 147.713 75.6623 147.42 75.347C147.134 75.0317 146.723 74.874 146.188 74.874C145.594 74.874 145.121 75.061 144.769 75.435C144.424 75.8017 144.252 76.3113 144.252 76.964V80H143.471V74.214H144.219V75.27C144.424 74.918 144.71 74.6467 145.077 74.456C145.444 74.2653 145.865 74.17 146.342 74.17C146.826 74.17 147.244 74.2727 147.596 74.478C147.955 74.6833 148.223 74.9877 148.399 75.391C148.612 75.0097 148.916 74.7127 149.312 74.5C149.715 74.28 150.174 74.17 150.687 74.17ZM157.161 74.17C157.916 74.17 158.496 74.3607 158.899 74.742C159.302 75.116 159.504 75.6733 159.504 76.414V80H158.756V79.098C158.58 79.3987 158.32 79.6333 157.975 79.802C157.638 79.9707 157.234 80.055 156.765 80.055C156.12 80.055 155.606 79.901 155.225 79.593C154.844 79.285 154.653 78.878 154.653 78.372C154.653 77.8807 154.829 77.4847 155.181 77.184C155.54 76.8833 156.109 76.733 156.886 76.733H158.723V76.381C158.723 75.8823 158.584 75.5047 158.305 75.248C158.026 74.984 157.619 74.852 157.084 74.852C156.717 74.852 156.365 74.9143 156.028 75.039C155.691 75.1563 155.401 75.3213 155.159 75.534L154.807 74.951C155.1 74.7017 155.452 74.511 155.863 74.379C156.274 74.2397 156.706 74.17 157.161 74.17ZM156.886 79.439C157.326 79.439 157.704 79.34 158.019 79.142C158.334 78.9367 158.569 78.6433 158.723 78.262V77.316H156.908C155.918 77.316 155.423 77.6607 155.423 78.35C155.423 78.6873 155.551 78.955 155.808 79.153C156.065 79.3437 156.424 79.439 156.886 79.439ZM162.373 75.347C162.556 74.9583 162.828 74.665 163.187 74.467C163.554 74.269 164.005 74.17 164.54 74.17V74.929L164.353 74.918C163.744 74.918 163.268 75.105 162.923 75.479C162.578 75.853 162.406 76.3773 162.406 77.052V80H161.625V74.214H162.373V75.347ZM169.248 79.648C169.102 79.78 168.918 79.8827 168.698 79.956C168.486 80.022 168.262 80.055 168.027 80.055C167.485 80.055 167.067 79.9083 166.773 79.615C166.48 79.3217 166.333 78.9073 166.333 78.372V74.874H165.299V74.214H166.333V72.949H167.114V74.214H168.874V74.874H167.114V78.328C167.114 78.6727 167.199 78.9367 167.367 79.12C167.543 79.296 167.793 79.384 168.115 79.384C168.277 79.384 168.431 79.3583 168.577 79.307C168.731 79.2557 168.863 79.1823 168.973 79.087L169.248 79.648ZM172.694 74.17C173.449 74.17 174.029 74.3607 174.432 74.742C174.835 75.116 175.037 75.6733 175.037 76.414V80H174.289V79.098C174.113 79.3987 173.853 79.6333 173.508 79.802C173.171 79.9707 172.767 80.055 172.298 80.055C171.653 80.055 171.139 79.901 170.758 79.593C170.377 79.285 170.186 78.878 170.186 78.372C170.186 77.8807 170.362 77.4847 170.714 77.184C171.073 76.8833 171.642 76.733 172.419 76.733H174.256V76.381C174.256 75.8823 174.117 75.5047 173.838 75.248C173.559 74.984 173.152 74.852 172.617 74.852C172.25 74.852 171.898 74.9143 171.561 75.039C171.224 75.1563 170.934 75.3213 170.692 75.534L170.34 74.951C170.633 74.7017 170.985 74.511 171.396 74.379C171.807 74.2397 172.239 74.17 172.694 74.17ZM172.419 79.439C172.859 79.439 173.237 79.34 173.552 79.142C173.867 78.9367 174.102 78.6433 174.256 78.262V77.316H172.441C171.451 77.316 170.956 77.6607 170.956 78.35C170.956 78.6873 171.084 78.955 171.341 79.153C171.598 79.3437 171.957 79.439 172.419 79.439ZM179.578 80.055C179.006 80.055 178.492 79.9303 178.038 79.681C177.59 79.4317 177.238 79.0833 176.982 78.636C176.725 78.1813 176.597 77.6717 176.597 77.107C176.597 76.5423 176.725 76.0363 176.982 75.589C177.238 75.1417 177.59 74.7933 178.038 74.544C178.492 74.2947 179.006 74.17 179.578 74.17C180.076 74.17 180.52 74.269 180.909 74.467C181.305 74.6577 181.616 74.94 181.844 75.314L181.261 75.71C181.07 75.424 180.828 75.2113 180.535 75.072C180.241 74.9253 179.922 74.852 179.578 74.852C179.16 74.852 178.782 74.9473 178.445 75.138C178.115 75.3213 177.854 75.5853 177.664 75.93C177.48 76.2747 177.389 76.667 177.389 77.107C177.389 77.5543 177.48 77.9503 177.664 78.295C177.854 78.6323 178.115 78.8963 178.445 79.087C178.782 79.2703 179.16 79.362 179.578 79.362C179.922 79.362 180.241 79.2923 180.535 79.153C180.828 79.0137 181.07 78.801 181.261 78.515L181.844 78.911C181.616 79.285 181.305 79.571 180.909 79.769C180.513 79.9597 180.069 80.055 179.578 80.055ZM185.402 74.17C186.157 74.17 186.737 74.3607 187.14 74.742C187.543 75.116 187.745 75.6733 187.745 76.414V80H186.997V79.098C186.821 79.3987 186.561 79.6333 186.216 79.802C185.879 79.9707 185.475 80.055 185.006 80.055C184.361 80.055 183.847 79.901 183.466 79.593C183.085 79.285 182.894 78.878 182.894 78.372C182.894 77.8807 183.07 77.4847 183.422 77.184C183.781 76.8833 184.35 76.733 185.127 76.733H186.964V76.381C186.964 75.8823 186.825 75.5047 186.546 75.248C186.267 74.984 185.86 74.852 185.325 74.852C184.958 74.852 184.606 74.9143 184.269 75.039C183.932 75.1563 183.642 75.3213 183.4 75.534L183.048 74.951C183.341 74.7017 183.693 74.511 184.104 74.379C184.515 74.2397 184.947 74.17 185.402 74.17ZM185.127 79.439C185.567 79.439 185.945 79.34 186.26 79.142C186.575 78.9367 186.81 78.6433 186.964 78.262V77.316H185.149C184.159 77.316 183.664 77.6607 183.664 78.35C183.664 78.6873 183.792 78.955 184.049 79.153C184.306 79.3437 184.665 79.439 185.127 79.439ZM195.168 71.838V80H194.42V78.856C194.185 79.2447 193.873 79.5417 193.485 79.747C193.103 79.9523 192.671 80.055 192.187 80.055C191.644 80.055 191.153 79.9303 190.713 79.681C190.273 79.4317 189.928 79.0833 189.679 78.636C189.429 78.1887 189.305 77.679 189.305 77.107C189.305 76.535 189.429 76.0253 189.679 75.578C189.928 75.1307 190.273 74.786 190.713 74.544C191.153 74.2947 191.644 74.17 192.187 74.17C192.656 74.17 193.078 74.269 193.452 74.467C193.833 74.6577 194.145 74.94 194.387 75.314V71.838H195.168ZM192.253 79.362C192.656 79.362 193.019 79.2703 193.342 79.087C193.672 78.8963 193.928 78.6287 194.112 78.284C194.302 77.9393 194.398 77.547 194.398 77.107C194.398 76.667 194.302 76.2747 194.112 75.93C193.928 75.5853 193.672 75.3213 193.342 75.138C193.019 74.9473 192.656 74.852 192.253 74.852C191.842 74.852 191.472 74.9473 191.142 75.138C190.819 75.3213 190.562 75.5853 190.372 75.93C190.188 76.2747 190.097 76.667 190.097 77.107C190.097 77.547 190.188 77.9393 190.372 78.284C190.562 78.6287 190.819 78.8963 191.142 79.087C191.472 79.2703 191.842 79.362 192.253 79.362ZM202.381 77.349H197.541C197.585 77.9503 197.816 78.438 198.234 78.812C198.652 79.1787 199.18 79.362 199.818 79.362C200.177 79.362 200.507 79.2997 200.808 79.175C201.109 79.043 201.369 78.8523 201.589 78.603L202.029 79.109C201.772 79.417 201.45 79.6517 201.061 79.813C200.68 79.9743 200.258 80.055 199.796 80.055C199.202 80.055 198.674 79.9303 198.212 79.681C197.757 79.4243 197.402 79.0723 197.145 78.625C196.888 78.1777 196.76 77.6717 196.76 77.107C196.76 76.5423 196.881 76.0363 197.123 75.589C197.372 75.1417 197.71 74.7933 198.135 74.544C198.568 74.2947 199.052 74.17 199.587 74.17C200.122 74.17 200.603 74.2947 201.028 74.544C201.453 74.7933 201.787 75.1417 202.029 75.589C202.271 76.029 202.392 76.535 202.392 77.107L202.381 77.349ZM199.587 74.841C199.03 74.841 198.56 75.0207 198.179 75.38C197.805 75.732 197.592 76.194 197.541 76.766H201.644C201.593 76.194 201.376 75.732 200.995 75.38C200.621 75.0207 200.152 74.841 199.587 74.841ZM211.198 74.17C211.924 74.17 212.492 74.379 212.903 74.797C213.321 75.215 213.53 75.831 213.53 76.645V80H212.749V76.722C212.749 76.1207 212.602 75.6623 212.309 75.347C212.023 75.0317 211.616 74.874 211.088 74.874C210.486 74.874 210.013 75.061 209.669 75.435C209.324 75.8017 209.152 76.3113 209.152 76.964V80H208.371V76.722C208.371 76.1207 208.224 75.6623 207.931 75.347C207.645 75.0317 207.234 74.874 206.699 74.874C206.105 74.874 205.632 75.061 205.28 75.435C204.935 75.8017 204.763 76.3113 204.763 76.964V80H203.982V74.214H204.73V75.27C204.935 74.918 205.221 74.6467 205.588 74.456C205.954 74.2653 206.376 74.17 206.853 74.17C207.337 74.17 207.755 74.2727 208.107 74.478C208.466 74.6833 208.734 74.9877 208.91 75.391C209.122 75.0097 209.427 74.7127 209.823 74.5C210.226 74.28 210.684 74.17 211.198 74.17ZM220.402 74.214L217.509 80.693C217.275 81.2357 217.003 81.6207 216.695 81.848C216.387 82.0753 216.017 82.189 215.584 82.189C215.306 82.189 215.045 82.145 214.803 82.057C214.561 81.969 214.352 81.837 214.176 81.661L214.539 81.078C214.833 81.3713 215.185 81.518 215.595 81.518C215.859 81.518 216.083 81.4447 216.266 81.298C216.457 81.1513 216.633 80.902 216.794 80.55L217.047 79.989L214.462 74.214H215.276L217.454 79.131L219.632 74.214H220.402ZM221.203 80.055C221.042 80.055 220.902 79.9963 220.785 79.879C220.675 79.7617 220.62 79.6187 220.62 79.45C220.62 79.2813 220.675 79.142 220.785 79.032C220.902 78.9147 221.042 78.856 221.203 78.856C221.364 78.856 221.504 78.9147 221.621 79.032C221.738 79.142 221.797 79.2813 221.797 79.45C221.797 79.6187 221.738 79.7617 221.621 79.879C221.504 79.9963 221.364 80.055 221.203 80.055ZM228.51 74.214V80H227.762V78.944C227.557 79.296 227.274 79.571 226.915 79.769C226.556 79.9597 226.145 80.055 225.683 80.055C224.928 80.055 224.33 79.846 223.89 79.428C223.457 79.0027 223.241 78.383 223.241 77.569V74.214H224.022V77.492C224.022 78.1007 224.172 78.5627 224.473 78.878C224.774 79.1933 225.203 79.351 225.76 79.351C226.369 79.351 226.849 79.1677 227.201 78.801C227.553 78.427 227.729 77.91 227.729 77.25V74.214H228.51ZM234.778 79.351V80H230.07V79.483L233.711 74.874H230.136V74.214H234.712V74.731L231.071 79.351H234.778Z" fill="#666666"/>
<path d="M64.02 121.04C96.6158 121.04 123.04 94.6158 123.04 62.02C123.04 29.4241 96.6158 3 64.02 3C31.4241 3 5 29.4241 5 62.02C5 94.6158 31.4241 121.04 64.02 121.04Z" fill="white"/>
<path d="M64.02 108C89.4141 108 110 87.4141 110 62.02C110 36.626 89.4141 16.04 64.02 16.04C38.626 16.04 18.04 36.626 18.04 62.02C18.04 87.4141 38.626 108 64.02 108Z" fill="#FF9600"/>
<g style="mix-blend-mode:soft-light" opacity="0.3">
<path d="M64.0205 16.04C76.2205 16.04 87.9208 20.8864 96.5474 29.5131C105.174 38.1398 110.021 49.8401 110.021 62.04C110.021 74.24 105.174 85.9403 96.5474 94.567C87.9208 103.194 76.2205 108.04 64.0205 108.04" fill="black"/>
</g>
<path d="M136.76 62.02H280.8" stroke="#666666" stroke-width="0.75" stroke-miterlimit="10"/>
<path d="M52.9303 50.93C54.1103 41.99 56.7503 34.41 60.7803 31.75C53.8795 32.5072 47.4433 35.5952 42.5344 40.5041C37.6255 45.413 34.5375 51.8492 33.7803 58.75C36.4103 54.79 43.9903 52.11 52.9303 50.93Z" fill="white"/>
<path d="M75.1198 50.9301C84.0598 52.1101 91.6398 54.75 94.2998 58.78C93.5426 51.8792 90.4546 45.4431 85.5457 40.5342C80.6368 35.6253 74.2006 32.5373 67.2998 31.78C71.2998 34.41 73.9398 41.9901 75.1198 50.9301Z" fill="white"/>
<path d="M94.3005 65.27C91.6405 69.27 84.0605 71.9401 75.1205 73.1201C73.9405 82.0601 71.3005 89.64 67.2705 92.3C74.1812 91.548 80.6279 88.4585 85.5434 83.543C90.4589 78.6275 93.5484 72.1808 94.3005 65.27V65.27Z" fill="white"/>
<path d="M52.93 73.1201C43.99 71.9401 36.41 69.3 33.75 65.27C34.5072 72.1708 37.5952 78.607 42.5041 83.5159C47.413 88.4248 53.8492 91.5128 60.75 92.27C56.75 89.64 54.11 82.0601 52.93 73.1201Z" fill="white"/>
<path d="M71.4003 69.4001C71.6003 67.1201 71.7203 64.6801 71.7203 62.0301C71.7203 59.3801 71.6003 56.9301 71.4003 54.6501C69.1203 54.4501 66.6803 54.3301 64.0203 54.3301C61.3603 54.3301 58.9203 54.4501 56.6403 54.6501C56.4403 56.9301 56.3203 59.3701 56.3203 62.0301C56.3203 64.6901 56.4403 67.1301 56.6403 69.4001C58.9203 69.6001 61.3603 69.7201 64.0203 69.7201C66.6803 69.7201 69.1203 69.6001 71.4003 69.4001Z" fill="white"/>
<path d="M36.8301 62.0201C36.8301 64.0201 42.1701 67.4001 52.4901 68.9201C52.3101 66.6501 52.2201 64.3301 52.2201 62.0201C52.2201 59.7101 52.3101 57.3901 52.4901 55.1201C42.1701 56.6401 36.8301 59.9901 36.8301 62.0201Z" fill="white"/>
<path d="M70.9299 50.4901C69.4099 40.1801 66.0599 34.8301 64.0299 34.8301C61.9999 34.8301 58.6499 40.1701 57.1299 50.4901C59.3999 50.3101 61.7199 50.2201 64.0299 50.2201C66.3399 50.2201 68.6199 50.3101 70.9299 50.4901Z" fill="white"/>
<path d="M64.0201 73.79C61.7101 73.79 59.3901 73.7 57.1201 73.52C58.6401 83.84 61.9901 89.1801 64.0201 89.1801C66.0501 89.1801 69.4001 83.84 70.9201 73.52C68.6201 73.74 66.3401 73.79 64.0201 73.79Z" fill="white"/>
<path d="M75.5605 68.9301C85.8705 67.4101 91.2206 64.0601 91.2206 62.0301C91.2206 60.0001 85.8805 56.6501 75.5605 55.1301C75.7405 57.4001 75.8305 59.7201 75.8305 62.0301C75.8305 64.3401 75.7405 66.6601 75.5605 68.9301Z" fill="white"/>
</g>
<defs>
<filter id="filter0_d" x="0" y="0" width="348" height="132.04" filterUnits="userSpaceOnUse" color-interpolation-filters="sRGB">
<feFlood flood-opacity="0" result="BackgroundImageFix"/>
<feColorMatrix in="SourceAlpha" type="matrix" values="0 0 0 0 0 0 0 0 0 0 0 0 0 0 0 0 0 0 127 0"/>
<feOffset dx="2" dy="4"/>
<feGaussianBlur stdDeviation="3.5"/>
<feColorMatrix type="matrix" values="0 0 0 0 0.6 0 0 0 0 0.6 0 0 0 0 0.6 0 0 0 0.5 0"/>
<feBlend mode="normal" in2="BackgroundImageFix" result="effect1_dropShadow"/>
<feBlend mode="normal" in="SourceGraphic" in2="effect1_dropShadow" result="shape"/>
</filter>
</defs>
</svg>
